<?xml version="1.0" encoding="UTF-8" standalone="no"?>
<svg
   xmlns:dc="http://purl.org/dc/elements/1.1/"
   xmlns:cc="http://creativecommons.org/ns#"
   xmlns:rdf="http://www.w3.org/1999/02/22-rdf-syntax-ns#"
   xmlns:svg="http://www.w3.org/2000/svg"
   xmlns="http://www.w3.org/2000/svg"
   xmlns:xlink="http://www.w3.org/1999/xlink"
   xmlns:sodipodi="http://sodipodi.sourceforge.net/DTD/sodipodi-0.dtd"
   xmlns:inkscape="http://www.inkscape.org/namespaces/inkscape"
   sodipodi:docname="Cobwebbing.svg"
   inkscape:version="1.0 (4035a4fb49, 2020-05-01)"
   id="svg8"
   version="1.1"
   viewBox="0 0 210 297"
   height="297mm"
   width="210mm"
   inkscape:export-filename="C:\Users\smatw1\Dropbox\Math_bio_course\Pictures\Cobwebbing.png"
   inkscape:export-xdpi="300"
   inkscape:export-ydpi="300">
  <defs
     id="defs2">
    <marker
       inkscape:isstock="true"
       style="overflow:visible;"
       id="Arrow1Lend"
       refX="0.0"
       refY="0.0"
       orient="auto"
       inkscape:stockid="Arrow1Lend">
      <path
         transform="scale(0.8) rotate(180) translate(12.5,0)"
         style="fill-rule:evenodd;stroke:#000000;stroke-width:1pt;stroke-opacity:1;fill:#000000;fill-opacity:1"
         d="M 0.0,0.0 L 5.0,-5.0 L -12.5,0.0 L 5.0,5.0 L 0.0,0.0 z "
         id="path3651" />
    </marker>
    <marker
       inkscape:stockid="Arrow1Lstart"
       orient="auto"
       refY="0.0"
       refX="0.0"
       id="marker4202"
       style="overflow:visible"
       inkscape:isstock="true">
      <path
         id="path4200"
         d="M 0.0,0.0 L 5.0,-5.0 L -12.5,0.0 L 5.0,5.0 L 0.0,0.0 z "
         style="fill-rule:evenodd;stroke:#000000;stroke-width:1pt;stroke-opacity:1;fill:#000000;fill-opacity:1"
         transform="scale(0.8) translate(12.5,0)" />
    </marker>
    <marker
       inkscape:isstock="true"
       style="overflow:visible;"
       id="marker4008"
       refX="0.0"
       refY="0.0"
       orient="auto"
       inkscape:stockid="Arrow1Lend">
      <path
         transform="scale(0.8) rotate(180) translate(12.5,0)"
         style="fill-rule:evenodd;stroke:#000000;stroke-width:1pt;stroke-opacity:1;fill:#000000;fill-opacity:1"
         d="M 0.0,0.0 L 5.0,-5.0 L -12.5,0.0 L 5.0,5.0 L 0.0,0.0 z "
         id="path4006" />
    </marker>
    <marker
       inkscape:isstock="true"
       style="overflow:visible;"
       id="marker3992"
       refX="0.0"
       refY="0.0"
       orient="auto"
       inkscape:stockid="Arrow1Lend">
      <path
         transform="scale(0.8) rotate(180) translate(12.5,0)"
         style="fill-rule:evenodd;stroke:#000000;stroke-width:1pt;stroke-opacity:1;fill:#000000;fill-opacity:1"
         d="M 0.0,0.0 L 5.0,-5.0 L -12.5,0.0 L 5.0,5.0 L 0.0,0.0 z "
         id="path3990" />
    </marker>
    <marker
       inkscape:isstock="true"
       style="overflow:visible;"
       id="marker3982"
       refX="0.0"
       refY="0.0"
       orient="auto"
       inkscape:stockid="Arrow1Lend">
      <path
         transform="scale(0.8) rotate(180) translate(12.5,0)"
         style="fill-rule:evenodd;stroke:#000000;stroke-width:1pt;stroke-opacity:1;fill:#000000;fill-opacity:1"
         d="M 0.0,0.0 L 5.0,-5.0 L -12.5,0.0 L 5.0,5.0 L 0.0,0.0 z "
         id="path3980" />
    </marker>
    <marker
       inkscape:stockid="Arrow1Lend"
       orient="auto"
       refY="0.0"
       refX="0.0"
       id="marker3920"
       style="overflow:visible;"
       inkscape:isstock="true">
      <path
         id="path3918"
         d="M 0.0,0.0 L 5.0,-5.0 L -12.5,0.0 L 5.0,5.0 L 0.0,0.0 z "
         style="fill-rule:evenodd;stroke:#000000;stroke-width:1pt;stroke-opacity:1;fill:#000000;fill-opacity:1"
         transform="scale(0.8) rotate(180) translate(12.5,0)" />
    </marker>
    <g
       id="g3011">
      <symbol
         id="symbol3910"
         overflow="visible">
        <path
           id="path9424"
           d=""
           style="stroke:none;" />
      </symbol>
      <symbol
         id="symbol7773"
         overflow="visible">
        <path
           id="path6976"
           d="M 7.0625 -2.328125 C 7.078125 -2.375 7.109375 -2.4375 7.109375 -2.46875 C 7.109375 -2.46875 7.109375 -2.578125 6.984375 -2.578125 C 6.890625 -2.578125 6.875 -2.515625 6.859375 -2.453125 C 6.203125 -0.984375 5.84375 -0.3125 4.140625 -0.3125 L 2.6875 -0.3125 C 2.546875 -0.3125 2.515625 -0.3125 2.46875 -0.3125 C 2.359375 -0.328125 2.328125 -0.34375 2.328125 -0.421875 C 2.328125 -0.453125 2.328125 -0.46875 2.375 -0.640625 L 3.0625 -3.375 L 4.046875 -3.375 C 4.890625 -3.375 4.890625 -3.15625 4.890625 -2.90625 C 4.890625 -2.84375 4.890625 -2.71875 4.828125 -2.421875 C 4.8125 -2.375 4.796875 -2.34375 4.796875 -2.3125 C 4.796875 -2.265625 4.828125 -2.203125 4.921875 -2.203125 C 5 -2.203125 5.03125 -2.25 5.078125 -2.40625 L 5.640625 -4.734375 C 5.640625 -4.796875 5.59375 -4.84375 5.515625 -4.84375 C 5.4375 -4.84375 5.40625 -4.78125 5.390625 -4.671875 C 5.171875 -3.90625 5 -3.671875 4.078125 -3.671875 L 3.140625 -3.671875 L 3.734375 -6.078125 C 3.828125 -6.4375 3.84375 -6.46875 4.28125 -6.46875 L 5.6875 -6.46875 C 6.890625 -6.46875 7.203125 -6.1875 7.203125 -5.359375 C 7.203125 -5.125 7.203125 -5.109375 7.15625 -4.828125 C 7.15625 -4.78125 7.140625 -4.703125 7.140625 -4.65625 C 7.140625 -4.609375 7.171875 -4.53125 7.265625 -4.53125 C 7.375 -4.53125 7.390625 -4.59375 7.40625 -4.78125 L 7.609375 -6.515625 C 7.640625 -6.78125 7.59375 -6.78125 7.34375 -6.78125 L 2.296875 -6.78125 C 2.109375 -6.78125 2 -6.78125 2 -6.578125 C 2 -6.46875 2.09375 -6.46875 2.28125 -6.46875 C 2.65625 -6.46875 2.9375 -6.46875 2.9375 -6.296875 C 2.9375 -6.25 2.9375 -6.234375 2.875 -6.046875 L 1.5625 -0.78125 C 1.46875 -0.390625 1.453125 -0.3125 0.65625 -0.3125 C 0.484375 -0.3125 0.375 -0.3125 0.375 -0.125 C 0.375 0 0.46875 0 0.65625 0 L 5.828125 0 C 6.0625 0 6.078125 -0.015625 6.140625 -0.171875 Z M 7.0625 -2.328125 "
           style="stroke:none;" />
      </symbol>
      <symbol
         id="symbol2264"
         overflow="visible">
        <path
           id="path2991"
           d=""
           style="stroke:none;" />
      </symbol>
      <symbol
         id="symbol7656"
         overflow="visible">
        <path
           id="path9581"
           d="M 6.84375 -3.265625 C 7 -3.265625 7.1875 -3.265625 7.1875 -3.453125 C 7.1875 -3.65625 7 -3.65625 6.859375 -3.65625 L 0.890625 -3.65625 C 0.75 -3.65625 0.5625 -3.65625 0.5625 -3.453125 C 0.5625 -3.265625 0.75 -3.265625 0.890625 -3.265625 Z M 6.859375 -1.328125 C 7 -1.328125 7.1875 -1.328125 7.1875 -1.53125 C 7.1875 -1.71875 7 -1.71875 6.84375 -1.71875 L 0.890625 -1.71875 C 0.75 -1.71875 0.5625 -1.71875 0.5625 -1.53125 C 0.5625 -1.328125 0.75 -1.328125 0.890625 -1.328125 Z M 6.859375 -1.328125 "
           style="stroke:none;" />
      </symbol>
      <symbol
         id="symbol3021"
         overflow="visible">
        <path
           id="path1134"
           d=""
           style="stroke:none;" />
      </symbol>
      <symbol
         id="symbol5007"
         overflow="visible">
        <path
           id="path8741"
           d="M 7.109375 -4.1875 C 7.171875 -4.453125 7.1875 -4.515625 7.703125 -4.515625 C 7.859375 -4.515625 7.9375 -4.515625 7.9375 -4.65625 C 7.9375 -4.765625 7.859375 -4.765625 7.734375 -4.765625 L 6.78125 -4.765625 C 6.578125 -4.765625 6.578125 -4.75 6.484375 -4.625 L 3.796875 -0.640625 L 3.109375 -4.578125 C 3.078125 -4.75 3.078125 -4.765625 2.859375 -4.765625 L 1.875 -4.765625 C 1.734375 -4.765625 1.640625 -4.765625 1.640625 -4.609375 C 1.640625 -4.515625 1.71875 -4.515625 1.875 -4.515625 C 1.984375 -4.515625 2.015625 -4.515625 2.140625 -4.5 C 2.28125 -4.484375 2.296875 -4.46875 2.296875 -4.390625 C 2.296875 -4.390625 2.296875 -4.34375 2.265625 -4.25 L 1.390625 -0.75 C 1.328125 -0.515625 1.21875 -0.265625 0.65625 -0.25 C 0.609375 -0.25 0.515625 -0.25 0.515625 -0.09375 C 0.515625 -0.09375 0.515625 0 0.625 0 C 0.828125 0 1.125 -0.03125 1.34375 -0.03125 C 1.515625 -0.03125 1.921875 0 2.078125 0 C 2.125 0 2.21875 0 2.21875 -0.15625 C 2.21875 -0.25 2.125 -0.25 2.0625 -0.25 C 1.625 -0.265625 1.625 -0.453125 1.625 -0.546875 C 1.625 -0.578125 1.625 -0.609375 1.65625 -0.71875 L 2.578125 -4.421875 L 3.328125 -0.1875 C 3.359375 -0.0625 3.359375 0 3.46875 0 C 3.5625 0 3.625 -0.078125 3.671875 -0.15625 L 6.59375 -4.5 L 6.609375 -4.484375 L 5.625 -0.546875 C 5.5625 -0.3125 5.546875 -0.25 5.015625 -0.25 C 4.890625 -0.25 4.796875 -0.25 4.796875 -0.09375 C 4.796875 -0.09375 4.796875 0 4.90625 0 C 5.046875 0 5.203125 -0.015625 5.34375 -0.015625 C 5.484375 -0.015625 5.640625 -0.03125 5.78125 -0.03125 C 5.984375 -0.03125 6.46875 0 6.671875 0 C 6.703125 0 6.8125 0 6.8125 -0.15625 C 6.8125 -0.25 6.734375 -0.25 6.59375 -0.25 C 6.578125 -0.25 6.453125 -0.25 6.328125 -0.265625 C 6.171875 -0.28125 6.171875 -0.296875 6.171875 -0.375 C 6.171875 -0.40625 6.1875 -0.484375 6.1875 -0.515625 Z M 7.109375 -4.1875 "
           style="stroke:none;" />
      </symbol>
    </g>
    <g
       id="g1520">
      <symbol
         id="symbol4343"
         overflow="visible">
        <path
           id="path5125"
           d=""
           style="stroke:none;" />
      </symbol>
      <symbol
         id="symbol5728"
         overflow="visible">
        <path
           id="path2798"
           d="M 7.0625 -2.328125 C 7.078125 -2.375 7.109375 -2.4375 7.109375 -2.46875 C 7.109375 -2.46875 7.109375 -2.578125 6.984375 -2.578125 C 6.890625 -2.578125 6.875 -2.515625 6.859375 -2.453125 C 6.203125 -0.984375 5.84375 -0.3125 4.140625 -0.3125 L 2.6875 -0.3125 C 2.546875 -0.3125 2.515625 -0.3125 2.46875 -0.3125 C 2.359375 -0.328125 2.328125 -0.34375 2.328125 -0.421875 C 2.328125 -0.453125 2.328125 -0.46875 2.375 -0.640625 L 3.0625 -3.375 L 4.046875 -3.375 C 4.890625 -3.375 4.890625 -3.15625 4.890625 -2.90625 C 4.890625 -2.84375 4.890625 -2.71875 4.828125 -2.421875 C 4.8125 -2.375 4.796875 -2.34375 4.796875 -2.3125 C 4.796875 -2.265625 4.828125 -2.203125 4.921875 -2.203125 C 5 -2.203125 5.03125 -2.25 5.078125 -2.40625 L 5.640625 -4.734375 C 5.640625 -4.796875 5.59375 -4.84375 5.515625 -4.84375 C 5.4375 -4.84375 5.40625 -4.78125 5.390625 -4.671875 C 5.171875 -3.90625 5 -3.671875 4.078125 -3.671875 L 3.140625 -3.671875 L 3.734375 -6.078125 C 3.828125 -6.4375 3.84375 -6.46875 4.28125 -6.46875 L 5.6875 -6.46875 C 6.890625 -6.46875 7.203125 -6.1875 7.203125 -5.359375 C 7.203125 -5.125 7.203125 -5.109375 7.15625 -4.828125 C 7.15625 -4.78125 7.140625 -4.703125 7.140625 -4.65625 C 7.140625 -4.609375 7.171875 -4.53125 7.265625 -4.53125 C 7.375 -4.53125 7.390625 -4.59375 7.40625 -4.78125 L 7.609375 -6.515625 C 7.640625 -6.78125 7.59375 -6.78125 7.34375 -6.78125 L 2.296875 -6.78125 C 2.109375 -6.78125 2 -6.78125 2 -6.578125 C 2 -6.46875 2.09375 -6.46875 2.28125 -6.46875 C 2.65625 -6.46875 2.9375 -6.46875 2.9375 -6.296875 C 2.9375 -6.25 2.9375 -6.234375 2.875 -6.046875 L 1.5625 -0.78125 C 1.46875 -0.390625 1.453125 -0.3125 0.65625 -0.3125 C 0.484375 -0.3125 0.375 -0.3125 0.375 -0.125 C 0.375 0 0.46875 0 0.65625 0 L 5.828125 0 C 6.0625 0 6.078125 -0.015625 6.140625 -0.171875 Z M 7.0625 -2.328125 "
           style="stroke:none;" />
      </symbol>
      <symbol
         id="symbol7587"
         overflow="visible">
        <path
           id="path155"
           d="M 6.734375 -4.96875 C 6.84375 -5.03125 6.921875 -5.078125 6.921875 -5.1875 C 6.921875 -5.296875 6.828125 -5.390625 6.71875 -5.390625 C 6.6875 -5.390625 6.671875 -5.390625 6.546875 -5.3125 L 1.015625 -2.71875 C 0.90625 -2.65625 0.828125 -2.609375 0.828125 -2.5 C 0.828125 -2.375 0.90625 -2.328125 1.015625 -2.265625 L 6.546875 0.328125 C 6.671875 0.40625 6.6875 0.40625 6.71875 0.40625 C 6.828125 0.40625 6.921875 0.3125 6.921875 0.203125 C 6.921875 0.09375 6.84375 0.046875 6.734375 -0.015625 L 1.5 -2.5 Z M 6.734375 -4.96875 "
           style="stroke:none;" />
      </symbol>
      <symbol
         id="symbol9871"
         overflow="visible">
        <path
           id="path6465"
           d=""
           style="stroke:none;" />
      </symbol>
      <symbol
         id="symbol6805"
         overflow="visible">
        <path
           id="path4573"
           d="M 7.109375 -4.1875 C 7.171875 -4.453125 7.1875 -4.515625 7.703125 -4.515625 C 7.859375 -4.515625 7.9375 -4.515625 7.9375 -4.65625 C 7.9375 -4.765625 7.859375 -4.765625 7.734375 -4.765625 L 6.78125 -4.765625 C 6.578125 -4.765625 6.578125 -4.75 6.484375 -4.625 L 3.796875 -0.640625 L 3.109375 -4.578125 C 3.078125 -4.75 3.078125 -4.765625 2.859375 -4.765625 L 1.875 -4.765625 C 1.734375 -4.765625 1.640625 -4.765625 1.640625 -4.609375 C 1.640625 -4.515625 1.71875 -4.515625 1.875 -4.515625 C 1.984375 -4.515625 2.015625 -4.515625 2.140625 -4.5 C 2.28125 -4.484375 2.296875 -4.46875 2.296875 -4.390625 C 2.296875 -4.390625 2.296875 -4.34375 2.265625 -4.25 L 1.390625 -0.75 C 1.328125 -0.515625 1.21875 -0.265625 0.65625 -0.25 C 0.609375 -0.25 0.515625 -0.25 0.515625 -0.09375 C 0.515625 -0.09375 0.515625 0 0.625 0 C 0.828125 0 1.125 -0.03125 1.34375 -0.03125 C 1.515625 -0.03125 1.921875 0 2.078125 0 C 2.125 0 2.21875 0 2.21875 -0.15625 C 2.21875 -0.25 2.125 -0.25 2.0625 -0.25 C 1.625 -0.265625 1.625 -0.453125 1.625 -0.546875 C 1.625 -0.578125 1.625 -0.609375 1.65625 -0.71875 L 2.578125 -4.421875 L 3.328125 -0.1875 C 3.359375 -0.0625 3.359375 0 3.46875 0 C 3.5625 0 3.625 -0.078125 3.671875 -0.15625 L 6.59375 -4.5 L 6.609375 -4.484375 L 5.625 -0.546875 C 5.5625 -0.3125 5.546875 -0.25 5.015625 -0.25 C 4.890625 -0.25 4.796875 -0.25 4.796875 -0.09375 C 4.796875 -0.09375 4.796875 0 4.90625 0 C 5.046875 0 5.203125 -0.015625 5.34375 -0.015625 C 5.484375 -0.015625 5.640625 -0.03125 5.78125 -0.03125 C 5.984375 -0.03125 6.46875 0 6.671875 0 C 6.703125 0 6.8125 0 6.8125 -0.15625 C 6.8125 -0.25 6.734375 -0.25 6.59375 -0.25 C 6.578125 -0.25 6.453125 -0.25 6.328125 -0.265625 C 6.171875 -0.28125 6.171875 -0.296875 6.171875 -0.375 C 6.171875 -0.40625 6.1875 -0.484375 6.1875 -0.515625 Z M 7.109375 -4.1875 "
           style="stroke:none;" />
      </symbol>
    </g>
    <g
       id="g7443">
      <symbol
         id="symbol6457"
         overflow="visible">
        <path
           id="path3259"
           d=""
           style="stroke:none;" />
      </symbol>
      <symbol
         id="symbol3648"
         overflow="visible">
        <path
           id="path8989"
           d="M 7.0625 -2.328125 C 7.078125 -2.375 7.109375 -2.4375 7.109375 -2.46875 C 7.109375 -2.46875 7.109375 -2.578125 6.984375 -2.578125 C 6.890625 -2.578125 6.875 -2.515625 6.859375 -2.453125 C 6.203125 -0.984375 5.84375 -0.3125 4.140625 -0.3125 L 2.6875 -0.3125 C 2.546875 -0.3125 2.515625 -0.3125 2.46875 -0.3125 C 2.359375 -0.328125 2.328125 -0.34375 2.328125 -0.421875 C 2.328125 -0.453125 2.328125 -0.46875 2.375 -0.640625 L 3.0625 -3.375 L 4.046875 -3.375 C 4.890625 -3.375 4.890625 -3.15625 4.890625 -2.90625 C 4.890625 -2.84375 4.890625 -2.71875 4.828125 -2.421875 C 4.8125 -2.375 4.796875 -2.34375 4.796875 -2.3125 C 4.796875 -2.265625 4.828125 -2.203125 4.921875 -2.203125 C 5 -2.203125 5.03125 -2.25 5.078125 -2.40625 L 5.640625 -4.734375 C 5.640625 -4.796875 5.59375 -4.84375 5.515625 -4.84375 C 5.4375 -4.84375 5.40625 -4.78125 5.390625 -4.671875 C 5.171875 -3.90625 5 -3.671875 4.078125 -3.671875 L 3.140625 -3.671875 L 3.734375 -6.078125 C 3.828125 -6.4375 3.84375 -6.46875 4.28125 -6.46875 L 5.6875 -6.46875 C 6.890625 -6.46875 7.203125 -6.1875 7.203125 -5.359375 C 7.203125 -5.125 7.203125 -5.109375 7.15625 -4.828125 C 7.15625 -4.78125 7.140625 -4.703125 7.140625 -4.65625 C 7.140625 -4.609375 7.171875 -4.53125 7.265625 -4.53125 C 7.375 -4.53125 7.390625 -4.59375 7.40625 -4.78125 L 7.609375 -6.515625 C 7.640625 -6.78125 7.59375 -6.78125 7.34375 -6.78125 L 2.296875 -6.78125 C 2.109375 -6.78125 2 -6.78125 2 -6.578125 C 2 -6.46875 2.09375 -6.46875 2.28125 -6.46875 C 2.65625 -6.46875 2.9375 -6.46875 2.9375 -6.296875 C 2.9375 -6.25 2.9375 -6.234375 2.875 -6.046875 L 1.5625 -0.78125 C 1.46875 -0.390625 1.453125 -0.3125 0.65625 -0.3125 C 0.484375 -0.3125 0.375 -0.3125 0.375 -0.125 C 0.375 0 0.46875 0 0.65625 0 L 5.828125 0 C 6.0625 0 6.078125 -0.015625 6.140625 -0.171875 Z M 7.0625 -2.328125 "
           style="stroke:none;" />
      </symbol>
      <symbol
         id="symbol5261"
         overflow="visible">
        <path
           id="path6379"
           d="M 6.734375 -2.265625 C 6.84375 -2.328125 6.921875 -2.375 6.921875 -2.5 C 6.921875 -2.609375 6.84375 -2.65625 6.734375 -2.71875 L 1.203125 -5.3125 C 1.078125 -5.390625 1.0625 -5.390625 1.03125 -5.390625 C 0.921875 -5.390625 0.828125 -5.296875 0.828125 -5.1875 C 0.828125 -5.09375 0.875 -5.03125 1.015625 -4.96875 L 6.25 -2.5 L 1.015625 -0.015625 C 0.875 0.046875 0.828125 0.109375 0.828125 0.203125 C 0.828125 0.3125 0.921875 0.40625 1.03125 0.40625 C 1.0625 0.40625 1.078125 0.40625 1.203125 0.328125 Z M 6.734375 -2.265625 "
           style="stroke:none;" />
      </symbol>
      <symbol
         id="symbol6234"
         overflow="visible">
        <path
           id="path6122"
           d=""
           style="stroke:none;" />
      </symbol>
      <symbol
         id="symbol5760"
         overflow="visible">
        <path
           id="path404"
           d="M 7.109375 -4.1875 C 7.171875 -4.453125 7.1875 -4.515625 7.703125 -4.515625 C 7.859375 -4.515625 7.9375 -4.515625 7.9375 -4.65625 C 7.9375 -4.765625 7.859375 -4.765625 7.734375 -4.765625 L 6.78125 -4.765625 C 6.578125 -4.765625 6.578125 -4.75 6.484375 -4.625 L 3.796875 -0.640625 L 3.109375 -4.578125 C 3.078125 -4.75 3.078125 -4.765625 2.859375 -4.765625 L 1.875 -4.765625 C 1.734375 -4.765625 1.640625 -4.765625 1.640625 -4.609375 C 1.640625 -4.515625 1.71875 -4.515625 1.875 -4.515625 C 1.984375 -4.515625 2.015625 -4.515625 2.140625 -4.5 C 2.28125 -4.484375 2.296875 -4.46875 2.296875 -4.390625 C 2.296875 -4.390625 2.296875 -4.34375 2.265625 -4.25 L 1.390625 -0.75 C 1.328125 -0.515625 1.21875 -0.265625 0.65625 -0.25 C 0.609375 -0.25 0.515625 -0.25 0.515625 -0.09375 C 0.515625 -0.09375 0.515625 0 0.625 0 C 0.828125 0 1.125 -0.03125 1.34375 -0.03125 C 1.515625 -0.03125 1.921875 0 2.078125 0 C 2.125 0 2.21875 0 2.21875 -0.15625 C 2.21875 -0.25 2.125 -0.25 2.0625 -0.25 C 1.625 -0.265625 1.625 -0.453125 1.625 -0.546875 C 1.625 -0.578125 1.625 -0.609375 1.65625 -0.71875 L 2.578125 -4.421875 L 3.328125 -0.1875 C 3.359375 -0.0625 3.359375 0 3.46875 0 C 3.5625 0 3.625 -0.078125 3.671875 -0.15625 L 6.59375 -4.5 L 6.609375 -4.484375 L 5.625 -0.546875 C 5.5625 -0.3125 5.546875 -0.25 5.015625 -0.25 C 4.890625 -0.25 4.796875 -0.25 4.796875 -0.09375 C 4.796875 -0.09375 4.796875 0 4.90625 0 C 5.046875 0 5.203125 -0.015625 5.34375 -0.015625 C 5.484375 -0.015625 5.640625 -0.03125 5.78125 -0.03125 C 5.984375 -0.03125 6.46875 0 6.671875 0 C 6.703125 0 6.8125 0 6.8125 -0.15625 C 6.8125 -0.25 6.734375 -0.25 6.59375 -0.25 C 6.578125 -0.25 6.453125 -0.25 6.328125 -0.265625 C 6.171875 -0.28125 6.171875 -0.296875 6.171875 -0.375 C 6.171875 -0.40625 6.1875 -0.484375 6.1875 -0.515625 Z M 7.109375 -4.1875 "
           style="stroke:none;" />
      </symbol>
    </g>
    <g
       id="g8700">
      <symbol
         id="symbol1798"
         overflow="visible">
        <path
           id="path2977"
           d=""
           style="stroke:none;" />
      </symbol>
      <symbol
         id="symbol9717"
         overflow="visible">
        <path
           id="path7302"
           d="M 7.53125 -5.765625 C 7.640625 -6.15625 7.8125 -6.46875 8.609375 -6.5 C 8.65625 -6.5 8.78125 -6.515625 8.78125 -6.703125 C 8.78125 -6.703125 8.78125 -6.8125 8.65625 -6.8125 C 8.328125 -6.8125 7.96875 -6.78125 7.640625 -6.78125 C 7.3125 -6.78125 6.953125 -6.8125 6.625 -6.8125 C 6.5625 -6.8125 6.453125 -6.8125 6.453125 -6.609375 C 6.453125 -6.5 6.546875 -6.5 6.625 -6.5 C 7.203125 -6.484375 7.3125 -6.28125 7.3125 -6.0625 C 7.3125 -6.03125 7.28125 -5.875 7.28125 -5.859375 L 6.15625 -1.421875 L 3.953125 -6.625 C 3.875 -6.796875 3.875 -6.8125 3.640625 -6.8125 L 2.296875 -6.8125 C 2.109375 -6.8125 2.015625 -6.8125 2.015625 -6.609375 C 2.015625 -6.5 2.109375 -6.5 2.296875 -6.5 C 2.34375 -6.5 2.96875 -6.5 2.96875 -6.40625 L 1.640625 -1.0625 C 1.53125 -0.65625 1.359375 -0.34375 0.5625 -0.3125 C 0.5 -0.3125 0.390625 -0.296875 0.390625 -0.109375 C 0.390625 -0.046875 0.4375 0 0.515625 0 C 0.84375 0 1.1875 -0.03125 1.515625 -0.03125 C 1.859375 -0.03125 2.21875 0 2.546875 0 C 2.59375 0 2.71875 0 2.71875 -0.203125 C 2.71875 -0.296875 2.625 -0.3125 2.515625 -0.3125 C 1.9375 -0.328125 1.859375 -0.546875 1.859375 -0.75 C 1.859375 -0.8125 1.875 -0.875 1.90625 -0.984375 L 3.21875 -6.234375 C 3.265625 -6.1875 3.265625 -6.15625 3.3125 -6.0625 L 5.796875 -0.1875 C 5.859375 -0.015625 5.890625 0 5.984375 0 C 6.09375 0 6.09375 -0.03125 6.140625 -0.203125 Z M 7.53125 -5.765625 "
           style="stroke:none;" />
      </symbol>
      <symbol
         id="symbol2872"
         overflow="visible">
        <path
           id="path6389"
           d=""
           style="stroke:none;" />
      </symbol>
      <symbol
         id="symbol8417"
         overflow="visible">
        <path
           id="path7936"
           d="M 1.71875 -2.75 L 2.421875 -2.75 C 2.5625 -2.75 2.640625 -2.75 2.640625 -2.90625 C 2.640625 -3 2.5625 -3 2.4375 -3 L 1.78125 -3 L 2.03125 -4.03125 C 2.046875 -4.0625 2.0625 -4.109375 2.0625 -4.125 C 2.0625 -4.265625 1.953125 -4.359375 1.8125 -4.359375 C 1.640625 -4.359375 1.546875 -4.234375 1.484375 -4.0625 C 1.4375 -3.875 1.53125 -4.21875 1.21875 -3 L 0.515625 -3 C 0.390625 -3 0.296875 -3 0.296875 -2.84375 C 0.296875 -2.75 0.375 -2.75 0.5 -2.75 L 1.15625 -2.75 L 0.75 -1.109375 C 0.703125 -0.9375 0.640625 -0.6875 0.640625 -0.59375 C 0.640625 -0.1875 1 0.0625 1.390625 0.0625 C 2.171875 0.0625 2.609375 -0.90625 2.609375 -1 C 2.609375 -1.09375 2.515625 -1.09375 2.5 -1.09375 C 2.40625 -1.09375 2.40625 -1.078125 2.34375 -0.953125 C 2.15625 -0.515625 1.796875 -0.125 1.421875 -0.125 C 1.265625 -0.125 1.171875 -0.21875 1.171875 -0.46875 C 1.171875 -0.53125 1.203125 -0.6875 1.21875 -0.75 Z M 1.71875 -2.75 "
           style="stroke:none;" />
      </symbol>
    </g>
    <g
       id="g6232">
      <symbol
         id="symbol2789"
         overflow="visible">
        <path
           id="path1844"
           d=""
           style="stroke:none;" />
      </symbol>
      <symbol
         id="symbol3141"
         overflow="visible">
        <path
           id="path2054"
           d="M 7.53125 -5.765625 C 7.640625 -6.15625 7.8125 -6.46875 8.609375 -6.5 C 8.65625 -6.5 8.78125 -6.515625 8.78125 -6.703125 C 8.78125 -6.703125 8.78125 -6.8125 8.65625 -6.8125 C 8.328125 -6.8125 7.96875 -6.78125 7.640625 -6.78125 C 7.3125 -6.78125 6.953125 -6.8125 6.625 -6.8125 C 6.5625 -6.8125 6.453125 -6.8125 6.453125 -6.609375 C 6.453125 -6.5 6.546875 -6.5 6.625 -6.5 C 7.203125 -6.484375 7.3125 -6.28125 7.3125 -6.0625 C 7.3125 -6.03125 7.28125 -5.875 7.28125 -5.859375 L 6.15625 -1.421875 L 3.953125 -6.625 C 3.875 -6.796875 3.875 -6.8125 3.640625 -6.8125 L 2.296875 -6.8125 C 2.109375 -6.8125 2.015625 -6.8125 2.015625 -6.609375 C 2.015625 -6.5 2.109375 -6.5 2.296875 -6.5 C 2.34375 -6.5 2.96875 -6.5 2.96875 -6.40625 L 1.640625 -1.0625 C 1.53125 -0.65625 1.359375 -0.34375 0.5625 -0.3125 C 0.5 -0.3125 0.390625 -0.296875 0.390625 -0.109375 C 0.390625 -0.046875 0.4375 0 0.515625 0 C 0.84375 0 1.1875 -0.03125 1.515625 -0.03125 C 1.859375 -0.03125 2.21875 0 2.546875 0 C 2.59375 0 2.71875 0 2.71875 -0.203125 C 2.71875 -0.296875 2.625 -0.3125 2.515625 -0.3125 C 1.9375 -0.328125 1.859375 -0.546875 1.859375 -0.75 C 1.859375 -0.8125 1.875 -0.875 1.90625 -0.984375 L 3.21875 -6.234375 C 3.265625 -6.1875 3.265625 -6.15625 3.3125 -6.0625 L 5.796875 -0.1875 C 5.859375 -0.015625 5.890625 0 5.984375 0 C 6.09375 0 6.09375 -0.03125 6.140625 -0.203125 Z M 7.53125 -5.765625 "
           style="stroke:none;" />
      </symbol>
      <symbol
         id="symbol2163"
         overflow="visible">
        <path
           id="path5040"
           d=""
           style="stroke:none;" />
      </symbol>
      <symbol
         id="symbol1089"
         overflow="visible">
        <path
           id="path5515"
           d="M 1.71875 -2.75 L 2.421875 -2.75 C 2.5625 -2.75 2.640625 -2.75 2.640625 -2.90625 C 2.640625 -3 2.5625 -3 2.4375 -3 L 1.78125 -3 L 2.03125 -4.03125 C 2.046875 -4.0625 2.0625 -4.109375 2.0625 -4.125 C 2.0625 -4.265625 1.953125 -4.359375 1.8125 -4.359375 C 1.640625 -4.359375 1.546875 -4.234375 1.484375 -4.0625 C 1.4375 -3.875 1.53125 -4.21875 1.21875 -3 L 0.515625 -3 C 0.390625 -3 0.296875 -3 0.296875 -2.84375 C 0.296875 -2.75 0.375 -2.75 0.5 -2.75 L 1.15625 -2.75 L 0.75 -1.109375 C 0.703125 -0.9375 0.640625 -0.6875 0.640625 -0.59375 C 0.640625 -0.1875 1 0.0625 1.390625 0.0625 C 2.171875 0.0625 2.609375 -0.90625 2.609375 -1 C 2.609375 -1.09375 2.515625 -1.09375 2.5 -1.09375 C 2.40625 -1.09375 2.40625 -1.078125 2.34375 -0.953125 C 2.15625 -0.515625 1.796875 -0.125 1.421875 -0.125 C 1.265625 -0.125 1.171875 -0.21875 1.171875 -0.46875 C 1.171875 -0.53125 1.203125 -0.6875 1.21875 -0.75 Z M 1.71875 -2.75 "
           style="stroke:none;" />
      </symbol>
      <symbol
         id="symbol1394"
         overflow="visible">
        <path
           id="path7880"
           d=""
           style="stroke:none;" />
      </symbol>
      <symbol
         id="symbol7507"
         overflow="visible">
        <path
           id="path85"
           d="M 3.21875 -1.578125 L 5.359375 -1.578125 C 5.453125 -1.578125 5.609375 -1.578125 5.609375 -1.734375 C 5.609375 -1.921875 5.453125 -1.921875 5.359375 -1.921875 L 3.21875 -1.921875 L 3.21875 -4.0625 C 3.21875 -4.140625 3.21875 -4.3125 3.0625 -4.3125 C 2.890625 -4.3125 2.890625 -4.15625 2.890625 -4.0625 L 2.890625 -1.921875 L 0.75 -1.921875 C 0.65625 -1.921875 0.484375 -1.921875 0.484375 -1.75 C 0.484375 -1.578125 0.640625 -1.578125 0.75 -1.578125 L 2.890625 -1.578125 L 2.890625 0.5625 C 2.890625 0.65625 2.890625 0.828125 3.046875 0.828125 C 3.21875 0.828125 3.21875 0.65625 3.21875 0.5625 Z M 3.21875 -1.578125 "
           style="stroke:none;" />
      </symbol>
      <symbol
         id="symbol8130"
         overflow="visible">
        <path
           id="path4803"
           d="M 2.328125 -4.4375 C 2.328125 -4.625 2.328125 -4.625 2.125 -4.625 C 1.671875 -4.1875 1.046875 -4.1875 0.765625 -4.1875 L 0.765625 -3.9375 C 0.921875 -3.9375 1.390625 -3.9375 1.765625 -4.125 L 1.765625 -0.578125 C 1.765625 -0.34375 1.765625 -0.25 1.078125 -0.25 L 0.8125 -0.25 L 0.8125 0 C 0.9375 0 1.796875 -0.03125 2.046875 -0.03125 C 2.265625 -0.03125 3.140625 0 3.296875 0 L 3.296875 -0.25 L 3.03125 -0.25 C 2.328125 -0.25 2.328125 -0.34375 2.328125 -0.578125 Z M 2.328125 -4.4375 "
           style="stroke:none;" />
      </symbol>
    </g>
    <g
       id="g5751">
      <symbol
         id="symbol8328"
         overflow="visible">
        <path
           id="path811"
           d=""
           style="stroke:none;" />
      </symbol>
      <symbol
         id="symbol2401"
         overflow="visible">
        <path
           id="path2045"
           d="M 7.0625 -2.328125 C 7.078125 -2.375 7.109375 -2.4375 7.109375 -2.46875 C 7.109375 -2.46875 7.109375 -2.578125 6.984375 -2.578125 C 6.890625 -2.578125 6.875 -2.515625 6.859375 -2.453125 C 6.203125 -0.984375 5.84375 -0.3125 4.140625 -0.3125 L 2.6875 -0.3125 C 2.546875 -0.3125 2.515625 -0.3125 2.46875 -0.3125 C 2.359375 -0.328125 2.328125 -0.34375 2.328125 -0.421875 C 2.328125 -0.453125 2.328125 -0.46875 2.375 -0.640625 L 3.0625 -3.375 L 4.046875 -3.375 C 4.890625 -3.375 4.890625 -3.15625 4.890625 -2.90625 C 4.890625 -2.84375 4.890625 -2.71875 4.828125 -2.421875 C 4.8125 -2.375 4.796875 -2.34375 4.796875 -2.3125 C 4.796875 -2.265625 4.828125 -2.203125 4.921875 -2.203125 C 5 -2.203125 5.03125 -2.25 5.078125 -2.40625 L 5.640625 -4.734375 C 5.640625 -4.796875 5.59375 -4.84375 5.515625 -4.84375 C 5.4375 -4.84375 5.40625 -4.78125 5.390625 -4.671875 C 5.171875 -3.90625 5 -3.671875 4.078125 -3.671875 L 3.140625 -3.671875 L 3.734375 -6.078125 C 3.828125 -6.4375 3.84375 -6.46875 4.28125 -6.46875 L 5.6875 -6.46875 C 6.890625 -6.46875 7.203125 -6.1875 7.203125 -5.359375 C 7.203125 -5.125 7.203125 -5.109375 7.15625 -4.828125 C 7.15625 -4.78125 7.140625 -4.703125 7.140625 -4.65625 C 7.140625 -4.609375 7.171875 -4.53125 7.265625 -4.53125 C 7.375 -4.53125 7.390625 -4.59375 7.40625 -4.78125 L 7.609375 -6.515625 C 7.640625 -6.78125 7.59375 -6.78125 7.34375 -6.78125 L 2.296875 -6.78125 C 2.109375 -6.78125 2 -6.78125 2 -6.578125 C 2 -6.46875 2.09375 -6.46875 2.28125 -6.46875 C 2.65625 -6.46875 2.9375 -6.46875 2.9375 -6.296875 C 2.9375 -6.25 2.9375 -6.234375 2.875 -6.046875 L 1.5625 -0.78125 C 1.46875 -0.390625 1.453125 -0.3125 0.65625 -0.3125 C 0.484375 -0.3125 0.375 -0.3125 0.375 -0.125 C 0.375 0 0.46875 0 0.65625 0 L 5.828125 0 C 6.0625 0 6.078125 -0.015625 6.140625 -0.171875 Z M 7.0625 -2.328125 "
           style="stroke:none;" />
      </symbol>
    </g>
    <g
       id="g5682">
      <symbol
         id="symbol478"
         overflow="visible">
        <path
           id="path3030"
           d=""
           style="stroke:none;" />
      </symbol>
      <symbol
         id="symbol7673"
         overflow="visible">
        <path
           id="path1784"
           d="M 7.53125 -5.765625 C 7.640625 -6.15625 7.8125 -6.46875 8.609375 -6.5 C 8.65625 -6.5 8.78125 -6.515625 8.78125 -6.703125 C 8.78125 -6.703125 8.78125 -6.8125 8.65625 -6.8125 C 8.328125 -6.8125 7.96875 -6.78125 7.640625 -6.78125 C 7.3125 -6.78125 6.953125 -6.8125 6.625 -6.8125 C 6.5625 -6.8125 6.453125 -6.8125 6.453125 -6.609375 C 6.453125 -6.5 6.546875 -6.5 6.625 -6.5 C 7.203125 -6.484375 7.3125 -6.28125 7.3125 -6.0625 C 7.3125 -6.03125 7.28125 -5.875 7.28125 -5.859375 L 6.15625 -1.421875 L 3.953125 -6.625 C 3.875 -6.796875 3.875 -6.8125 3.640625 -6.8125 L 2.296875 -6.8125 C 2.109375 -6.8125 2.015625 -6.8125 2.015625 -6.609375 C 2.015625 -6.5 2.109375 -6.5 2.296875 -6.5 C 2.34375 -6.5 2.96875 -6.5 2.96875 -6.40625 L 1.640625 -1.0625 C 1.53125 -0.65625 1.359375 -0.34375 0.5625 -0.3125 C 0.5 -0.3125 0.390625 -0.296875 0.390625 -0.109375 C 0.390625 -0.046875 0.4375 0 0.515625 0 C 0.84375 0 1.1875 -0.03125 1.515625 -0.03125 C 1.859375 -0.03125 2.21875 0 2.546875 0 C 2.59375 0 2.71875 0 2.71875 -0.203125 C 2.71875 -0.296875 2.625 -0.3125 2.515625 -0.3125 C 1.9375 -0.328125 1.859375 -0.546875 1.859375 -0.75 C 1.859375 -0.8125 1.875 -0.875 1.90625 -0.984375 L 3.21875 -6.234375 C 3.265625 -6.1875 3.265625 -6.15625 3.3125 -6.0625 L 5.796875 -0.1875 C 5.859375 -0.015625 5.890625 0 5.984375 0 C 6.09375 0 6.09375 -0.03125 6.140625 -0.203125 Z M 7.53125 -5.765625 "
           style="stroke:none;" />
      </symbol>
      <symbol
         id="symbol2473"
         overflow="visible">
        <path
           id="path9384"
           d=""
           style="stroke:none;" />
      </symbol>
      <symbol
         id="symbol6204"
         overflow="visible">
        <path
           id="path5904"
           d="M 3.59375 -2.21875 C 3.59375 -2.984375 3.5 -3.546875 3.1875 -4.03125 C 2.96875 -4.34375 2.53125 -4.625 1.984375 -4.625 C 0.359375 -4.625 0.359375 -2.71875 0.359375 -2.21875 C 0.359375 -1.71875 0.359375 0.140625 1.984375 0.140625 C 3.59375 0.140625 3.59375 -1.71875 3.59375 -2.21875 Z M 1.984375 -0.0625 C 1.65625 -0.0625 1.234375 -0.25 1.09375 -0.8125 C 1 -1.21875 1 -1.796875 1 -2.3125 C 1 -2.828125 1 -3.359375 1.09375 -3.734375 C 1.25 -4.28125 1.6875 -4.4375 1.984375 -4.4375 C 2.359375 -4.4375 2.71875 -4.203125 2.84375 -3.796875 C 2.953125 -3.421875 2.96875 -2.921875 2.96875 -2.3125 C 2.96875 -1.796875 2.96875 -1.28125 2.875 -0.84375 C 2.734375 -0.203125 2.265625 -0.0625 1.984375 -0.0625 Z M 1.984375 -0.0625 "
           style="stroke:none;" />
      </symbol>
    </g>
    <g
       id="g2866">
      <symbol
         id="symbol5387"
         overflow="visible">
        <path
           id="path3094"
           d=""
           style="stroke:none;" />
      </symbol>
      <symbol
         id="symbol5516"
         overflow="visible">
        <path
           id="path1579"
           d="M 7.53125 -5.765625 C 7.640625 -6.15625 7.8125 -6.46875 8.609375 -6.5 C 8.65625 -6.5 8.78125 -6.515625 8.78125 -6.703125 C 8.78125 -6.703125 8.78125 -6.8125 8.65625 -6.8125 C 8.328125 -6.8125 7.96875 -6.78125 7.640625 -6.78125 C 7.3125 -6.78125 6.953125 -6.8125 6.625 -6.8125 C 6.5625 -6.8125 6.453125 -6.8125 6.453125 -6.609375 C 6.453125 -6.5 6.546875 -6.5 6.625 -6.5 C 7.203125 -6.484375 7.3125 -6.28125 7.3125 -6.0625 C 7.3125 -6.03125 7.28125 -5.875 7.28125 -5.859375 L 6.15625 -1.421875 L 3.953125 -6.625 C 3.875 -6.796875 3.875 -6.8125 3.640625 -6.8125 L 2.296875 -6.8125 C 2.109375 -6.8125 2.015625 -6.8125 2.015625 -6.609375 C 2.015625 -6.5 2.109375 -6.5 2.296875 -6.5 C 2.34375 -6.5 2.96875 -6.5 2.96875 -6.40625 L 1.640625 -1.0625 C 1.53125 -0.65625 1.359375 -0.34375 0.5625 -0.3125 C 0.5 -0.3125 0.390625 -0.296875 0.390625 -0.109375 C 0.390625 -0.046875 0.4375 0 0.515625 0 C 0.84375 0 1.1875 -0.03125 1.515625 -0.03125 C 1.859375 -0.03125 2.21875 0 2.546875 0 C 2.59375 0 2.71875 0 2.71875 -0.203125 C 2.71875 -0.296875 2.625 -0.3125 2.515625 -0.3125 C 1.9375 -0.328125 1.859375 -0.546875 1.859375 -0.75 C 1.859375 -0.8125 1.875 -0.875 1.90625 -0.984375 L 3.21875 -6.234375 C 3.265625 -6.1875 3.265625 -6.15625 3.3125 -6.0625 L 5.796875 -0.1875 C 5.859375 -0.015625 5.890625 0 5.984375 0 C 6.09375 0 6.09375 -0.03125 6.140625 -0.203125 Z M 7.53125 -5.765625 "
           style="stroke:none;" />
      </symbol>
      <symbol
         id="symbol9065"
         overflow="visible">
        <path
           id="path7510"
           d=""
           style="stroke:none;" />
      </symbol>
      <symbol
         id="symbol8970"
         overflow="visible">
        <path
           id="path9893"
           d="M 5.1875 -1.578125 C 5.296875 -1.578125 5.46875 -1.578125 5.46875 -1.734375 C 5.46875 -1.921875 5.296875 -1.921875 5.1875 -1.921875 L 1.03125 -1.921875 C 0.921875 -1.921875 0.75 -1.921875 0.75 -1.75 C 0.75 -1.578125 0.90625 -1.578125 1.03125 -1.578125 Z M 5.1875 -1.578125 "
           style="stroke:none;" />
      </symbol>
    </g>
    <g
       id="g8241">
      <symbol
         id="symbol3617"
         overflow="visible">
        <path
           id="path4821"
           d=""
           style="stroke:none;" />
      </symbol>
      <symbol
         id="symbol3305"
         overflow="visible">
        <path
           id="path4254"
           d="M 7.53125 -5.765625 C 7.640625 -6.15625 7.8125 -6.46875 8.609375 -6.5 C 8.65625 -6.5 8.78125 -6.515625 8.78125 -6.703125 C 8.78125 -6.703125 8.78125 -6.8125 8.65625 -6.8125 C 8.328125 -6.8125 7.96875 -6.78125 7.640625 -6.78125 C 7.3125 -6.78125 6.953125 -6.8125 6.625 -6.8125 C 6.5625 -6.8125 6.453125 -6.8125 6.453125 -6.609375 C 6.453125 -6.5 6.546875 -6.5 6.625 -6.5 C 7.203125 -6.484375 7.3125 -6.28125 7.3125 -6.0625 C 7.3125 -6.03125 7.28125 -5.875 7.28125 -5.859375 L 6.15625 -1.421875 L 3.953125 -6.625 C 3.875 -6.796875 3.875 -6.8125 3.640625 -6.8125 L 2.296875 -6.8125 C 2.109375 -6.8125 2.015625 -6.8125 2.015625 -6.609375 C 2.015625 -6.5 2.109375 -6.5 2.296875 -6.5 C 2.34375 -6.5 2.96875 -6.5 2.96875 -6.40625 L 1.640625 -1.0625 C 1.53125 -0.65625 1.359375 -0.34375 0.5625 -0.3125 C 0.5 -0.3125 0.390625 -0.296875 0.390625 -0.109375 C 0.390625 -0.046875 0.4375 0 0.515625 0 C 0.84375 0 1.1875 -0.03125 1.515625 -0.03125 C 1.859375 -0.03125 2.21875 0 2.546875 0 C 2.59375 0 2.71875 0 2.71875 -0.203125 C 2.71875 -0.296875 2.625 -0.3125 2.515625 -0.3125 C 1.9375 -0.328125 1.859375 -0.546875 1.859375 -0.75 C 1.859375 -0.8125 1.875 -0.875 1.90625 -0.984375 L 3.21875 -6.234375 C 3.265625 -6.1875 3.265625 -6.15625 3.3125 -6.0625 L 5.796875 -0.1875 C 5.859375 -0.015625 5.890625 0 5.984375 0 C 6.09375 0 6.09375 -0.03125 6.140625 -0.203125 Z M 7.53125 -5.765625 "
           style="stroke:none;" />
      </symbol>
      <symbol
         id="symbol518"
         overflow="visible">
        <path
           id="path965"
           d=""
           style="stroke:none;" />
      </symbol>
      <symbol
         id="symbol5368"
         overflow="visible">
        <path
           id="path1911"
           d="M 3.21875 -1.578125 L 5.359375 -1.578125 C 5.453125 -1.578125 5.609375 -1.578125 5.609375 -1.734375 C 5.609375 -1.921875 5.453125 -1.921875 5.359375 -1.921875 L 3.21875 -1.921875 L 3.21875 -4.0625 C 3.21875 -4.140625 3.21875 -4.3125 3.0625 -4.3125 C 2.890625 -4.3125 2.890625 -4.15625 2.890625 -4.0625 L 2.890625 -1.921875 L 0.75 -1.921875 C 0.65625 -1.921875 0.484375 -1.921875 0.484375 -1.75 C 0.484375 -1.578125 0.640625 -1.578125 0.75 -1.578125 L 2.890625 -1.578125 L 2.890625 0.5625 C 2.890625 0.65625 2.890625 0.828125 3.046875 0.828125 C 3.21875 0.828125 3.21875 0.65625 3.21875 0.5625 Z M 3.21875 -1.578125 "
           style="stroke:none;" />
      </symbol>
    </g>
    <g
       id="g4587">
      <symbol
         id="symbol9373"
         overflow="visible">
        <path
           id="path1411"
           d=""
           style="stroke:none;" />
      </symbol>
      <symbol
         id="symbol435"
         overflow="visible">
        <path
           id="path1944"
           d="M 7.53125 -5.765625 C 7.640625 -6.15625 7.8125 -6.46875 8.609375 -6.5 C 8.65625 -6.5 8.78125 -6.515625 8.78125 -6.703125 C 8.78125 -6.703125 8.78125 -6.8125 8.65625 -6.8125 C 8.328125 -6.8125 7.96875 -6.78125 7.640625 -6.78125 C 7.3125 -6.78125 6.953125 -6.8125 6.625 -6.8125 C 6.5625 -6.8125 6.453125 -6.8125 6.453125 -6.609375 C 6.453125 -6.5 6.546875 -6.5 6.625 -6.5 C 7.203125 -6.484375 7.3125 -6.28125 7.3125 -6.0625 C 7.3125 -6.03125 7.28125 -5.875 7.28125 -5.859375 L 6.15625 -1.421875 L 3.953125 -6.625 C 3.875 -6.796875 3.875 -6.8125 3.640625 -6.8125 L 2.296875 -6.8125 C 2.109375 -6.8125 2.015625 -6.8125 2.015625 -6.609375 C 2.015625 -6.5 2.109375 -6.5 2.296875 -6.5 C 2.34375 -6.5 2.96875 -6.5 2.96875 -6.40625 L 1.640625 -1.0625 C 1.53125 -0.65625 1.359375 -0.34375 0.5625 -0.3125 C 0.5 -0.3125 0.390625 -0.296875 0.390625 -0.109375 C 0.390625 -0.046875 0.4375 0 0.515625 0 C 0.84375 0 1.1875 -0.03125 1.515625 -0.03125 C 1.859375 -0.03125 2.21875 0 2.546875 0 C 2.59375 0 2.71875 0 2.71875 -0.203125 C 2.71875 -0.296875 2.625 -0.3125 2.515625 -0.3125 C 1.9375 -0.328125 1.859375 -0.546875 1.859375 -0.75 C 1.859375 -0.8125 1.875 -0.875 1.90625 -0.984375 L 3.21875 -6.234375 C 3.265625 -6.1875 3.265625 -6.15625 3.3125 -6.0625 L 5.796875 -0.1875 C 5.859375 -0.015625 5.890625 0 5.984375 0 C 6.09375 0 6.09375 -0.03125 6.140625 -0.203125 Z M 7.53125 -5.765625 "
           style="stroke:none;" />
      </symbol>
      <symbol
         id="symbol9157"
         overflow="visible">
        <path
           id="path4376"
           d=""
           style="stroke:none;" />
      </symbol>
      <symbol
         id="symbol2203"
         overflow="visible">
        <path
           id="path4313"
           d="M 5.1875 -1.578125 C 5.296875 -1.578125 5.46875 -1.578125 5.46875 -1.734375 C 5.46875 -1.921875 5.296875 -1.921875 5.1875 -1.921875 L 1.03125 -1.921875 C 0.921875 -1.921875 0.75 -1.921875 0.75 -1.75 C 0.75 -1.578125 0.90625 -1.578125 1.03125 -1.578125 Z M 5.1875 -1.578125 "
           style="stroke:none;" />
      </symbol>
      <symbol
         id="symbol397"
         overflow="visible">
        <path
           id="path6356"
           d=""
           style="stroke:none;" />
      </symbol>
      <symbol
         id="symbol4136"
         overflow="visible">
        <path
           id="path1360"
           d="M 6.84375 -3.265625 C 7 -3.265625 7.1875 -3.265625 7.1875 -3.453125 C 7.1875 -3.65625 7 -3.65625 6.859375 -3.65625 L 0.890625 -3.65625 C 0.75 -3.65625 0.5625 -3.65625 0.5625 -3.453125 C 0.5625 -3.265625 0.75 -3.265625 0.890625 -3.265625 Z M 6.859375 -1.328125 C 7 -1.328125 7.1875 -1.328125 7.1875 -1.53125 C 7.1875 -1.71875 7 -1.71875 6.84375 -1.71875 L 0.890625 -1.71875 C 0.75 -1.71875 0.5625 -1.71875 0.5625 -1.53125 C 0.5625 -1.328125 0.75 -1.328125 0.890625 -1.328125 Z M 6.859375 -1.328125 "
           style="stroke:none;" />
      </symbol>
      <symbol
         id="symbol2278"
         overflow="visible">
        <path
           id="path8066"
           d=""
           style="stroke:none;" />
      </symbol>
      <symbol
         id="symbol8022"
         overflow="visible">
        <path
           id="path5401"
           d="M 3.21875 -1.578125 L 5.359375 -1.578125 C 5.453125 -1.578125 5.609375 -1.578125 5.609375 -1.734375 C 5.609375 -1.921875 5.453125 -1.921875 5.359375 -1.921875 L 3.21875 -1.921875 L 3.21875 -4.0625 C 3.21875 -4.140625 3.21875 -4.3125 3.0625 -4.3125 C 2.890625 -4.3125 2.890625 -4.15625 2.890625 -4.0625 L 2.890625 -1.921875 L 0.75 -1.921875 C 0.65625 -1.921875 0.484375 -1.921875 0.484375 -1.75 C 0.484375 -1.578125 0.640625 -1.578125 0.75 -1.578125 L 2.890625 -1.578125 L 2.890625 0.5625 C 2.890625 0.65625 2.890625 0.828125 3.046875 0.828125 C 3.21875 0.828125 3.21875 0.65625 3.21875 0.5625 Z M 3.21875 -1.578125 "
           style="stroke:none;" />
      </symbol>
    </g>
    <g
       id="g7028">
      <symbol
         id="symbol2986"
         overflow="visible">
        <path
           id="path1645"
           d=""
           style="stroke:none;" />
      </symbol>
      <symbol
         id="symbol7399"
         overflow="visible">
        <path
           id="path5511"
           d="M 3.328125 -3.015625 C 3.390625 -3.265625 3.625 -4.1875 4.3125 -4.1875 C 4.359375 -4.1875 4.609375 -4.1875 4.8125 -4.0625 C 4.53125 -4 4.34375 -3.765625 4.34375 -3.515625 C 4.34375 -3.359375 4.453125 -3.171875 4.71875 -3.171875 C 4.9375 -3.171875 5.25 -3.34375 5.25 -3.75 C 5.25 -4.265625 4.671875 -4.40625 4.328125 -4.40625 C 3.75 -4.40625 3.40625 -3.875 3.28125 -3.65625 C 3.03125 -4.3125 2.5 -4.40625 2.203125 -4.40625 C 1.171875 -4.40625 0.59375 -3.125 0.59375 -2.875 C 0.59375 -2.765625 0.703125 -2.765625 0.71875 -2.765625 C 0.796875 -2.765625 0.828125 -2.796875 0.84375 -2.875 C 1.1875 -3.9375 1.84375 -4.1875 2.1875 -4.1875 C 2.375 -4.1875 2.71875 -4.09375 2.71875 -3.515625 C 2.71875 -3.203125 2.546875 -2.546875 2.1875 -1.140625 C 2.03125 -0.53125 1.671875 -0.109375 1.234375 -0.109375 C 1.171875 -0.109375 0.953125 -0.109375 0.734375 -0.234375 C 0.984375 -0.296875 1.203125 -0.5 1.203125 -0.78125 C 1.203125 -1.046875 0.984375 -1.125 0.84375 -1.125 C 0.53125 -1.125 0.296875 -0.875 0.296875 -0.546875 C 0.296875 -0.09375 0.78125 0.109375 1.21875 0.109375 C 1.890625 0.109375 2.25 -0.59375 2.265625 -0.640625 C 2.390625 -0.28125 2.75 0.109375 3.34375 0.109375 C 4.375 0.109375 4.9375 -1.171875 4.9375 -1.421875 C 4.9375 -1.53125 4.859375 -1.53125 4.828125 -1.53125 C 4.734375 -1.53125 4.71875 -1.484375 4.6875 -1.421875 C 4.359375 -0.34375 3.6875 -0.109375 3.375 -0.109375 C 2.984375 -0.109375 2.828125 -0.421875 2.828125 -0.765625 C 2.828125 -0.984375 2.875 -1.203125 2.984375 -1.640625 Z M 3.328125 -3.015625 "
           style="stroke:none;" />
      </symbol>
    </g>
    <g
       id="g8491">
      <symbol
         id="symbol5902"
         overflow="visible">
        <path
           id="path3819"
           d=""
           style="stroke:none;" />
      </symbol>
      <symbol
         id="symbol6129"
         overflow="visible">
        <path
           id="path1670"
           d="M 4.84375 -3.796875 C 4.890625 -3.9375 4.890625 -3.953125 4.890625 -4.03125 C 4.890625 -4.203125 4.75 -4.296875 4.59375 -4.296875 C 4.5 -4.296875 4.34375 -4.234375 4.25 -4.09375 C 4.234375 -4.03125 4.140625 -3.734375 4.109375 -3.546875 C 4.03125 -3.296875 3.96875 -3.015625 3.90625 -2.75 L 3.453125 -0.953125 C 3.421875 -0.8125 2.984375 -0.109375 2.328125 -0.109375 C 1.828125 -0.109375 1.71875 -0.546875 1.71875 -0.921875 C 1.71875 -1.375 1.890625 -2 2.21875 -2.875 C 2.375 -3.28125 2.421875 -3.390625 2.421875 -3.59375 C 2.421875 -4.03125 2.109375 -4.40625 1.609375 -4.40625 C 0.65625 -4.40625 0.296875 -2.953125 0.296875 -2.875 C 0.296875 -2.765625 0.390625 -2.765625 0.40625 -2.765625 C 0.515625 -2.765625 0.515625 -2.796875 0.5625 -2.953125 C 0.84375 -3.890625 1.234375 -4.1875 1.578125 -4.1875 C 1.65625 -4.1875 1.828125 -4.1875 1.828125 -3.875 C 1.828125 -3.625 1.71875 -3.359375 1.65625 -3.171875 C 1.25 -2.109375 1.078125 -1.546875 1.078125 -1.078125 C 1.078125 -0.1875 1.703125 0.109375 2.296875 0.109375 C 2.6875 0.109375 3.015625 -0.0625 3.296875 -0.34375 C 3.171875 0.171875 3.046875 0.671875 2.65625 1.203125 C 2.390625 1.53125 2.015625 1.828125 1.5625 1.828125 C 1.421875 1.828125 0.96875 1.796875 0.796875 1.40625 C 0.953125 1.40625 1.09375 1.40625 1.21875 1.28125 C 1.328125 1.203125 1.421875 1.0625 1.421875 0.875 C 1.421875 0.5625 1.15625 0.53125 1.0625 0.53125 C 0.828125 0.53125 0.5 0.6875 0.5 1.171875 C 0.5 1.671875 0.9375 2.046875 1.5625 2.046875 C 2.578125 2.046875 3.609375 1.140625 3.890625 0.015625 Z M 4.84375 -3.796875 "
           style="stroke:none;" />
      </symbol>
    </g>
    <g
       id="g1758">
      <symbol
         id="symbol3671"
         overflow="visible">
        <path
           id="path6163"
           d=""
           style="stroke:none;" />
      </symbol>
      <symbol
         id="symbol3723"
         overflow="visible">
        <path
           id="path1574"
           d="M 7.0625 -2.328125 C 7.078125 -2.375 7.109375 -2.4375 7.109375 -2.46875 C 7.109375 -2.46875 7.109375 -2.578125 6.984375 -2.578125 C 6.890625 -2.578125 6.875 -2.515625 6.859375 -2.453125 C 6.203125 -0.984375 5.84375 -0.3125 4.140625 -0.3125 L 2.6875 -0.3125 C 2.546875 -0.3125 2.515625 -0.3125 2.46875 -0.3125 C 2.359375 -0.328125 2.328125 -0.34375 2.328125 -0.421875 C 2.328125 -0.453125 2.328125 -0.46875 2.375 -0.640625 L 3.0625 -3.375 L 4.046875 -3.375 C 4.890625 -3.375 4.890625 -3.15625 4.890625 -2.90625 C 4.890625 -2.84375 4.890625 -2.71875 4.828125 -2.421875 C 4.8125 -2.375 4.796875 -2.34375 4.796875 -2.3125 C 4.796875 -2.265625 4.828125 -2.203125 4.921875 -2.203125 C 5 -2.203125 5.03125 -2.25 5.078125 -2.40625 L 5.640625 -4.734375 C 5.640625 -4.796875 5.59375 -4.84375 5.515625 -4.84375 C 5.4375 -4.84375 5.40625 -4.78125 5.390625 -4.671875 C 5.171875 -3.90625 5 -3.671875 4.078125 -3.671875 L 3.140625 -3.671875 L 3.734375 -6.078125 C 3.828125 -6.4375 3.84375 -6.46875 4.28125 -6.46875 L 5.6875 -6.46875 C 6.890625 -6.46875 7.203125 -6.1875 7.203125 -5.359375 C 7.203125 -5.125 7.203125 -5.109375 7.15625 -4.828125 C 7.15625 -4.78125 7.140625 -4.703125 7.140625 -4.65625 C 7.140625 -4.609375 7.171875 -4.53125 7.265625 -4.53125 C 7.375 -4.53125 7.390625 -4.59375 7.40625 -4.78125 L 7.609375 -6.515625 C 7.640625 -6.78125 7.59375 -6.78125 7.34375 -6.78125 L 2.296875 -6.78125 C 2.109375 -6.78125 2 -6.78125 2 -6.578125 C 2 -6.46875 2.09375 -6.46875 2.28125 -6.46875 C 2.65625 -6.46875 2.9375 -6.46875 2.9375 -6.296875 C 2.9375 -6.25 2.9375 -6.234375 2.875 -6.046875 L 1.5625 -0.78125 C 1.46875 -0.390625 1.453125 -0.3125 0.65625 -0.3125 C 0.484375 -0.3125 0.375 -0.3125 0.375 -0.125 C 0.375 0 0.46875 0 0.65625 0 L 5.828125 0 C 6.0625 0 6.078125 -0.015625 6.140625 -0.171875 Z M 7.0625 -2.328125 "
           style="stroke:none;" />
      </symbol>
      <symbol
         id="symbol2650"
         overflow="visible">
        <path
           id="path7893"
           d="M 6.734375 -4.96875 C 6.84375 -5.03125 6.921875 -5.078125 6.921875 -5.1875 C 6.921875 -5.296875 6.828125 -5.390625 6.71875 -5.390625 C 6.6875 -5.390625 6.671875 -5.390625 6.546875 -5.3125 L 1.015625 -2.71875 C 0.90625 -2.65625 0.828125 -2.609375 0.828125 -2.5 C 0.828125 -2.375 0.90625 -2.328125 1.015625 -2.265625 L 6.546875 0.328125 C 6.671875 0.40625 6.6875 0.40625 6.71875 0.40625 C 6.828125 0.40625 6.921875 0.3125 6.921875 0.203125 C 6.921875 0.09375 6.84375 0.046875 6.734375 -0.015625 L 1.5 -2.5 Z M 6.734375 -4.96875 "
           style="stroke:none;" />
      </symbol>
      <symbol
         id="symbol879"
         overflow="visible">
        <path
           id="path5590"
           d=""
           style="stroke:none;" />
      </symbol>
      <symbol
         id="symbol8004"
         overflow="visible">
        <path
           id="path6779"
           d="M 7.109375 -4.1875 C 7.171875 -4.453125 7.1875 -4.515625 7.703125 -4.515625 C 7.859375 -4.515625 7.9375 -4.515625 7.9375 -4.65625 C 7.9375 -4.765625 7.859375 -4.765625 7.734375 -4.765625 L 6.78125 -4.765625 C 6.578125 -4.765625 6.578125 -4.75 6.484375 -4.625 L 3.796875 -0.640625 L 3.109375 -4.578125 C 3.078125 -4.75 3.078125 -4.765625 2.859375 -4.765625 L 1.875 -4.765625 C 1.734375 -4.765625 1.640625 -4.765625 1.640625 -4.609375 C 1.640625 -4.515625 1.71875 -4.515625 1.875 -4.515625 C 1.984375 -4.515625 2.015625 -4.515625 2.140625 -4.5 C 2.28125 -4.484375 2.296875 -4.46875 2.296875 -4.390625 C 2.296875 -4.390625 2.296875 -4.34375 2.265625 -4.25 L 1.390625 -0.75 C 1.328125 -0.515625 1.21875 -0.265625 0.65625 -0.25 C 0.609375 -0.25 0.515625 -0.25 0.515625 -0.09375 C 0.515625 -0.09375 0.515625 0 0.625 0 C 0.828125 0 1.125 -0.03125 1.34375 -0.03125 C 1.515625 -0.03125 1.921875 0 2.078125 0 C 2.125 0 2.21875 0 2.21875 -0.15625 C 2.21875 -0.25 2.125 -0.25 2.0625 -0.25 C 1.625 -0.265625 1.625 -0.453125 1.625 -0.546875 C 1.625 -0.578125 1.625 -0.609375 1.65625 -0.71875 L 2.578125 -4.421875 L 3.328125 -0.1875 C 3.359375 -0.0625 3.359375 0 3.46875 0 C 3.5625 0 3.625 -0.078125 3.671875 -0.15625 L 6.59375 -4.5 L 6.609375 -4.484375 L 5.625 -0.546875 C 5.5625 -0.3125 5.546875 -0.25 5.015625 -0.25 C 4.890625 -0.25 4.796875 -0.25 4.796875 -0.09375 C 4.796875 -0.09375 4.796875 0 4.90625 0 C 5.046875 0 5.203125 -0.015625 5.34375 -0.015625 C 5.484375 -0.015625 5.640625 -0.03125 5.78125 -0.03125 C 5.984375 -0.03125 6.46875 0 6.671875 0 C 6.703125 0 6.8125 0 6.8125 -0.15625 C 6.8125 -0.25 6.734375 -0.25 6.59375 -0.25 C 6.578125 -0.25 6.453125 -0.25 6.328125 -0.265625 C 6.171875 -0.28125 6.171875 -0.296875 6.171875 -0.375 C 6.171875 -0.40625 6.1875 -0.484375 6.1875 -0.515625 Z M 7.109375 -4.1875 "
           style="stroke:none;" />
      </symbol>
    </g>
    <g
       id="g8927">
      <symbol
         id="symbol7152"
         overflow="visible">
        <path
           id="path5641"
           d=""
           style="stroke:none;" />
      </symbol>
      <symbol
         id="symbol7753"
         overflow="visible">
        <path
           id="path1254"
           d="M 7.0625 -2.328125 C 7.078125 -2.375 7.109375 -2.4375 7.109375 -2.46875 C 7.109375 -2.46875 7.109375 -2.578125 6.984375 -2.578125 C 6.890625 -2.578125 6.875 -2.515625 6.859375 -2.453125 C 6.203125 -0.984375 5.84375 -0.3125 4.140625 -0.3125 L 2.6875 -0.3125 C 2.546875 -0.3125 2.515625 -0.3125 2.46875 -0.3125 C 2.359375 -0.328125 2.328125 -0.34375 2.328125 -0.421875 C 2.328125 -0.453125 2.328125 -0.46875 2.375 -0.640625 L 3.0625 -3.375 L 4.046875 -3.375 C 4.890625 -3.375 4.890625 -3.15625 4.890625 -2.90625 C 4.890625 -2.84375 4.890625 -2.71875 4.828125 -2.421875 C 4.8125 -2.375 4.796875 -2.34375 4.796875 -2.3125 C 4.796875 -2.265625 4.828125 -2.203125 4.921875 -2.203125 C 5 -2.203125 5.03125 -2.25 5.078125 -2.40625 L 5.640625 -4.734375 C 5.640625 -4.796875 5.59375 -4.84375 5.515625 -4.84375 C 5.4375 -4.84375 5.40625 -4.78125 5.390625 -4.671875 C 5.171875 -3.90625 5 -3.671875 4.078125 -3.671875 L 3.140625 -3.671875 L 3.734375 -6.078125 C 3.828125 -6.4375 3.84375 -6.46875 4.28125 -6.46875 L 5.6875 -6.46875 C 6.890625 -6.46875 7.203125 -6.1875 7.203125 -5.359375 C 7.203125 -5.125 7.203125 -5.109375 7.15625 -4.828125 C 7.15625 -4.78125 7.140625 -4.703125 7.140625 -4.65625 C 7.140625 -4.609375 7.171875 -4.53125 7.265625 -4.53125 C 7.375 -4.53125 7.390625 -4.59375 7.40625 -4.78125 L 7.609375 -6.515625 C 7.640625 -6.78125 7.59375 -6.78125 7.34375 -6.78125 L 2.296875 -6.78125 C 2.109375 -6.78125 2 -6.78125 2 -6.578125 C 2 -6.46875 2.09375 -6.46875 2.28125 -6.46875 C 2.65625 -6.46875 2.9375 -6.46875 2.9375 -6.296875 C 2.9375 -6.25 2.9375 -6.234375 2.875 -6.046875 L 1.5625 -0.78125 C 1.46875 -0.390625 1.453125 -0.3125 0.65625 -0.3125 C 0.484375 -0.3125 0.375 -0.3125 0.375 -0.125 C 0.375 0 0.46875 0 0.65625 0 L 5.828125 0 C 6.0625 0 6.078125 -0.015625 6.140625 -0.171875 Z M 7.0625 -2.328125 "
           style="stroke:none;" />
      </symbol>
      <symbol
         id="symbol953"
         overflow="visible">
        <path
           id="path1080"
           d=""
           style="stroke:none;" />
      </symbol>
      <symbol
         id="symbol7123"
         overflow="visible">
        <path
           id="path5419"
           d="M 6.84375 -3.265625 C 7 -3.265625 7.1875 -3.265625 7.1875 -3.453125 C 7.1875 -3.65625 7 -3.65625 6.859375 -3.65625 L 0.890625 -3.65625 C 0.75 -3.65625 0.5625 -3.65625 0.5625 -3.453125 C 0.5625 -3.265625 0.75 -3.265625 0.890625 -3.265625 Z M 6.859375 -1.328125 C 7 -1.328125 7.1875 -1.328125 7.1875 -1.53125 C 7.1875 -1.71875 7 -1.71875 6.84375 -1.71875 L 0.890625 -1.71875 C 0.75 -1.71875 0.5625 -1.71875 0.5625 -1.53125 C 0.5625 -1.328125 0.75 -1.328125 0.890625 -1.328125 Z M 6.859375 -1.328125 "
           style="stroke:none;" />
      </symbol>
      <symbol
         id="symbol6192"
         overflow="visible">
        <path
           id="path1224"
           d=""
           style="stroke:none;" />
      </symbol>
      <symbol
         id="symbol3059"
         overflow="visible">
        <path
           id="path6108"
           d="M 7.109375 -4.1875 C 7.171875 -4.453125 7.1875 -4.515625 7.703125 -4.515625 C 7.859375 -4.515625 7.9375 -4.515625 7.9375 -4.65625 C 7.9375 -4.765625 7.859375 -4.765625 7.734375 -4.765625 L 6.78125 -4.765625 C 6.578125 -4.765625 6.578125 -4.75 6.484375 -4.625 L 3.796875 -0.640625 L 3.109375 -4.578125 C 3.078125 -4.75 3.078125 -4.765625 2.859375 -4.765625 L 1.875 -4.765625 C 1.734375 -4.765625 1.640625 -4.765625 1.640625 -4.609375 C 1.640625 -4.515625 1.71875 -4.515625 1.875 -4.515625 C 1.984375 -4.515625 2.015625 -4.515625 2.140625 -4.5 C 2.28125 -4.484375 2.296875 -4.46875 2.296875 -4.390625 C 2.296875 -4.390625 2.296875 -4.34375 2.265625 -4.25 L 1.390625 -0.75 C 1.328125 -0.515625 1.21875 -0.265625 0.65625 -0.25 C 0.609375 -0.25 0.515625 -0.25 0.515625 -0.09375 C 0.515625 -0.09375 0.515625 0 0.625 0 C 0.828125 0 1.125 -0.03125 1.34375 -0.03125 C 1.515625 -0.03125 1.921875 0 2.078125 0 C 2.125 0 2.21875 0 2.21875 -0.15625 C 2.21875 -0.25 2.125 -0.25 2.0625 -0.25 C 1.625 -0.265625 1.625 -0.453125 1.625 -0.546875 C 1.625 -0.578125 1.625 -0.609375 1.65625 -0.71875 L 2.578125 -4.421875 L 3.328125 -0.1875 C 3.359375 -0.0625 3.359375 0 3.46875 0 C 3.5625 0 3.625 -0.078125 3.671875 -0.15625 L 6.59375 -4.5 L 6.609375 -4.484375 L 5.625 -0.546875 C 5.5625 -0.3125 5.546875 -0.25 5.015625 -0.25 C 4.890625 -0.25 4.796875 -0.25 4.796875 -0.09375 C 4.796875 -0.09375 4.796875 0 4.90625 0 C 5.046875 0 5.203125 -0.015625 5.34375 -0.015625 C 5.484375 -0.015625 5.640625 -0.03125 5.78125 -0.03125 C 5.984375 -0.03125 6.46875 0 6.671875 0 C 6.703125 0 6.8125 0 6.8125 -0.15625 C 6.8125 -0.25 6.734375 -0.25 6.59375 -0.25 C 6.578125 -0.25 6.453125 -0.25 6.328125 -0.265625 C 6.171875 -0.28125 6.171875 -0.296875 6.171875 -0.375 C 6.171875 -0.40625 6.1875 -0.484375 6.1875 -0.515625 Z M 7.109375 -4.1875 "
           style="stroke:none;" />
      </symbol>
    </g>
    <g
       id="g237">
      <symbol
         id="symbol3376"
         overflow="visible">
        <path
           id="path8293"
           d=""
           style="stroke:none;" />
      </symbol>
      <symbol
         id="symbol1350"
         overflow="visible">
        <path
           id="path2766"
           d="M 7.0625 -2.328125 C 7.078125 -2.375 7.109375 -2.4375 7.109375 -2.46875 C 7.109375 -2.46875 7.109375 -2.578125 6.984375 -2.578125 C 6.890625 -2.578125 6.875 -2.515625 6.859375 -2.453125 C 6.203125 -0.984375 5.84375 -0.3125 4.140625 -0.3125 L 2.6875 -0.3125 C 2.546875 -0.3125 2.515625 -0.3125 2.46875 -0.3125 C 2.359375 -0.328125 2.328125 -0.34375 2.328125 -0.421875 C 2.328125 -0.453125 2.328125 -0.46875 2.375 -0.640625 L 3.0625 -3.375 L 4.046875 -3.375 C 4.890625 -3.375 4.890625 -3.15625 4.890625 -2.90625 C 4.890625 -2.84375 4.890625 -2.71875 4.828125 -2.421875 C 4.8125 -2.375 4.796875 -2.34375 4.796875 -2.3125 C 4.796875 -2.265625 4.828125 -2.203125 4.921875 -2.203125 C 5 -2.203125 5.03125 -2.25 5.078125 -2.40625 L 5.640625 -4.734375 C 5.640625 -4.796875 5.59375 -4.84375 5.515625 -4.84375 C 5.4375 -4.84375 5.40625 -4.78125 5.390625 -4.671875 C 5.171875 -3.90625 5 -3.671875 4.078125 -3.671875 L 3.140625 -3.671875 L 3.734375 -6.078125 C 3.828125 -6.4375 3.84375 -6.46875 4.28125 -6.46875 L 5.6875 -6.46875 C 6.890625 -6.46875 7.203125 -6.1875 7.203125 -5.359375 C 7.203125 -5.125 7.203125 -5.109375 7.15625 -4.828125 C 7.15625 -4.78125 7.140625 -4.703125 7.140625 -4.65625 C 7.140625 -4.609375 7.171875 -4.53125 7.265625 -4.53125 C 7.375 -4.53125 7.390625 -4.59375 7.40625 -4.78125 L 7.609375 -6.515625 C 7.640625 -6.78125 7.59375 -6.78125 7.34375 -6.78125 L 2.296875 -6.78125 C 2.109375 -6.78125 2 -6.78125 2 -6.578125 C 2 -6.46875 2.09375 -6.46875 2.28125 -6.46875 C 2.65625 -6.46875 2.9375 -6.46875 2.9375 -6.296875 C 2.9375 -6.25 2.9375 -6.234375 2.875 -6.046875 L 1.5625 -0.78125 C 1.46875 -0.390625 1.453125 -0.3125 0.65625 -0.3125 C 0.484375 -0.3125 0.375 -0.3125 0.375 -0.125 C 0.375 0 0.46875 0 0.65625 0 L 5.828125 0 C 6.0625 0 6.078125 -0.015625 6.140625 -0.171875 Z M 7.0625 -2.328125 "
           style="stroke:none;" />
      </symbol>
      <symbol
         id="symbol722"
         overflow="visible">
        <path
           id="path3163"
           d="M 6.734375 -2.265625 C 6.84375 -2.328125 6.921875 -2.375 6.921875 -2.5 C 6.921875 -2.609375 6.84375 -2.65625 6.734375 -2.71875 L 1.203125 -5.3125 C 1.078125 -5.390625 1.0625 -5.390625 1.03125 -5.390625 C 0.921875 -5.390625 0.828125 -5.296875 0.828125 -5.1875 C 0.828125 -5.09375 0.875 -5.03125 1.015625 -4.96875 L 6.25 -2.5 L 1.015625 -0.015625 C 0.875 0.046875 0.828125 0.109375 0.828125 0.203125 C 0.828125 0.3125 0.921875 0.40625 1.03125 0.40625 C 1.0625 0.40625 1.078125 0.40625 1.203125 0.328125 Z M 6.734375 -2.265625 "
           style="stroke:none;" />
      </symbol>
      <symbol
         id="symbol7500"
         overflow="visible">
        <path
           id="path1545"
           d=""
           style="stroke:none;" />
      </symbol>
      <symbol
         id="symbol885"
         overflow="visible">
        <path
           id="path2684"
           d="M 7.109375 -4.1875 C 7.171875 -4.453125 7.1875 -4.515625 7.703125 -4.515625 C 7.859375 -4.515625 7.9375 -4.515625 7.9375 -4.65625 C 7.9375 -4.765625 7.859375 -4.765625 7.734375 -4.765625 L 6.78125 -4.765625 C 6.578125 -4.765625 6.578125 -4.75 6.484375 -4.625 L 3.796875 -0.640625 L 3.109375 -4.578125 C 3.078125 -4.75 3.078125 -4.765625 2.859375 -4.765625 L 1.875 -4.765625 C 1.734375 -4.765625 1.640625 -4.765625 1.640625 -4.609375 C 1.640625 -4.515625 1.71875 -4.515625 1.875 -4.515625 C 1.984375 -4.515625 2.015625 -4.515625 2.140625 -4.5 C 2.28125 -4.484375 2.296875 -4.46875 2.296875 -4.390625 C 2.296875 -4.390625 2.296875 -4.34375 2.265625 -4.25 L 1.390625 -0.75 C 1.328125 -0.515625 1.21875 -0.265625 0.65625 -0.25 C 0.609375 -0.25 0.515625 -0.25 0.515625 -0.09375 C 0.515625 -0.09375 0.515625 0 0.625 0 C 0.828125 0 1.125 -0.03125 1.34375 -0.03125 C 1.515625 -0.03125 1.921875 0 2.078125 0 C 2.125 0 2.21875 0 2.21875 -0.15625 C 2.21875 -0.25 2.125 -0.25 2.0625 -0.25 C 1.625 -0.265625 1.625 -0.453125 1.625 -0.546875 C 1.625 -0.578125 1.625 -0.609375 1.65625 -0.71875 L 2.578125 -4.421875 L 3.328125 -0.1875 C 3.359375 -0.0625 3.359375 0 3.46875 0 C 3.5625 0 3.625 -0.078125 3.671875 -0.15625 L 6.59375 -4.5 L 6.609375 -4.484375 L 5.625 -0.546875 C 5.5625 -0.3125 5.546875 -0.25 5.015625 -0.25 C 4.890625 -0.25 4.796875 -0.25 4.796875 -0.09375 C 4.796875 -0.09375 4.796875 0 4.90625 0 C 5.046875 0 5.203125 -0.015625 5.34375 -0.015625 C 5.484375 -0.015625 5.640625 -0.03125 5.78125 -0.03125 C 5.984375 -0.03125 6.46875 0 6.671875 0 C 6.703125 0 6.8125 0 6.8125 -0.15625 C 6.8125 -0.25 6.734375 -0.25 6.59375 -0.25 C 6.578125 -0.25 6.453125 -0.25 6.328125 -0.265625 C 6.171875 -0.28125 6.171875 -0.296875 6.171875 -0.375 C 6.171875 -0.40625 6.1875 -0.484375 6.1875 -0.515625 Z M 7.109375 -4.1875 "
           style="stroke:none;" />
      </symbol>
    </g>
    <g
       id="g9452">
      <symbol
         id="symbol939"
         overflow="visible">
        <path
           id="path5256"
           d=""
           style="stroke:none;" />
      </symbol>
      <symbol
         id="symbol669"
         overflow="visible">
        <path
           id="path1222"
           d="M 7.53125 -5.765625 C 7.640625 -6.15625 7.8125 -6.46875 8.609375 -6.5 C 8.65625 -6.5 8.78125 -6.515625 8.78125 -6.703125 C 8.78125 -6.703125 8.78125 -6.8125 8.65625 -6.8125 C 8.328125 -6.8125 7.96875 -6.78125 7.640625 -6.78125 C 7.3125 -6.78125 6.953125 -6.8125 6.625 -6.8125 C 6.5625 -6.8125 6.453125 -6.8125 6.453125 -6.609375 C 6.453125 -6.5 6.546875 -6.5 6.625 -6.5 C 7.203125 -6.484375 7.3125 -6.28125 7.3125 -6.0625 C 7.3125 -6.03125 7.28125 -5.875 7.28125 -5.859375 L 6.15625 -1.421875 L 3.953125 -6.625 C 3.875 -6.796875 3.875 -6.8125 3.640625 -6.8125 L 2.296875 -6.8125 C 2.109375 -6.8125 2.015625 -6.8125 2.015625 -6.609375 C 2.015625 -6.5 2.109375 -6.5 2.296875 -6.5 C 2.34375 -6.5 2.96875 -6.5 2.96875 -6.40625 L 1.640625 -1.0625 C 1.53125 -0.65625 1.359375 -0.34375 0.5625 -0.3125 C 0.5 -0.3125 0.390625 -0.296875 0.390625 -0.109375 C 0.390625 -0.046875 0.4375 0 0.515625 0 C 0.84375 0 1.1875 -0.03125 1.515625 -0.03125 C 1.859375 -0.03125 2.21875 0 2.546875 0 C 2.59375 0 2.71875 0 2.71875 -0.203125 C 2.71875 -0.296875 2.625 -0.3125 2.515625 -0.3125 C 1.9375 -0.328125 1.859375 -0.546875 1.859375 -0.75 C 1.859375 -0.8125 1.875 -0.875 1.90625 -0.984375 L 3.21875 -6.234375 C 3.265625 -6.1875 3.265625 -6.15625 3.3125 -6.0625 L 5.796875 -0.1875 C 5.859375 -0.015625 5.890625 0 5.984375 0 C 6.09375 0 6.09375 -0.03125 6.140625 -0.203125 Z M 7.53125 -5.765625 "
           style="stroke:none;" />
      </symbol>
      <symbol
         id="symbol3265"
         overflow="visible">
        <path
           id="path9028"
           d=""
           style="stroke:none;" />
      </symbol>
      <symbol
         id="symbol1146"
         overflow="visible">
        <path
           id="path349"
           d="M 3.515625 -1.265625 L 3.28125 -1.265625 C 3.265625 -1.109375 3.1875 -0.703125 3.09375 -0.640625 C 3.046875 -0.59375 2.515625 -0.59375 2.40625 -0.59375 L 1.125 -0.59375 C 1.859375 -1.234375 2.109375 -1.4375 2.515625 -1.765625 C 3.03125 -2.171875 3.515625 -2.609375 3.515625 -3.265625 C 3.515625 -4.109375 2.78125 -4.625 1.890625 -4.625 C 1.03125 -4.625 0.4375 -4.015625 0.4375 -3.375 C 0.4375 -3.03125 0.734375 -2.984375 0.8125 -2.984375 C 0.96875 -2.984375 1.171875 -3.109375 1.171875 -3.359375 C 1.171875 -3.484375 1.125 -3.734375 0.765625 -3.734375 C 0.984375 -4.21875 1.453125 -4.375 1.78125 -4.375 C 2.484375 -4.375 2.84375 -3.828125 2.84375 -3.265625 C 2.84375 -2.65625 2.40625 -2.1875 2.1875 -1.9375 L 0.515625 -0.265625 C 0.4375 -0.203125 0.4375 -0.1875 0.4375 0 L 3.3125 0 Z M 3.515625 -1.265625 "
           style="stroke:none;" />
      </symbol>
    </g>
    <g
       id="g4222">
      <symbol
         id="symbol7055"
         overflow="visible">
        <path
           id="path9705"
           d=""
           style="stroke:none;" />
      </symbol>
      <symbol
         id="symbol8696"
         overflow="visible">
        <path
           id="path4375"
           d="M 7.53125 -5.765625 C 7.640625 -6.15625 7.8125 -6.46875 8.609375 -6.5 C 8.65625 -6.5 8.78125 -6.515625 8.78125 -6.703125 C 8.78125 -6.703125 8.78125 -6.8125 8.65625 -6.8125 C 8.328125 -6.8125 7.96875 -6.78125 7.640625 -6.78125 C 7.3125 -6.78125 6.953125 -6.8125 6.625 -6.8125 C 6.5625 -6.8125 6.453125 -6.8125 6.453125 -6.609375 C 6.453125 -6.5 6.546875 -6.5 6.625 -6.5 C 7.203125 -6.484375 7.3125 -6.28125 7.3125 -6.0625 C 7.3125 -6.03125 7.28125 -5.875 7.28125 -5.859375 L 6.15625 -1.421875 L 3.953125 -6.625 C 3.875 -6.796875 3.875 -6.8125 3.640625 -6.8125 L 2.296875 -6.8125 C 2.109375 -6.8125 2.015625 -6.8125 2.015625 -6.609375 C 2.015625 -6.5 2.109375 -6.5 2.296875 -6.5 C 2.34375 -6.5 2.96875 -6.5 2.96875 -6.40625 L 1.640625 -1.0625 C 1.53125 -0.65625 1.359375 -0.34375 0.5625 -0.3125 C 0.5 -0.3125 0.390625 -0.296875 0.390625 -0.109375 C 0.390625 -0.046875 0.4375 0 0.515625 0 C 0.84375 0 1.1875 -0.03125 1.515625 -0.03125 C 1.859375 -0.03125 2.21875 0 2.546875 0 C 2.59375 0 2.71875 0 2.71875 -0.203125 C 2.71875 -0.296875 2.625 -0.3125 2.515625 -0.3125 C 1.9375 -0.328125 1.859375 -0.546875 1.859375 -0.75 C 1.859375 -0.8125 1.875 -0.875 1.90625 -0.984375 L 3.21875 -6.234375 C 3.265625 -6.1875 3.265625 -6.15625 3.3125 -6.0625 L 5.796875 -0.1875 C 5.859375 -0.015625 5.890625 0 5.984375 0 C 6.09375 0 6.09375 -0.03125 6.140625 -0.203125 Z M 7.53125 -5.765625 "
           style="stroke:none;" />
      </symbol>
      <symbol
         id="symbol9864"
         overflow="visible">
        <path
           id="path9440"
           d=""
           style="stroke:none;" />
      </symbol>
      <symbol
         id="symbol2187"
         overflow="visible">
        <path
           id="path9992"
           d="M 2.328125 -4.4375 C 2.328125 -4.625 2.328125 -4.625 2.125 -4.625 C 1.671875 -4.1875 1.046875 -4.1875 0.765625 -4.1875 L 0.765625 -3.9375 C 0.921875 -3.9375 1.390625 -3.9375 1.765625 -4.125 L 1.765625 -0.578125 C 1.765625 -0.34375 1.765625 -0.25 1.078125 -0.25 L 0.8125 -0.25 L 0.8125 0 C 0.9375 0 1.796875 -0.03125 2.046875 -0.03125 C 2.265625 -0.03125 3.140625 0 3.296875 0 L 3.296875 -0.25 L 3.03125 -0.25 C 2.328125 -0.25 2.328125 -0.34375 2.328125 -0.578125 Z M 2.328125 -4.4375 "
           style="stroke:none;" />
      </symbol>
    </g>
    <g
       id="g8365">
      <symbol
         id="symbol9266"
         overflow="visible">
        <path
           id="path1279"
           d=""
           style="stroke:none;" />
      </symbol>
      <symbol
         id="symbol6712"
         overflow="visible">
        <path
           id="path9751"
           d="M 7.53125 -5.765625 C 7.640625 -6.15625 7.8125 -6.46875 8.609375 -6.5 C 8.65625 -6.5 8.78125 -6.515625 8.78125 -6.703125 C 8.78125 -6.703125 8.78125 -6.8125 8.65625 -6.8125 C 8.328125 -6.8125 7.96875 -6.78125 7.640625 -6.78125 C 7.3125 -6.78125 6.953125 -6.8125 6.625 -6.8125 C 6.5625 -6.8125 6.453125 -6.8125 6.453125 -6.609375 C 6.453125 -6.5 6.546875 -6.5 6.625 -6.5 C 7.203125 -6.484375 7.3125 -6.28125 7.3125 -6.0625 C 7.3125 -6.03125 7.28125 -5.875 7.28125 -5.859375 L 6.15625 -1.421875 L 3.953125 -6.625 C 3.875 -6.796875 3.875 -6.8125 3.640625 -6.8125 L 2.296875 -6.8125 C 2.109375 -6.8125 2.015625 -6.8125 2.015625 -6.609375 C 2.015625 -6.5 2.109375 -6.5 2.296875 -6.5 C 2.34375 -6.5 2.96875 -6.5 2.96875 -6.40625 L 1.640625 -1.0625 C 1.53125 -0.65625 1.359375 -0.34375 0.5625 -0.3125 C 0.5 -0.3125 0.390625 -0.296875 0.390625 -0.109375 C 0.390625 -0.046875 0.4375 0 0.515625 0 C 0.84375 0 1.1875 -0.03125 1.515625 -0.03125 C 1.859375 -0.03125 2.21875 0 2.546875 0 C 2.59375 0 2.71875 0 2.71875 -0.203125 C 2.71875 -0.296875 2.625 -0.3125 2.515625 -0.3125 C 1.9375 -0.328125 1.859375 -0.546875 1.859375 -0.75 C 1.859375 -0.8125 1.875 -0.875 1.90625 -0.984375 L 3.21875 -6.234375 C 3.265625 -6.1875 3.265625 -6.15625 3.3125 -6.0625 L 5.796875 -0.1875 C 5.859375 -0.015625 5.890625 0 5.984375 0 C 6.09375 0 6.09375 -0.03125 6.140625 -0.203125 Z M 7.53125 -5.765625 "
           style="stroke:none;" />
      </symbol>
      <symbol
         id="symbol5764"
         overflow="visible">
        <path
           id="path3247"
           d=""
           style="stroke:none;" />
      </symbol>
      <symbol
         id="symbol3120"
         overflow="visible">
        <path
           id="path3672"
           d="M 1.71875 -2.75 L 2.421875 -2.75 C 2.5625 -2.75 2.640625 -2.75 2.640625 -2.90625 C 2.640625 -3 2.5625 -3 2.4375 -3 L 1.78125 -3 L 2.03125 -4.03125 C 2.046875 -4.0625 2.0625 -4.109375 2.0625 -4.125 C 2.0625 -4.265625 1.953125 -4.359375 1.8125 -4.359375 C 1.640625 -4.359375 1.546875 -4.234375 1.484375 -4.0625 C 1.4375 -3.875 1.53125 -4.21875 1.21875 -3 L 0.515625 -3 C 0.390625 -3 0.296875 -3 0.296875 -2.84375 C 0.296875 -2.75 0.375 -2.75 0.5 -2.75 L 1.15625 -2.75 L 0.75 -1.109375 C 0.703125 -0.9375 0.640625 -0.6875 0.640625 -0.59375 C 0.640625 -0.1875 1 0.0625 1.390625 0.0625 C 2.171875 0.0625 2.609375 -0.90625 2.609375 -1 C 2.609375 -1.09375 2.515625 -1.09375 2.5 -1.09375 C 2.40625 -1.09375 2.40625 -1.078125 2.34375 -0.953125 C 2.15625 -0.515625 1.796875 -0.125 1.421875 -0.125 C 1.265625 -0.125 1.171875 -0.21875 1.171875 -0.46875 C 1.171875 -0.53125 1.203125 -0.6875 1.21875 -0.75 Z M 1.71875 -2.75 "
           style="stroke:none;" />
      </symbol>
      <symbol
         id="symbol913"
         overflow="visible">
        <path
           id="path9773"
           d=""
           style="stroke:none;" />
      </symbol>
      <symbol
         id="symbol5468"
         overflow="visible">
        <path
           id="path6717"
           d="M 6.84375 -3.265625 C 7 -3.265625 7.1875 -3.265625 7.1875 -3.453125 C 7.1875 -3.65625 7 -3.65625 6.859375 -3.65625 L 0.890625 -3.65625 C 0.75 -3.65625 0.5625 -3.65625 0.5625 -3.453125 C 0.5625 -3.265625 0.75 -3.265625 0.890625 -3.265625 Z M 6.859375 -1.328125 C 7 -1.328125 7.1875 -1.328125 7.1875 -1.53125 C 7.1875 -1.71875 7 -1.71875 6.84375 -1.71875 L 0.890625 -1.71875 C 0.75 -1.71875 0.5625 -1.71875 0.5625 -1.53125 C 0.5625 -1.328125 0.75 -1.328125 0.890625 -1.328125 Z M 6.859375 -1.328125 "
           style="stroke:none;" />
      </symbol>
      <symbol
         id="symbol2444"
         overflow="visible">
        <path
           id="path9779"
           d=""
           style="stroke:none;" />
      </symbol>
      <symbol
         id="symbol3176"
         overflow="visible">
        <path
           id="path2656"
           d="M 3.21875 -1.578125 L 5.359375 -1.578125 C 5.453125 -1.578125 5.609375 -1.578125 5.609375 -1.734375 C 5.609375 -1.921875 5.453125 -1.921875 5.359375 -1.921875 L 3.21875 -1.921875 L 3.21875 -4.0625 C 3.21875 -4.140625 3.21875 -4.3125 3.0625 -4.3125 C 2.890625 -4.3125 2.890625 -4.15625 2.890625 -4.0625 L 2.890625 -1.921875 L 0.75 -1.921875 C 0.65625 -1.921875 0.484375 -1.921875 0.484375 -1.75 C 0.484375 -1.578125 0.640625 -1.578125 0.75 -1.578125 L 2.890625 -1.578125 L 2.890625 0.5625 C 2.890625 0.65625 2.890625 0.828125 3.046875 0.828125 C 3.21875 0.828125 3.21875 0.65625 3.21875 0.5625 Z M 3.21875 -1.578125 "
           style="stroke:none;" />
      </symbol>
      <symbol
         id="symbol2716"
         overflow="visible">
        <path
           id="path9040"
           d="M 2.328125 -4.4375 C 2.328125 -4.625 2.328125 -4.625 2.125 -4.625 C 1.671875 -4.1875 1.046875 -4.1875 0.765625 -4.1875 L 0.765625 -3.9375 C 0.921875 -3.9375 1.390625 -3.9375 1.765625 -4.125 L 1.765625 -0.578125 C 1.765625 -0.34375 1.765625 -0.25 1.078125 -0.25 L 0.8125 -0.25 L 0.8125 0 C 0.9375 0 1.796875 -0.03125 2.046875 -0.03125 C 2.265625 -0.03125 3.140625 0 3.296875 0 L 3.296875 -0.25 L 3.03125 -0.25 C 2.328125 -0.25 2.328125 -0.34375 2.328125 -0.578125 Z M 2.328125 -4.4375 "
           style="stroke:none;" />
      </symbol>
    </g>
  </defs>
  <sodipodi:namedview
     inkscape:snap-global="true"
     inkscape:window-maximized="1"
     inkscape:window-y="-8"
     inkscape:window-x="-8"
     inkscape:window-height="1014"
     inkscape:window-width="1920"
     inkscape:snap-midpoints="false"
     inkscape:snap-smooth-nodes="true"
     inkscape:snap-intersection-paths="true"
     inkscape:object-paths="true"
     inkscape:snap-bbox="true"
     showgrid="false"
     inkscape:document-rotation="0"
     inkscape:current-layer="layer1"
     inkscape:document-units="mm"
     inkscape:cy="-14.246288"
     inkscape:cx="463.80039"
     inkscape:zoom="0.70710678"
     inkscape:pageshadow="2"
     inkscape:pageopacity="0.0"
     borderopacity="1.0"
     bordercolor="#666666"
     pagecolor="#ffffff"
     id="base" />
  <metadata
     id="metadata5">
    <rdf:RDF>
      <cc:Work
         rdf:about="">
        <dc:format>image/svg+xml</dc:format>
        <dc:type
           rdf:resource="http://purl.org/dc/dcmitype/StillImage" />
        <dc:title />
      </cc:Work>
    </rdf:RDF>
  </metadata>
  <g
     id="layer1"
     inkscape:groupmode="layer"
     inkscape:label="Layer 1">
    <path
       sodipodi:nodetypes="czzc"
       id="path1137"
       d="m -11.453363,46.637683 c 0,0 28.557845,45.840264 52.031211,45.840264 23.473366,0 38.919729,-62.136347 87.200202,-62.136347 48.28048,0 64.15105,68.71698 64.15105,68.71698"
       style="fill:none;stroke:#0000ff;stroke-width:0.79375;stroke-linecap:butt;stroke-linejoin:miter;stroke-miterlimit:4;stroke-dasharray:none;stroke-opacity:1" />
    <path
       sodipodi:nodetypes="cc"
       id="path1169"
       d="m -22.698236,77.32935 231.122536,0"
       style="fill:none;stroke:#000000;stroke-width:1.31341;stroke-linecap:butt;stroke-linejoin:miter;stroke-miterlimit:4;stroke-dasharray:none;stroke-opacity:1" />
    <g
       inkscape:label=""
       transform="matrix(0.90939661,0,0,0.90939661,121.1341,13.150401)"
       id="g1262">
      <g
         id="g7922">
        <g
           id="g2600"
           style="fill:#000000;fill-opacity:1">
          <use
             height="100%"
             width="100%"
             id="use123"
             y="81.962997"
             x="91.925003"
             xlink:href="#symbol9717" />
        </g>
        <g
           id="g9876"
           style="fill:#000000;fill-opacity:1">
          <use
             height="100%"
             width="100%"
             id="use5962"
             y="83.457001"
             x="99.93"
             xlink:href="#symbol8417" />
        </g>
      </g>
    </g>
    <g
       inkscape:label=""
       transform="matrix(0.90939661,0,0,0.90939661,-93.09199,-50.940272)"
       id="g1372">
      <g
         id="g7667">
        <g
           id="g8342"
           style="fill:#000000;fill-opacity:1">
          <use
             height="100%"
             width="100%"
             id="use1261"
             y="81.962997"
             x="91.925003"
             xlink:href="#symbol3141" />
        </g>
        <g
           id="g8941"
           style="fill:#000000;fill-opacity:1">
          <use
             height="100%"
             width="100%"
             id="use6113"
             y="83.457001"
             x="99.93"
             xlink:href="#symbol1089" />
        </g>
        <g
           id="g3496"
           style="fill:#000000;fill-opacity:1">
          <use
             height="100%"
             width="100%"
             id="use3160"
             y="83.457001"
             x="102.94"
             xlink:href="#symbol7507" />
          <use
             height="100%"
             width="100%"
             id="use8954"
             y="83.457001"
             x="109.05602"
             xlink:href="#symbol8130" />
        </g>
      </g>
    </g>
    <g
       inkscape:label=""
       transform="matrix(0.90939661,0,0,0.90939661,-78.751744,13.114878)"
       id="g1628">
      <g
         id="g9387">
        <g
           id="g3059"
           style="fill:#000000;fill-opacity:1">
          <use
             height="100%"
             width="100%"
             id="use6977"
             y="81.962997"
             x="91.925003"
             xlink:href="#symbol7673" />
        </g>
        <g
           id="g7719"
           style="fill:#000000;fill-opacity:1">
          <use
             height="100%"
             width="100%"
             id="use5907"
             y="83.457001"
             x="99.93"
             xlink:href="#symbol6204" />
        </g>
      </g>
    </g>
    <g
       inkscape:label=""
       transform="matrix(0.90939661,0,0,0.90939661,-7.4386191,13.85814)"
       id="g1777">
      <g
         id="g7713">
        <g
           id="g9172"
           style="fill:#000000;fill-opacity:1">
          <use
             height="100%"
             width="100%"
             id="use4503"
             y="81.962997"
             x="91.925003"
             xlink:href="#symbol5516" />
        </g>
        <g
           id="g9215"
           style="fill:#000000;fill-opacity:1">
          <use
             height="100%"
             width="100%"
             id="use1425"
             y="83.457001"
             x="99.93"
             xlink:href="#symbol8970" />
        </g>
      </g>
    </g>
    <g
       inkscape:label=""
       transform="matrix(0.90939661,0,0,0.90939661,52.082529,12.802273)"
       id="g1941">
      <g
         id="g21">
        <g
           id="g1659"
           style="fill:#000000;fill-opacity:1">
          <use
             height="100%"
             width="100%"
             id="use4055"
             y="81.962997"
             x="91.925003"
             xlink:href="#symbol3305" />
        </g>
        <g
           id="g5754"
           style="fill:#000000;fill-opacity:1">
          <use
             height="100%"
             width="100%"
             id="use8079"
             y="83.457001"
             x="99.93"
             xlink:href="#symbol5368" />
        </g>
      </g>
    </g>
    <path
       sodipodi:nodetypes="cc"
       id="path4326"
       d="M 12.886468,77.349623 185.54746,17.595966"
       style="fill:none;stroke:#000000;stroke-width:0.616897px;stroke-linecap:butt;stroke-linejoin:miter;stroke-opacity:1" />
    <path
       style="fill:none;stroke:#000000;stroke-width:1.2595;stroke-linecap:butt;stroke-linejoin:miter;stroke-miterlimit:4;stroke-dasharray:none;stroke-opacity:1"
       d="m 12.888304,21.468 v 90.82061"
       id="path1143-6"
       sodipodi:nodetypes="cc" />
    <path
       id="path4370"
       d="M 81.643153,53.638789 V 77.32935"
       style="fill:none;stroke:#000000;stroke-width:0.265;stroke-linecap:butt;stroke-linejoin:miter;stroke-miterlimit:4;stroke-dasharray:1.59,1.59;stroke-dashoffset:0;stroke-opacity:1" />
    <path
       style="fill:none;stroke:#000000;stroke-width:0.26458332;stroke-linecap:butt;stroke-linejoin:miter;stroke-miterlimit:4;stroke-dasharray:1.5874999,1.5874999;stroke-dashoffset:0;stroke-opacity:1"
       d="M 142.52593,32.643283 V 77.32935"
       id="path4372" />
    <path
       sodipodi:nodetypes="cc"
       id="path4514"
       d="m 192.94675,53.354223 -210.872918,0"
       style="fill:none;stroke:#000000;stroke-width:0.26499999;stroke-linecap:butt;stroke-linejoin:miter;stroke-miterlimit:4;stroke-dasharray:2.1199999,2.1199999;stroke-dashoffset:0;stroke-opacity:1" />
    <g
       transform="translate(-0.14255299,-0.26307236)"
       id="g4789">
      <path
         style="fill:none;stroke:#009200;stroke-width:0.264583px;stroke-linecap:butt;stroke-linejoin:miter;stroke-opacity:1"
         d="M 93.662499,77.329349 V 42.521856 H 113.88004 V 32.177865 h 29.9955 v 0.926288 h -2.68604"
         id="path4516" />
      <path
         style="fill:none;stroke:#00c200;stroke-width:0.264583px;stroke-linecap:butt;stroke-linejoin:miter;stroke-opacity:1"
         d="M 165.38638,77.329349 V 47.646327 H 99.020094 v -8.856964 h 25.683426 v -8.362521 h 24.24964 l 2e-5,4.83503 h -14.02063 v -4.3996 h 12.75795 l 1e-5,3.798438 H 136.6758 v -3.506676 h 10.16865 l 1e-5,3.128242 h -9.07128 v -2.909705 h 8.43756 v 2.638838 h -7.65211 v -2.465551 h 7.14961"
         id="path4518" />
      <path
         style="fill:none;stroke:#ff0000;stroke-width:0.264583px;stroke-linecap:butt;stroke-linejoin:miter;stroke-opacity:1"
         d="M 73.151668,77.329349 V 63.517586 H 52.996612 v 23.404518"
         id="path4520" />
      <path
         style="fill:none;stroke:#ff0000;stroke-width:0.264583px;stroke-linecap:butt;stroke-linejoin:miter;stroke-opacity:1"
         d="M 179.79221,77.329349 V 67.969113 H 40.088068 l -5e-6,24.506618"
         id="path4522" />
    </g>
    <path
       style="fill:none;stroke:#000000;stroke-width:0.265;stroke-linecap:butt;stroke-linejoin:miter;stroke-miterlimit:4;stroke-dasharray:1.59,1.59;stroke-dashoffset:0;stroke-opacity:1"
       d="M 170.30957,53.354223 V 77.044784"
       id="path4370-1" />
    <g
       inkscape:label=""
       transform="matrix(0.87194334,0,0,0.87194334,83.830659,16.149004)"
       id="g4766">
      <g
         id="g8595">
        <g
           id="g374"
           style="fill:#000000;fill-opacity:1">
          <use
             height="100%"
             width="100%"
             id="use8076"
             y="81.962997"
             x="91.925003"
             xlink:href="#symbol669" />
        </g>
        <g
           id="g2297"
           style="fill:#000000;fill-opacity:1">
          <use
             height="100%"
             width="100%"
             id="use9343"
             y="83.457001"
             x="99.93"
             xlink:href="#symbol1146" />
        </g>
      </g>
    </g>
    <path
       transform="scale(0.26458333)"
       id="path4797"
       d="m 309.83673,246.60542 v -42.95469 l 3.25,-0.57848 c 1.7875,-0.31817 76.6,-0.45106 166.25,-0.29532 l 163,0.28318 0.26062,43.25 0.26063,43.25 H 476.34735 309.83673 Z m 230,35.45469 c 0,-1.925 -0.45,-3.5 -1,-3.5 -0.55,0 -1,1.575 -1,3.5 0,1.925 0.45,3.5 1,3.5 0.55,0 1,-1.575 1,-3.5 z m 0,-12 c 0,-1.925 -0.45,-3.5 -1,-3.5 -0.55,0 -1,1.575 -1,3.5 0,1.925 0.45,3.5 1,3.5 0.55,0 1,-1.575 1,-3.5 z m 0,-12 c 0,-1.925 -0.45,-3.5 -1,-3.5 -0.55,0 -1,1.575 -1,3.5 0,1.925 0.45,3.5 1,3.5 0.55,0 1,-1.575 1,-3.5 z m 0,-12 c 0,-1.925 -0.45,-3.5 -1,-3.5 -0.55,0 -1,1.575 -1,3.5 0,1.925 0.45,3.5 1,3.5 0.55,0 1,-1.575 1,-3.5 z m 0,-12 c 0,-1.925 -0.45,-3.5 -1,-3.5 -0.55,0 -1,1.575 -1,3.5 0,1.925 0.45,3.5 1,3.5 0.55,0 1,-1.575 1,-3.5 z m 0,-12 c 0,-1.925 -0.45,-3.5 -1,-3.5 -0.55,0 -1,1.575 -1,3.5 0,1.925 0.45,3.5 1,3.5 0.55,0 1,-1.575 1,-3.5 z m 0,-12 c 0,-1.925 -0.45,-3.5 -1,-3.5 -0.55,0 -1,1.575 -1,3.5 0,1.925 0.45,3.5 1,3.5 0.55,0 1,-1.575 1,-3.5 z"
       style="fill:#00ff00;stroke:none;stroke-width:1.00157;stroke-linejoin:round;stroke-miterlimit:4;stroke-dasharray:none;stroke-dashoffset:0;stroke-opacity:1;fill-opacity:0.2" />
    <path
       transform="scale(0.26458333)"
       id="path4799"
       d="m 321.92007,200.15737 c 0.22916,-0.22151 48.34166,-16.92909 106.91666,-37.12795 58.575,-20.19887 107.0625,-36.94078 107.75,-37.20425 0.75606,-0.28975 1.25,0.35354 1.25,1.62795 0,1.15884 0.45,2.10699 1,2.10699 0.55,0 1,-0.89636 1,-1.99191 0,-1.93082 0.13032,-1.94223 4.25,-0.37218 23.42777,8.92858 47.07317,23.72823 66.53005,41.64113 8.58775,7.90627 23.97221,24.17753 27.39392,28.97296 l 1.96222,2.75 h -50.0681 -50.06809 v -3 c 0,-1.65 -0.45,-3 -1,-3 -0.55,0 -1,1.35 -1,3 v 3 H 429.67006 c -59.49166,0 -107.97916,-0.18124 -107.74999,-0.40274 z m 217.91666,-14.09726 c 0,-1.925 -0.45,-3.5 -1,-3.5 -0.55,0 -1,1.575 -1,3.5 0,1.925 0.45,3.5 1,3.5 0.55,0 1,-1.575 1,-3.5 z m 0,-12 c 0,-1.925 -0.45,-3.5 -1,-3.5 -0.55,0 -1,1.575 -1,3.5 0,1.925 0.45,3.5 1,3.5 0.55,0 1,-1.575 1,-3.5 z m 0,-12 c 0,-1.925 -0.45,-3.5 -1,-3.5 -0.55,0 -1,1.575 -1,3.5 0,1.925 0.45,3.5 1,3.5 0.55,0 1,-1.575 1,-3.5 z m 0,-12 c 0,-1.925 -0.45,-3.5 -1,-3.5 -0.55,0 -1,1.575 -1,3.5 0,1.925 0.45,3.5 1,3.5 0.55,0 1,-1.575 1,-3.5 z m 0,-12 c 0,-1.925 -0.45,-3.5 -1,-3.5 -0.55,0 -1,1.575 -1,3.5 0,1.925 0.45,3.5 1,3.5 0.55,0 1,-1.575 1,-3.5 z"
       style="fill:#00ff00;fill-opacity:0.2;stroke:none;stroke-width:1.00157;stroke-linejoin:round;stroke-miterlimit:4;stroke-dasharray:none;stroke-dashoffset:0;stroke-opacity:1" />
    <path
       transform="scale(0.26458333)"
       id="path4801"
       d="m 327.92573,186.16446 c 52.33495,-51.17703 111.93344,-74.78419 173.05505,-68.54769 10.55812,1.07729 28.78929,4.58478 30.05673,5.78261 0.6627,0.6263 -211.58113,74.27535 -213.70078,74.15462 -0.55,-0.0313 4.21505,-5.15662 10.589,-11.38954 z"
       style="fill:#00ff00;fill-opacity:0.2;stroke:none;stroke-width:1.00157;stroke-linejoin:round;stroke-miterlimit:4;stroke-dasharray:none;stroke-dashoffset:0;stroke-opacity:1" />
    <path
       transform="scale(0.26458333)"
       id="path4804"
       d="m 63.927252,289.13626 c 0.765711,-0.76571 236.131198,-81.68777 236.505088,-81.31387 0.20069,0.20068 -4.27447,5.78964 -9.9448,12.4199 -5.67033,6.63027 -20.59207,24.93915 -33.15942,40.68642 l -22.84972,28.6314 h -85.4875 c -47.01812,0 -85.296766,-0.19074 -85.063648,-0.42385 z"
       style="fill:#ff0000;fill-opacity:0.2;stroke:none;stroke-width:1.00157;stroke-linejoin:round;stroke-miterlimit:4;stroke-dasharray:none;stroke-dashoffset:0;stroke-opacity:1" />
    <path
       transform="scale(0.26458333)"
       id="path4806"
       d="m 240.56796,288.31011 c 14.07075,-18.01885 51.34486,-63.90809 58.12916,-71.56452 l 9.13961,-10.31451 v 41.56451 41.56452 h -34.12244 c -27.15188,0 -33.92304,-0.25535 -33.14633,-1.25 z"
       style="fill:#ff0000;fill-opacity:0.2;stroke:none;stroke-width:1.00157;stroke-linejoin:round;stroke-miterlimit:4;stroke-dasharray:none;stroke-dashoffset:0;stroke-opacity:1" />
    <path
       transform="scale(0.26458333)"
       id="path4808"
       d="m 51.836734,246.02289 v -43.46278 l 125.749996,0.0753 125.75,0.0753 -8,2.8003 c -12.9388,4.52905 -183.40068,63.3564 -214.749996,74.11143 l -28.75,9.86327 z"
       style="fill:#ff0000;fill-opacity:0.2;stroke:none;stroke-width:1.00157;stroke-linejoin:round;stroke-miterlimit:4;stroke-dasharray:none;stroke-dashoffset:0;stroke-opacity:1" />
    <path
       transform="scale(0.26458333)"
       id="path4810"
       d="m 644.83673,247.86002 v -41.70008 l 4.67904,6.43037 c 6.67547,9.17406 16.03234,23.78317 23.03798,35.9698 6.43084,11.18671 18.55148,35.00749 19.71703,38.75 l 0.70073,2.25 h -24.06739 -24.06739 z"
       style="fill:#ff0000;fill-opacity:0.2;stroke:none;stroke-width:1.00157;stroke-linejoin:round;stroke-miterlimit:4;stroke-dasharray:none;stroke-dashoffset:0;stroke-opacity:1" />
    <path
       transform="scale(0.26458333)"
       id="path4812"
       d="M 138.94971,346.0824 C 114.85193,340.60191 87.001309,324.23508 61.836734,300.76582 l -5.5,-5.12947 86.322576,-0.0381 86.32258,-0.0381 -2.15471,2.75 c -10.63132,13.56843 -31.05514,32.49968 -42.68149,39.56231 -14.1556,8.59908 -30.46129,11.56105 -45.19598,8.20998 z"
       style="fill:#ff0000;fill-opacity:0.2;stroke:none;stroke-width:1.00157;stroke-linejoin:round;stroke-miterlimit:4;stroke-dasharray:none;stroke-dashoffset:0;stroke-opacity:1" />
    <path
       style="fill:none;stroke:#000000;stroke-width:0.265;stroke-linecap:butt;stroke-linejoin:miter;stroke-miterlimit:4;stroke-dasharray:1.59, 1.59;stroke-dashoffset:0;stroke-opacity:1"
       d="M -6.9394668,53.354223 V 77.044784"
       id="path4830" />
    <g
       inkscape:label=""
       transform="matrix(1.0000598,0,0,1.0000598,-105.23447,5.166883)"
       id="g5084">
      <g
         id="g5199">
        <g
           id="g8499"
           style="fill:#000000;fill-opacity:1">
          <use
             height="100%"
             width="100%"
             id="use8588"
             y="81.962997"
             x="91.925003"
             xlink:href="#symbol8696" />
        </g>
        <g
           id="g9671"
           style="fill:#000000;fill-opacity:1">
          <use
             height="100%"
             width="100%"
             id="use5448"
             y="83.457001"
             x="99.93"
             xlink:href="#symbol2187" />
        </g>
      </g>
    </g>
    <g
       inkscape:label=""
       transform="matrix(0.90939661,0,0,0.90939661,86.10788,-58.73925)"
       id="g5389">
      <g
         id="g1542">
        <g
           id="g8422"
           style="fill:#000000;fill-opacity:1">
          <use
             height="100%"
             width="100%"
             id="use4127"
             y="81.962997"
             x="91.925003"
             xlink:href="#symbol6712" />
        </g>
        <g
           id="g3315"
           style="fill:#000000;fill-opacity:1">
          <use
             height="100%"
             width="100%"
             id="use8804"
             y="83.457001"
             x="99.93"
             xlink:href="#symbol3120" />
        </g>
        <g
           id="g7919"
           style="fill:#000000;fill-opacity:1">
          <use
             height="100%"
             width="100%"
             id="use9964"
             y="81.962997"
             x="106.205"
             xlink:href="#symbol5468" />
        </g>
        <g
           id="g9308"
           style="fill:#000000;fill-opacity:1">
          <use
             height="100%"
             width="100%"
             id="use6284"
             y="81.962997"
             x="116.721"
             xlink:href="#symbol6712" />
        </g>
        <g
           id="g6379"
           style="fill:#000000;fill-opacity:1">
          <use
             height="100%"
             width="100%"
             id="use5902"
             y="83.457001"
             x="124.726"
             xlink:href="#symbol3120" />
        </g>
        <g
           id="g2994"
           style="fill:#000000;fill-opacity:1">
          <use
             height="100%"
             width="100%"
             id="use9347"
             y="83.457001"
             x="127.735"
             xlink:href="#symbol3176" />
          <use
             height="100%"
             width="100%"
             id="use7479"
             y="83.457001"
             x="133.85103"
             xlink:href="#symbol2716" />
        </g>
      </g>
    </g>
  </g>
</svg>
