<?xml version="1.0" encoding="UTF-8" standalone="no"?>
<!-- Created with Inkscape (http://www.inkscape.org/) -->

<svg
   xmlns:ns0="http://www.iki.fi/pav/software/textext/"
   xmlns:dc="http://purl.org/dc/elements/1.1/"
   xmlns:cc="http://creativecommons.org/ns#"
   xmlns:rdf="http://www.w3.org/1999/02/22-rdf-syntax-ns#"
   xmlns:svg="http://www.w3.org/2000/svg"
   xmlns="http://www.w3.org/2000/svg"
   xmlns:xlink="http://www.w3.org/1999/xlink"
   xmlns:sodipodi="http://sodipodi.sourceforge.net/DTD/sodipodi-0.dtd"
   xmlns:inkscape="http://www.inkscape.org/namespaces/inkscape"
   width="210mm"
   height="297mm"
   viewBox="0 0 210 297"
   version="1.1"
   id="svg8"
   sodipodi:docname="Conservation.svg"
   inkscape:version="0.92.4 (5da689c313, 2019-01-14)"
   inkscape:export-filename="C:\Users\smatw1\Dropbox\Math_bio_course\Pictures\Conservation.png"
   inkscape:export-xdpi="300"
   inkscape:export-ydpi="300">
  <defs
     id="defs2">
    <marker
       inkscape:isstock="true"
       style="overflow:visible"
       id="marker1695"
       refX="0"
       refY="0"
       orient="auto"
       inkscape:stockid="Arrow1Lend">
      <path
         transform="matrix(-0.8,0,0,-0.8,-10,0)"
         style="fill:#000000;fill-opacity:1;fill-rule:evenodd;stroke:#000000;stroke-width:1.00000003pt;stroke-opacity:1"
         d="M 0,0 5,-5 -12.5,0 5,5 Z"
         id="path1693"
         inkscape:connector-curvature="0" />
    </marker>
    <marker
       inkscape:stockid="Arrow1Lend"
       orient="auto"
       refY="0.0"
       refX="0.0"
       id="Arrow1Lend"
       style="overflow:visible;"
       inkscape:isstock="true">
      <path
         id="path1033"
         d="M 0.0,0.0 L 5.0,-5.0 L -12.5,0.0 L 5.0,5.0 L 0.0,0.0 z "
         style="fill-rule:evenodd;stroke:#000000;stroke-width:1pt;stroke-opacity:1;fill:#000000;fill-opacity:1"
         transform="scale(0.8) rotate(180) translate(12.5,0)" />
    </marker>
    <linearGradient
       inkscape:collect="always"
       id="linearGradient884">
      <stop
         style="stop-color:#ffffff;stop-opacity:0"
         offset="0"
         id="stop880" />
      <stop
         id="stop892"
         offset="0.27716202"
         style="stop-color:#ffff00;stop-opacity:0.40392157;" />
      <stop
         style="stop-color:#b7b700;stop-opacity:1"
         offset="1"
         id="stop882" />
    </linearGradient>
    <radialGradient
       inkscape:collect="always"
       xlink:href="#linearGradient884"
       id="radialGradient890"
       cx="50.397011"
       cy="43.311108"
       fx="50.397011"
       fy="43.311108"
       r="6.9309602"
       gradientUnits="userSpaceOnUse"
       gradientTransform="matrix(0.63144962,0,0,0.63144962,8.6335615,11.976512)" />
    <radialGradient
       inkscape:collect="always"
       xlink:href="#linearGradient884"
       id="radialGradient890-7"
       cx="50.397011"
       cy="43.311108"
       fx="50.397011"
       fy="43.311108"
       r="6.9309602"
       gradientUnits="userSpaceOnUse"
       gradientTransform="matrix(0.63144963,0,0,0.63144963,24.185311,-1.9382073)" />
    <radialGradient
       inkscape:collect="always"
       xlink:href="#linearGradient884"
       id="radialGradient890-8"
       cx="50.397011"
       cy="43.311108"
       fx="50.397011"
       fy="43.311108"
       r="6.9309602"
       gradientUnits="userSpaceOnUse"
       gradientTransform="matrix(0.63144963,0,0,0.63144963,30.967276,5.4785221)" />
    <radialGradient
       inkscape:collect="always"
       xlink:href="#linearGradient884"
       id="radialGradient890-0"
       cx="50.397011"
       cy="43.311108"
       fx="50.397011"
       fy="43.311108"
       r="6.9309602"
       gradientUnits="userSpaceOnUse"
       gradientTransform="matrix(0.63144963,0,0,0.63144963,23.149639,22.049236)" />
    <radialGradient
       inkscape:collect="always"
       xlink:href="#linearGradient884"
       id="radialGradient890-8-6"
       cx="50.397011"
       cy="43.311108"
       fx="50.397011"
       fy="43.311108"
       r="6.9309602"
       gradientUnits="userSpaceOnUse"
       gradientTransform="matrix(0.63144963,0,0,0.63144963,-10.877109,-16.638035)" />
    <radialGradient
       inkscape:collect="always"
       xlink:href="#linearGradient884"
       id="radialGradient890-7-4"
       cx="50.397011"
       cy="43.311108"
       fx="50.397011"
       fy="43.311108"
       r="6.9309602"
       gradientUnits="userSpaceOnUse"
       gradientTransform="matrix(0.63144963,0,0,0.63144963,-1.7231286,-23.252955)" />
    <radialGradient
       inkscape:collect="always"
       xlink:href="#linearGradient884"
       id="radialGradient890-7-5"
       cx="50.397011"
       cy="43.311108"
       fx="50.397011"
       fy="43.311108"
       r="6.9309602"
       gradientUnits="userSpaceOnUse"
       gradientTransform="matrix(0.63144963,0,0,0.63144963,48.32309,-19.210503)" />
    <marker
       inkscape:stockid="Arrow1Lend"
       orient="auto"
       refY="0"
       refX="0"
       id="Arrow1Lend-4"
       style="overflow:visible"
       inkscape:isstock="true"
       inkscape:collect="always">
      <path
         inkscape:connector-curvature="0"
         id="path1033-3"
         d="M 0,0 5,-5 -12.5,0 5,5 Z"
         style="fill:#000000;fill-opacity:1;fill-rule:evenodd;stroke:#000000;stroke-width:1.00000003pt;stroke-opacity:1"
         transform="matrix(-0.8,0,0,-0.8,-10,0)" />
    </marker>
    <marker
       inkscape:isstock="true"
       style="overflow:visible"
       id="marker1695-4"
       refX="0"
       refY="0"
       orient="auto"
       inkscape:stockid="Arrow1Lend">
      <path
         transform="matrix(-0.8,0,0,-0.8,-10,0)"
         style="fill:#000000;fill-opacity:1;fill-rule:evenodd;stroke:#000000;stroke-width:1.00000003pt;stroke-opacity:1"
         d="M 0,0 5,-5 -12.5,0 5,5 Z"
         id="path1693-4"
         inkscape:connector-curvature="0" />
    </marker>
  </defs>
  <sodipodi:namedview
     id="base"
     pagecolor="#ffffff"
     bordercolor="#666666"
     borderopacity="1.0"
     inkscape:pageopacity="0.0"
     inkscape:pageshadow="2"
     inkscape:zoom="3.8818155"
     inkscape:cx="120.94856"
     inkscape:cy="969.01971"
     inkscape:document-units="mm"
     inkscape:current-layer="layer1"
     showgrid="false"
     inkscape:window-width="3840"
     inkscape:window-height="2028"
     inkscape:window-x="-16"
     inkscape:window-y="-16"
     inkscape:window-maximized="1" />
  <metadata
     id="metadata5">
    <rdf:RDF>
      <cc:Work
         rdf:about="">
        <dc:format>image/svg+xml</dc:format>
        <dc:type
           rdf:resource="http://purl.org/dc/dcmitype/StillImage" />
        <dc:title />
      </cc:Work>
    </rdf:RDF>
  </metadata>
  <g
     inkscape:label="Layer 1"
     inkscape:groupmode="layer"
     id="layer1">
    <path
       style="fill:none;stroke:#000000;stroke-width:0.5291667;stroke-linecap:butt;stroke-linejoin:round;stroke-miterlimit:4;stroke-dasharray:none;stroke-opacity:1"
       d="m 75.710566,20.212426 h -5 v 39.999999 h -40 v -40 h -5"
       id="path815-3"
       inkscape:connector-curvature="0"
       sodipodi:nodetypes="cccccc" />
    <circle
       style="fill:url(#radialGradient890);fill-opacity:1;stroke:none;stroke-width:0.16707103;stroke-linejoin:round;stroke-miterlimit:4;stroke-dasharray:none;stroke-opacity:1"
       id="path870"
       cx="38.937828"
       cy="41.139538"
       r="4.2930164" />
    <circle
       style="fill:url(#radialGradient890-7);fill-opacity:1;stroke:none;stroke-width:0.16707103;stroke-linejoin:round;stroke-miterlimit:4;stroke-dasharray:none;stroke-opacity:1"
       id="path870-7"
       cx="54.489574"
       cy="27.224823"
       r="4.2930164" />
    <circle
       style="fill:url(#radialGradient890-8);fill-opacity:1;stroke:none;stroke-width:0.16707103;stroke-linejoin:round;stroke-miterlimit:4;stroke-dasharray:none;stroke-opacity:1"
       id="path870-6"
       cx="61.271538"
       cy="34.641552"
       r="4.2930164" />
    <g
       id="g962"
       transform="translate(3.9756342,2.6058779)">
      <circle
         r="4.2930164"
         cy="51.212261"
         cx="53.453907"
         id="path870-4"
         style="fill:url(#radialGradient890-0);fill-opacity:1;stroke:none;stroke-width:0.16707103;stroke-linejoin:round;stroke-miterlimit:4;stroke-dasharray:none;stroke-opacity:1" />
      <circle
         style="fill:#ff0000;fill-opacity:0.37101452;stroke:none;stroke-width:0.16707103;stroke-linejoin:round;stroke-miterlimit:4;stroke-dasharray:none;stroke-opacity:1"
         id="circle958"
         cx="53.453907"
         cy="51.212261"
         r="4.2930164" />
    </g>
    <circle
       style="fill:url(#radialGradient890-7-4);fill-opacity:1;stroke:none;stroke-width:0.16707103;stroke-linejoin:round;stroke-miterlimit:4;stroke-dasharray:none;stroke-opacity:1"
       id="path870-7-3"
       cx="28.581137"
       cy="5.9100761"
       r="4.2930164" />
    <circle
       style="fill:url(#radialGradient890-8-6);fill-opacity:1;stroke:none;stroke-width:0.16707103;stroke-linejoin:round;stroke-miterlimit:4;stroke-dasharray:none;stroke-opacity:1"
       id="path870-6-8"
       cx="19.427153"
       cy="12.524994"
       r="4.2930164" />
    <circle
       style="fill:url(#radialGradient890-7-5);fill-opacity:1;stroke:none;stroke-width:0.16707103;stroke-linejoin:round;stroke-miterlimit:4;stroke-dasharray:none;stroke-opacity:1"
       id="path870-7-9"
       cx="78.627357"
       cy="9.952527"
       r="4.2930164" />
    <path
       style="fill:none;stroke:#000000;stroke-width:0.26458333;stroke-linecap:butt;stroke-linejoin:miter;stroke-opacity:1;stroke-miterlimit:4;stroke-dasharray:none;marker-end:url(#Arrow1Lend)"
       d="m 29.934188,13.794526 c 0,0 9.354431,0.334087 12.127354,12.962572"
       id="path1028"
       inkscape:connector-curvature="0" />
    <path
       style="fill:none;stroke:#000000;stroke-width:0.26458332;stroke-linecap:butt;stroke-linejoin:miter;stroke-miterlimit:4;stroke-dasharray:none;stroke-opacity:1;marker-end:url(#Arrow1Lend-4)"
       d="m 62.290384,26.268148 c 0,0 -1.521659,-9.235883 10.309488,-14.450447"
       id="path1028-2"
       inkscape:connector-curvature="0" />
    <path
       style="fill:none;stroke:#000000;stroke-width:0.26458332px;stroke-linecap:butt;stroke-linejoin:miter;stroke-opacity:1;marker-end:url(#marker1695)"
       d="m 44.600603,38.717409 8.242146,-4.758608"
       id="path1685"
       inkscape:connector-curvature="0" />
    <path
       style="fill:none;stroke:#000000;stroke-width:0.26458332px;stroke-linecap:butt;stroke-linejoin:miter;stroke-opacity:1;marker-end:url(#marker1695-4)"
       d="m 43.76133,45.690602 8.242146,4.758608"
       id="path1685-5"
       inkscape:connector-curvature="0" />
    <g
       ns0:jacobian_sqrt="0.352778"
       inkscapeversion="0.92.4"
       ns0:alignment="middle center"
       ns0:scale="1.0"
       ns0:preamble="default_packages.tex"
       ns0:text="Immigration\n"
       ns0:pdfconverter="pstoedit"
       ns0:texconverter="pdflatex"
       ns0:version="0.11.0"
       word-spacing="normal"
       letter-spacing="normal"
       font-size-adjust="none"
       font-stretch="normal"
       font-weight="normal"
       font-variant="normal"
       font-style="normal"
       stroke-miterlimit="10.433"
       xml:space="preserve"
       transform="matrix(0.27997238,0.21463407,0.21463407,-0.27997238,-159.55473,174.91014)"
       id="g2792"
       style="font-style:normal;font-variant:normal;font-weight:normal;font-stretch:normal;letter-spacing:normal;word-spacing:normal;text-anchor:start;fill:none;fill-opacity:1;fill-rule:evenodd;stroke:#000000;stroke-linecap:butt;stroke-linejoin:miter;stroke-miterlimit:10.43299961;stroke-dasharray:none;stroke-dashoffset:0;stroke-opacity:1">
<path
   id="path2766"
   d="m 150.95,713.14 v 0.03 0.04 0.03 0.02 0.03 0.03 l 0.01,0.02 v 0.03 l 0.01,0.02 0.01,0.02 0.01,0.02 0.01,0.02 0.01,0.01 0.01,0.02 0.02,0.02 0.02,0.01 0.02,0.01 0.02,0.01 0.02,0.01 0.01,0.01 h 0.01 l 0.02,0.01 h 0.01 0.02 l 0.02,0.01 h 0.01 l 0.02,0.01 h 0.02 0.02 l 0.02,0.01 h 0.02 0.03 0.02 l 0.02,0.01 h 0.03 0.02 0.03 0.03 0.03 l 0.03,0.01 h 0.03 0.03 0.03 0.04 0.03 0.04 0.26 v 0.3 c -0.36,-0.03 -1.14,-0.03 -1.51,-0.03 -0.39,0 -1.17,0 -1.52,0.03 v -0.3 h 0.25 c 0.8,0 0.81,-0.11 0.81,-0.47 v -5.23 c 0,-0.36 -0.01,-0.47 -0.81,-0.47 h -0.25 v -0.31 c 0.35,0.03 1.13,0.03 1.5,0.03 0.39,0 1.17,0 1.53,-0.03 v 0.31 h -0.26 c -0.78,0 -0.81,0.11 -0.81,0.47 z"
   inkscape:connector-curvature="0"
   style="fill:#000000;stroke-width:0" />
<path
   id="path2768"
   d="m 153.4,710.55 v -2.67 c 0,-0.44 -0.11,-0.44 -0.78,-0.44 v -0.31 c 0.36,0.01 0.86,0.03 1.12,0.03 0.27,0 0.78,-0.02 1.11,-0.03 v 0.31 c -0.65,0 -0.76,0 -0.76,0.44 v 1.82 c 0,1.03 0.7,1.6 1.34,1.6 0.62,0 0.73,-0.53 0.73,-1.11 v -2.31 c 0,-0.44 -0.11,-0.44 -0.78,-0.44 v -0.31 c 0.35,0.01 0.86,0.03 1.13,0.03 0.25,0 0.78,-0.02 1.11,-0.03 v 0.31 c -0.66,0 -0.77,0 -0.77,0.44 v 1.82 c 0,1.03 0.7,1.6 1.33,1.6 0.62,0 0.73,-0.53 0.73,-1.11 v -2.31 c 0,-0.44 -0.11,-0.44 -0.76,-0.44 v -0.31 c 0.34,0.01 0.86,0.03 1.12,0.03 0.25,0 0.77,-0.02 1.11,-0.03 v 0.31 c -0.51,0 -0.76,0 -0.78,0.29 v 1.9 c 0,0.85 0,1.17 -0.3,1.51 -0.14,0.17 -0.46,0.38 -1.04,0.38 -0.85,0 -1.28,-0.6 -1.44,-0.97 -0.14,0.86 -0.87,0.97 -1.33,0.97 -0.72,0 -1.19,-0.43 -1.47,-1.05 v 1.05 l -1.4,-0.11 v -0.32 c 0.7,0 0.78,-0.06 0.78,-0.54 z"
   inkscape:connector-curvature="0"
   style="fill:#000000;stroke-width:0" />
<path
   id="path2770"
   d="m 161.7,710.55 v -2.67 c 0,-0.44 -0.11,-0.44 -0.78,-0.44 v -0.31 c 0.36,0.01 0.86,0.03 1.12,0.03 0.27,0 0.78,-0.02 1.11,-0.03 v 0.31 c -0.65,0 -0.76,0 -0.76,0.44 v 1.82 c 0,1.03 0.7,1.6 1.34,1.6 0.62,0 0.73,-0.53 0.73,-1.11 v -2.31 c 0,-0.44 -0.11,-0.44 -0.78,-0.44 v -0.31 c 0.35,0.01 0.86,0.03 1.13,0.03 0.25,0 0.78,-0.02 1.11,-0.03 v 0.31 c -0.66,0 -0.77,0 -0.77,0.44 v 1.82 c 0,1.03 0.7,1.6 1.33,1.6 0.62,0 0.73,-0.53 0.73,-1.11 v -2.31 c 0,-0.44 -0.11,-0.44 -0.76,-0.44 v -0.31 c 0.34,0.01 0.86,0.03 1.12,0.03 0.25,0 0.77,-0.02 1.11,-0.03 v 0.31 c -0.51,0 -0.76,0 -0.78,0.29 v 1.9 c 0,0.85 0,1.17 -0.3,1.51 -0.14,0.17 -0.46,0.38 -1.04,0.38 -0.85,0 -1.28,-0.6 -1.44,-0.97 -0.14,0.86 -0.87,0.97 -1.33,0.97 -0.72,0 -1.19,-0.43 -1.47,-1.05 v 1.05 l -1.4,-0.11 v -0.32 c 0.7,0 0.78,-0.06 0.78,-0.54 z"
   inkscape:connector-curvature="0"
   style="fill:#000000;stroke-width:0" />
<path
   id="path2772"
   d="m 170.67,711.52 -1.39,-0.11 v -0.32 c 0.64,0 0.74,-0.06 0.74,-0.54 v -2.67 c 0,-0.44 -0.11,-0.44 -0.79,-0.44 v -0.31 c 0.32,0.01 0.86,0.03 1.1,0.03 0.34,0 0.69,-0.02 1.03,-0.03 v 0.31 c -0.66,0 -0.69,0.04 -0.69,0.44 z"
   inkscape:connector-curvature="0"
   style="fill:#000000;stroke-width:0" />
<path
   id="path2774"
   d="m 170.7,713.25 v 0.03 0.03 0.03 l -0.01,0.02 v 0.03 l -0.01,0.02 -0.01,0.03 -0.01,0.02 -0.01,0.03 -0.01,0.02 -0.02,0.02 -0.01,0.02 -0.02,0.02 -0.01,0.02 -0.02,0.02 -0.02,0.02 -0.02,0.01 -0.02,0.02 -0.02,0.01 -0.02,0.02 -0.02,0.01 -0.02,0.01 -0.02,0.01 -0.03,0.01 -0.02,0.01 -0.02,0.01 h -0.03 l -0.02,0.01 h -0.03 -0.03 l -0.02,0.01 h -0.03 c -0.29,0 -0.51,-0.27 -0.51,-0.52 0,-0.28 0.22,-0.53 0.51,-0.53 0.28,0 0.53,0.2 0.53,0.53 z"
   inkscape:connector-curvature="0"
   style="fill:#000000;stroke-width:0" />
<path
   id="path2776"
   d="m 172.72,708.45 v 0.01 0 0.01 0 0.01 0.01 0.01 0.01 0.01 0.01 l 0.01,0.02 v 0.01 0.01 0.02 l 0.01,0.02 v 0.01 0.02 l 0.01,0.01 v 0.02 l 0.01,0.02 0.01,0.02 v 0.01 l 0.01,0.02 0.01,0.02 0.01,0.02 0.01,0.02 0.01,0.02 0.01,0.01 0.02,0.02 0.01,0.02 0.02,0.02 0.01,0.02 c 0.39,-0.27 0.8,-0.3 0.99,-0.3 v 0.22 c -0.86,0 -0.86,1 -0.86,1.23 0,0.27 0,0.58 0.15,0.83 0.08,0.13 0.31,0.39 0.71,0.39 0.85,0 0.85,-0.98 0.85,-1.22 0,-0.26 0,-0.58 -0.15,-0.83 -0.08,-0.12 -0.3,-0.4 -0.7,-0.4 v 0 -0.22 c 0.92,0 1.6,0.69 1.6,1.45 0,0.36 -0.15,0.74 -0.4,0.96 0.36,0.34 0.72,0.39 0.89,0.39 0.03,0 0.08,0 0.11,-0.02 -0.11,-0.03 -0.17,-0.14 -0.17,-0.26 0,-0.18 0.14,-0.29 0.29,-0.29 0.1,0 0.28,0.07 0.28,0.3 0,0.17 -0.1,0.49 -0.5,0.49 -0.2,0 -0.64,-0.07 -1.04,-0.47 -0.42,0.32 -0.85,0.36 -1.06,0.36 -0.93,0 -1.61,-0.69 -1.61,-1.46 0,-0.43 0.21,-0.81 0.46,-1.01 -0.12,-0.16 -0.31,-0.49 -0.31,-0.83 0,-0.31 0.14,-0.69 0.44,-0.89 -0.59,-0.16 -0.91,-0.6 -0.91,-0.99 0,-0.71 0.99,-1.26 2.19,-1.26 l 0.02,0.23 c -1,0 -1.69,0.5 -1.69,1.03 0,0.46 0.37,0.83 0.81,0.85 h 0.6 c 0.84,0 1.95,0 1.95,-0.85 0,-0.54 -0.7,-1.03 -1.67,-1.03 v 0 l -0.02,-0.23 c 1.17,0 2.2,0.5 2.2,1.28 0,0.34 -0.12,0.86 -0.64,1.14 -0.53,0.27 -1.09,0.27 -1.7,0.27 -0.25,0 -0.67,0 -0.75,0.01 -0.31,0.05 -0.53,0.35 -0.53,0.67 z"
   inkscape:connector-curvature="0"
   style="fill:#000000;stroke-width:0" />
<path
   id="path2778"
   d="m 178.31,710.42 v 1.1 l -1.38,-0.11 v -0.32 c 0.69,0 0.77,-0.06 0.77,-0.54 v -2.67 c 0,-0.44 -0.11,-0.44 -0.77,-0.44 v -0.31 c 0.39,0.01 0.85,0.03 1.13,0.03 0.4,0 0.87,0 1.26,-0.03 v 0.31 h -0.2 c -0.73,0 -0.77,0.11 -0.77,0.47 v 1.51 c 0,0.99 0.43,1.88 1.18,1.88 0.07,0 0.09,0 0.11,-0.02 -0.04,0 -0.22,-0.12 -0.22,-0.37 0,-0.28 0.2,-0.44 0.42,-0.44 0.19,0 0.42,0.12 0.42,0.44 0,0.32 -0.3,0.61 -0.73,0.61 -0.72,0 -1.08,-0.68 -1.22,-1.1 z"
   inkscape:connector-curvature="0"
   style="fill:#000000;stroke-width:0" />
<path
   id="path2780"
   d="m 183.87,707.88 v -0.04 l 0.01,-0.04 v -0.04 l 0.01,-0.03 0.01,-0.04 0.01,-0.04 0.01,-0.03 0.01,-0.04 0.02,-0.03 0.01,-0.04 0.02,-0.03 0.02,-0.03 0.02,-0.04 0.02,-0.03 0.02,-0.03 0.03,-0.03 0.02,-0.03 0.03,-0.02 0.02,-0.03 0.03,-0.02 0.03,-0.03 0.03,-0.02 0.04,-0.02 0.03,-0.02 0.03,-0.01 0.04,-0.02 0.04,-0.01 0.04,-0.01 0.04,-0.01 h 0.04 l 0.04,-0.01 h 0.04 c 0.22,0 0.82,0.14 0.82,0.96 v 0.54 h -0.24 v -0.54 c 0,-0.58 -0.25,-0.64 -0.36,-0.64 -0.33,0 -0.37,0.45 -0.37,0.5 v 1.98 c 0,0.42 0,0.8 -0.36,1.17 -0.39,0.39 -0.88,0.55 -1.36,0.55 -0.81,0 -1.5,-0.47 -1.5,-1.13 0,-0.29 0.2,-0.47 0.45,-0.47 0.28,0 0.47,0.21 0.47,0.46 0,0.12 -0.06,0.45 -0.52,0.47 0.27,0.34 0.77,0.45 1.08,0.45 0.49,0 1.05,-0.39 1.05,-1.28 v -0.36 -0.2 -1 c 0,-0.94 -0.72,-1.29 -1.16,-1.29 -0.48,0 -0.89,0.35 -0.89,0.85 0,0.55 0.41,1.37 2.05,1.44 v 0 0.2 c -0.5,-0.03 -1.2,-0.06 -1.83,-0.36 -0.73,-0.34 -0.98,-0.86 -0.98,-1.3 0,-0.79 0.95,-1.04 1.57,-1.04 0.66,0 1.13,0.39 1.32,0.86 z"
   inkscape:connector-curvature="0"
   style="fill:#000000;stroke-width:0" />
<path
   id="path2782"
   d="m 187.25,711.09 h 1.43 v 0.32 h -1.43 v 1.82 H 187 c -0.01,-0.81 -0.31,-1.87 -1.28,-1.92 v -0.22 h 0.85 v -2.73 c 0,-1.22 0.92,-1.34 1.28,-1.34 0.7,0 0.98,0.7 0.98,1.34 v 0.56 h -0.25 v -0.54 c 0,-0.74 -0.29,-1.11 -0.65,-1.11 -0.68,0 -0.68,0.9 -0.68,1.07 z"
   inkscape:connector-curvature="0"
   style="fill:#000000;stroke-width:0" />
<path
   id="path2784"
   d="m 191.17,711.52 -1.39,-0.11 v -0.32 c 0.64,0 0.74,-0.06 0.74,-0.54 v -2.67 c 0,-0.44 -0.11,-0.44 -0.79,-0.44 v -0.31 c 0.32,0.01 0.86,0.03 1.1,0.03 0.34,0 0.69,-0.02 1.03,-0.03 v 0.31 c -0.66,0 -0.69,0.04 -0.69,0.44 z"
   inkscape:connector-curvature="0"
   style="fill:#000000;stroke-width:0" />
<path
   id="path2786"
   d="m 191.2,713.25 v 0.03 0.03 0.03 l -0.01,0.02 v 0.03 l -0.01,0.02 -0.01,0.03 -0.01,0.02 -0.01,0.03 -0.01,0.02 -0.02,0.02 -0.01,0.02 -0.02,0.02 -0.01,0.02 -0.02,0.02 -0.02,0.02 -0.02,0.01 -0.02,0.02 -0.02,0.01 -0.02,0.02 -0.02,0.01 -0.02,0.01 -0.02,0.01 -0.03,0.01 -0.02,0.01 -0.02,0.01 h -0.03 l -0.02,0.01 h -0.03 -0.03 l -0.02,0.01 h -0.03 c -0.29,0 -0.51,-0.27 -0.51,-0.52 0,-0.28 0.22,-0.53 0.51,-0.53 0.28,0 0.53,0.2 0.53,0.53 z"
   inkscape:connector-curvature="0"
   style="fill:#000000;stroke-width:0" />
<path
   id="path2788"
   d="m 196.84,709.25 v 0.12 l -0.01,0.11 -0.01,0.12 -0.02,0.11 -0.03,0.12 -0.02,0.1 -0.04,0.11 -0.04,0.11 -0.04,0.1 -0.05,0.1 -0.05,0.1 -0.06,0.09 -0.06,0.09 -0.07,0.09 -0.07,0.09 -0.07,0.08 -0.07,0.08 -0.08,0.07 -0.09,0.07 -0.08,0.07 -0.09,0.06 -0.09,0.05 -0.1,0.06 -0.09,0.04 -0.1,0.04 -0.11,0.04 -0.1,0.03 -0.1,0.03 -0.11,0.02 -0.11,0.02 h -0.11 l -0.11,0.01 -0.02,-0.22 c 0.44,0 0.88,-0.22 1.13,-0.64 0.26,-0.44 0.26,-1.02 0.26,-1.39 0,-0.36 0,-0.89 -0.22,-1.33 -0.22,-0.45 -0.65,-0.73 -1.15,-0.73 v 0 c -0.43,0 -0.86,0.2 -1.14,0.65 -0.24,0.44 -0.24,1.05 -0.24,1.41 0,0.39 0,0.92 0.24,1.36 0.26,0.45 0.73,0.67 1.12,0.67 l 0.02,0.22 c -1.25,0 -2.21,-1.08 -2.21,-2.33 0,-1.28 1.03,-2.23 2.19,-2.23 1.2,0 2.2,0.96 2.2,2.23 z"
   inkscape:connector-curvature="0"
   style="fill:#000000;stroke-width:0" />
<path
   id="path2790"
   d="m 198.25,710.55 v -2.67 c 0,-0.44 -0.11,-0.44 -0.79,-0.44 v -0.31 c 0.36,0.01 0.86,0.03 1.13,0.03 0.26,0 0.78,-0.02 1.11,-0.03 v 0.31 c -0.66,0 -0.77,0 -0.77,0.44 v 1.82 c 0,1.03 0.71,1.6 1.35,1.6 0.62,0 0.73,-0.53 0.73,-1.11 v -2.31 c 0,-0.44 -0.11,-0.44 -0.78,-0.44 v -0.31 c 0.34,0.01 0.86,0.03 1.12,0.03 0.25,0 0.79,-0.02 1.11,-0.03 v 0.31 c -0.51,0 -0.76,0 -0.76,0.29 v 1.9 c 0,0.85 0,1.17 -0.31,1.51 -0.14,0.17 -0.47,0.38 -1.05,0.38 -0.72,0 -1.19,-0.43 -1.47,-1.05 v 1.05 l -1.41,-0.11 v -0.32 c 0.71,0 0.79,-0.06 0.79,-0.54 z"
   inkscape:connector-curvature="0"
   style="fill:#000000;stroke-width:0" />
</g>    <g
       ns0:jacobian_sqrt="0.352778"
       inkscapeversion="0.92.4"
       ns0:alignment="middle center"
       ns0:scale="1.0"
       ns0:preamble="default_packages.tex"
       ns0:text="Emigration\n"
       ns0:pdfconverter="pstoedit"
       ns0:texconverter="pdflatex"
       ns0:version="0.11.0"
       word-spacing="normal"
       letter-spacing="normal"
       font-size-adjust="none"
       font-stretch="normal"
       font-weight="normal"
       font-variant="normal"
       font-style="normal"
       stroke-miterlimit="10.433"
       xml:space="preserve"
       transform="matrix(0.2733932,-0.22295397,-0.22295397,-0.2733932,175.00963,244.34864)"
       id="g2905"
       style="font-style:normal;font-variant:normal;font-weight:normal;font-stretch:normal;letter-spacing:normal;word-spacing:normal;text-anchor:start;fill:none;fill-opacity:1;fill-rule:evenodd;stroke:#000000;stroke-linecap:butt;stroke-linejoin:miter;stroke-miterlimit:10.43299961;stroke-dasharray:none;stroke-dashoffset:0;stroke-opacity:1">
<path
   id="path2881"
   d="m 150.05,707.91 v -0.04 -0.03 -0.03 -0.03 -0.02 -0.03 -0.03 l -0.01,-0.02 -0.01,-0.02 v -0.02 l -0.01,-0.02 -0.01,-0.02 -0.01,-0.02 -0.02,-0.01 -0.01,-0.02 -0.02,-0.01 -0.02,-0.02 -0.02,-0.01 h -0.01 l -0.02,-0.01 h -0.01 l -0.01,-0.01 h -0.02 l -0.01,-0.01 h -0.02 l -0.02,-0.01 h -0.01 -0.02 l -0.02,-0.01 h -0.02 -0.02 -0.02 l -0.03,-0.01 h -0.02 -0.02 -0.03 l -0.03,-0.01 h -0.02 -0.03 -0.03 -0.03 -0.03 -0.03 -0.04 -0.03 -0.04 -0.23 v -0.31 h 5.73 l 0.43,2.56 h -0.25 c -0.25,-1.53 -0.49,-2.25 -2.19,-2.25 h -1.33 c -0.47,0 -0.48,0.06 -0.48,0.39 v 2.65 h 0.89 c 0.96,0 1.07,-0.31 1.07,-1.15 h 0.25 v 2.62 h -0.25 c 0,-0.86 -0.11,-1.15 -1.07,-1.15 h -0.89 v 2.37 c 0,0.33 0.01,0.41 0.48,0.41 h 1.28 c 1.52,0 1.8,-0.55 1.95,-1.94 h 0.25 l -0.28,2.24 h -5.59 v -0.3 h 0.23 c 0.77,0 0.78,-0.11 0.78,-0.47 z"
   inkscape:connector-curvature="0"
   style="fill:#000000;stroke-width:0" />
<path
   id="path2883"
   d="m 156.58,710.55 v -2.67 c 0,-0.44 -0.11,-0.44 -0.78,-0.44 v -0.31 c 0.36,0.01 0.86,0.03 1.13,0.03 0.26,0 0.78,-0.02 1.11,-0.03 v 0.31 c -0.66,0 -0.77,0 -0.77,0.44 v 1.82 c 0,1.03 0.7,1.6 1.34,1.6 0.63,0 0.74,-0.53 0.74,-1.11 v -2.31 c 0,-0.44 -0.11,-0.44 -0.78,-0.44 v -0.31 c 0.34,0.01 0.86,0.03 1.12,0.03 0.25,0 0.78,-0.02 1.11,-0.03 v 0.31 c -0.65,0 -0.76,0 -0.76,0.44 v 1.82 c 0,1.03 0.7,1.6 1.32,1.6 0.63,0 0.74,-0.53 0.74,-1.11 v -2.31 c 0,-0.44 -0.11,-0.44 -0.77,-0.44 v -0.31 c 0.35,0.01 0.86,0.03 1.13,0.03 0.25,0 0.76,-0.02 1.11,-0.03 v 0.31 c -0.52,0 -0.77,0 -0.78,0.29 v 1.9 c 0,0.85 0,1.17 -0.3,1.51 -0.14,0.17 -0.47,0.38 -1.05,0.38 -0.84,0 -1.28,-0.6 -1.44,-0.97 -0.14,0.86 -0.87,0.97 -1.32,0.97 -0.72,0 -1.19,-0.43 -1.47,-1.05 v 1.05 l -1.41,-0.11 v -0.32 c 0.7,0 0.78,-0.06 0.78,-0.54 z"
   inkscape:connector-curvature="0"
   style="fill:#000000;stroke-width:0" />
<path
   id="path2885"
   d="m 165.55,711.52 -1.39,-0.11 v -0.32 c 0.64,0 0.74,-0.06 0.74,-0.54 v -2.67 c 0,-0.44 -0.11,-0.44 -0.78,-0.44 v -0.31 c 0.31,0.01 0.86,0.03 1.09,0.03 0.34,0 0.69,-0.02 1.03,-0.03 v 0.31 c -0.65,0 -0.69,0.04 -0.69,0.44 z"
   inkscape:connector-curvature="0"
   style="fill:#000000;stroke-width:0" />
<path
   id="path2887"
   d="m 165.59,713.25 v 0.03 l -0.01,0.03 v 0.03 l -0.01,0.02 v 0.03 l -0.01,0.02 -0.01,0.03 -0.01,0.02 -0.01,0.03 -0.01,0.02 -0.01,0.02 -0.02,0.02 -0.01,0.02 -0.02,0.02 -0.02,0.02 -0.01,0.02 -0.02,0.01 -0.02,0.02 -0.02,0.01 -0.02,0.02 -0.03,0.01 -0.02,0.01 -0.02,0.01 -0.02,0.01 -0.03,0.01 -0.02,0.01 h -0.03 l -0.02,0.01 h -0.03 -0.02 l -0.03,0.01 h -0.03 c -0.29,0 -0.51,-0.27 -0.51,-0.52 0,-0.28 0.22,-0.53 0.51,-0.53 0.29,0 0.54,0.2 0.54,0.53 z"
   inkscape:connector-curvature="0"
   style="fill:#000000;stroke-width:0" />
<path
   id="path2889"
   d="m 167.6,708.45 v 0.01 0 0.01 0 0.01 0.01 0.01 0.01 l 0.01,0.01 v 0.01 0.02 0.01 0.01 l 0.01,0.02 v 0.02 0.01 l 0.01,0.02 v 0.01 l 0.01,0.02 v 0.02 l 0.01,0.02 0.01,0.01 0.01,0.02 v 0.02 l 0.01,0.02 0.01,0.02 0.01,0.02 0.02,0.01 0.01,0.02 0.01,0.02 0.02,0.02 0.01,0.02 c 0.39,-0.27 0.8,-0.3 0.99,-0.3 v 0.22 c -0.86,0 -0.86,1 -0.86,1.23 0,0.27 0,0.58 0.15,0.83 0.08,0.13 0.32,0.39 0.71,0.39 0.86,0 0.86,-0.98 0.86,-1.22 0,-0.26 0,-0.58 -0.16,-0.83 -0.08,-0.12 -0.3,-0.4 -0.7,-0.4 v 0 -0.22 c 0.92,0 1.61,0.69 1.61,1.45 0,0.36 -0.16,0.74 -0.41,0.96 0.36,0.34 0.72,0.39 0.89,0.39 0.03,0 0.08,0 0.11,-0.02 -0.11,-0.03 -0.17,-0.14 -0.17,-0.26 0,-0.18 0.14,-0.29 0.3,-0.29 0.09,0 0.28,0.07 0.28,0.3 0,0.17 -0.11,0.49 -0.5,0.49 -0.21,0 -0.64,-0.07 -1.05,-0.47 -0.42,0.32 -0.84,0.36 -1.06,0.36 -0.92,0 -1.61,-0.69 -1.61,-1.46 0,-0.43 0.22,-0.81 0.47,-1.01 -0.13,-0.16 -0.32,-0.49 -0.32,-0.83 0,-0.31 0.15,-0.69 0.44,-0.89 -0.59,-0.16 -0.9,-0.6 -0.9,-0.99 0,-0.71 0.98,-1.26 2.18,-1.26 l 0.02,0.23 c -1,0 -1.69,0.5 -1.69,1.03 0,0.46 0.38,0.83 0.81,0.85 h 0.6 c 0.84,0 1.95,0 1.95,-0.85 0,-0.54 -0.7,-1.03 -1.67,-1.03 v 0 l -0.02,-0.23 c 1.18,0 2.21,0.5 2.21,1.28 0,0.34 -0.13,0.86 -0.64,1.14 -0.54,0.27 -1.1,0.27 -1.71,0.27 -0.25,0 -0.67,0 -0.75,0.01 -0.31,0.05 -0.53,0.35 -0.53,0.67 z"
   inkscape:connector-curvature="0"
   style="fill:#000000;stroke-width:0" />
<path
   id="path2891"
   d="m 173.19,710.42 v 1.1 l -1.37,-0.11 v -0.32 c 0.68,0 0.76,-0.06 0.76,-0.54 v -2.67 c 0,-0.44 -0.11,-0.44 -0.76,-0.44 v -0.31 c 0.39,0.01 0.84,0.03 1.12,0.03 0.41,0 0.88,0 1.27,-0.03 v 0.31 H 174 c -0.73,0 -0.76,0.11 -0.76,0.47 v 1.51 c 0,0.99 0.42,1.88 1.17,1.88 0.08,0 0.09,0 0.11,-0.02 -0.03,0 -0.22,-0.12 -0.22,-0.37 0,-0.28 0.2,-0.44 0.42,-0.44 0.19,0 0.43,0.12 0.43,0.44 0,0.32 -0.3,0.61 -0.74,0.61 -0.72,0 -1.08,-0.68 -1.22,-1.1 z"
   inkscape:connector-curvature="0"
   style="fill:#000000;stroke-width:0" />
<path
   id="path2893"
   d="m 178.75,707.88 v -0.04 l 0.01,-0.04 v -0.04 l 0.01,-0.03 0.01,-0.04 0.01,-0.04 0.01,-0.03 0.02,-0.04 0.01,-0.03 0.02,-0.04 0.01,-0.03 0.02,-0.03 0.02,-0.04 0.02,-0.03 0.03,-0.03 0.02,-0.03 0.02,-0.03 0.03,-0.02 0.03,-0.03 0.03,-0.02 0.03,-0.03 0.03,-0.02 0.03,-0.02 0.03,-0.02 0.04,-0.01 0.03,-0.02 0.04,-0.01 0.04,-0.01 0.04,-0.01 h 0.04 l 0.04,-0.01 h 0.05 c 0.21,0 0.81,0.14 0.81,0.96 v 0.54 h -0.24 v -0.54 c 0,-0.58 -0.25,-0.64 -0.36,-0.64 -0.32,0 -0.37,0.45 -0.37,0.5 v 1.98 c 0,0.42 0,0.8 -0.36,1.17 -0.39,0.39 -0.87,0.55 -1.36,0.55 -0.81,0 -1.5,-0.47 -1.5,-1.13 0,-0.29 0.2,-0.47 0.45,-0.47 0.29,0 0.47,0.21 0.47,0.46 0,0.12 -0.06,0.45 -0.51,0.47 0.26,0.34 0.76,0.45 1.08,0.45 0.48,0 1.04,-0.39 1.04,-1.28 v -0.36 -0.2 -1 c 0,-0.94 -0.72,-1.29 -1.15,-1.29 -0.49,0 -0.89,0.35 -0.89,0.85 0,0.55 0.4,1.37 2.04,1.44 v 0 0.2 c -0.5,-0.03 -1.2,-0.06 -1.83,-0.36 -0.73,-0.34 -0.98,-0.86 -0.98,-1.3 0,-0.79 0.95,-1.04 1.58,-1.04 0.65,0 1.12,0.39 1.31,0.86 z"
   inkscape:connector-curvature="0"
   style="fill:#000000;stroke-width:0" />
<path
   id="path2895"
   d="m 182.14,711.09 h 1.42 v 0.32 h -1.42 v 1.82 h -0.25 c -0.02,-0.81 -0.32,-1.87 -1.29,-1.92 v -0.22 h 0.85 v -2.73 c 0,-1.22 0.92,-1.34 1.28,-1.34 0.7,0 0.98,0.7 0.98,1.34 v 0.56 h -0.25 v -0.54 c 0,-0.74 -0.29,-1.11 -0.65,-1.11 -0.67,0 -0.67,0.9 -0.67,1.07 z"
   inkscape:connector-curvature="0"
   style="fill:#000000;stroke-width:0" />
<path
   id="path2897"
   d="m 186.05,711.52 -1.39,-0.11 v -0.32 c 0.64,0 0.74,-0.06 0.74,-0.54 v -2.67 c 0,-0.44 -0.11,-0.44 -0.78,-0.44 v -0.31 c 0.31,0.01 0.86,0.03 1.09,0.03 0.34,0 0.69,-0.02 1.03,-0.03 v 0.31 c -0.65,0 -0.69,0.04 -0.69,0.44 z"
   inkscape:connector-curvature="0"
   style="fill:#000000;stroke-width:0" />
<path
   id="path2899"
   d="m 186.09,713.25 v 0.03 l -0.01,0.03 v 0.03 l -0.01,0.02 v 0.03 l -0.01,0.02 -0.01,0.03 -0.01,0.02 -0.01,0.03 -0.01,0.02 -0.01,0.02 -0.02,0.02 -0.01,0.02 -0.02,0.02 -0.02,0.02 -0.01,0.02 -0.02,0.01 -0.02,0.02 -0.02,0.01 -0.02,0.02 -0.03,0.01 -0.02,0.01 -0.02,0.01 -0.02,0.01 -0.03,0.01 -0.02,0.01 h -0.03 l -0.02,0.01 h -0.03 -0.02 l -0.03,0.01 h -0.03 c -0.29,0 -0.51,-0.27 -0.51,-0.52 0,-0.28 0.22,-0.53 0.51,-0.53 0.29,0 0.54,0.2 0.54,0.53 z"
   inkscape:connector-curvature="0"
   style="fill:#000000;stroke-width:0" />
<path
   id="path2901"
   d="m 191.73,709.25 -0.01,0.12 v 0.11 l -0.02,0.12 -0.02,0.11 -0.02,0.12 -0.03,0.1 -0.04,0.11 -0.04,0.11 -0.04,0.1 -0.05,0.1 -0.05,0.1 -0.06,0.09 -0.06,0.09 -0.06,0.09 -0.07,0.09 -0.08,0.08 -0.07,0.08 -0.08,0.07 -0.08,0.07 -0.09,0.07 -0.09,0.06 -0.09,0.05 -0.09,0.06 -0.1,0.04 -0.1,0.04 -0.1,0.04 -0.11,0.03 -0.1,0.03 -0.11,0.02 -0.11,0.02 h -0.11 l -0.11,0.01 -0.02,-0.22 c 0.44,0 0.88,-0.22 1.13,-0.64 0.26,-0.44 0.26,-1.02 0.26,-1.39 0,-0.36 0,-0.89 -0.21,-1.33 -0.22,-0.45 -0.66,-0.73 -1.16,-0.73 v 0 c -0.42,0 -0.86,0.2 -1.14,0.65 -0.24,0.44 -0.24,1.05 -0.24,1.41 0,0.39 0,0.92 0.24,1.36 0.26,0.45 0.73,0.67 1.12,0.67 l 0.02,0.22 c -1.25,0 -2.2,-1.08 -2.2,-2.33 0,-1.28 1.03,-2.23 2.18,-2.23 1.21,0 2.21,0.96 2.21,2.23 z"
   inkscape:connector-curvature="0"
   style="fill:#000000;stroke-width:0" />
<path
   id="path2903"
   d="m 193.13,710.55 v -2.67 c 0,-0.44 -0.11,-0.44 -0.78,-0.44 v -0.31 c 0.36,0.01 0.86,0.03 1.12,0.03 0.27,0 0.78,-0.02 1.11,-0.03 v 0.31 c -0.65,0 -0.76,0 -0.76,0.44 v 1.82 c 0,1.03 0.7,1.6 1.34,1.6 0.63,0 0.74,-0.53 0.74,-1.11 v -2.31 c 0,-0.44 -0.11,-0.44 -0.79,-0.44 v -0.31 c 0.35,0.01 0.86,0.03 1.13,0.03 0.25,0 0.78,-0.02 1.11,-0.03 v 0.31 c -0.52,0 -0.77,0 -0.77,0.29 v 1.9 c 0,0.85 0,1.17 -0.31,1.51 -0.14,0.17 -0.47,0.38 -1.05,0.38 -0.72,0 -1.18,-0.43 -1.47,-1.05 v 1.05 l -1.4,-0.11 v -0.32 c 0.7,0 0.78,-0.06 0.78,-0.54 z"
   inkscape:connector-curvature="0"
   style="fill:#000000;stroke-width:0" />
</g>    <g
       style="font-style:normal;font-variant:normal;font-weight:normal;font-stretch:normal;letter-spacing:normal;word-spacing:normal;text-anchor:start;fill:none;fill-opacity:1;fill-rule:evenodd;stroke:#000000;stroke-linecap:butt;stroke-linejoin:miter;stroke-miterlimit:10.43299961;stroke-dasharray:none;stroke-dashoffset:0;stroke-opacity:1"
       ns0:jacobian_sqrt="0.352778"
       inkscapeversion="0.92.4"
       ns0:alignment="middle center"
       ns0:scale="1.0"
       ns0:preamble="default_packages.tex"
       ns0:text="Birth\n\n"
       ns0:pdfconverter="pstoedit"
       ns0:texconverter="pdflatex"
       ns0:version="0.11.0"
       word-spacing="normal"
       letter-spacing="normal"
       font-size-adjust="none"
       font-stretch="normal"
       font-weight="normal"
       font-variant="normal"
       font-style="normal"
       stroke-miterlimit="10.433"
       xml:space="preserve"
       transform="matrix(0.30693224,-0.17391066,-0.17391066,-0.30693224,121.12528,279.12531)"
       id="content">
<path
   id="path2995"
   style="fill:#000000;fill-opacity:1;stroke:#000000;stroke-width:0;stroke-opacity:1"
   d="m 153.26,710.67 0.09,0.02 0.09,0.02 0.08,0.03 0.09,0.02 0.08,0.03 0.08,0.03 0.08,0.04 0.08,0.03 0.07,0.04 0.07,0.04 0.07,0.04 0.07,0.04 0.06,0.05 0.06,0.05 0.06,0.05 0.06,0.05 0.05,0.05 0.05,0.05 0.05,0.06 0.05,0.06 0.04,0.05 0.04,0.06 0.03,0.06 0.03,0.07 0.03,0.06 0.02,0.06 0.03,0.07 0.01,0.06 0.02,0.07 0.01,0.07 v 0.07 0.06 c 0,0.86 -0.92,1.68 -2.2,1.68 l -0.08,-0.3 c 0.97,0 1.32,-0.86 1.32,-1.38 0,-0.64 -0.49,-1.46 -1.6,-1.46 h -1.44 v -0.22 h 1.88 c 0.98,0 1.39,-0.92 1.39,-1.6 0,-0.7 -0.52,-1.51 -1.53,-1.51 v 0 h -1.25 c -0.47,0 -0.49,0.06 -0.49,0.39 v 2.72 0.22 2.43 c 0,0.33 0.02,0.41 0.49,0.41 h 1.23 l 0.08,0.3 h -3.64 v -0.3 h 0.23 c 0.77,0 0.79,-0.11 0.79,-0.47 v -5.23 c 0,-0.36 -0.02,-0.47 -0.79,-0.47 h -0.23 v -0.31 h 3.89 c 1.33,0 2.22,0.89 2.22,1.81 0,0.87 -0.81,1.61 -1.92,1.73 z"
   inkscape:connector-curvature="0" />
<path
   id="path2997"
   style="fill:#000000;fill-opacity:1;stroke:#000000;stroke-width:0;stroke-opacity:1"
   d="m 157.53,711.52 -1.39,-0.11 v -0.32 c 0.64,0 0.74,-0.06 0.74,-0.54 v -2.67 c 0,-0.44 -0.11,-0.44 -0.79,-0.44 v -0.31 c 0.32,0.01 0.86,0.03 1.1,0.03 0.34,0 0.69,-0.02 1.03,-0.03 v 0.31 c -0.66,0 -0.69,0.04 -0.69,0.44 z"
   inkscape:connector-curvature="0" />
<path
   id="path2999"
   style="fill:#000000;fill-opacity:1;stroke:#000000;stroke-width:0;stroke-opacity:1"
   d="m 157.56,713.25 v 0.03 0.03 0.03 l -0.01,0.02 v 0.03 l -0.01,0.02 -0.01,0.03 -0.01,0.02 -0.01,0.03 -0.01,0.02 -0.02,0.02 -0.01,0.02 -0.02,0.02 -0.01,0.02 -0.02,0.02 -0.02,0.02 -0.02,0.01 -0.02,0.02 -0.02,0.01 -0.02,0.02 -0.02,0.01 -0.02,0.01 -0.02,0.01 -0.03,0.01 -0.02,0.01 -0.03,0.01 h -0.02 l -0.03,0.01 h -0.02 -0.03 l -0.02,0.01 h -0.03 c -0.3,0 -0.51,-0.27 -0.51,-0.52 0,-0.28 0.21,-0.53 0.51,-0.53 0.28,0 0.53,0.2 0.53,0.53 z"
   inkscape:connector-curvature="0" />
<path
   id="path3001"
   style="fill:#000000;fill-opacity:1;stroke:#000000;stroke-width:0;stroke-opacity:1"
   d="m 160.19,710.42 v 1.1 l -1.38,-0.11 v -0.32 c 0.69,0 0.77,-0.06 0.77,-0.54 v -2.67 c 0,-0.44 -0.11,-0.44 -0.77,-0.44 v -0.31 c 0.39,0.01 0.85,0.03 1.13,0.03 0.4,0 0.87,0 1.26,-0.03 v 0.31 H 161 c -0.73,0 -0.77,0.11 -0.77,0.47 v 1.51 c 0,0.99 0.43,1.88 1.18,1.88 0.07,0 0.09,0 0.11,-0.02 -0.04,0 -0.22,-0.12 -0.22,-0.37 0,-0.28 0.2,-0.44 0.42,-0.44 0.19,0 0.42,0.12 0.42,0.44 0,0.32 -0.3,0.61 -0.73,0.61 -0.72,0 -1.08,-0.68 -1.22,-1.1 z"
   inkscape:connector-curvature="0" />
<path
   id="path3003"
   style="fill:#000000;fill-opacity:1;stroke:#000000;stroke-width:0;stroke-opacity:1"
   d="m 164.15,711.09 h 1.42 v 0.32 h -1.42 v 1.82 h -0.25 c -0.01,-0.81 -0.31,-1.87 -1.28,-1.92 v -0.22 h 0.84 v -2.73 c 0,-1.22 0.93,-1.34 1.29,-1.34 0.7,0 0.98,0.7 0.98,1.34 v 0.56 h -0.25 v -0.54 c 0,-0.74 -0.3,-1.11 -0.66,-1.11 -0.67,0 -0.67,0.9 -0.67,1.07 z"
   inkscape:connector-curvature="0" />
<path
   id="path3005"
   style="fill:#000000;fill-opacity:1;stroke:#000000;stroke-width:0;stroke-opacity:1"
   d="m 167.4,707.88 v -0.04 -0.04 l -0.01,-0.04 v -0.03 -0.03 l -0.01,-0.03 v -0.02 l -0.01,-0.03 -0.01,-0.02 -0.01,-0.02 -0.01,-0.02 -0.01,-0.02 -0.02,-0.01 -0.01,-0.01 -0.02,-0.02 -0.02,-0.01 -0.02,-0.01 -0.03,-0.01 h -0.02 l -0.03,-0.01 h -0.03 l -0.03,-0.01 h -0.04 -0.02 l -0.02,-0.01 h -0.02 -0.02 -0.02 -0.02 -0.02 -0.03 -0.02 -0.03 -0.02 -0.03 -0.03 -0.02 -0.03 -0.03 -0.03 -0.03 v -0.31 c 0.36,0.01 0.86,0.03 1.12,0.03 0.27,0 0.78,-0.02 1.11,-0.03 v 0.31 c -0.65,0 -0.76,0 -0.76,0.44 v 1.82 c 0,1.03 0.7,1.6 1.34,1.6 0.62,0 0.73,-0.53 0.73,-1.11 v -2.31 c 0,-0.44 -0.11,-0.44 -0.78,-0.44 v -0.31 c 0.35,0.01 0.86,0.03 1.13,0.03 0.25,0 0.78,-0.02 1.11,-0.03 v 0.31 c -0.52,0 -0.77,0 -0.77,0.29 v 1.9 c 0,0.85 0,1.17 -0.31,1.51 -0.14,0.17 -0.47,0.38 -1.05,0.38 -0.83,0 -1.26,-0.6 -1.44,-0.97 v 3.47 l -1.43,-0.11 v -0.3 c 0.7,0 0.78,-0.08 0.78,-0.56 z"
   inkscape:connector-curvature="0" />
</g>    <g
       style="font-style:normal;font-variant:normal;font-weight:normal;font-stretch:normal;letter-spacing:normal;word-spacing:normal;text-anchor:start;fill:none;fill-opacity:1;fill-rule:evenodd;stroke:#000000;stroke-linecap:butt;stroke-linejoin:miter;stroke-miterlimit:10.43299961;stroke-dasharray:none;stroke-dashoffset:0;stroke-opacity:1"
       ns0:jacobian_sqrt="0.352778"
       inkscapeversion="0.92.4"
       ns0:alignment="middle center"
       ns0:scale="1.0"
       ns0:preamble="default_packages.tex"
       ns0:text="Death\n\n"
       ns0:pdfconverter="pstoedit"
       ns0:texconverter="pdflatex"
       ns0:version="0.11.0"
       word-spacing="normal"
       letter-spacing="normal"
       font-size-adjust="none"
       font-stretch="normal"
       font-weight="normal"
       font-variant="normal"
       font-style="normal"
       stroke-miterlimit="10.433"
       xml:space="preserve"
       transform="matrix(0.29686698,0.19058413,0.19058413,-0.29686698,-133.52027,224.42756)"
       id="g3097">
<path
   id="path3087"
   style="fill:#000000;fill-opacity:1;stroke:#000000;stroke-width:0;stroke-opacity:1"
   d="m 149.05,713.91 v -0.3 h 0.25 c 0.75,0 0.79,-0.11 0.79,-0.47 v -5.23 c 0,-0.36 -0.04,-0.47 -0.79,-0.47 h -0.25 v -0.31 h 3.65 c 1.67,0 3.03,1.46 3.03,3.34 0,1.87 -1.33,3.44 -3.03,3.44 l -0.29,-0.3 c 0.63,0 1.3,-0.22 1.82,-0.94 0.42,-0.58 0.51,-1.44 0.51,-2.2 0,-1.11 -0.19,-1.7 -0.54,-2.19 -0.21,-0.26 -0.77,-0.84 -1.77,-0.84 h -1 c -0.47,0 -0.5,0.06 -0.5,0.39 v 5.37 c 0,0.33 0.03,0.41 0.5,0.41 h 0.98 l 0.29,0.3 z"
   inkscape:connector-curvature="0" />
<path
   id="path3089"
   style="fill:#000000;fill-opacity:1;stroke:#000000;stroke-width:0;stroke-opacity:1"
   d="m 157.43,709.42 v 0.21 c 0.06,1.48 0.89,1.73 1.23,1.73 1.04,0 1.13,-1.34 1.13,-1.73 h -2.36 v -0.21 h 2.77 c 0.21,0 0.25,0 0.25,0.21 0,0.98 -0.54,1.95 -1.79,1.95 -1.15,0 -2.06,-1.03 -2.06,-2.27 0,-1.33 1.05,-2.29 2.19,-2.29 1.2,0 1.66,1.11 1.66,1.29 0,0.1 -0.08,0.11 -0.13,0.11 -0.09,0 -0.11,-0.06 -0.14,-0.14 -0.34,-1.01 -1.23,-1.01 -1.34,-1.01 -0.49,0 -0.89,0.29 -1.11,0.65 -0.3,0.49 -0.3,1.14 -0.3,1.5 z"
   inkscape:connector-curvature="0" />
<path
   id="path3091"
   style="fill:#000000;fill-opacity:1;stroke:#000000;stroke-width:0;stroke-opacity:1"
   d="m 164.06,707.88 v -0.04 l 0.01,-0.04 v -0.04 l 0.01,-0.03 0.01,-0.04 0.01,-0.04 0.01,-0.03 0.02,-0.04 0.01,-0.03 0.02,-0.04 0.01,-0.03 0.02,-0.03 0.02,-0.04 0.02,-0.03 0.02,-0.03 0.03,-0.03 0.02,-0.03 0.03,-0.02 0.03,-0.03 0.02,-0.02 0.03,-0.03 0.03,-0.02 0.04,-0.02 0.03,-0.02 0.04,-0.01 0.03,-0.02 0.04,-0.01 0.04,-0.01 0.04,-0.01 h 0.04 l 0.04,-0.01 h 0.04 c 0.22,0 0.82,0.14 0.82,0.96 v 0.54 h -0.24 v -0.54 c 0,-0.58 -0.25,-0.64 -0.36,-0.64 -0.33,0 -0.37,0.45 -0.37,0.5 v 1.98 c 0,0.42 0,0.8 -0.36,1.17 -0.39,0.39 -0.88,0.55 -1.36,0.55 -0.81,0 -1.5,-0.47 -1.5,-1.13 0,-0.29 0.2,-0.47 0.45,-0.47 0.28,0 0.47,0.21 0.47,0.46 0,0.12 -0.06,0.45 -0.52,0.47 0.27,0.34 0.77,0.45 1.08,0.45 0.49,0 1.05,-0.39 1.05,-1.28 v -0.36 -0.2 -1 c 0,-0.94 -0.72,-1.29 -1.16,-1.29 -0.48,0 -0.89,0.35 -0.89,0.85 0,0.55 0.41,1.37 2.05,1.44 v 0 0.2 c -0.5,-0.03 -1.2,-0.06 -1.83,-0.36 -0.73,-0.34 -0.98,-0.86 -0.98,-1.3 0,-0.79 0.95,-1.04 1.58,-1.04 0.65,0 1.12,0.39 1.31,0.86 z"
   inkscape:connector-curvature="0" />
<path
   id="path3093"
   style="fill:#000000;fill-opacity:1;stroke:#000000;stroke-width:0;stroke-opacity:1"
   d="m 167.45,711.09 h 1.42 v 0.32 h -1.42 v 1.82 h -0.25 c -0.02,-0.81 -0.32,-1.87 -1.29,-1.92 v -0.22 h 0.85 v -2.73 c 0,-1.22 0.92,-1.34 1.28,-1.34 0.7,0 0.98,0.7 0.98,1.34 v 0.56 h -0.25 v -0.54 c 0,-0.74 -0.29,-1.11 -0.65,-1.11 -0.67,0 -0.67,0.9 -0.67,1.07 z"
   inkscape:connector-curvature="0" />
<path
   id="path3095"
   style="fill:#000000;fill-opacity:1;stroke:#000000;stroke-width:0;stroke-opacity:1"
   d="m 170.69,707.88 v -0.04 -0.04 -0.04 l -0.01,-0.03 v -0.03 -0.03 l -0.01,-0.02 -0.01,-0.03 v -0.02 l -0.01,-0.02 -0.02,-0.02 -0.01,-0.02 -0.01,-0.01 -0.02,-0.01 -0.02,-0.02 -0.02,-0.01 -0.02,-0.01 -0.02,-0.01 h -0.03 l -0.03,-0.01 h -0.03 l -0.03,-0.01 h -0.04 -0.02 l -0.01,-0.01 h -0.02 -0.03 -0.02 -0.02 -0.02 -0.02 -0.03 -0.02 -0.03 -0.03 -0.02 -0.03 -0.03 -0.03 -0.03 -0.03 v -0.31 c 0.36,0.01 0.86,0.03 1.13,0.03 0.26,0 0.78,-0.02 1.11,-0.03 v 0.31 c -0.66,0 -0.77,0 -0.77,0.44 v 1.82 c 0,1.03 0.7,1.6 1.34,1.6 0.63,0 0.74,-0.53 0.74,-1.11 v -2.31 c 0,-0.44 -0.11,-0.44 -0.78,-0.44 v -0.31 c 0.34,0.01 0.86,0.03 1.12,0.03 0.25,0 0.78,-0.02 1.11,-0.03 v 0.31 c -0.51,0 -0.76,0 -0.76,0.29 v 1.9 c 0,0.85 0,1.17 -0.32,1.51 -0.14,0.17 -0.47,0.38 -1.04,0.38 -0.83,0 -1.27,-0.6 -1.44,-0.97 v 3.47 l -1.44,-0.11 v -0.3 c 0.7,0 0.78,-0.08 0.78,-0.56 z"
   inkscape:connector-curvature="0" />
</g>  </g>
</svg>
