<?xml version="1.0" encoding="UTF-8" standalone="no"?>
<svg
   xmlns:dc="http://purl.org/dc/elements/1.1/"
   xmlns:cc="http://creativecommons.org/ns#"
   xmlns:rdf="http://www.w3.org/1999/02/22-rdf-syntax-ns#"
   xmlns:svg="http://www.w3.org/2000/svg"
   xmlns="http://www.w3.org/2000/svg"
   xmlns:xlink="http://www.w3.org/1999/xlink"
   xmlns:sodipodi="http://sodipodi.sourceforge.net/DTD/sodipodi-0.dtd"
   xmlns:inkscape="http://www.inkscape.org/namespaces/inkscape"
   inkscape:export-ydpi="500"
   inkscape:export-xdpi="500"
   inkscape:export-filename="C:\Users\smatw1\Dropbox\Math_bio_course\Pictures\Root_schematic.png"
   sodipodi:docname="Dispersion_determinant.svg"
   inkscape:version="1.0 (4035a4fb49, 2020-05-01)"
   width="210mm"
   height="297mm"
   viewBox="0 0 210 297"
   version="1.1"
   id="svg8">
  <defs
     id="defs2">
    <g
       id="g996">
      <symbol
         id="symbol502"
         overflow="visible">
        <path
           id="path5323"
           d=""
           style="stroke:none;" />
      </symbol>
      <symbol
         id="symbol597"
         overflow="visible">
        <path
           id="path7770"
           d="M 2.859375 -6.8125 C 2.859375 -6.8125 2.859375 -6.921875 2.734375 -6.921875 C 2.5 -6.921875 1.78125 -6.84375 1.515625 -6.8125 C 1.4375 -6.8125 1.328125 -6.796875 1.328125 -6.625 C 1.328125 -6.5 1.421875 -6.5 1.5625 -6.5 C 2.046875 -6.5 2.0625 -6.4375 2.0625 -6.328125 L 2.03125 -6.125 L 0.59375 -0.390625 C 0.546875 -0.25 0.546875 -0.234375 0.546875 -0.171875 C 0.546875 0.0625 0.75 0.109375 0.84375 0.109375 C 0.96875 0.109375 1.109375 0.015625 1.171875 -0.09375 C 1.21875 -0.1875 1.671875 -2.03125 1.734375 -2.28125 C 2.078125 -2.25 2.890625 -2.09375 2.890625 -1.4375 C 2.890625 -1.359375 2.890625 -1.328125 2.859375 -1.21875 C 2.84375 -1.109375 2.828125 -0.984375 2.828125 -0.875 C 2.828125 -0.296875 3.21875 0.109375 3.734375 0.109375 C 4.03125 0.109375 4.3125 -0.046875 4.53125 -0.421875 C 4.78125 -0.859375 4.890625 -1.40625 4.890625 -1.421875 C 4.890625 -1.53125 4.796875 -1.53125 4.765625 -1.53125 C 4.671875 -1.53125 4.65625 -1.484375 4.625 -1.34375 C 4.421875 -0.625 4.203125 -0.109375 3.765625 -0.109375 C 3.5625 -0.109375 3.4375 -0.21875 3.4375 -0.578125 C 3.4375 -0.75 3.484375 -0.984375 3.515625 -1.140625 C 3.5625 -1.3125 3.5625 -1.34375 3.5625 -1.453125 C 3.5625 -2.09375 2.9375 -2.375 2.078125 -2.5 C 2.390625 -2.671875 2.71875 -2.984375 2.9375 -3.234375 C 3.421875 -3.765625 3.875 -4.1875 4.359375 -4.1875 C 4.421875 -4.1875 4.4375 -4.1875 4.453125 -4.171875 C 4.578125 -4.15625 4.578125 -4.15625 4.671875 -4.09375 C 4.6875 -4.09375 4.6875 -4.078125 4.703125 -4.0625 C 4.234375 -4.03125 4.140625 -3.640625 4.140625 -3.515625 C 4.140625 -3.359375 4.25 -3.171875 4.515625 -3.171875 C 4.78125 -3.171875 5.0625 -3.390625 5.0625 -3.78125 C 5.0625 -4.078125 4.828125 -4.40625 4.390625 -4.40625 C 4.109375 -4.40625 3.65625 -4.328125 2.9375 -3.53125 C 2.59375 -3.15625 2.203125 -2.75 1.828125 -2.609375 Z M 2.859375 -6.8125 "
           style="stroke:none;" />
      </symbol>
      <symbol
         id="symbol4725"
         overflow="visible">
        <path
           id="path5201"
           d=""
           style="stroke:none;" />
      </symbol>
      <symbol
         id="symbol8669"
         overflow="visible">
        <path
           id="path273"
           d="M 3.515625 -1.265625 L 3.28125 -1.265625 C 3.265625 -1.109375 3.1875 -0.703125 3.09375 -0.640625 C 3.046875 -0.59375 2.515625 -0.59375 2.40625 -0.59375 L 1.125 -0.59375 C 1.859375 -1.234375 2.109375 -1.4375 2.515625 -1.765625 C 3.03125 -2.171875 3.515625 -2.609375 3.515625 -3.265625 C 3.515625 -4.109375 2.78125 -4.625 1.890625 -4.625 C 1.03125 -4.625 0.4375 -4.015625 0.4375 -3.375 C 0.4375 -3.03125 0.734375 -2.984375 0.8125 -2.984375 C 0.96875 -2.984375 1.171875 -3.109375 1.171875 -3.359375 C 1.171875 -3.484375 1.125 -3.734375 0.765625 -3.734375 C 0.984375 -4.21875 1.453125 -4.375 1.78125 -4.375 C 2.484375 -4.375 2.84375 -3.828125 2.84375 -3.265625 C 2.84375 -2.65625 2.40625 -2.1875 2.1875 -1.9375 L 0.515625 -0.265625 C 0.4375 -0.203125 0.4375 -0.1875 0.4375 0 L 3.3125 0 Z M 3.515625 -1.265625 "
           style="stroke:none;" />
      </symbol>
    </g>
    <g
       id="g5847">
      <symbol
         id="symbol8863"
         overflow="visible">
        <path
           id="path9477"
           d=""
           style="stroke:none;" />
      </symbol>
      <symbol
         id="symbol9627"
         overflow="visible">
        <path
           id="path515"
           d="M 2.859375 -6.8125 C 2.859375 -6.8125 2.859375 -6.921875 2.734375 -6.921875 C 2.5 -6.921875 1.78125 -6.84375 1.515625 -6.8125 C 1.4375 -6.8125 1.328125 -6.796875 1.328125 -6.625 C 1.328125 -6.5 1.421875 -6.5 1.5625 -6.5 C 2.046875 -6.5 2.0625 -6.4375 2.0625 -6.328125 L 2.03125 -6.125 L 0.59375 -0.390625 C 0.546875 -0.25 0.546875 -0.234375 0.546875 -0.171875 C 0.546875 0.0625 0.75 0.109375 0.84375 0.109375 C 0.96875 0.109375 1.109375 0.015625 1.171875 -0.09375 C 1.21875 -0.1875 1.671875 -2.03125 1.734375 -2.28125 C 2.078125 -2.25 2.890625 -2.09375 2.890625 -1.4375 C 2.890625 -1.359375 2.890625 -1.328125 2.859375 -1.21875 C 2.84375 -1.109375 2.828125 -0.984375 2.828125 -0.875 C 2.828125 -0.296875 3.21875 0.109375 3.734375 0.109375 C 4.03125 0.109375 4.3125 -0.046875 4.53125 -0.421875 C 4.78125 -0.859375 4.890625 -1.40625 4.890625 -1.421875 C 4.890625 -1.53125 4.796875 -1.53125 4.765625 -1.53125 C 4.671875 -1.53125 4.65625 -1.484375 4.625 -1.34375 C 4.421875 -0.625 4.203125 -0.109375 3.765625 -0.109375 C 3.5625 -0.109375 3.4375 -0.21875 3.4375 -0.578125 C 3.4375 -0.75 3.484375 -0.984375 3.515625 -1.140625 C 3.5625 -1.3125 3.5625 -1.34375 3.5625 -1.453125 C 3.5625 -2.09375 2.9375 -2.375 2.078125 -2.5 C 2.390625 -2.671875 2.71875 -2.984375 2.9375 -3.234375 C 3.421875 -3.765625 3.875 -4.1875 4.359375 -4.1875 C 4.421875 -4.1875 4.4375 -4.1875 4.453125 -4.171875 C 4.578125 -4.15625 4.578125 -4.15625 4.671875 -4.09375 C 4.6875 -4.09375 4.6875 -4.078125 4.703125 -4.0625 C 4.234375 -4.03125 4.140625 -3.640625 4.140625 -3.515625 C 4.140625 -3.359375 4.25 -3.171875 4.515625 -3.171875 C 4.78125 -3.171875 5.0625 -3.390625 5.0625 -3.78125 C 5.0625 -4.078125 4.828125 -4.40625 4.390625 -4.40625 C 4.109375 -4.40625 3.65625 -4.328125 2.9375 -3.53125 C 2.59375 -3.15625 2.203125 -2.75 1.828125 -2.609375 Z M 2.859375 -6.8125 "
           style="stroke:none;" />
      </symbol>
      <symbol
         id="symbol9673"
         overflow="visible">
        <path
           id="path1341"
           d=""
           style="stroke:none;" />
      </symbol>
      <symbol
         id="symbol8150"
         overflow="visible">
        <path
           id="path190"
           d="M 3.515625 -1.265625 L 3.28125 -1.265625 C 3.265625 -1.109375 3.1875 -0.703125 3.09375 -0.640625 C 3.046875 -0.59375 2.515625 -0.59375 2.40625 -0.59375 L 1.125 -0.59375 C 1.859375 -1.234375 2.109375 -1.4375 2.515625 -1.765625 C 3.03125 -2.171875 3.515625 -2.609375 3.515625 -3.265625 C 3.515625 -4.109375 2.78125 -4.625 1.890625 -4.625 C 1.03125 -4.625 0.4375 -4.015625 0.4375 -3.375 C 0.4375 -3.03125 0.734375 -2.984375 0.8125 -2.984375 C 0.96875 -2.984375 1.171875 -3.109375 1.171875 -3.359375 C 1.171875 -3.484375 1.125 -3.734375 0.765625 -3.734375 C 0.984375 -4.21875 1.453125 -4.375 1.78125 -4.375 C 2.484375 -4.375 2.84375 -3.828125 2.84375 -3.265625 C 2.84375 -2.65625 2.40625 -2.1875 2.1875 -1.9375 L 0.515625 -0.265625 C 0.4375 -0.203125 0.4375 -0.1875 0.4375 0 L 3.3125 0 Z M 3.515625 -1.265625 "
           style="stroke:none;" />
      </symbol>
      <symbol
         id="symbol8818"
         overflow="visible">
        <path
           id="path6809"
           d=""
           style="stroke:none;" />
      </symbol>
      <symbol
         id="symbol5948"
         overflow="visible">
        <path
           id="path1677"
           d="M 5.1875 -1.578125 C 5.296875 -1.578125 5.46875 -1.578125 5.46875 -1.734375 C 5.46875 -1.921875 5.296875 -1.921875 5.1875 -1.921875 L 1.03125 -1.921875 C 0.921875 -1.921875 0.75 -1.921875 0.75 -1.75 C 0.75 -1.578125 0.90625 -1.578125 1.03125 -1.578125 Z M 5.1875 -1.578125 "
           style="stroke:none;" />
      </symbol>
    </g>
    <g
       id="g5144">
      <symbol
         id="symbol8625"
         overflow="visible">
        <path
           id="path691"
           d=""
           style="stroke:none;" />
      </symbol>
      <symbol
         id="symbol6867"
         overflow="visible">
        <path
           id="path682"
           d="M 2.859375 -6.8125 C 2.859375 -6.8125 2.859375 -6.921875 2.734375 -6.921875 C 2.5 -6.921875 1.78125 -6.84375 1.515625 -6.8125 C 1.4375 -6.8125 1.328125 -6.796875 1.328125 -6.625 C 1.328125 -6.5 1.421875 -6.5 1.5625 -6.5 C 2.046875 -6.5 2.0625 -6.4375 2.0625 -6.328125 L 2.03125 -6.125 L 0.59375 -0.390625 C 0.546875 -0.25 0.546875 -0.234375 0.546875 -0.171875 C 0.546875 0.0625 0.75 0.109375 0.84375 0.109375 C 0.96875 0.109375 1.109375 0.015625 1.171875 -0.09375 C 1.21875 -0.1875 1.671875 -2.03125 1.734375 -2.28125 C 2.078125 -2.25 2.890625 -2.09375 2.890625 -1.4375 C 2.890625 -1.359375 2.890625 -1.328125 2.859375 -1.21875 C 2.84375 -1.109375 2.828125 -0.984375 2.828125 -0.875 C 2.828125 -0.296875 3.21875 0.109375 3.734375 0.109375 C 4.03125 0.109375 4.3125 -0.046875 4.53125 -0.421875 C 4.78125 -0.859375 4.890625 -1.40625 4.890625 -1.421875 C 4.890625 -1.53125 4.796875 -1.53125 4.765625 -1.53125 C 4.671875 -1.53125 4.65625 -1.484375 4.625 -1.34375 C 4.421875 -0.625 4.203125 -0.109375 3.765625 -0.109375 C 3.5625 -0.109375 3.4375 -0.21875 3.4375 -0.578125 C 3.4375 -0.75 3.484375 -0.984375 3.515625 -1.140625 C 3.5625 -1.3125 3.5625 -1.34375 3.5625 -1.453125 C 3.5625 -2.09375 2.9375 -2.375 2.078125 -2.5 C 2.390625 -2.671875 2.71875 -2.984375 2.9375 -3.234375 C 3.421875 -3.765625 3.875 -4.1875 4.359375 -4.1875 C 4.421875 -4.1875 4.4375 -4.1875 4.453125 -4.171875 C 4.578125 -4.15625 4.578125 -4.15625 4.671875 -4.09375 C 4.6875 -4.09375 4.6875 -4.078125 4.703125 -4.0625 C 4.234375 -4.03125 4.140625 -3.640625 4.140625 -3.515625 C 4.140625 -3.359375 4.25 -3.171875 4.515625 -3.171875 C 4.78125 -3.171875 5.0625 -3.390625 5.0625 -3.78125 C 5.0625 -4.078125 4.828125 -4.40625 4.390625 -4.40625 C 4.109375 -4.40625 3.65625 -4.328125 2.9375 -3.53125 C 2.59375 -3.15625 2.203125 -2.75 1.828125 -2.609375 Z M 2.859375 -6.8125 "
           style="stroke:none;" />
      </symbol>
      <symbol
         id="symbol5584"
         overflow="visible">
        <path
           id="path7807"
           d=""
           style="stroke:none;" />
      </symbol>
      <symbol
         id="symbol4871"
         overflow="visible">
        <path
           id="path4381"
           d="M 3.515625 -1.265625 L 3.28125 -1.265625 C 3.265625 -1.109375 3.1875 -0.703125 3.09375 -0.640625 C 3.046875 -0.59375 2.515625 -0.59375 2.40625 -0.59375 L 1.125 -0.59375 C 1.859375 -1.234375 2.109375 -1.4375 2.515625 -1.765625 C 3.03125 -2.171875 3.515625 -2.609375 3.515625 -3.265625 C 3.515625 -4.109375 2.78125 -4.625 1.890625 -4.625 C 1.03125 -4.625 0.4375 -4.015625 0.4375 -3.375 C 0.4375 -3.03125 0.734375 -2.984375 0.8125 -2.984375 C 0.96875 -2.984375 1.171875 -3.109375 1.171875 -3.359375 C 1.171875 -3.484375 1.125 -3.734375 0.765625 -3.734375 C 0.984375 -4.21875 1.453125 -4.375 1.78125 -4.375 C 2.484375 -4.375 2.84375 -3.828125 2.84375 -3.265625 C 2.84375 -2.65625 2.40625 -2.1875 2.1875 -1.9375 L 0.515625 -0.265625 C 0.4375 -0.203125 0.4375 -0.1875 0.4375 0 L 3.3125 0 Z M 3.515625 -1.265625 "
           style="stroke:none;" />
      </symbol>
      <symbol
         id="symbol1746"
         overflow="visible">
        <path
           id="path6610"
           d="M 3.21875 -1.578125 L 5.359375 -1.578125 C 5.453125 -1.578125 5.609375 -1.578125 5.609375 -1.734375 C 5.609375 -1.921875 5.453125 -1.921875 5.359375 -1.921875 L 3.21875 -1.921875 L 3.21875 -4.0625 C 3.21875 -4.140625 3.21875 -4.3125 3.0625 -4.3125 C 2.890625 -4.3125 2.890625 -4.15625 2.890625 -4.0625 L 2.890625 -1.921875 L 0.75 -1.921875 C 0.65625 -1.921875 0.484375 -1.921875 0.484375 -1.75 C 0.484375 -1.578125 0.640625 -1.578125 0.75 -1.578125 L 2.890625 -1.578125 L 2.890625 0.5625 C 2.890625 0.65625 2.890625 0.828125 3.046875 0.828125 C 3.21875 0.828125 3.21875 0.65625 3.21875 0.5625 Z M 3.21875 -1.578125 "
           style="stroke:none;" />
      </symbol>
    </g>
    <g
       id="g3139">
      <symbol
         id="symbol1100"
         overflow="visible">
        <path
           id="path2561"
           d=""
           style="stroke:none;" />
      </symbol>
      <symbol
         id="symbol1132"
         overflow="visible">
        <path
           id="path2304"
           d="M 3.78125 -0.546875 L 3.78125 0.109375 L 5.25 0 L 5.25 -0.3125 C 4.5625 -0.3125 4.46875 -0.375 4.46875 -0.875 L 4.46875 -6.921875 L 3.046875 -6.8125 L 3.046875 -6.5 C 3.734375 -6.5 3.8125 -6.4375 3.8125 -5.9375 L 3.8125 -3.78125 C 3.53125 -4.140625 3.09375 -4.40625 2.5625 -4.40625 C 1.390625 -4.40625 0.34375 -3.421875 0.34375 -2.140625 C 0.34375 -0.875 1.3125 0.109375 2.453125 0.109375 C 3.09375 0.109375 3.53125 -0.234375 3.78125 -0.546875 Z M 3.78125 -3.21875 L 3.78125 -1.171875 C 3.78125 -1 3.78125 -0.984375 3.671875 -0.8125 C 3.375 -0.328125 2.9375 -0.109375 2.5 -0.109375 C 2.046875 -0.109375 1.6875 -0.375 1.453125 -0.75 C 1.203125 -1.15625 1.171875 -1.71875 1.171875 -2.140625 C 1.171875 -2.5 1.1875 -3.09375 1.46875 -3.546875 C 1.6875 -3.859375 2.0625 -4.1875 2.609375 -4.1875 C 2.953125 -4.1875 3.375 -4.03125 3.671875 -3.59375 C 3.78125 -3.421875 3.78125 -3.40625 3.78125 -3.21875 Z M 3.78125 -3.21875 "
           style="stroke:none;" />
      </symbol>
      <symbol
         id="symbol1968"
         overflow="visible">
        <path
           id="path5161"
           d="M 1.109375 -2.515625 C 1.171875 -4 2.015625 -4.25 2.359375 -4.25 C 3.375 -4.25 3.484375 -2.90625 3.484375 -2.515625 Z M 1.109375 -2.296875 L 3.890625 -2.296875 C 4.109375 -2.296875 4.140625 -2.296875 4.140625 -2.515625 C 4.140625 -3.5 3.59375 -4.46875 2.359375 -4.46875 C 1.203125 -4.46875 0.28125 -3.4375 0.28125 -2.1875 C 0.28125 -0.859375 1.328125 0.109375 2.46875 0.109375 C 3.6875 0.109375 4.140625 -1 4.140625 -1.1875 C 4.140625 -1.28125 4.0625 -1.3125 4 -1.3125 C 3.921875 -1.3125 3.890625 -1.25 3.875 -1.171875 C 3.53125 -0.140625 2.625 -0.140625 2.53125 -0.140625 C 2.03125 -0.140625 1.640625 -0.4375 1.40625 -0.8125 C 1.109375 -1.28125 1.109375 -1.9375 1.109375 -2.296875 Z M 1.109375 -2.296875 "
           style="stroke:none;" />
      </symbol>
      <symbol
         id="symbol1866"
         overflow="visible">
        <path
           id="path5457"
           d="M 1.71875 -3.984375 L 3.15625 -3.984375 L 3.15625 -4.296875 L 1.71875 -4.296875 L 1.71875 -6.125 L 1.46875 -6.125 C 1.46875 -5.3125 1.171875 -4.25 0.1875 -4.203125 L 0.1875 -3.984375 L 1.03125 -3.984375 L 1.03125 -1.234375 C 1.03125 -0.015625 1.96875 0.109375 2.328125 0.109375 C 3.03125 0.109375 3.3125 -0.59375 3.3125 -1.234375 L 3.3125 -1.796875 L 3.0625 -1.796875 L 3.0625 -1.25 C 3.0625 -0.515625 2.765625 -0.140625 2.390625 -0.140625 C 1.71875 -0.140625 1.71875 -1.046875 1.71875 -1.21875 Z M 1.71875 -3.984375 "
           style="stroke:none;" />
      </symbol>
      <symbol
         id="symbol1377"
         overflow="visible">
        <path
           id="path7065"
           d="M 3.296875 2.390625 C 3.296875 2.359375 3.296875 2.34375 3.125 2.171875 C 1.890625 0.921875 1.5625 -0.96875 1.5625 -2.5 C 1.5625 -4.234375 1.9375 -5.96875 3.171875 -7.203125 C 3.296875 -7.328125 3.296875 -7.34375 3.296875 -7.375 C 3.296875 -7.453125 3.265625 -7.484375 3.203125 -7.484375 C 3.09375 -7.484375 2.203125 -6.796875 1.609375 -5.53125 C 1.109375 -4.4375 0.984375 -3.328125 0.984375 -2.5 C 0.984375 -1.71875 1.09375 -0.515625 1.640625 0.625 C 2.25 1.84375 3.09375 2.5 3.203125 2.5 C 3.265625 2.5 3.296875 2.46875 3.296875 2.390625 Z M 3.296875 2.390625 "
           style="stroke:none;" />
      </symbol>
      <symbol
         id="symbol1872"
         overflow="visible">
        <path
           id="path8558"
           d="M 2.875 -2.5 C 2.875 -3.265625 2.765625 -4.46875 2.21875 -5.609375 C 1.625 -6.828125 0.765625 -7.484375 0.671875 -7.484375 C 0.609375 -7.484375 0.5625 -7.4375 0.5625 -7.375 C 0.5625 -7.34375 0.5625 -7.328125 0.75 -7.140625 C 1.734375 -6.15625 2.296875 -4.578125 2.296875 -2.5 C 2.296875 -0.78125 1.9375 0.96875 0.703125 2.21875 C 0.5625 2.34375 0.5625 2.359375 0.5625 2.390625 C 0.5625 2.453125 0.609375 2.5 0.671875 2.5 C 0.765625 2.5 1.671875 1.8125 2.25 0.546875 C 2.765625 -0.546875 2.875 -1.65625 2.875 -2.5 Z M 2.875 -2.5 "
           style="stroke:none;" />
      </symbol>
      <symbol
         id="symbol1534"
         overflow="visible">
        <path
           id="path6433"
           d=""
           style="stroke:none;" />
      </symbol>
      <symbol
         id="symbol1323"
         overflow="visible">
        <path
           id="path1835"
           d="M 10.96875 -6.328125 C 11.1875 -6.375 11.53125 -6.375 11.640625 -6.375 C 12 -6.375 12.125 -6.375 12.125 -6.65625 C 12.125 -6.84375 11.96875 -6.84375 11.78125 -6.84375 L 10.015625 -6.84375 C 9.703125 -6.84375 9.65625 -6.8125 9.5 -6.59375 L 5.765625 -1.28125 L 4.6875 -6.5625 C 4.640625 -6.84375 4.546875 -6.84375 4.296875 -6.84375 L 2.421875 -6.84375 C 2.21875 -6.84375 2.046875 -6.84375 2.046875 -6.546875 C 2.046875 -6.375 2.1875 -6.375 2.46875 -6.375 C 2.6875 -6.375 2.875 -6.359375 3.078125 -6.34375 L 1.6875 -0.78125 C 1.640625 -0.59375 1.640625 -0.578125 1.390625 -0.53125 C 1.140625 -0.46875 0.84375 -0.46875 0.8125 -0.46875 C 0.625 -0.46875 0.453125 -0.46875 0.453125 -0.171875 C 0.453125 -0.125 0.515625 0 0.65625 0 C 1.015625 0 1.390625 -0.03125 1.765625 -0.03125 C 2.015625 -0.03125 2.65625 0 2.90625 0 C 2.984375 0 3.171875 0 3.171875 -0.296875 C 3.171875 -0.46875 3 -0.46875 2.875 -0.46875 C 2.765625 -0.46875 2.40625 -0.46875 2.171875 -0.5625 L 3.578125 -6.21875 L 3.59375 -6.21875 L 4.796875 -0.296875 C 4.828125 -0.15625 4.859375 0 5.0625 0 C 5.265625 0 5.34375 -0.125 5.421875 -0.234375 L 9.734375 -6.359375 L 9.734375 -6.34375 L 8.328125 -0.671875 C 8.28125 -0.515625 8.28125 -0.5 8.09375 -0.484375 C 7.921875 -0.46875 7.71875 -0.46875 7.5625 -0.46875 C 7.3125 -0.46875 7.28125 -0.46875 7.25 -0.453125 C 7.125 -0.375 7.125 -0.21875 7.125 -0.171875 C 7.125 -0.15625 7.140625 0 7.34375 0 C 7.59375 0 7.828125 -0.015625 8.078125 -0.015625 C 8.296875 -0.015625 8.546875 -0.03125 8.765625 -0.03125 C 9.03125 -0.03125 9.28125 -0.015625 9.546875 -0.015625 C 9.78125 -0.015625 10.015625 0 10.25 0 C 10.328125 0 10.40625 0 10.453125 -0.0625 C 10.515625 -0.125 10.53125 -0.28125 10.53125 -0.296875 C 10.53125 -0.46875 10.390625 -0.46875 10.125 -0.46875 C 9.90625 -0.46875 9.71875 -0.484375 9.515625 -0.484375 Z M 10.96875 -6.328125 "
           style="stroke:none;" />
      </symbol>
    </g>
    <g
       id="g3534">
      <symbol
         id="symbol842"
         overflow="visible">
        <path
           id="path6584"
           d=""
           style="stroke:none;" />
      </symbol>
      <symbol
         id="symbol4529"
         overflow="visible">
        <path
           id="path8237"
           d="M 2.171875 -2.53125 L 3 -2.53125 C 2.890625 -2.109375 2.734375 -1.484375 2.734375 -0.921875 C 2.734375 -0.640625 2.78125 -0.453125 2.8125 -0.3125 C 2.921875 0.046875 3.015625 0.0625 3.125 0.0625 C 3.296875 0.0625 3.453125 -0.078125 3.453125 -0.25 C 3.453125 -0.296875 3.4375 -0.328125 3.40625 -0.390625 C 3.265625 -0.65625 3.140625 -1.046875 3.140625 -1.625 C 3.140625 -1.75 3.140625 -2.03125 3.234375 -2.53125 L 4.109375 -2.53125 C 4.234375 -2.53125 4.296875 -2.53125 4.375 -2.578125 C 4.46875 -2.65625 4.484375 -2.765625 4.484375 -2.796875 C 4.484375 -3 4.3125 -3 4.1875 -3 L 1.5625 -3 C 1.28125 -3 1.078125 -2.9375 0.765625 -2.640625 C 0.578125 -2.484375 0.3125 -2.109375 0.3125 -2.046875 C 0.3125 -1.96875 0.40625 -1.96875 0.4375 -1.96875 C 0.515625 -1.96875 0.515625 -1.984375 0.5625 -2.046875 C 0.90625 -2.53125 1.34375 -2.53125 1.5 -2.53125 L 1.921875 -2.53125 C 1.703125 -1.765625 1.328125 -0.9375 1.125 -0.515625 C 1.078125 -0.4375 1.015625 -0.28125 0.984375 -0.265625 C 0.984375 -0.234375 0.96875 -0.203125 0.96875 -0.15625 C 0.96875 -0.046875 1.046875 0.0625 1.21875 0.0625 C 1.484375 0.0625 1.5625 -0.25 1.734375 -0.875 Z M 2.171875 -2.53125 "
           style="stroke:none;" />
      </symbol>
      <symbol
         id="symbol8529"
         overflow="visible">
        <path
           id="path7496"
           d="M 2.875 -4.1875 C 2.9375 -4.4375 2.953125 -4.515625 3.59375 -4.515625 C 3.8125 -4.515625 3.875 -4.515625 3.875 -4.65625 C 3.875 -4.671875 3.875 -4.765625 3.765625 -4.765625 C 3.609375 -4.765625 3.421875 -4.75 3.25 -4.734375 C 3.078125 -4.734375 2.859375 -4.734375 2.6875 -4.734375 C 2.546875 -4.734375 2.359375 -4.734375 2.203125 -4.734375 C 2.0625 -4.734375 1.890625 -4.765625 1.75 -4.765625 C 1.71875 -4.765625 1.609375 -4.765625 1.609375 -4.609375 C 1.609375 -4.515625 1.6875 -4.515625 1.828125 -4.515625 C 1.84375 -4.515625 1.96875 -4.515625 2.09375 -4.5 C 2.25 -4.484375 2.265625 -4.46875 2.265625 -4.390625 C 2.265625 -4.390625 2.265625 -4.34375 2.234375 -4.25 L 1.296875 -0.546875 C 1.234375 -0.3125 1.21875 -0.25 0.6875 -0.25 C 0.578125 -0.25 0.484375 -0.25 0.484375 -0.109375 C 0.484375 0 0.5625 0 0.6875 0 L 4.1875 0 C 4.375 0 4.375 0 4.4375 -0.140625 C 4.5 -0.328125 5.03125 -1.671875 5.03125 -1.734375 C 5.03125 -1.75 5.015625 -1.828125 4.90625 -1.828125 C 4.828125 -1.828125 4.8125 -1.796875 4.765625 -1.6875 C 4.5 -1.03125 4.1875 -0.25 2.921875 -0.25 L 2.125 -0.25 C 1.921875 -0.25 1.90625 -0.265625 1.90625 -0.328125 C 1.90625 -0.328125 1.90625 -0.359375 1.9375 -0.46875 Z M 2.875 -4.1875 "
           style="stroke:none;" />
      </symbol>
    </g>
    <g
       id="g7546">
      <symbol
         id="symbol5076"
         overflow="visible">
        <path
           id="path8816"
           d=""
           style="stroke:none;" />
      </symbol>
      <symbol
         id="symbol7785"
         overflow="visible">
        <path
           id="path1372"
           d="M 4.109375 11.453125 C 4.109375 11.421875 4.09375 11.390625 4.078125 11.359375 C 3.625 10.875 2.9375 10.0625 2.515625 8.4375 C 2.296875 7.53125 2.203125 6.515625 2.203125 5.578125 C 2.203125 2.953125 2.828125 1.125 4.03125 -0.171875 C 4.109375 -0.265625 4.109375 -0.28125 4.109375 -0.296875 C 4.109375 -0.40625 4.03125 -0.40625 4 -0.40625 C 3.84375 -0.40625 3.3125 0.203125 3.1875 0.34375 C 2.15625 1.5625 1.515625 3.34375 1.515625 5.578125 C 1.515625 6.984375 1.765625 8.984375 3.078125 10.671875 C 3.171875 10.796875 3.8125 11.546875 4 11.546875 C 4.03125 11.546875 4.109375 11.546875 4.109375 11.453125 Z M 4.109375 11.453125 "
           style="stroke:none;" />
      </symbol>
      <symbol
         id="symbol3992"
         overflow="visible">
        <path
           id="path9094"
           d="M 3.046875 5.578125 C 3.046875 4.171875 2.796875 2.15625 1.484375 0.484375 C 1.390625 0.359375 0.734375 -0.40625 0.5625 -0.40625 C 0.515625 -0.40625 0.4375 -0.375 0.4375 -0.296875 C 0.4375 -0.265625 0.453125 -0.234375 0.5 -0.203125 C 0.984375 0.3125 1.625 1.125 2.03125 2.71875 C 2.265625 3.625 2.359375 4.640625 2.359375 5.578125 C 2.359375 6.578125 2.265625 7.59375 2 8.578125 C 1.625 9.96875 1.03125 10.765625 0.53125 11.328125 C 0.4375 11.421875 0.4375 11.4375 0.4375 11.453125 C 0.4375 11.53125 0.515625 11.546875 0.5625 11.546875 C 0.703125 11.546875 1.25 10.953125 1.375 10.8125 C 2.390625 9.59375 3.046875 7.8125 3.046875 5.578125 Z M 3.046875 5.578125 "
           style="stroke:none;" />
      </symbol>
      <symbol
         id="symbol2552"
         overflow="visible">
        <path
           id="path6327"
           d=""
           style="stroke:none;" />
      </symbol>
      <symbol
         id="symbol4410"
         overflow="visible">
        <path
           id="path6666"
           d="M 2.171875 -2.53125 L 3 -2.53125 C 2.890625 -2.109375 2.734375 -1.484375 2.734375 -0.921875 C 2.734375 -0.640625 2.78125 -0.453125 2.8125 -0.3125 C 2.921875 0.046875 3.015625 0.0625 3.125 0.0625 C 3.296875 0.0625 3.453125 -0.078125 3.453125 -0.25 C 3.453125 -0.296875 3.4375 -0.328125 3.40625 -0.390625 C 3.265625 -0.65625 3.140625 -1.046875 3.140625 -1.625 C 3.140625 -1.75 3.140625 -2.03125 3.234375 -2.53125 L 4.109375 -2.53125 C 4.234375 -2.53125 4.296875 -2.53125 4.375 -2.578125 C 4.46875 -2.65625 4.484375 -2.765625 4.484375 -2.796875 C 4.484375 -3 4.3125 -3 4.1875 -3 L 1.5625 -3 C 1.28125 -3 1.078125 -2.9375 0.765625 -2.640625 C 0.578125 -2.484375 0.3125 -2.109375 0.3125 -2.046875 C 0.3125 -1.96875 0.40625 -1.96875 0.4375 -1.96875 C 0.515625 -1.96875 0.515625 -1.984375 0.5625 -2.046875 C 0.90625 -2.53125 1.34375 -2.53125 1.5 -2.53125 L 1.921875 -2.53125 C 1.703125 -1.765625 1.328125 -0.9375 1.125 -0.515625 C 1.078125 -0.4375 1.015625 -0.28125 0.984375 -0.265625 C 0.984375 -0.234375 0.96875 -0.203125 0.96875 -0.15625 C 0.96875 -0.046875 1.046875 0.0625 1.21875 0.0625 C 1.484375 0.0625 1.5625 -0.25 1.734375 -0.875 Z M 2.171875 -2.53125 "
           style="stroke:none;" />
      </symbol>
      <symbol
         id="symbol2820"
         overflow="visible">
        <path
           id="path1493"
           d="M 2.875 -4.1875 C 2.9375 -4.4375 2.953125 -4.515625 3.59375 -4.515625 C 3.8125 -4.515625 3.875 -4.515625 3.875 -4.65625 C 3.875 -4.671875 3.875 -4.765625 3.765625 -4.765625 C 3.609375 -4.765625 3.421875 -4.75 3.25 -4.734375 C 3.078125 -4.734375 2.859375 -4.734375 2.6875 -4.734375 C 2.546875 -4.734375 2.359375 -4.734375 2.203125 -4.734375 C 2.0625 -4.734375 1.890625 -4.765625 1.75 -4.765625 C 1.71875 -4.765625 1.609375 -4.765625 1.609375 -4.609375 C 1.609375 -4.515625 1.6875 -4.515625 1.828125 -4.515625 C 1.84375 -4.515625 1.96875 -4.515625 2.09375 -4.5 C 2.25 -4.484375 2.265625 -4.46875 2.265625 -4.390625 C 2.265625 -4.390625 2.265625 -4.34375 2.234375 -4.25 L 1.296875 -0.546875 C 1.234375 -0.3125 1.21875 -0.25 0.6875 -0.25 C 0.578125 -0.25 0.484375 -0.25 0.484375 -0.109375 C 0.484375 0 0.5625 0 0.6875 0 L 4.1875 0 C 4.375 0 4.375 0 4.4375 -0.140625 C 4.5 -0.328125 5.03125 -1.671875 5.03125 -1.734375 C 5.03125 -1.75 5.015625 -1.828125 4.90625 -1.828125 C 4.828125 -1.828125 4.8125 -1.796875 4.765625 -1.6875 C 4.5 -1.03125 4.1875 -0.25 2.921875 -0.25 L 2.125 -0.25 C 1.921875 -0.25 1.90625 -0.265625 1.90625 -0.328125 C 1.90625 -0.328125 1.90625 -0.359375 1.9375 -0.46875 Z M 2.875 -4.1875 "
           style="stroke:none;" />
      </symbol>
      <symbol
         id="symbol3389"
         overflow="visible">
        <path
           id="path1893"
           d=""
           style="stroke:none;" />
      </symbol>
      <symbol
         id="symbol4422"
         overflow="visible">
        <path
           id="path1944"
           d="M 3.515625 -1.265625 L 3.28125 -1.265625 C 3.265625 -1.109375 3.1875 -0.703125 3.09375 -0.640625 C 3.046875 -0.59375 2.515625 -0.59375 2.40625 -0.59375 L 1.125 -0.59375 C 1.859375 -1.234375 2.109375 -1.4375 2.515625 -1.765625 C 3.03125 -2.171875 3.515625 -2.609375 3.515625 -3.265625 C 3.515625 -4.109375 2.78125 -4.625 1.890625 -4.625 C 1.03125 -4.625 0.4375 -4.015625 0.4375 -3.375 C 0.4375 -3.03125 0.734375 -2.984375 0.8125 -2.984375 C 0.96875 -2.984375 1.171875 -3.109375 1.171875 -3.359375 C 1.171875 -3.484375 1.125 -3.734375 0.765625 -3.734375 C 0.984375 -4.21875 1.453125 -4.375 1.78125 -4.375 C 2.484375 -4.375 2.84375 -3.828125 2.84375 -3.265625 C 2.84375 -2.65625 2.40625 -2.1875 2.1875 -1.9375 L 0.515625 -0.265625 C 0.4375 -0.203125 0.4375 -0.1875 0.4375 0 L 3.3125 0 Z M 3.515625 -1.265625 "
           style="stroke:none;" />
      </symbol>
    </g>
    <g
       id="g2347">
      <symbol
         id="symbol8931"
         overflow="visible">
        <path
           id="path2166"
           d=""
           style="stroke:none;" />
      </symbol>
      <symbol
         id="symbol9335"
         overflow="visible">
        <path
           id="path4271"
           d="M 4.109375 11.453125 C 4.109375 11.421875 4.09375 11.390625 4.078125 11.359375 C 3.625 10.875 2.9375 10.0625 2.515625 8.4375 C 2.296875 7.53125 2.203125 6.515625 2.203125 5.578125 C 2.203125 2.953125 2.828125 1.125 4.03125 -0.171875 C 4.109375 -0.265625 4.109375 -0.28125 4.109375 -0.296875 C 4.109375 -0.40625 4.03125 -0.40625 4 -0.40625 C 3.84375 -0.40625 3.3125 0.203125 3.1875 0.34375 C 2.15625 1.5625 1.515625 3.34375 1.515625 5.578125 C 1.515625 6.984375 1.765625 8.984375 3.078125 10.671875 C 3.171875 10.796875 3.8125 11.546875 4 11.546875 C 4.03125 11.546875 4.109375 11.546875 4.109375 11.453125 Z M 4.109375 11.453125 "
           style="stroke:none;" />
      </symbol>
      <symbol
         id="symbol5121"
         overflow="visible">
        <path
           id="path4881"
           d="M 3.046875 5.578125 C 3.046875 4.171875 2.796875 2.15625 1.484375 0.484375 C 1.390625 0.359375 0.734375 -0.40625 0.5625 -0.40625 C 0.515625 -0.40625 0.4375 -0.375 0.4375 -0.296875 C 0.4375 -0.265625 0.453125 -0.234375 0.5 -0.203125 C 0.984375 0.3125 1.625 1.125 2.03125 2.71875 C 2.265625 3.625 2.359375 4.640625 2.359375 5.578125 C 2.359375 6.578125 2.265625 7.59375 2 8.578125 C 1.625 9.96875 1.03125 10.765625 0.53125 11.328125 C 0.4375 11.421875 0.4375 11.4375 0.4375 11.453125 C 0.4375 11.53125 0.515625 11.546875 0.5625 11.546875 C 0.703125 11.546875 1.25 10.953125 1.375 10.8125 C 2.390625 9.59375 3.046875 7.8125 3.046875 5.578125 Z M 3.046875 5.578125 "
           style="stroke:none;" />
      </symbol>
      <symbol
         id="symbol4270"
         overflow="visible">
        <path
           id="path8189"
           d=""
           style="stroke:none;" />
      </symbol>
      <symbol
         id="symbol1304"
         overflow="visible">
        <path
           id="path6697"
           d="M 1.265625 -0.765625 L 2.328125 -1.796875 C 3.875 -3.171875 4.46875 -3.703125 4.46875 -4.703125 C 4.46875 -5.84375 3.578125 -6.640625 2.359375 -6.640625 C 1.234375 -6.640625 0.5 -5.71875 0.5 -4.828125 C 0.5 -4.28125 1 -4.28125 1.03125 -4.28125 C 1.203125 -4.28125 1.546875 -4.390625 1.546875 -4.8125 C 1.546875 -5.0625 1.359375 -5.328125 1.015625 -5.328125 C 0.9375 -5.328125 0.921875 -5.328125 0.890625 -5.3125 C 1.109375 -5.96875 1.65625 -6.328125 2.234375 -6.328125 C 3.140625 -6.328125 3.5625 -5.515625 3.5625 -4.703125 C 3.5625 -3.90625 3.078125 -3.125 2.515625 -2.5 L 0.609375 -0.375 C 0.5 -0.265625 0.5 -0.234375 0.5 0 L 4.203125 0 L 4.46875 -1.734375 L 4.234375 -1.734375 C 4.171875 -1.4375 4.109375 -1 4 -0.84375 C 3.9375 -0.765625 3.28125 -0.765625 3.0625 -0.765625 Z M 1.265625 -0.765625 "
           style="stroke:none;" />
      </symbol>
      <symbol
         id="symbol250"
         overflow="visible">
        <path
           id="path4732"
           d=""
           style="stroke:none;" />
      </symbol>
      <symbol
         id="symbol176"
         overflow="visible">
        <path
           id="path4698"
           d="M 2.171875 -2.53125 L 3 -2.53125 C 2.890625 -2.109375 2.734375 -1.484375 2.734375 -0.921875 C 2.734375 -0.640625 2.78125 -0.453125 2.8125 -0.3125 C 2.921875 0.046875 3.015625 0.0625 3.125 0.0625 C 3.296875 0.0625 3.453125 -0.078125 3.453125 -0.25 C 3.453125 -0.296875 3.4375 -0.328125 3.40625 -0.390625 C 3.265625 -0.65625 3.140625 -1.046875 3.140625 -1.625 C 3.140625 -1.75 3.140625 -2.03125 3.234375 -2.53125 L 4.109375 -2.53125 C 4.234375 -2.53125 4.296875 -2.53125 4.375 -2.578125 C 4.46875 -2.65625 4.484375 -2.765625 4.484375 -2.796875 C 4.484375 -3 4.3125 -3 4.1875 -3 L 1.5625 -3 C 1.28125 -3 1.078125 -2.9375 0.765625 -2.640625 C 0.578125 -2.484375 0.3125 -2.109375 0.3125 -2.046875 C 0.3125 -1.96875 0.40625 -1.96875 0.4375 -1.96875 C 0.515625 -1.96875 0.515625 -1.984375 0.5625 -2.046875 C 0.90625 -2.53125 1.34375 -2.53125 1.5 -2.53125 L 1.921875 -2.53125 C 1.703125 -1.765625 1.328125 -0.9375 1.125 -0.515625 C 1.078125 -0.4375 1.015625 -0.28125 0.984375 -0.265625 C 0.984375 -0.234375 0.96875 -0.203125 0.96875 -0.15625 C 0.96875 -0.046875 1.046875 0.0625 1.21875 0.0625 C 1.484375 0.0625 1.5625 -0.25 1.734375 -0.875 Z M 2.171875 -2.53125 "
           style="stroke:none;" />
      </symbol>
      <symbol
         id="symbol8114"
         overflow="visible">
        <path
           id="path3635"
           d="M 2.875 -4.1875 C 2.9375 -4.4375 2.953125 -4.515625 3.59375 -4.515625 C 3.8125 -4.515625 3.875 -4.515625 3.875 -4.65625 C 3.875 -4.671875 3.875 -4.765625 3.765625 -4.765625 C 3.609375 -4.765625 3.421875 -4.75 3.25 -4.734375 C 3.078125 -4.734375 2.859375 -4.734375 2.6875 -4.734375 C 2.546875 -4.734375 2.359375 -4.734375 2.203125 -4.734375 C 2.0625 -4.734375 1.890625 -4.765625 1.75 -4.765625 C 1.71875 -4.765625 1.609375 -4.765625 1.609375 -4.609375 C 1.609375 -4.515625 1.6875 -4.515625 1.828125 -4.515625 C 1.84375 -4.515625 1.96875 -4.515625 2.09375 -4.5 C 2.25 -4.484375 2.265625 -4.46875 2.265625 -4.390625 C 2.265625 -4.390625 2.265625 -4.34375 2.234375 -4.25 L 1.296875 -0.546875 C 1.234375 -0.3125 1.21875 -0.25 0.6875 -0.25 C 0.578125 -0.25 0.484375 -0.25 0.484375 -0.109375 C 0.484375 0 0.5625 0 0.6875 0 L 4.1875 0 C 4.375 0 4.375 0 4.4375 -0.140625 C 4.5 -0.328125 5.03125 -1.671875 5.03125 -1.734375 C 5.03125 -1.75 5.015625 -1.828125 4.90625 -1.828125 C 4.828125 -1.828125 4.8125 -1.796875 4.765625 -1.6875 C 4.5 -1.03125 4.1875 -0.25 2.921875 -0.25 L 2.125 -0.25 C 1.921875 -0.25 1.90625 -0.265625 1.90625 -0.328125 C 1.90625 -0.328125 1.90625 -0.359375 1.9375 -0.46875 Z M 2.875 -4.1875 "
           style="stroke:none;" />
      </symbol>
      <symbol
         id="symbol7523"
         overflow="visible">
        <path
           id="path1881"
           d=""
           style="stroke:none;" />
      </symbol>
      <symbol
         id="symbol8537"
         overflow="visible">
        <path
           id="path9104"
           d="M 3.515625 -1.265625 L 3.28125 -1.265625 C 3.265625 -1.109375 3.1875 -0.703125 3.09375 -0.640625 C 3.046875 -0.59375 2.515625 -0.59375 2.40625 -0.59375 L 1.125 -0.59375 C 1.859375 -1.234375 2.109375 -1.4375 2.515625 -1.765625 C 3.03125 -2.171875 3.515625 -2.609375 3.515625 -3.265625 C 3.515625 -4.109375 2.78125 -4.625 1.890625 -4.625 C 1.03125 -4.625 0.4375 -4.015625 0.4375 -3.375 C 0.4375 -3.03125 0.734375 -2.984375 0.8125 -2.984375 C 0.96875 -2.984375 1.171875 -3.109375 1.171875 -3.359375 C 1.171875 -3.484375 1.125 -3.734375 0.765625 -3.734375 C 0.984375 -4.21875 1.453125 -4.375 1.78125 -4.375 C 2.484375 -4.375 2.84375 -3.828125 2.84375 -3.265625 C 2.84375 -2.65625 2.40625 -2.1875 2.1875 -1.9375 L 0.515625 -0.265625 C 0.4375 -0.203125 0.4375 -0.1875 0.4375 0 L 3.3125 0 Z M 3.515625 -1.265625 "
           style="stroke:none;" />
      </symbol>
    </g>
    <g
       id="g9655">
      <symbol
         id="symbol4829"
         overflow="visible">
        <path
           id="path2042"
           d=""
           style="stroke:none;" />
      </symbol>
      <symbol
         id="symbol4258"
         overflow="visible">
        <path
           id="path3565"
           d="M 4.109375 11.453125 C 4.109375 11.421875 4.09375 11.390625 4.078125 11.359375 C 3.625 10.875 2.9375 10.0625 2.515625 8.4375 C 2.296875 7.53125 2.203125 6.515625 2.203125 5.578125 C 2.203125 2.953125 2.828125 1.125 4.03125 -0.171875 C 4.109375 -0.265625 4.109375 -0.28125 4.109375 -0.296875 C 4.109375 -0.40625 4.03125 -0.40625 4 -0.40625 C 3.84375 -0.40625 3.3125 0.203125 3.1875 0.34375 C 2.15625 1.5625 1.515625 3.34375 1.515625 5.578125 C 1.515625 6.984375 1.765625 8.984375 3.078125 10.671875 C 3.171875 10.796875 3.8125 11.546875 4 11.546875 C 4.03125 11.546875 4.109375 11.546875 4.109375 11.453125 Z M 4.109375 11.453125 "
           style="stroke:none;" />
      </symbol>
      <symbol
         id="symbol6798"
         overflow="visible">
        <path
           id="path1321"
           d="M 3.046875 5.578125 C 3.046875 4.171875 2.796875 2.15625 1.484375 0.484375 C 1.390625 0.359375 0.734375 -0.40625 0.5625 -0.40625 C 0.515625 -0.40625 0.4375 -0.375 0.4375 -0.296875 C 0.4375 -0.265625 0.453125 -0.234375 0.5 -0.203125 C 0.984375 0.3125 1.625 1.125 2.03125 2.71875 C 2.265625 3.625 2.359375 4.640625 2.359375 5.578125 C 2.359375 6.578125 2.265625 7.59375 2 8.578125 C 1.625 9.96875 1.03125 10.765625 0.53125 11.328125 C 0.4375 11.421875 0.4375 11.4375 0.4375 11.453125 C 0.4375 11.53125 0.515625 11.546875 0.5625 11.546875 C 0.703125 11.546875 1.25 10.953125 1.375 10.8125 C 2.390625 9.59375 3.046875 7.8125 3.046875 5.578125 Z M 3.046875 5.578125 "
           style="stroke:none;" />
      </symbol>
      <symbol
         id="symbol47"
         overflow="visible">
        <path
           id="path3644"
           d=""
           style="stroke:none;" />
      </symbol>
      <symbol
         id="symbol4555"
         overflow="visible">
        <path
           id="path9122"
           d="M 2.890625 -3.515625 C 3.703125 -3.78125 4.28125 -4.46875 4.28125 -5.265625 C 4.28125 -6.078125 3.40625 -6.640625 2.453125 -6.640625 C 1.453125 -6.640625 0.6875 -6.046875 0.6875 -5.28125 C 0.6875 -4.953125 0.90625 -4.765625 1.203125 -4.765625 C 1.5 -4.765625 1.703125 -4.984375 1.703125 -5.28125 C 1.703125 -5.765625 1.234375 -5.765625 1.09375 -5.765625 C 1.390625 -6.265625 2.046875 -6.390625 2.40625 -6.390625 C 2.828125 -6.390625 3.375 -6.171875 3.375 -5.28125 C 3.375 -5.15625 3.34375 -4.578125 3.09375 -4.140625 C 2.796875 -3.65625 2.453125 -3.625 2.203125 -3.625 C 2.125 -3.609375 1.890625 -3.59375 1.8125 -3.59375 C 1.734375 -3.578125 1.671875 -3.5625 1.671875 -3.46875 C 1.671875 -3.359375 1.734375 -3.359375 1.90625 -3.359375 L 2.34375 -3.359375 C 3.15625 -3.359375 3.53125 -2.6875 3.53125 -1.703125 C 3.53125 -0.34375 2.84375 -0.0625 2.40625 -0.0625 C 1.96875 -0.0625 1.21875 -0.234375 0.875 -0.8125 C 1.21875 -0.765625 1.53125 -0.984375 1.53125 -1.359375 C 1.53125 -1.71875 1.265625 -1.921875 0.984375 -1.921875 C 0.734375 -1.921875 0.421875 -1.78125 0.421875 -1.34375 C 0.421875 -0.4375 1.34375 0.21875 2.4375 0.21875 C 3.65625 0.21875 4.5625 -0.6875 4.5625 -1.703125 C 4.5625 -2.515625 3.921875 -3.296875 2.890625 -3.515625 Z M 2.890625 -3.515625 "
           style="stroke:none;" />
      </symbol>
      <symbol
         id="symbol2153"
         overflow="visible">
        <path
           id="path742"
           d=""
           style="stroke:none;" />
      </symbol>
      <symbol
         id="symbol6542"
         overflow="visible">
        <path
           id="path1820"
           d="M 2.171875 -2.53125 L 3 -2.53125 C 2.890625 -2.109375 2.734375 -1.484375 2.734375 -0.921875 C 2.734375 -0.640625 2.78125 -0.453125 2.8125 -0.3125 C 2.921875 0.046875 3.015625 0.0625 3.125 0.0625 C 3.296875 0.0625 3.453125 -0.078125 3.453125 -0.25 C 3.453125 -0.296875 3.4375 -0.328125 3.40625 -0.390625 C 3.265625 -0.65625 3.140625 -1.046875 3.140625 -1.625 C 3.140625 -1.75 3.140625 -2.03125 3.234375 -2.53125 L 4.109375 -2.53125 C 4.234375 -2.53125 4.296875 -2.53125 4.375 -2.578125 C 4.46875 -2.65625 4.484375 -2.765625 4.484375 -2.796875 C 4.484375 -3 4.3125 -3 4.1875 -3 L 1.5625 -3 C 1.28125 -3 1.078125 -2.9375 0.765625 -2.640625 C 0.578125 -2.484375 0.3125 -2.109375 0.3125 -2.046875 C 0.3125 -1.96875 0.40625 -1.96875 0.4375 -1.96875 C 0.515625 -1.96875 0.515625 -1.984375 0.5625 -2.046875 C 0.90625 -2.53125 1.34375 -2.53125 1.5 -2.53125 L 1.921875 -2.53125 C 1.703125 -1.765625 1.328125 -0.9375 1.125 -0.515625 C 1.078125 -0.4375 1.015625 -0.28125 0.984375 -0.265625 C 0.984375 -0.234375 0.96875 -0.203125 0.96875 -0.15625 C 0.96875 -0.046875 1.046875 0.0625 1.21875 0.0625 C 1.484375 0.0625 1.5625 -0.25 1.734375 -0.875 Z M 2.171875 -2.53125 "
           style="stroke:none;" />
      </symbol>
      <symbol
         id="symbol2278"
         overflow="visible">
        <path
           id="path9422"
           d="M 2.875 -4.1875 C 2.9375 -4.4375 2.953125 -4.515625 3.59375 -4.515625 C 3.8125 -4.515625 3.875 -4.515625 3.875 -4.65625 C 3.875 -4.671875 3.875 -4.765625 3.765625 -4.765625 C 3.609375 -4.765625 3.421875 -4.75 3.25 -4.734375 C 3.078125 -4.734375 2.859375 -4.734375 2.6875 -4.734375 C 2.546875 -4.734375 2.359375 -4.734375 2.203125 -4.734375 C 2.0625 -4.734375 1.890625 -4.765625 1.75 -4.765625 C 1.71875 -4.765625 1.609375 -4.765625 1.609375 -4.609375 C 1.609375 -4.515625 1.6875 -4.515625 1.828125 -4.515625 C 1.84375 -4.515625 1.96875 -4.515625 2.09375 -4.5 C 2.25 -4.484375 2.265625 -4.46875 2.265625 -4.390625 C 2.265625 -4.390625 2.265625 -4.34375 2.234375 -4.25 L 1.296875 -0.546875 C 1.234375 -0.3125 1.21875 -0.25 0.6875 -0.25 C 0.578125 -0.25 0.484375 -0.25 0.484375 -0.109375 C 0.484375 0 0.5625 0 0.6875 0 L 4.1875 0 C 4.375 0 4.375 0 4.4375 -0.140625 C 4.5 -0.328125 5.03125 -1.671875 5.03125 -1.734375 C 5.03125 -1.75 5.015625 -1.828125 4.90625 -1.828125 C 4.828125 -1.828125 4.8125 -1.796875 4.765625 -1.6875 C 4.5 -1.03125 4.1875 -0.25 2.921875 -0.25 L 2.125 -0.25 C 1.921875 -0.25 1.90625 -0.265625 1.90625 -0.328125 C 1.90625 -0.328125 1.90625 -0.359375 1.9375 -0.46875 Z M 2.875 -4.1875 "
           style="stroke:none;" />
      </symbol>
      <symbol
         id="symbol3161"
         overflow="visible">
        <path
           id="path9771"
           d=""
           style="stroke:none;" />
      </symbol>
      <symbol
         id="symbol5554"
         overflow="visible">
        <path
           id="path1906"
           d="M 3.515625 -1.265625 L 3.28125 -1.265625 C 3.265625 -1.109375 3.1875 -0.703125 3.09375 -0.640625 C 3.046875 -0.59375 2.515625 -0.59375 2.40625 -0.59375 L 1.125 -0.59375 C 1.859375 -1.234375 2.109375 -1.4375 2.515625 -1.765625 C 3.03125 -2.171875 3.515625 -2.609375 3.515625 -3.265625 C 3.515625 -4.109375 2.78125 -4.625 1.890625 -4.625 C 1.03125 -4.625 0.4375 -4.015625 0.4375 -3.375 C 0.4375 -3.03125 0.734375 -2.984375 0.8125 -2.984375 C 0.96875 -2.984375 1.171875 -3.109375 1.171875 -3.359375 C 1.171875 -3.484375 1.125 -3.734375 0.765625 -3.734375 C 0.984375 -4.21875 1.453125 -4.375 1.78125 -4.375 C 2.484375 -4.375 2.84375 -3.828125 2.84375 -3.265625 C 2.84375 -2.65625 2.40625 -2.1875 2.1875 -1.9375 L 0.515625 -0.265625 C 0.4375 -0.203125 0.4375 -0.1875 0.4375 0 L 3.3125 0 Z M 3.515625 -1.265625 "
           style="stroke:none;" />
      </symbol>
    </g>
    <g
       id="g4351">
      <symbol
         id="symbol4618"
         overflow="visible">
        <path
           id="path2603"
           d=""
           style="stroke:none;" />
      </symbol>
      <symbol
         id="symbol5558"
         overflow="visible">
        <path
           id="path6559"
           d="M 4.109375 11.453125 C 4.109375 11.421875 4.09375 11.390625 4.078125 11.359375 C 3.625 10.875 2.9375 10.0625 2.515625 8.4375 C 2.296875 7.53125 2.203125 6.515625 2.203125 5.578125 C 2.203125 2.953125 2.828125 1.125 4.03125 -0.171875 C 4.109375 -0.265625 4.109375 -0.28125 4.109375 -0.296875 C 4.109375 -0.40625 4.03125 -0.40625 4 -0.40625 C 3.84375 -0.40625 3.3125 0.203125 3.1875 0.34375 C 2.15625 1.5625 1.515625 3.34375 1.515625 5.578125 C 1.515625 6.984375 1.765625 8.984375 3.078125 10.671875 C 3.171875 10.796875 3.8125 11.546875 4 11.546875 C 4.03125 11.546875 4.109375 11.546875 4.109375 11.453125 Z M 4.109375 11.453125 "
           style="stroke:none;" />
      </symbol>
      <symbol
         id="symbol1592"
         overflow="visible">
        <path
           id="path9576"
           d="M 3.046875 5.578125 C 3.046875 4.171875 2.796875 2.15625 1.484375 0.484375 C 1.390625 0.359375 0.734375 -0.40625 0.5625 -0.40625 C 0.515625 -0.40625 0.4375 -0.375 0.4375 -0.296875 C 0.4375 -0.265625 0.453125 -0.234375 0.5 -0.203125 C 0.984375 0.3125 1.625 1.125 2.03125 2.71875 C 2.265625 3.625 2.359375 4.640625 2.359375 5.578125 C 2.359375 6.578125 2.265625 7.59375 2 8.578125 C 1.625 9.96875 1.03125 10.765625 0.53125 11.328125 C 0.4375 11.421875 0.4375 11.4375 0.4375 11.453125 C 0.4375 11.53125 0.515625 11.546875 0.5625 11.546875 C 0.703125 11.546875 1.25 10.953125 1.375 10.8125 C 2.390625 9.59375 3.046875 7.8125 3.046875 5.578125 Z M 3.046875 5.578125 "
           style="stroke:none;" />
      </symbol>
      <symbol
         id="symbol2795"
         overflow="visible">
        <path
           id="path2997"
           d=""
           style="stroke:none;" />
      </symbol>
      <symbol
         id="symbol9614"
         overflow="visible">
        <path
           id="path7043"
           d="M 2.9375 -1.640625 L 2.9375 -0.78125 C 2.9375 -0.421875 2.90625 -0.3125 2.171875 -0.3125 L 1.96875 -0.3125 L 1.96875 0 C 2.375 -0.03125 2.890625 -0.03125 3.3125 -0.03125 C 3.734375 -0.03125 4.25 -0.03125 4.671875 0 L 4.671875 -0.3125 L 4.453125 -0.3125 C 3.71875 -0.3125 3.703125 -0.421875 3.703125 -0.78125 L 3.703125 -1.640625 L 4.6875 -1.640625 L 4.6875 -1.953125 L 3.703125 -1.953125 L 3.703125 -6.484375 C 3.703125 -6.6875 3.703125 -6.75 3.53125 -6.75 C 3.453125 -6.75 3.421875 -6.75 3.34375 -6.625 L 0.28125 -1.953125 L 0.28125 -1.640625 Z M 2.984375 -1.953125 L 0.5625 -1.953125 L 2.984375 -5.671875 Z M 2.984375 -1.953125 "
           style="stroke:none;" />
      </symbol>
      <symbol
         id="symbol417"
         overflow="visible">
        <path
           id="path1312"
           d=""
           style="stroke:none;" />
      </symbol>
      <symbol
         id="symbol7217"
         overflow="visible">
        <path
           id="path5317"
           d="M 2.171875 -2.53125 L 3 -2.53125 C 2.890625 -2.109375 2.734375 -1.484375 2.734375 -0.921875 C 2.734375 -0.640625 2.78125 -0.453125 2.8125 -0.3125 C 2.921875 0.046875 3.015625 0.0625 3.125 0.0625 C 3.296875 0.0625 3.453125 -0.078125 3.453125 -0.25 C 3.453125 -0.296875 3.4375 -0.328125 3.40625 -0.390625 C 3.265625 -0.65625 3.140625 -1.046875 3.140625 -1.625 C 3.140625 -1.75 3.140625 -2.03125 3.234375 -2.53125 L 4.109375 -2.53125 C 4.234375 -2.53125 4.296875 -2.53125 4.375 -2.578125 C 4.46875 -2.65625 4.484375 -2.765625 4.484375 -2.796875 C 4.484375 -3 4.3125 -3 4.1875 -3 L 1.5625 -3 C 1.28125 -3 1.078125 -2.9375 0.765625 -2.640625 C 0.578125 -2.484375 0.3125 -2.109375 0.3125 -2.046875 C 0.3125 -1.96875 0.40625 -1.96875 0.4375 -1.96875 C 0.515625 -1.96875 0.515625 -1.984375 0.5625 -2.046875 C 0.90625 -2.53125 1.34375 -2.53125 1.5 -2.53125 L 1.921875 -2.53125 C 1.703125 -1.765625 1.328125 -0.9375 1.125 -0.515625 C 1.078125 -0.4375 1.015625 -0.28125 0.984375 -0.265625 C 0.984375 -0.234375 0.96875 -0.203125 0.96875 -0.15625 C 0.96875 -0.046875 1.046875 0.0625 1.21875 0.0625 C 1.484375 0.0625 1.5625 -0.25 1.734375 -0.875 Z M 2.171875 -2.53125 "
           style="stroke:none;" />
      </symbol>
      <symbol
         id="symbol3745"
         overflow="visible">
        <path
           id="path672"
           d="M 2.875 -4.1875 C 2.9375 -4.4375 2.953125 -4.515625 3.59375 -4.515625 C 3.8125 -4.515625 3.875 -4.515625 3.875 -4.65625 C 3.875 -4.671875 3.875 -4.765625 3.765625 -4.765625 C 3.609375 -4.765625 3.421875 -4.75 3.25 -4.734375 C 3.078125 -4.734375 2.859375 -4.734375 2.6875 -4.734375 C 2.546875 -4.734375 2.359375 -4.734375 2.203125 -4.734375 C 2.0625 -4.734375 1.890625 -4.765625 1.75 -4.765625 C 1.71875 -4.765625 1.609375 -4.765625 1.609375 -4.609375 C 1.609375 -4.515625 1.6875 -4.515625 1.828125 -4.515625 C 1.84375 -4.515625 1.96875 -4.515625 2.09375 -4.5 C 2.25 -4.484375 2.265625 -4.46875 2.265625 -4.390625 C 2.265625 -4.390625 2.265625 -4.34375 2.234375 -4.25 L 1.296875 -0.546875 C 1.234375 -0.3125 1.21875 -0.25 0.6875 -0.25 C 0.578125 -0.25 0.484375 -0.25 0.484375 -0.109375 C 0.484375 0 0.5625 0 0.6875 0 L 4.1875 0 C 4.375 0 4.375 0 4.4375 -0.140625 C 4.5 -0.328125 5.03125 -1.671875 5.03125 -1.734375 C 5.03125 -1.75 5.015625 -1.828125 4.90625 -1.828125 C 4.828125 -1.828125 4.8125 -1.796875 4.765625 -1.6875 C 4.5 -1.03125 4.1875 -0.25 2.921875 -0.25 L 2.125 -0.25 C 1.921875 -0.25 1.90625 -0.265625 1.90625 -0.328125 C 1.90625 -0.328125 1.90625 -0.359375 1.9375 -0.46875 Z M 2.875 -4.1875 "
           style="stroke:none;" />
      </symbol>
      <symbol
         id="symbol3473"
         overflow="visible">
        <path
           id="path3206"
           d=""
           style="stroke:none;" />
      </symbol>
      <symbol
         id="symbol7751"
         overflow="visible">
        <path
           id="path1268"
           d="M 3.515625 -1.265625 L 3.28125 -1.265625 C 3.265625 -1.109375 3.1875 -0.703125 3.09375 -0.640625 C 3.046875 -0.59375 2.515625 -0.59375 2.40625 -0.59375 L 1.125 -0.59375 C 1.859375 -1.234375 2.109375 -1.4375 2.515625 -1.765625 C 3.03125 -2.171875 3.515625 -2.609375 3.515625 -3.265625 C 3.515625 -4.109375 2.78125 -4.625 1.890625 -4.625 C 1.03125 -4.625 0.4375 -4.015625 0.4375 -3.375 C 0.4375 -3.03125 0.734375 -2.984375 0.8125 -2.984375 C 0.96875 -2.984375 1.171875 -3.109375 1.171875 -3.359375 C 1.171875 -3.484375 1.125 -3.734375 0.765625 -3.734375 C 0.984375 -4.21875 1.453125 -4.375 1.78125 -4.375 C 2.484375 -4.375 2.84375 -3.828125 2.84375 -3.265625 C 2.84375 -2.65625 2.40625 -2.1875 2.1875 -1.9375 L 0.515625 -0.265625 C 0.4375 -0.203125 0.4375 -0.1875 0.4375 0 L 3.3125 0 Z M 3.515625 -1.265625 "
           style="stroke:none;" />
      </symbol>
    </g>
    <g
       id="g1123">
      <symbol
         id="symbol6653"
         overflow="visible">
        <path
           id="path6642"
           d=""
           style="stroke:none;" />
      </symbol>
      <symbol
         id="symbol7515"
         overflow="visible">
        <path
           id="path3827"
           d="M 4.109375 11.453125 C 4.109375 11.421875 4.09375 11.390625 4.078125 11.359375 C 3.625 10.875 2.9375 10.0625 2.515625 8.4375 C 2.296875 7.53125 2.203125 6.515625 2.203125 5.578125 C 2.203125 2.953125 2.828125 1.125 4.03125 -0.171875 C 4.109375 -0.265625 4.109375 -0.28125 4.109375 -0.296875 C 4.109375 -0.40625 4.03125 -0.40625 4 -0.40625 C 3.84375 -0.40625 3.3125 0.203125 3.1875 0.34375 C 2.15625 1.5625 1.515625 3.34375 1.515625 5.578125 C 1.515625 6.984375 1.765625 8.984375 3.078125 10.671875 C 3.171875 10.796875 3.8125 11.546875 4 11.546875 C 4.03125 11.546875 4.109375 11.546875 4.109375 11.453125 Z M 4.109375 11.453125 "
           style="stroke:none;" />
      </symbol>
      <symbol
         id="symbol9171"
         overflow="visible">
        <path
           id="path6130"
           d="M 3.046875 5.578125 C 3.046875 4.171875 2.796875 2.15625 1.484375 0.484375 C 1.390625 0.359375 0.734375 -0.40625 0.5625 -0.40625 C 0.515625 -0.40625 0.4375 -0.375 0.4375 -0.296875 C 0.4375 -0.265625 0.453125 -0.234375 0.5 -0.203125 C 0.984375 0.3125 1.625 1.125 2.03125 2.71875 C 2.265625 3.625 2.359375 4.640625 2.359375 5.578125 C 2.359375 6.578125 2.265625 7.59375 2 8.578125 C 1.625 9.96875 1.03125 10.765625 0.53125 11.328125 C 0.4375 11.421875 0.4375 11.4375 0.4375 11.453125 C 0.4375 11.53125 0.515625 11.546875 0.5625 11.546875 C 0.703125 11.546875 1.25 10.953125 1.375 10.8125 C 2.390625 9.59375 3.046875 7.8125 3.046875 5.578125 Z M 3.046875 5.578125 "
           style="stroke:none;" />
      </symbol>
      <symbol
         id="symbol2390"
         overflow="visible">
        <path
           id="path7782"
           d=""
           style="stroke:none;" />
      </symbol>
      <symbol
         id="symbol9231"
         overflow="visible">
        <path
           id="path2013"
           d="M 4.46875 -2 C 4.46875 -3.1875 3.65625 -4.1875 2.578125 -4.1875 C 2.109375 -4.1875 1.671875 -4.03125 1.3125 -3.671875 L 1.3125 -5.625 C 1.515625 -5.5625 1.84375 -5.5 2.15625 -5.5 C 3.390625 -5.5 4.09375 -6.40625 4.09375 -6.53125 C 4.09375 -6.59375 4.0625 -6.640625 3.984375 -6.640625 C 3.984375 -6.640625 3.953125 -6.640625 3.90625 -6.609375 C 3.703125 -6.515625 3.21875 -6.3125 2.546875 -6.3125 C 2.15625 -6.3125 1.6875 -6.390625 1.21875 -6.59375 C 1.140625 -6.625 1.125 -6.625 1.109375 -6.625 C 1 -6.625 1 -6.546875 1 -6.390625 L 1 -3.4375 C 1 -3.265625 1 -3.1875 1.140625 -3.1875 C 1.21875 -3.1875 1.234375 -3.203125 1.28125 -3.265625 C 1.390625 -3.421875 1.75 -3.96875 2.5625 -3.96875 C 3.078125 -3.96875 3.328125 -3.515625 3.40625 -3.328125 C 3.5625 -2.953125 3.59375 -2.578125 3.59375 -2.078125 C 3.59375 -1.71875 3.59375 -1.125 3.34375 -0.703125 C 3.109375 -0.3125 2.734375 -0.0625 2.28125 -0.0625 C 1.5625 -0.0625 0.984375 -0.59375 0.8125 -1.171875 C 0.84375 -1.171875 0.875 -1.15625 0.984375 -1.15625 C 1.3125 -1.15625 1.484375 -1.40625 1.484375 -1.640625 C 1.484375 -1.890625 1.3125 -2.140625 0.984375 -2.140625 C 0.84375 -2.140625 0.5 -2.0625 0.5 -1.609375 C 0.5 -0.75 1.1875 0.21875 2.296875 0.21875 C 3.453125 0.21875 4.46875 -0.734375 4.46875 -2 Z M 4.46875 -2 "
           style="stroke:none;" />
      </symbol>
      <symbol
         id="symbol1279"
         overflow="visible">
        <path
           id="path9875"
           d=""
           style="stroke:none;" />
      </symbol>
      <symbol
         id="symbol2308"
         overflow="visible">
        <path
           id="path6570"
           d="M 2.171875 -2.53125 L 3 -2.53125 C 2.890625 -2.109375 2.734375 -1.484375 2.734375 -0.921875 C 2.734375 -0.640625 2.78125 -0.453125 2.8125 -0.3125 C 2.921875 0.046875 3.015625 0.0625 3.125 0.0625 C 3.296875 0.0625 3.453125 -0.078125 3.453125 -0.25 C 3.453125 -0.296875 3.4375 -0.328125 3.40625 -0.390625 C 3.265625 -0.65625 3.140625 -1.046875 3.140625 -1.625 C 3.140625 -1.75 3.140625 -2.03125 3.234375 -2.53125 L 4.109375 -2.53125 C 4.234375 -2.53125 4.296875 -2.53125 4.375 -2.578125 C 4.46875 -2.65625 4.484375 -2.765625 4.484375 -2.796875 C 4.484375 -3 4.3125 -3 4.1875 -3 L 1.5625 -3 C 1.28125 -3 1.078125 -2.9375 0.765625 -2.640625 C 0.578125 -2.484375 0.3125 -2.109375 0.3125 -2.046875 C 0.3125 -1.96875 0.40625 -1.96875 0.4375 -1.96875 C 0.515625 -1.96875 0.515625 -1.984375 0.5625 -2.046875 C 0.90625 -2.53125 1.34375 -2.53125 1.5 -2.53125 L 1.921875 -2.53125 C 1.703125 -1.765625 1.328125 -0.9375 1.125 -0.515625 C 1.078125 -0.4375 1.015625 -0.28125 0.984375 -0.265625 C 0.984375 -0.234375 0.96875 -0.203125 0.96875 -0.15625 C 0.96875 -0.046875 1.046875 0.0625 1.21875 0.0625 C 1.484375 0.0625 1.5625 -0.25 1.734375 -0.875 Z M 2.171875 -2.53125 "
           style="stroke:none;" />
      </symbol>
      <symbol
         id="symbol3292"
         overflow="visible">
        <path
           id="path280"
           d="M 2.875 -4.1875 C 2.9375 -4.4375 2.953125 -4.515625 3.59375 -4.515625 C 3.8125 -4.515625 3.875 -4.515625 3.875 -4.65625 C 3.875 -4.671875 3.875 -4.765625 3.765625 -4.765625 C 3.609375 -4.765625 3.421875 -4.75 3.25 -4.734375 C 3.078125 -4.734375 2.859375 -4.734375 2.6875 -4.734375 C 2.546875 -4.734375 2.359375 -4.734375 2.203125 -4.734375 C 2.0625 -4.734375 1.890625 -4.765625 1.75 -4.765625 C 1.71875 -4.765625 1.609375 -4.765625 1.609375 -4.609375 C 1.609375 -4.515625 1.6875 -4.515625 1.828125 -4.515625 C 1.84375 -4.515625 1.96875 -4.515625 2.09375 -4.5 C 2.25 -4.484375 2.265625 -4.46875 2.265625 -4.390625 C 2.265625 -4.390625 2.265625 -4.34375 2.234375 -4.25 L 1.296875 -0.546875 C 1.234375 -0.3125 1.21875 -0.25 0.6875 -0.25 C 0.578125 -0.25 0.484375 -0.25 0.484375 -0.109375 C 0.484375 0 0.5625 0 0.6875 0 L 4.1875 0 C 4.375 0 4.375 0 4.4375 -0.140625 C 4.5 -0.328125 5.03125 -1.671875 5.03125 -1.734375 C 5.03125 -1.75 5.015625 -1.828125 4.90625 -1.828125 C 4.828125 -1.828125 4.8125 -1.796875 4.765625 -1.6875 C 4.5 -1.03125 4.1875 -0.25 2.921875 -0.25 L 2.125 -0.25 C 1.921875 -0.25 1.90625 -0.265625 1.90625 -0.328125 C 1.90625 -0.328125 1.90625 -0.359375 1.9375 -0.46875 Z M 2.875 -4.1875 "
           style="stroke:none;" />
      </symbol>
      <symbol
         id="symbol8066"
         overflow="visible">
        <path
           id="path5094"
           d=""
           style="stroke:none;" />
      </symbol>
      <symbol
         id="symbol9768"
         overflow="visible">
        <path
           id="path3888"
           d="M 3.515625 -1.265625 L 3.28125 -1.265625 C 3.265625 -1.109375 3.1875 -0.703125 3.09375 -0.640625 C 3.046875 -0.59375 2.515625 -0.59375 2.40625 -0.59375 L 1.125 -0.59375 C 1.859375 -1.234375 2.109375 -1.4375 2.515625 -1.765625 C 3.03125 -2.171875 3.515625 -2.609375 3.515625 -3.265625 C 3.515625 -4.109375 2.78125 -4.625 1.890625 -4.625 C 1.03125 -4.625 0.4375 -4.015625 0.4375 -3.375 C 0.4375 -3.03125 0.734375 -2.984375 0.8125 -2.984375 C 0.96875 -2.984375 1.171875 -3.109375 1.171875 -3.359375 C 1.171875 -3.484375 1.125 -3.734375 0.765625 -3.734375 C 0.984375 -4.21875 1.453125 -4.375 1.78125 -4.375 C 2.484375 -4.375 2.84375 -3.828125 2.84375 -3.265625 C 2.84375 -2.65625 2.40625 -2.1875 2.1875 -1.9375 L 0.515625 -0.265625 C 0.4375 -0.203125 0.4375 -0.1875 0.4375 0 L 3.3125 0 Z M 3.515625 -1.265625 "
           style="stroke:none;" />
      </symbol>
    </g>
    <g
       id="g6512">
      <symbol
         id="symbol3213"
         overflow="visible">
        <path
           id="path8745"
           d=""
           style="stroke:none;" />
      </symbol>
      <symbol
         id="symbol8881"
         overflow="visible">
        <path
           id="path7396"
           d="M 4.109375 11.453125 C 4.109375 11.421875 4.09375 11.390625 4.078125 11.359375 C 3.625 10.875 2.9375 10.0625 2.515625 8.4375 C 2.296875 7.53125 2.203125 6.515625 2.203125 5.578125 C 2.203125 2.953125 2.828125 1.125 4.03125 -0.171875 C 4.109375 -0.265625 4.109375 -0.28125 4.109375 -0.296875 C 4.109375 -0.40625 4.03125 -0.40625 4 -0.40625 C 3.84375 -0.40625 3.3125 0.203125 3.1875 0.34375 C 2.15625 1.5625 1.515625 3.34375 1.515625 5.578125 C 1.515625 6.984375 1.765625 8.984375 3.078125 10.671875 C 3.171875 10.796875 3.8125 11.546875 4 11.546875 C 4.03125 11.546875 4.109375 11.546875 4.109375 11.453125 Z M 4.109375 11.453125 "
           style="stroke:none;" />
      </symbol>
      <symbol
         id="symbol7106"
         overflow="visible">
        <path
           id="path1656"
           d="M 3.046875 5.578125 C 3.046875 4.171875 2.796875 2.15625 1.484375 0.484375 C 1.390625 0.359375 0.734375 -0.40625 0.5625 -0.40625 C 0.515625 -0.40625 0.4375 -0.375 0.4375 -0.296875 C 0.4375 -0.265625 0.453125 -0.234375 0.5 -0.203125 C 0.984375 0.3125 1.625 1.125 2.03125 2.71875 C 2.265625 3.625 2.359375 4.640625 2.359375 5.578125 C 2.359375 6.578125 2.265625 7.59375 2 8.578125 C 1.625 9.96875 1.03125 10.765625 0.53125 11.328125 C 0.4375 11.421875 0.4375 11.4375 0.4375 11.453125 C 0.4375 11.53125 0.515625 11.546875 0.5625 11.546875 C 0.703125 11.546875 1.25 10.953125 1.375 10.8125 C 2.390625 9.59375 3.046875 7.8125 3.046875 5.578125 Z M 3.046875 5.578125 "
           style="stroke:none;" />
      </symbol>
      <symbol
         id="symbol1678"
         overflow="visible">
        <path
           id="path8874"
           d=""
           style="stroke:none;" />
      </symbol>
      <symbol
         id="symbol894"
         overflow="visible">
        <path
           id="path3192"
           d="M 1.3125 -3.265625 L 1.3125 -3.515625 C 1.3125 -6.03125 2.546875 -6.390625 3.0625 -6.390625 C 3.296875 -6.390625 3.71875 -6.328125 3.9375 -5.984375 C 3.78125 -5.984375 3.390625 -5.984375 3.390625 -5.546875 C 3.390625 -5.234375 3.625 -5.078125 3.84375 -5.078125 C 4 -5.078125 4.3125 -5.171875 4.3125 -5.5625 C 4.3125 -6.15625 3.875 -6.640625 3.046875 -6.640625 C 1.765625 -6.640625 0.421875 -5.359375 0.421875 -3.15625 C 0.421875 -0.484375 1.578125 0.21875 2.5 0.21875 C 3.609375 0.21875 4.5625 -0.71875 4.5625 -2.03125 C 4.5625 -3.296875 3.671875 -4.25 2.5625 -4.25 C 1.890625 -4.25 1.515625 -3.75 1.3125 -3.265625 Z M 2.5 -0.0625 C 1.875 -0.0625 1.578125 -0.65625 1.515625 -0.8125 C 1.328125 -1.28125 1.328125 -2.078125 1.328125 -2.25 C 1.328125 -3.03125 1.65625 -4.03125 2.546875 -4.03125 C 2.71875 -4.03125 3.171875 -4.03125 3.484375 -3.40625 C 3.65625 -3.046875 3.65625 -2.53125 3.65625 -2.046875 C 3.65625 -1.5625 3.65625 -1.0625 3.484375 -0.703125 C 3.1875 -0.109375 2.734375 -0.0625 2.5 -0.0625 Z M 2.5 -0.0625 "
           style="stroke:none;" />
      </symbol>
      <symbol
         id="symbol3075"
         overflow="visible">
        <path
           id="path4298"
           d=""
           style="stroke:none;" />
      </symbol>
      <symbol
         id="symbol1158"
         overflow="visible">
        <path
           id="path7598"
           d="M 2.171875 -2.53125 L 3 -2.53125 C 2.890625 -2.109375 2.734375 -1.484375 2.734375 -0.921875 C 2.734375 -0.640625 2.78125 -0.453125 2.8125 -0.3125 C 2.921875 0.046875 3.015625 0.0625 3.125 0.0625 C 3.296875 0.0625 3.453125 -0.078125 3.453125 -0.25 C 3.453125 -0.296875 3.4375 -0.328125 3.40625 -0.390625 C 3.265625 -0.65625 3.140625 -1.046875 3.140625 -1.625 C 3.140625 -1.75 3.140625 -2.03125 3.234375 -2.53125 L 4.109375 -2.53125 C 4.234375 -2.53125 4.296875 -2.53125 4.375 -2.578125 C 4.46875 -2.65625 4.484375 -2.765625 4.484375 -2.796875 C 4.484375 -3 4.3125 -3 4.1875 -3 L 1.5625 -3 C 1.28125 -3 1.078125 -2.9375 0.765625 -2.640625 C 0.578125 -2.484375 0.3125 -2.109375 0.3125 -2.046875 C 0.3125 -1.96875 0.40625 -1.96875 0.4375 -1.96875 C 0.515625 -1.96875 0.515625 -1.984375 0.5625 -2.046875 C 0.90625 -2.53125 1.34375 -2.53125 1.5 -2.53125 L 1.921875 -2.53125 C 1.703125 -1.765625 1.328125 -0.9375 1.125 -0.515625 C 1.078125 -0.4375 1.015625 -0.28125 0.984375 -0.265625 C 0.984375 -0.234375 0.96875 -0.203125 0.96875 -0.15625 C 0.96875 -0.046875 1.046875 0.0625 1.21875 0.0625 C 1.484375 0.0625 1.5625 -0.25 1.734375 -0.875 Z M 2.171875 -2.53125 "
           style="stroke:none;" />
      </symbol>
      <symbol
         id="symbol9239"
         overflow="visible">
        <path
           id="path1065"
           d="M 2.875 -4.1875 C 2.9375 -4.4375 2.953125 -4.515625 3.59375 -4.515625 C 3.8125 -4.515625 3.875 -4.515625 3.875 -4.65625 C 3.875 -4.671875 3.875 -4.765625 3.765625 -4.765625 C 3.609375 -4.765625 3.421875 -4.75 3.25 -4.734375 C 3.078125 -4.734375 2.859375 -4.734375 2.6875 -4.734375 C 2.546875 -4.734375 2.359375 -4.734375 2.203125 -4.734375 C 2.0625 -4.734375 1.890625 -4.765625 1.75 -4.765625 C 1.71875 -4.765625 1.609375 -4.765625 1.609375 -4.609375 C 1.609375 -4.515625 1.6875 -4.515625 1.828125 -4.515625 C 1.84375 -4.515625 1.96875 -4.515625 2.09375 -4.5 C 2.25 -4.484375 2.265625 -4.46875 2.265625 -4.390625 C 2.265625 -4.390625 2.265625 -4.34375 2.234375 -4.25 L 1.296875 -0.546875 C 1.234375 -0.3125 1.21875 -0.25 0.6875 -0.25 C 0.578125 -0.25 0.484375 -0.25 0.484375 -0.109375 C 0.484375 0 0.5625 0 0.6875 0 L 4.1875 0 C 4.375 0 4.375 0 4.4375 -0.140625 C 4.5 -0.328125 5.03125 -1.671875 5.03125 -1.734375 C 5.03125 -1.75 5.015625 -1.828125 4.90625 -1.828125 C 4.828125 -1.828125 4.8125 -1.796875 4.765625 -1.6875 C 4.5 -1.03125 4.1875 -0.25 2.921875 -0.25 L 2.125 -0.25 C 1.921875 -0.25 1.90625 -0.265625 1.90625 -0.328125 C 1.90625 -0.328125 1.90625 -0.359375 1.9375 -0.46875 Z M 2.875 -4.1875 "
           style="stroke:none;" />
      </symbol>
      <symbol
         id="symbol1272"
         overflow="visible">
        <path
           id="path5040"
           d=""
           style="stroke:none;" />
      </symbol>
      <symbol
         id="symbol2496"
         overflow="visible">
        <path
           id="path9000"
           d="M 3.515625 -1.265625 L 3.28125 -1.265625 C 3.265625 -1.109375 3.1875 -0.703125 3.09375 -0.640625 C 3.046875 -0.59375 2.515625 -0.59375 2.40625 -0.59375 L 1.125 -0.59375 C 1.859375 -1.234375 2.109375 -1.4375 2.515625 -1.765625 C 3.03125 -2.171875 3.515625 -2.609375 3.515625 -3.265625 C 3.515625 -4.109375 2.78125 -4.625 1.890625 -4.625 C 1.03125 -4.625 0.4375 -4.015625 0.4375 -3.375 C 0.4375 -3.03125 0.734375 -2.984375 0.8125 -2.984375 C 0.96875 -2.984375 1.171875 -3.109375 1.171875 -3.359375 C 1.171875 -3.484375 1.125 -3.734375 0.765625 -3.734375 C 0.984375 -4.21875 1.453125 -4.375 1.78125 -4.375 C 2.484375 -4.375 2.84375 -3.828125 2.84375 -3.265625 C 2.84375 -2.65625 2.40625 -2.1875 2.1875 -1.9375 L 0.515625 -0.265625 C 0.4375 -0.203125 0.4375 -0.1875 0.4375 0 L 3.3125 0 Z M 3.515625 -1.265625 "
           style="stroke:none;" />
      </symbol>
    </g>
  </defs>
  <sodipodi:namedview
     inkscape:object-paths="true"
     inkscape:snap-smooth-nodes="true"
     inkscape:snap-intersection-paths="true"
     inkscape:window-maximized="1"
     inkscape:window-y="-8"
     inkscape:window-x="-8"
     inkscape:window-height="1014"
     inkscape:window-width="1920"
     showgrid="false"
     inkscape:document-rotation="0"
     inkscape:current-layer="layer1"
     inkscape:document-units="mm"
     inkscape:cy="234.8456"
     inkscape:cx="357.10828"
     inkscape:zoom="1.4"
     inkscape:pageshadow="2"
     inkscape:pageopacity="0.0"
     borderopacity="1.0"
     bordercolor="#666666"
     pagecolor="#ffffff"
     id="base" />
  <metadata
     id="metadata5">
    <rdf:RDF>
      <cc:Work
         rdf:about="">
        <dc:format>image/svg+xml</dc:format>
        <dc:type
           rdf:resource="http://purl.org/dc/dcmitype/StillImage" />
        <dc:title></dc:title>
      </cc:Work>
    </rdf:RDF>
  </metadata>
  <g
     id="layer1"
     inkscape:groupmode="layer"
     inkscape:label="Layer 1">
    <path
       id="path833"
       d="M 58.586309,17.386905 V 83.532737"
       style="fill:none;stroke:#000000;stroke-width:0.529167;stroke-linecap:butt;stroke-linejoin:miter;stroke-miterlimit:4;stroke-dasharray:none;stroke-opacity:1" />
    <path
       id="path835"
       d="M 42.52232,70.49256 H 189.79627"
       style="fill:none;stroke:#000000;stroke-width:0.52916667;stroke-linecap:butt;stroke-linejoin:miter;stroke-miterlimit:4;stroke-dasharray:none;stroke-opacity:1" />
    <path
       sodipodi:nodetypes="czc"
       id="path837"
       d="m 58.586309,44.034224 c 0,0 26.286197,37.79762 52.970681,37.79762 26.68449,0 50.39827,-57.45238 50.39827,-57.45238"
       style="fill:none;stroke:#000000;stroke-width:0.79375;stroke-linecap:butt;stroke-linejoin:miter;stroke-miterlimit:4;stroke-dasharray:none;stroke-opacity:1" />
    <g
       inkscape:label=""
       transform="matrix(0.7746585,0,0,0.7746585,112.71668,16.063988)"
       id="g859">
      <g
         id="g3272">
        <g
           id="g4144"
           style="fill:#000000;fill-opacity:1">
          <use
             height="100%"
             width="100%"
             id="use7089"
             y="81.962997"
             x="91.925003"
             xlink:href="#symbol597" />
        </g>
        <g
           id="g2924"
           style="fill:#000000;fill-opacity:1">
          <use
             height="100%"
             width="100%"
             id="use4642"
             y="78.348"
             x="97.425003"
             xlink:href="#symbol8669" />
        </g>
      </g>
    </g>
    <g
       inkscape:label=""
       transform="matrix(0.7746585,0,0,0.7746585,6.7422173,18.371895)"
       id="g919">
      <g
         id="g4965">
        <g
           id="g9436"
           style="fill:#000000;fill-opacity:1">
          <use
             height="100%"
             width="100%"
             id="use7082"
             y="81.962997"
             x="91.925003"
             xlink:href="#symbol9627" />
        </g>
        <g
           id="g4445"
           style="fill:#000000;fill-opacity:1">
          <use
             height="100%"
             width="100%"
             id="use4345"
             y="78.348"
             x="97.425003"
             xlink:href="#symbol8150" />
        </g>
        <g
           id="g8792"
           style="fill:#000000;fill-opacity:1">
          <use
             height="100%"
             width="100%"
             id="use134"
             y="84.426003"
             x="97.112"
             xlink:href="#symbol5948" />
        </g>
      </g>
    </g>
    <g
       inkscape:label=""
       transform="matrix(0.7746585,0,0,0.7746585,61.422398,17.386905)"
       id="g1004">
      <g
         id="g57">
        <g
           id="g3172"
           style="fill:#000000;fill-opacity:1">
          <use
             height="100%"
             width="100%"
             id="use2238"
             y="81.962997"
             x="91.925003"
             xlink:href="#symbol6867" />
        </g>
        <g
           id="g7676"
           style="fill:#000000;fill-opacity:1">
          <use
             height="100%"
             width="100%"
             id="use2620"
             y="78.348"
             x="97.425003"
             xlink:href="#symbol4871" />
        </g>
        <g
           id="g8152"
           style="fill:#000000;fill-opacity:1">
          <use
             height="100%"
             width="100%"
             id="use9926"
             y="84.426003"
             x="97.112"
             xlink:href="#symbol1746" />
        </g>
      </g>
    </g>
    <g
       inkscape:label=""
       transform="matrix(0.7746585,0,0,0.7746585,-40.449311,-38.064259)"
       id="g1115">
      <g
         id="g9897">
        <g
           id="g8808"
           style="fill:#000000;fill-opacity:1">
          <use
             height="100%"
             width="100%"
             id="use1793"
             y="81.962997"
             x="91.925003"
             xlink:href="#symbol1132" />
          <use
             height="100%"
             width="100%"
             id="use9268"
             y="81.962997"
             x="97.46022"
             xlink:href="#symbol1968" />
          <use
             height="100%"
             width="100%"
             id="use8254"
             y="81.962997"
             x="101.8876"
             xlink:href="#symbol1866" />
          <use
             height="100%"
             width="100%"
             id="use9793"
             y="81.962997"
             x="105.76205"
             xlink:href="#symbol1377" />
        </g>
        <g
           id="g5600"
           style="fill:#000000;fill-opacity:1">
          <use
             height="100%"
             width="100%"
             id="use2503"
             y="81.962997"
             x="109.637"
             xlink:href="#symbol1323" />
        </g>
        <g
           id="g266"
           style="fill:#000000;fill-opacity:1">
          <use
             height="100%"
             width="100%"
             id="use9813"
             y="81.962997"
             x="122.152"
             xlink:href="#symbol1872" />
        </g>
      </g>
    </g>
    <circle
       r="2.1733632"
       cy="70.492561"
       cx="72.930511"
       id="path1147"
       style="fill:#ff0000;fill-opacity:1;stroke:none;stroke-width:0.79375;stroke-linejoin:round;stroke-miterlimit:4;stroke-dasharray:none" />
    <circle
       style="fill:#ff0000;fill-opacity:1;stroke:none;stroke-width:0.79375;stroke-linejoin:round;stroke-miterlimit:4;stroke-dasharray:none"
       id="path1147-5"
       cx="86.972557"
       cy="70.492561"
       r="2.1733632" />
    <circle
       style="fill:#ff0000;fill-opacity:1;stroke:none;stroke-width:0.79375;stroke-linejoin:round;stroke-miterlimit:4;stroke-dasharray:none"
       id="path1147-6"
       cx="111.12498"
       cy="70.492561"
       r="2.1733632" />
    <circle
       style="fill:#ff0000;fill-opacity:1;stroke:none;stroke-width:0.79375;stroke-linejoin:round;stroke-miterlimit:4;stroke-dasharray:none"
       id="path1147-0"
       cx="145.78551"
       cy="70.492561"
       r="2.1733632" />
    <circle
       style="fill:#ff0000;fill-opacity:1;stroke:none;stroke-width:0.79375;stroke-linejoin:round;stroke-miterlimit:4;stroke-dasharray:none"
       id="path1147-06"
       cx="187.62291"
       cy="70.492561"
       r="2.1733632" />
    <circle
       style="fill:#ff0000;fill-opacity:1;stroke:none;stroke-width:0.79375;stroke-linejoin:round;stroke-miterlimit:4;stroke-dasharray:none"
       id="path1147-2"
       cx="64.463844"
       cy="70.492561"
       r="2.1733632" />
    <g
       inkscape:label=""
       transform="matrix(0.34626059,0,0,0.34626059,28.746253,37.440644)"
       id="g1461">
      <g
         id="g5700">
        <g
           id="g1533"
           style="fill:#000000;fill-opacity:1">
          <use
             height="100%"
             width="100%"
             id="use8390"
             y="74.43"
             x="91.925003"
             xlink:href="#symbol7785" />
        </g>
        <g
           id="g3538"
           style="fill:#000000;fill-opacity:1">
          <use
             height="100%"
             width="100%"
             id="use2166"
             y="78.577003"
             x="97.964996"
             xlink:href="#symbol4410" />
        </g>
        <path
           id="path5852"
           transform="matrix(1,0,0,-1,97.687,80.009)"
           d="M 5e-4,0.0011875 H 5.465344"
           style="fill:none;stroke:#000000;stroke-width:0.398;stroke-linecap:butt;stroke-linejoin:miter;stroke-miterlimit:10;stroke-opacity:1" />
        <g
           id="g216"
           style="fill:#000000;fill-opacity:1">
          <use
             height="100%"
             width="100%"
             id="use2014"
             y="85.934998"
             x="97.686996"
             xlink:href="#symbol2820" />
        </g>
        <g
           id="g4682"
           style="fill:#000000;fill-opacity:1">
          <use
             height="100%"
             width="100%"
             id="use1573"
             y="74.43"
             x="104.348"
             xlink:href="#symbol3992" />
        </g>
        <g
           id="g6701"
           style="fill:#000000;fill-opacity:1">
          <use
             height="100%"
             width="100%"
             id="use8569"
             y="76.494003"
             x="108.914"
             xlink:href="#symbol4422" />
        </g>
      </g>
    </g>
    <g
       inkscape:label=""
       transform="matrix(0.34626059,0,0,0.34626059,37.38064,37.440644)"
       id="g1669">
      <g
         id="g4678">
        <g
           id="g7814"
           style="fill:#000000;fill-opacity:1">
          <use
             height="100%"
             width="100%"
             id="use8777"
             y="74.43"
             x="91.925003"
             xlink:href="#symbol9335" />
        </g>
        <g
           id="g4264"
           style="fill:#000000;fill-opacity:1">
          <use
             height="100%"
             width="100%"
             id="use1611"
             y="82.5"
             x="96.490997"
             xlink:href="#symbol1304" />
        </g>
        <g
           id="g5020"
           style="fill:#000000;fill-opacity:1">
          <use
             height="100%"
             width="100%"
             id="use2937"
             y="78.577003"
             x="102.947"
             xlink:href="#symbol176" />
        </g>
        <path
           id="path3863"
           transform="matrix(1,0,0,-1,102.668,80.009)"
           d="M -3.125e-5,0.0011875 H 5.464813"
           style="fill:none;stroke:#000000;stroke-width:0.398;stroke-linecap:butt;stroke-linejoin:miter;stroke-miterlimit:10;stroke-opacity:1" />
        <g
           id="g726"
           style="fill:#000000;fill-opacity:1">
          <use
             height="100%"
             width="100%"
             id="use442"
             y="85.934998"
             x="102.668"
             xlink:href="#symbol8114" />
        </g>
        <g
           id="g8894"
           style="fill:#000000;fill-opacity:1">
          <use
             height="100%"
             width="100%"
             id="use6199"
             y="74.43"
             x="109.33"
             xlink:href="#symbol5121" />
        </g>
        <g
           id="g2489"
           style="fill:#000000;fill-opacity:1">
          <use
             height="100%"
             width="100%"
             id="use587"
             y="76.494003"
             x="113.896"
             xlink:href="#symbol8537" />
        </g>
      </g>
    </g>
    <g
       inkscape:label=""
       transform="matrix(0.34626059,0,0,0.34626059,51.552405,37.440644)"
       id="g1920">
      <g
         id="g1808">
        <g
           id="g4463"
           style="fill:#000000;fill-opacity:1">
          <use
             height="100%"
             width="100%"
             id="use5103"
             y="74.43"
             x="91.925003"
             xlink:href="#symbol4258" />
        </g>
        <g
           id="g6030"
           style="fill:#000000;fill-opacity:1">
          <use
             height="100%"
             width="100%"
             id="use5762"
             y="82.5"
             x="96.490997"
             xlink:href="#symbol4555" />
        </g>
        <g
           id="g2178"
           style="fill:#000000;fill-opacity:1">
          <use
             height="100%"
             width="100%"
             id="use1909"
             y="78.577003"
             x="102.947"
             xlink:href="#symbol6542" />
        </g>
        <path
           id="path2965"
           transform="matrix(1,0,0,-1,102.668,80.009)"
           d="M -3.125e-5,0.0011875 H 5.464813"
           style="fill:none;stroke:#000000;stroke-width:0.398;stroke-linecap:butt;stroke-linejoin:miter;stroke-miterlimit:10;stroke-opacity:1" />
        <g
           id="g479"
           style="fill:#000000;fill-opacity:1">
          <use
             height="100%"
             width="100%"
             id="use7162"
             y="85.934998"
             x="102.668"
             xlink:href="#symbol2278" />
        </g>
        <g
           id="g4584"
           style="fill:#000000;fill-opacity:1">
          <use
             height="100%"
             width="100%"
             id="use4341"
             y="74.43"
             x="109.33"
             xlink:href="#symbol6798" />
        </g>
        <g
           id="g9914"
           style="fill:#000000;fill-opacity:1">
          <use
             height="100%"
             width="100%"
             id="use1837"
             y="76.494003"
             x="113.896"
             xlink:href="#symbol5554" />
        </g>
      </g>
    </g>
    <g
       inkscape:label=""
       transform="matrix(0.34626059,0,0,0.34626059,75.575106,37.440644)"
       id="g2206">
      <g
         id="g4687">
        <g
           id="g3502"
           style="fill:#000000;fill-opacity:1">
          <use
             height="100%"
             width="100%"
             id="use5498"
             y="74.43"
             x="91.925003"
             xlink:href="#symbol5558" />
        </g>
        <g
           id="g9113"
           style="fill:#000000;fill-opacity:1">
          <use
             height="100%"
             width="100%"
             id="use1293"
             y="82.5"
             x="96.490997"
             xlink:href="#symbol9614" />
        </g>
        <g
           id="g214"
           style="fill:#000000;fill-opacity:1">
          <use
             height="100%"
             width="100%"
             id="use5731"
             y="78.577003"
             x="102.947"
             xlink:href="#symbol7217" />
        </g>
        <path
           id="path7721"
           transform="matrix(1,0,0,-1,102.668,80.009)"
           d="M -3.125e-5,0.0011875 H 5.464813"
           style="fill:none;stroke:#000000;stroke-width:0.398;stroke-linecap:butt;stroke-linejoin:miter;stroke-miterlimit:10;stroke-opacity:1" />
        <g
           id="g9356"
           style="fill:#000000;fill-opacity:1">
          <use
             height="100%"
             width="100%"
             id="use1739"
             y="85.934998"
             x="102.668"
             xlink:href="#symbol3745" />
        </g>
        <g
           id="g5805"
           style="fill:#000000;fill-opacity:1">
          <use
             height="100%"
             width="100%"
             id="use6619"
             y="74.43"
             x="109.33"
             xlink:href="#symbol1592" />
        </g>
        <g
           id="g3973"
           style="fill:#000000;fill-opacity:1">
          <use
             height="100%"
             width="100%"
             id="use9671"
             y="76.494003"
             x="113.896"
             xlink:href="#symbol7751" />
        </g>
      </g>
    </g>
    <g
       inkscape:label=""
       transform="matrix(0.34626059,0,0,0.34626059,109.17435,37.440644)"
       id="g2529">
      <g
         id="g1975">
        <g
           id="g4341"
           style="fill:#000000;fill-opacity:1">
          <use
             height="100%"
             width="100%"
             id="use6439"
             y="74.43"
             x="91.925003"
             xlink:href="#symbol7515" />
        </g>
        <g
           id="g2723"
           style="fill:#000000;fill-opacity:1">
          <use
             height="100%"
             width="100%"
             id="use9945"
             y="82.5"
             x="96.490997"
             xlink:href="#symbol9231" />
        </g>
        <g
           id="g9468"
           style="fill:#000000;fill-opacity:1">
          <use
             height="100%"
             width="100%"
             id="use319"
             y="78.577003"
             x="102.947"
             xlink:href="#symbol2308" />
        </g>
        <path
           id="path1402"
           transform="matrix(1,0,0,-1,102.668,80.009)"
           d="M -3.125e-5,0.0011875 H 5.464813"
           style="fill:none;stroke:#000000;stroke-width:0.398;stroke-linecap:butt;stroke-linejoin:miter;stroke-miterlimit:10;stroke-opacity:1" />
        <g
           id="g4618"
           style="fill:#000000;fill-opacity:1">
          <use
             height="100%"
             width="100%"
             id="use2598"
             y="85.934998"
             x="102.668"
             xlink:href="#symbol3292" />
        </g>
        <g
           id="g197"
           style="fill:#000000;fill-opacity:1">
          <use
             height="100%"
             width="100%"
             id="use1028"
             y="74.43"
             x="109.33"
             xlink:href="#symbol9171" />
        </g>
        <g
           id="g9350"
           style="fill:#000000;fill-opacity:1">
          <use
             height="100%"
             width="100%"
             id="use916"
             y="76.494003"
             x="113.896"
             xlink:href="#symbol9768" />
        </g>
      </g>
    </g>
    <g
       inkscape:label=""
       transform="matrix(0.34626059,0,0,0.34626059,152.43629,37.440644)"
       id="g2887">
      <g
         id="g8382">
        <g
           id="g2166"
           style="fill:#000000;fill-opacity:1">
          <use
             height="100%"
             width="100%"
             id="use1159"
             y="74.43"
             x="91.925003"
             xlink:href="#symbol8881" />
        </g>
        <g
           id="g2992"
           style="fill:#000000;fill-opacity:1">
          <use
             height="100%"
             width="100%"
             id="use1192"
             y="82.5"
             x="96.490997"
             xlink:href="#symbol894" />
        </g>
        <g
           id="g4457"
           style="fill:#000000;fill-opacity:1">
          <use
             height="100%"
             width="100%"
             id="use6177"
             y="78.577003"
             x="102.947"
             xlink:href="#symbol1158" />
        </g>
        <path
           id="path8638"
           transform="matrix(1,0,0,-1,102.668,80.009)"
           d="M -3.125e-5,0.0011875 H 5.464813"
           style="fill:none;stroke:#000000;stroke-width:0.398;stroke-linecap:butt;stroke-linejoin:miter;stroke-miterlimit:10;stroke-opacity:1" />
        <g
           id="g9523"
           style="fill:#000000;fill-opacity:1">
          <use
             height="100%"
             width="100%"
             id="use9711"
             y="85.934998"
             x="102.668"
             xlink:href="#symbol9239" />
        </g>
        <g
           id="g5865"
           style="fill:#000000;fill-opacity:1">
          <use
             height="100%"
             width="100%"
             id="use9091"
             y="74.43"
             x="109.33"
             xlink:href="#symbol7106" />
        </g>
        <g
           id="g5957"
           style="fill:#000000;fill-opacity:1">
          <use
             height="100%"
             width="100%"
             id="use1085"
             y="76.494003"
             x="113.896"
             xlink:href="#symbol2496" />
        </g>
      </g>
    </g>
  </g>
</svg>
