<?xml version="1.0" encoding="UTF-8" standalone="no"?>
<svg
   xmlns:dc="http://purl.org/dc/elements/1.1/"
   xmlns:cc="http://creativecommons.org/ns#"
   xmlns:rdf="http://www.w3.org/1999/02/22-rdf-syntax-ns#"
   xmlns:svg="http://www.w3.org/2000/svg"
   xmlns="http://www.w3.org/2000/svg"
   xmlns:xlink="http://www.w3.org/1999/xlink"
   xmlns:sodipodi="http://sodipodi.sourceforge.net/DTD/sodipodi-0.dtd"
   xmlns:inkscape="http://www.inkscape.org/namespaces/inkscape"
   inkscape:export-ydpi="300"
   inkscape:export-xdpi="300"
   inkscape:export-filename="C:\Users\smatw1\Dropbox\Math_bio_course\Pictures\Gradient_plot_growing.png"
   sodipodi:docname="Gradient_plot_growing.svg"
   inkscape:version="1.0 (4035a4fb49, 2020-05-01)"
   width="210mm"
   height="297mm"
   viewBox="0 0 210 297"
   version="1.1"
   id="svg8">
  <defs
     id="defs2">
    <g
       id="g8192">
      <symbol
         id="symbol9400"
         overflow="visible">
        <path
           id="path5962"
           d=""
           style="stroke:none;" />
      </symbol>
      <symbol
         id="symbol1423"
         overflow="visible">
        <path
           id="path1873"
           d="M 4.578125 -3.1875 C 4.578125 -3.984375 4.53125 -4.78125 4.1875 -5.515625 C 3.734375 -6.484375 2.90625 -6.640625 2.5 -6.640625 C 1.890625 -6.640625 1.171875 -6.375 0.75 -5.453125 C 0.4375 -4.765625 0.390625 -3.984375 0.390625 -3.1875 C 0.390625 -2.4375 0.421875 -1.546875 0.84375 -0.78125 C 1.265625 0.015625 2 0.21875 2.484375 0.21875 C 3.015625 0.21875 3.78125 0.015625 4.21875 -0.9375 C 4.53125 -1.625 4.578125 -2.40625 4.578125 -3.1875 Z M 2.484375 0 C 2.09375 0 1.5 -0.25 1.328125 -1.203125 C 1.21875 -1.796875 1.21875 -2.71875 1.21875 -3.3125 C 1.21875 -3.953125 1.21875 -4.609375 1.296875 -5.140625 C 1.484375 -6.328125 2.234375 -6.421875 2.484375 -6.421875 C 2.8125 -6.421875 3.46875 -6.234375 3.65625 -5.25 C 3.765625 -4.6875 3.765625 -3.9375 3.765625 -3.3125 C 3.765625 -2.5625 3.765625 -1.890625 3.65625 -1.25 C 3.5 -0.296875 2.9375 0 2.484375 0 Z M 2.484375 0 "
           style="stroke:none;" />
      </symbol>
    </g>
    <g
       id="g6504">
      <symbol
         id="symbol9736"
         overflow="visible">
        <path
           id="path9310"
           d=""
           style="stroke:none;" />
      </symbol>
      <symbol
         id="symbol4847"
         overflow="visible">
        <path
           id="path8728"
           d="M 3.328125 -3.015625 C 3.390625 -3.265625 3.625 -4.1875 4.3125 -4.1875 C 4.359375 -4.1875 4.609375 -4.1875 4.8125 -4.0625 C 4.53125 -4 4.34375 -3.765625 4.34375 -3.515625 C 4.34375 -3.359375 4.453125 -3.171875 4.71875 -3.171875 C 4.9375 -3.171875 5.25 -3.34375 5.25 -3.75 C 5.25 -4.265625 4.671875 -4.40625 4.328125 -4.40625 C 3.75 -4.40625 3.40625 -3.875 3.28125 -3.65625 C 3.03125 -4.3125 2.5 -4.40625 2.203125 -4.40625 C 1.171875 -4.40625 0.59375 -3.125 0.59375 -2.875 C 0.59375 -2.765625 0.703125 -2.765625 0.71875 -2.765625 C 0.796875 -2.765625 0.828125 -2.796875 0.84375 -2.875 C 1.1875 -3.9375 1.84375 -4.1875 2.1875 -4.1875 C 2.375 -4.1875 2.71875 -4.09375 2.71875 -3.515625 C 2.71875 -3.203125 2.546875 -2.546875 2.1875 -1.140625 C 2.03125 -0.53125 1.671875 -0.109375 1.234375 -0.109375 C 1.171875 -0.109375 0.953125 -0.109375 0.734375 -0.234375 C 0.984375 -0.296875 1.203125 -0.5 1.203125 -0.78125 C 1.203125 -1.046875 0.984375 -1.125 0.84375 -1.125 C 0.53125 -1.125 0.296875 -0.875 0.296875 -0.546875 C 0.296875 -0.09375 0.78125 0.109375 1.21875 0.109375 C 1.890625 0.109375 2.25 -0.59375 2.265625 -0.640625 C 2.390625 -0.28125 2.75 0.109375 3.34375 0.109375 C 4.375 0.109375 4.9375 -1.171875 4.9375 -1.421875 C 4.9375 -1.53125 4.859375 -1.53125 4.828125 -1.53125 C 4.734375 -1.53125 4.71875 -1.484375 4.6875 -1.421875 C 4.359375 -0.34375 3.6875 -0.109375 3.375 -0.109375 C 2.984375 -0.109375 2.828125 -0.421875 2.828125 -0.765625 C 2.828125 -0.984375 2.875 -1.203125 2.984375 -1.640625 Z M 3.328125 -3.015625 "
           style="stroke:none;" />
      </symbol>
    </g>
    <g
       id="g910">
      <symbol
         id="symbol126"
         overflow="visible">
        <path
           id="path7812"
           d=""
           style="stroke:none;" />
      </symbol>
      <symbol
         id="symbol7486"
         overflow="visible">
        <path
           id="path7789"
           d="M 9.234375 -6.046875 C 9.328125 -6.40625 9.34375 -6.5 10.09375 -6.5 C 10.3125 -6.5 10.40625 -6.5 10.40625 -6.703125 C 10.40625 -6.8125 10.3125 -6.8125 10.140625 -6.8125 L 8.828125 -6.8125 C 8.5625 -6.8125 8.546875 -6.8125 8.4375 -6.625 L 4.796875 -0.9375 L 4.015625 -6.578125 C 3.984375 -6.8125 3.96875 -6.8125 3.703125 -6.8125 L 2.34375 -6.8125 C 2.15625 -6.8125 2.046875 -6.8125 2.046875 -6.625 C 2.046875 -6.5 2.140625 -6.5 2.328125 -6.5 C 2.46875 -6.5 2.640625 -6.484375 2.765625 -6.484375 C 2.921875 -6.453125 2.984375 -6.4375 2.984375 -6.3125 C 2.984375 -6.28125 2.96875 -6.25 2.9375 -6.125 L 1.671875 -1.0625 C 1.578125 -0.65625 1.40625 -0.34375 0.59375 -0.3125 C 0.546875 -0.3125 0.421875 -0.296875 0.421875 -0.125 C 0.421875 -0.03125 0.484375 0 0.5625 0 C 0.875 0 1.21875 -0.03125 1.5625 -0.03125 C 1.890625 -0.03125 2.25 0 2.578125 0 C 2.625 0 2.765625 0 2.765625 -0.203125 C 2.765625 -0.3125 2.65625 -0.3125 2.578125 -0.3125 C 2.015625 -0.3125 1.90625 -0.515625 1.90625 -0.75 C 1.90625 -0.8125 1.90625 -0.875 1.9375 -0.984375 L 3.296875 -6.40625 L 3.3125 -6.40625 L 4.171875 -0.234375 C 4.1875 -0.109375 4.203125 0 4.3125 0 C 4.421875 0 4.484375 -0.109375 4.53125 -0.171875 L 8.5625 -6.484375 L 8.578125 -6.484375 L 7.140625 -0.78125 C 7.046875 -0.390625 7.03125 -0.3125 6.234375 -0.3125 C 6.078125 -0.3125 5.96875 -0.3125 5.96875 -0.125 C 5.96875 0 6.078125 0 6.109375 0 C 6.390625 0 7.0625 -0.03125 7.34375 -0.03125 C 7.75 -0.03125 8.1875 0 8.59375 0 C 8.65625 0 8.78125 0 8.78125 -0.203125 C 8.78125 -0.3125 8.6875 -0.3125 8.5 -0.3125 C 8.140625 -0.3125 7.859375 -0.3125 7.859375 -0.484375 C 7.859375 -0.53125 7.859375 -0.546875 7.90625 -0.734375 Z M 9.234375 -6.046875 "
           style="stroke:none;" />
      </symbol>
      <symbol
         id="symbol4647"
         overflow="visible">
        <path
           id="path5955"
           d=""
           style="stroke:none;" />
      </symbol>
      <symbol
         id="symbol576"
         overflow="visible">
        <path
           id="path9565"
           d="M 3 -2.625 C 2.828125 -2.578125 2.703125 -2.4375 2.703125 -2.296875 C 2.703125 -2.125 2.84375 -2.0625 2.9375 -2.0625 C 3.015625 -2.0625 3.28125 -2.109375 3.28125 -2.46875 C 3.28125 -2.921875 2.78125 -3.078125 2.34375 -3.078125 C 1.265625 -3.078125 1.0625 -2.265625 1.0625 -2.0625 C 1.0625 -1.796875 1.21875 -1.625 1.3125 -1.546875 C 1.484375 -1.40625 1.609375 -1.375 2.09375 -1.296875 C 2.25 -1.265625 2.6875 -1.1875 2.6875 -0.84375 C 2.6875 -0.71875 2.609375 -0.453125 2.328125 -0.28125 C 2.046875 -0.125 1.703125 -0.125 1.625 -0.125 C 1.34375 -0.125 0.953125 -0.1875 0.78125 -0.421875 C 1.015625 -0.453125 1.171875 -0.625 1.171875 -0.8125 C 1.171875 -0.984375 1.046875 -1.078125 0.90625 -1.078125 C 0.703125 -1.078125 0.5 -0.90625 0.5 -0.609375 C 0.5 -0.1875 0.9375 0.0625 1.609375 0.0625 C 2.90625 0.0625 3.140625 -0.8125 3.140625 -1.078125 C 3.140625 -1.71875 2.4375 -1.84375 2.171875 -1.890625 C 2.109375 -1.90625 1.9375 -1.9375 1.890625 -1.953125 C 1.640625 -2 1.515625 -2.140625 1.515625 -2.296875 C 1.515625 -2.453125 1.640625 -2.640625 1.796875 -2.75 C 1.984375 -2.859375 2.21875 -2.875 2.34375 -2.875 C 2.484375 -2.875 2.84375 -2.859375 3 -2.625 Z M 3 -2.625 "
           style="stroke:none;" />
      </symbol>
    </g>
    <g
       id="g7133">
      <symbol
         id="symbol793"
         overflow="visible">
        <path
           id="path5853"
           d=""
           style="stroke:none;" />
      </symbol>
      <symbol
         id="symbol449"
         overflow="visible">
        <path
           id="path9618"
           d="M 3.734375 -6.03125 C 3.8125 -6.390625 3.84375 -6.5 4.78125 -6.5 C 5.078125 -6.5 5.15625 -6.5 5.15625 -6.6875 C 5.15625 -6.8125 5.046875 -6.8125 5 -6.8125 C 4.671875 -6.8125 3.859375 -6.78125 3.53125 -6.78125 C 3.234375 -6.78125 2.5 -6.8125 2.203125 -6.8125 C 2.140625 -6.8125 2.015625 -6.8125 2.015625 -6.609375 C 2.015625 -6.5 2.109375 -6.5 2.296875 -6.5 C 2.3125 -6.5 2.5 -6.5 2.671875 -6.484375 C 2.84375 -6.453125 2.9375 -6.453125 2.9375 -6.3125 C 2.9375 -6.28125 2.9375 -6.25 2.90625 -6.125 L 1.5625 -0.78125 C 1.46875 -0.390625 1.453125 -0.3125 0.65625 -0.3125 C 0.484375 -0.3125 0.390625 -0.3125 0.390625 -0.109375 C 0.390625 0 0.484375 0 0.65625 0 L 5.28125 0 C 5.515625 0 5.515625 0 5.578125 -0.171875 L 6.375 -2.328125 C 6.40625 -2.4375 6.40625 -2.453125 6.40625 -2.46875 C 6.40625 -2.5 6.375 -2.578125 6.296875 -2.578125 C 6.203125 -2.578125 6.1875 -2.515625 6.125 -2.359375 C 5.78125 -1.453125 5.34375 -0.3125 3.625 -0.3125 L 2.6875 -0.3125 C 2.546875 -0.3125 2.515625 -0.3125 2.46875 -0.3125 C 2.359375 -0.328125 2.328125 -0.34375 2.328125 -0.421875 C 2.328125 -0.453125 2.328125 -0.46875 2.375 -0.640625 Z M 3.734375 -6.03125 "
           style="stroke:none;" />
      </symbol>
    </g>
    <g
       id="g6611">
      <symbol
         id="symbol4059"
         overflow="visible">
        <path
           id="path1763"
           d=""
           style="stroke:none;" />
      </symbol>
      <symbol
         id="symbol215"
         overflow="visible">
        <path
           id="path1495"
           d="M 6.4375 -6.921875 C 6.4375 -6.953125 6.40625 -7.03125 6.3125 -7.03125 C 6.265625 -7.03125 6.265625 -7.015625 6.140625 -6.875 L 5.65625 -6.3125 C 5.40625 -6.78125 4.890625 -7.03125 4.234375 -7.03125 C 2.96875 -7.03125 1.78125 -5.875 1.78125 -4.671875 C 1.78125 -3.875 2.296875 -3.40625 2.8125 -3.265625 L 3.875 -2.984375 C 4.25 -2.890625 4.796875 -2.734375 4.796875 -1.921875 C 4.796875 -1.03125 3.984375 -0.09375 3 -0.09375 C 2.359375 -0.09375 1.25 -0.3125 1.25 -1.546875 C 1.25 -1.78125 1.3125 -2.03125 1.3125 -2.078125 C 1.328125 -2.125 1.328125 -2.140625 1.328125 -2.15625 C 1.328125 -2.25 1.265625 -2.265625 1.21875 -2.265625 C 1.171875 -2.265625 1.140625 -2.25 1.109375 -2.21875 C 1.078125 -2.1875 0.515625 0.09375 0.515625 0.125 C 0.515625 0.171875 0.5625 0.21875 0.625 0.21875 C 0.671875 0.21875 0.6875 0.203125 0.8125 0.0625 L 1.296875 -0.5 C 1.71875 0.078125 2.40625 0.21875 2.984375 0.21875 C 4.34375 0.21875 5.515625 -1.109375 5.515625 -2.34375 C 5.515625 -3.03125 5.171875 -3.375 5.03125 -3.515625 C 4.796875 -3.734375 4.640625 -3.78125 3.765625 -4 C 3.53125 -4.0625 3.1875 -4.171875 3.09375 -4.1875 C 2.828125 -4.28125 2.484375 -4.5625 2.484375 -5.09375 C 2.484375 -5.90625 3.28125 -6.75 4.234375 -6.75 C 5.046875 -6.75 5.65625 -6.3125 5.65625 -5.203125 C 5.65625 -4.890625 5.625 -4.703125 5.625 -4.640625 C 5.625 -4.640625 5.625 -4.546875 5.734375 -4.546875 C 5.84375 -4.546875 5.859375 -4.578125 5.890625 -4.75 Z M 6.4375 -6.921875 "
           style="stroke:none;" />
      </symbol>
    </g>
    <g
       id="g7932">
      <symbol
         id="symbol9221"
         overflow="visible">
        <path
           id="path9843"
           d=""
           style="stroke:none;" />
      </symbol>
      <symbol
         id="symbol5556"
         overflow="visible">
        <path
           id="path8740"
           d="M 6.4375 -6.921875 C 6.4375 -6.953125 6.40625 -7.03125 6.3125 -7.03125 C 6.265625 -7.03125 6.265625 -7.015625 6.140625 -6.875 L 5.65625 -6.3125 C 5.40625 -6.78125 4.890625 -7.03125 4.234375 -7.03125 C 2.96875 -7.03125 1.78125 -5.875 1.78125 -4.671875 C 1.78125 -3.875 2.296875 -3.40625 2.8125 -3.265625 L 3.875 -2.984375 C 4.25 -2.890625 4.796875 -2.734375 4.796875 -1.921875 C 4.796875 -1.03125 3.984375 -0.09375 3 -0.09375 C 2.359375 -0.09375 1.25 -0.3125 1.25 -1.546875 C 1.25 -1.78125 1.3125 -2.03125 1.3125 -2.078125 C 1.328125 -2.125 1.328125 -2.140625 1.328125 -2.15625 C 1.328125 -2.25 1.265625 -2.265625 1.21875 -2.265625 C 1.171875 -2.265625 1.140625 -2.25 1.109375 -2.21875 C 1.078125 -2.1875 0.515625 0.09375 0.515625 0.125 C 0.515625 0.171875 0.5625 0.21875 0.625 0.21875 C 0.671875 0.21875 0.6875 0.203125 0.8125 0.0625 L 1.296875 -0.5 C 1.71875 0.078125 2.40625 0.21875 2.984375 0.21875 C 4.34375 0.21875 5.515625 -1.109375 5.515625 -2.34375 C 5.515625 -3.03125 5.171875 -3.375 5.03125 -3.515625 C 4.796875 -3.734375 4.640625 -3.78125 3.765625 -4 C 3.53125 -4.0625 3.1875 -4.171875 3.09375 -4.1875 C 2.828125 -4.28125 2.484375 -4.5625 2.484375 -5.09375 C 2.484375 -5.90625 3.28125 -6.75 4.234375 -6.75 C 5.046875 -6.75 5.65625 -6.3125 5.65625 -5.203125 C 5.65625 -4.890625 5.625 -4.703125 5.625 -4.640625 C 5.625 -4.640625 5.625 -4.546875 5.734375 -4.546875 C 5.84375 -4.546875 5.859375 -4.578125 5.890625 -4.75 Z M 6.4375 -6.921875 "
           style="stroke:none;" />
      </symbol>
      <symbol
         id="symbol7387"
         overflow="visible">
        <path
           id="path1623"
           d="M 4.375 -7.09375 C 4.421875 -7.234375 4.421875 -7.265625 4.421875 -7.28125 C 4.421875 -7.390625 4.34375 -7.484375 4.234375 -7.484375 C 4.15625 -7.484375 4.09375 -7.453125 4.0625 -7.390625 L 0.59375 2.109375 C 0.546875 2.25 0.546875 2.28125 0.546875 2.296875 C 0.546875 2.40625 0.640625 2.5 0.75 2.5 C 0.875 2.5 0.90625 2.421875 0.96875 2.25 Z M 4.375 -7.09375 "
           style="stroke:none;" />
      </symbol>
      <symbol
         id="symbol1796"
         overflow="visible">
        <path
           id="path9186"
           d=""
           style="stroke:none;" />
      </symbol>
      <symbol
         id="symbol5305"
         overflow="visible">
        <path
           id="path7073"
           d="M 1.265625 -0.765625 L 2.328125 -1.796875 C 3.875 -3.171875 4.46875 -3.703125 4.46875 -4.703125 C 4.46875 -5.84375 3.578125 -6.640625 2.359375 -6.640625 C 1.234375 -6.640625 0.5 -5.71875 0.5 -4.828125 C 0.5 -4.28125 1 -4.28125 1.03125 -4.28125 C 1.203125 -4.28125 1.546875 -4.390625 1.546875 -4.8125 C 1.546875 -5.0625 1.359375 -5.328125 1.015625 -5.328125 C 0.9375 -5.328125 0.921875 -5.328125 0.890625 -5.3125 C 1.109375 -5.96875 1.65625 -6.328125 2.234375 -6.328125 C 3.140625 -6.328125 3.5625 -5.515625 3.5625 -4.703125 C 3.5625 -3.90625 3.078125 -3.125 2.515625 -2.5 L 0.609375 -0.375 C 0.5 -0.265625 0.5 -0.234375 0.5 0 L 4.203125 0 L 4.46875 -1.734375 L 4.234375 -1.734375 C 4.171875 -1.4375 4.109375 -1 4 -0.84375 C 3.9375 -0.765625 3.28125 -0.765625 3.0625 -0.765625 Z M 1.265625 -0.765625 "
           style="stroke:none;" />
      </symbol>
    </g>
    <g
       id="g3930">
      <symbol
         id="symbol3055"
         overflow="visible">
        <path
           id="path4594"
           d=""
           style="stroke:none;" />
      </symbol>
      <symbol
         id="symbol2439"
         overflow="visible">
        <path
           id="path5485"
           d="M 3.328125 -3.015625 C 3.390625 -3.265625 3.625 -4.1875 4.3125 -4.1875 C 4.359375 -4.1875 4.609375 -4.1875 4.8125 -4.0625 C 4.53125 -4 4.34375 -3.765625 4.34375 -3.515625 C 4.34375 -3.359375 4.453125 -3.171875 4.71875 -3.171875 C 4.9375 -3.171875 5.25 -3.34375 5.25 -3.75 C 5.25 -4.265625 4.671875 -4.40625 4.328125 -4.40625 C 3.75 -4.40625 3.40625 -3.875 3.28125 -3.65625 C 3.03125 -4.3125 2.5 -4.40625 2.203125 -4.40625 C 1.171875 -4.40625 0.59375 -3.125 0.59375 -2.875 C 0.59375 -2.765625 0.703125 -2.765625 0.71875 -2.765625 C 0.796875 -2.765625 0.828125 -2.796875 0.84375 -2.875 C 1.1875 -3.9375 1.84375 -4.1875 2.1875 -4.1875 C 2.375 -4.1875 2.71875 -4.09375 2.71875 -3.515625 C 2.71875 -3.203125 2.546875 -2.546875 2.1875 -1.140625 C 2.03125 -0.53125 1.671875 -0.109375 1.234375 -0.109375 C 1.171875 -0.109375 0.953125 -0.109375 0.734375 -0.234375 C 0.984375 -0.296875 1.203125 -0.5 1.203125 -0.78125 C 1.203125 -1.046875 0.984375 -1.125 0.84375 -1.125 C 0.53125 -1.125 0.296875 -0.875 0.296875 -0.546875 C 0.296875 -0.09375 0.78125 0.109375 1.21875 0.109375 C 1.890625 0.109375 2.25 -0.59375 2.265625 -0.640625 C 2.390625 -0.28125 2.75 0.109375 3.34375 0.109375 C 4.375 0.109375 4.9375 -1.171875 4.9375 -1.421875 C 4.9375 -1.53125 4.859375 -1.53125 4.828125 -1.53125 C 4.734375 -1.53125 4.71875 -1.484375 4.6875 -1.421875 C 4.359375 -0.34375 3.6875 -0.109375 3.375 -0.109375 C 2.984375 -0.109375 2.828125 -0.421875 2.828125 -0.765625 C 2.828125 -0.984375 2.875 -1.203125 2.984375 -1.640625 Z M 3.328125 -3.015625 "
           style="stroke:none;" />
      </symbol>
      <symbol
         id="symbol5043"
         overflow="visible">
        <path
           id="path1702"
           d=""
           style="stroke:none;" />
      </symbol>
      <symbol
         id="symbol6991"
         overflow="visible">
        <path
           id="path4201"
           d="M 3 -2.625 C 2.828125 -2.578125 2.703125 -2.4375 2.703125 -2.296875 C 2.703125 -2.125 2.84375 -2.0625 2.9375 -2.0625 C 3.015625 -2.0625 3.28125 -2.109375 3.28125 -2.46875 C 3.28125 -2.921875 2.78125 -3.078125 2.34375 -3.078125 C 1.265625 -3.078125 1.0625 -2.265625 1.0625 -2.0625 C 1.0625 -1.796875 1.21875 -1.625 1.3125 -1.546875 C 1.484375 -1.40625 1.609375 -1.375 2.09375 -1.296875 C 2.25 -1.265625 2.6875 -1.1875 2.6875 -0.84375 C 2.6875 -0.71875 2.609375 -0.453125 2.328125 -0.28125 C 2.046875 -0.125 1.703125 -0.125 1.625 -0.125 C 1.34375 -0.125 0.953125 -0.1875 0.78125 -0.421875 C 1.015625 -0.453125 1.171875 -0.625 1.171875 -0.8125 C 1.171875 -0.984375 1.046875 -1.078125 0.90625 -1.078125 C 0.703125 -1.078125 0.5 -0.90625 0.5 -0.609375 C 0.5 -0.1875 0.9375 0.0625 1.609375 0.0625 C 2.90625 0.0625 3.140625 -0.8125 3.140625 -1.078125 C 3.140625 -1.71875 2.4375 -1.84375 2.171875 -1.890625 C 2.109375 -1.90625 1.9375 -1.9375 1.890625 -1.953125 C 1.640625 -2 1.515625 -2.140625 1.515625 -2.296875 C 1.515625 -2.453125 1.640625 -2.640625 1.796875 -2.75 C 1.984375 -2.859375 2.21875 -2.875 2.34375 -2.875 C 2.484375 -2.875 2.84375 -2.859375 3 -2.625 Z M 3 -2.625 "
           style="stroke:none;" />
      </symbol>
    </g>
    <g
       id="g1939">
      <symbol
         id="symbol8468"
         overflow="visible">
        <path
           id="path4817"
           d=""
           style="stroke:none;" />
      </symbol>
      <symbol
         id="symbol148"
         overflow="visible">
        <path
           id="path9739"
           d="M 3.734375 -6.03125 C 3.8125 -6.390625 3.84375 -6.5 4.78125 -6.5 C 5.078125 -6.5 5.15625 -6.5 5.15625 -6.6875 C 5.15625 -6.8125 5.046875 -6.8125 5 -6.8125 C 4.671875 -6.8125 3.859375 -6.78125 3.53125 -6.78125 C 3.234375 -6.78125 2.5 -6.8125 2.203125 -6.8125 C 2.140625 -6.8125 2.015625 -6.8125 2.015625 -6.609375 C 2.015625 -6.5 2.109375 -6.5 2.296875 -6.5 C 2.3125 -6.5 2.5 -6.5 2.671875 -6.484375 C 2.84375 -6.453125 2.9375 -6.453125 2.9375 -6.3125 C 2.9375 -6.28125 2.9375 -6.25 2.90625 -6.125 L 1.5625 -0.78125 C 1.46875 -0.390625 1.453125 -0.3125 0.65625 -0.3125 C 0.484375 -0.3125 0.390625 -0.3125 0.390625 -0.109375 C 0.390625 0 0.484375 0 0.65625 0 L 5.28125 0 C 5.515625 0 5.515625 0 5.578125 -0.171875 L 6.375 -2.328125 C 6.40625 -2.4375 6.40625 -2.453125 6.40625 -2.46875 C 6.40625 -2.5 6.375 -2.578125 6.296875 -2.578125 C 6.203125 -2.578125 6.1875 -2.515625 6.125 -2.359375 C 5.78125 -1.453125 5.34375 -0.3125 3.625 -0.3125 L 2.6875 -0.3125 C 2.546875 -0.3125 2.515625 -0.3125 2.46875 -0.3125 C 2.359375 -0.328125 2.328125 -0.34375 2.328125 -0.421875 C 2.328125 -0.453125 2.328125 -0.46875 2.375 -0.640625 Z M 3.734375 -6.03125 "
           style="stroke:none;" />
      </symbol>
      <symbol
         id="symbol7612"
         overflow="visible">
        <path
           id="path9075"
           d=""
           style="stroke:none;" />
      </symbol>
      <symbol
         id="symbol5291"
         overflow="visible">
        <path
           id="path6270"
           d="M 2.328125 -4.4375 C 2.328125 -4.625 2.328125 -4.625 2.125 -4.625 C 1.671875 -4.1875 1.046875 -4.1875 0.765625 -4.1875 L 0.765625 -3.9375 C 0.921875 -3.9375 1.390625 -3.9375 1.765625 -4.125 L 1.765625 -0.578125 C 1.765625 -0.34375 1.765625 -0.25 1.078125 -0.25 L 0.8125 -0.25 L 0.8125 0 C 0.9375 0 1.796875 -0.03125 2.046875 -0.03125 C 2.265625 -0.03125 3.140625 0 3.296875 0 L 3.296875 -0.25 L 3.03125 -0.25 C 2.328125 -0.25 2.328125 -0.34375 2.328125 -0.578125 Z M 2.328125 -4.4375 "
           style="stroke:none;" />
      </symbol>
    </g>
    <g
       id="g3338">
      <symbol
         id="symbol6350"
         overflow="visible">
        <path
           id="path9519"
           d=""
           style="stroke:none;" />
      </symbol>
      <symbol
         id="symbol5376"
         overflow="visible">
        <path
           id="path309"
           d="M 3.734375 -6.03125 C 3.8125 -6.390625 3.84375 -6.5 4.78125 -6.5 C 5.078125 -6.5 5.15625 -6.5 5.15625 -6.6875 C 5.15625 -6.8125 5.046875 -6.8125 5 -6.8125 C 4.671875 -6.8125 3.859375 -6.78125 3.53125 -6.78125 C 3.234375 -6.78125 2.5 -6.8125 2.203125 -6.8125 C 2.140625 -6.8125 2.015625 -6.8125 2.015625 -6.609375 C 2.015625 -6.5 2.109375 -6.5 2.296875 -6.5 C 2.3125 -6.5 2.5 -6.5 2.671875 -6.484375 C 2.84375 -6.453125 2.9375 -6.453125 2.9375 -6.3125 C 2.9375 -6.28125 2.9375 -6.25 2.90625 -6.125 L 1.5625 -0.78125 C 1.46875 -0.390625 1.453125 -0.3125 0.65625 -0.3125 C 0.484375 -0.3125 0.390625 -0.3125 0.390625 -0.109375 C 0.390625 0 0.484375 0 0.65625 0 L 5.28125 0 C 5.515625 0 5.515625 0 5.578125 -0.171875 L 6.375 -2.328125 C 6.40625 -2.4375 6.40625 -2.453125 6.40625 -2.46875 C 6.40625 -2.5 6.375 -2.578125 6.296875 -2.578125 C 6.203125 -2.578125 6.1875 -2.515625 6.125 -2.359375 C 5.78125 -1.453125 5.34375 -0.3125 3.625 -0.3125 L 2.6875 -0.3125 C 2.546875 -0.3125 2.515625 -0.3125 2.46875 -0.3125 C 2.359375 -0.328125 2.328125 -0.34375 2.328125 -0.421875 C 2.328125 -0.453125 2.328125 -0.46875 2.375 -0.640625 Z M 3.734375 -6.03125 "
           style="stroke:none;" />
      </symbol>
      <symbol
         id="symbol921"
         overflow="visible">
        <path
           id="path839"
           d=""
           style="stroke:none;" />
      </symbol>
      <symbol
         id="symbol7936"
         overflow="visible">
        <path
           id="path8659"
           d="M 3.515625 -1.265625 L 3.28125 -1.265625 C 3.265625 -1.109375 3.1875 -0.703125 3.09375 -0.640625 C 3.046875 -0.59375 2.515625 -0.59375 2.40625 -0.59375 L 1.125 -0.59375 C 1.859375 -1.234375 2.109375 -1.4375 2.515625 -1.765625 C 3.03125 -2.171875 3.515625 -2.609375 3.515625 -3.265625 C 3.515625 -4.109375 2.78125 -4.625 1.890625 -4.625 C 1.03125 -4.625 0.4375 -4.015625 0.4375 -3.375 C 0.4375 -3.03125 0.734375 -2.984375 0.8125 -2.984375 C 0.96875 -2.984375 1.171875 -3.109375 1.171875 -3.359375 C 1.171875 -3.484375 1.125 -3.734375 0.765625 -3.734375 C 0.984375 -4.21875 1.453125 -4.375 1.78125 -4.375 C 2.484375 -4.375 2.84375 -3.828125 2.84375 -3.265625 C 2.84375 -2.65625 2.40625 -2.1875 2.1875 -1.9375 L 0.515625 -0.265625 C 0.4375 -0.203125 0.4375 -0.1875 0.4375 0 L 3.3125 0 Z M 3.515625 -1.265625 "
           style="stroke:none;" />
      </symbol>
    </g>
    <g
       id="g1520">
      <symbol
         id="symbol223"
         overflow="visible">
        <path
           id="path8832"
           d=""
           style="stroke:none;" />
      </symbol>
      <symbol
         id="symbol2320"
         overflow="visible">
        <path
           id="path3141"
           d="M 3.734375 -6.03125 C 3.8125 -6.390625 3.84375 -6.5 4.78125 -6.5 C 5.078125 -6.5 5.15625 -6.5 5.15625 -6.6875 C 5.15625 -6.8125 5.046875 -6.8125 5 -6.8125 C 4.671875 -6.8125 3.859375 -6.78125 3.53125 -6.78125 C 3.234375 -6.78125 2.5 -6.8125 2.203125 -6.8125 C 2.140625 -6.8125 2.015625 -6.8125 2.015625 -6.609375 C 2.015625 -6.5 2.109375 -6.5 2.296875 -6.5 C 2.3125 -6.5 2.5 -6.5 2.671875 -6.484375 C 2.84375 -6.453125 2.9375 -6.453125 2.9375 -6.3125 C 2.9375 -6.28125 2.9375 -6.25 2.90625 -6.125 L 1.5625 -0.78125 C 1.46875 -0.390625 1.453125 -0.3125 0.65625 -0.3125 C 0.484375 -0.3125 0.390625 -0.3125 0.390625 -0.109375 C 0.390625 0 0.484375 0 0.65625 0 L 5.28125 0 C 5.515625 0 5.515625 0 5.578125 -0.171875 L 6.375 -2.328125 C 6.40625 -2.4375 6.40625 -2.453125 6.40625 -2.46875 C 6.40625 -2.5 6.375 -2.578125 6.296875 -2.578125 C 6.203125 -2.578125 6.1875 -2.515625 6.125 -2.359375 C 5.78125 -1.453125 5.34375 -0.3125 3.625 -0.3125 L 2.6875 -0.3125 C 2.546875 -0.3125 2.515625 -0.3125 2.46875 -0.3125 C 2.359375 -0.328125 2.328125 -0.34375 2.328125 -0.421875 C 2.328125 -0.453125 2.328125 -0.46875 2.375 -0.640625 Z M 3.734375 -6.03125 "
           style="stroke:none;" />
      </symbol>
      <symbol
         id="symbol2018"
         overflow="visible">
        <path
           id="path3671"
           d=""
           style="stroke:none;" />
      </symbol>
      <symbol
         id="symbol3640"
         overflow="visible">
        <path
           id="path1379"
           d="M 1.90625 -2.328125 C 2.453125 -2.328125 2.84375 -1.953125 2.84375 -1.203125 C 2.84375 -0.34375 2.328125 -0.078125 1.9375 -0.078125 C 1.65625 -0.078125 1.03125 -0.15625 0.75 -0.578125 C 1.078125 -0.578125 1.15625 -0.8125 1.15625 -0.96875 C 1.15625 -1.1875 0.984375 -1.34375 0.765625 -1.34375 C 0.578125 -1.34375 0.375 -1.21875 0.375 -0.9375 C 0.375 -0.28125 1.09375 0.140625 1.9375 0.140625 C 2.90625 0.140625 3.578125 -0.515625 3.578125 -1.203125 C 3.578125 -1.75 3.140625 -2.296875 2.375 -2.453125 C 3.09375 -2.71875 3.359375 -3.234375 3.359375 -3.671875 C 3.359375 -4.21875 2.734375 -4.625 1.953125 -4.625 C 1.1875 -4.625 0.59375 -4.25 0.59375 -3.6875 C 0.59375 -3.453125 0.75 -3.328125 0.953125 -3.328125 C 1.171875 -3.328125 1.3125 -3.484375 1.3125 -3.671875 C 1.3125 -3.875 1.171875 -4.03125 0.953125 -4.046875 C 1.203125 -4.34375 1.671875 -4.421875 1.9375 -4.421875 C 2.25 -4.421875 2.6875 -4.265625 2.6875 -3.671875 C 2.6875 -3.375 2.59375 -3.046875 2.40625 -2.84375 C 2.1875 -2.578125 1.984375 -2.5625 1.640625 -2.53125 C 1.46875 -2.515625 1.453125 -2.515625 1.421875 -2.515625 C 1.40625 -2.515625 1.34375 -2.5 1.34375 -2.421875 C 1.34375 -2.328125 1.40625 -2.328125 1.53125 -2.328125 Z M 1.90625 -2.328125 "
           style="stroke:none;" />
      </symbol>
    </g>
    <g
       id="g3092">
      <symbol
         id="symbol8133"
         overflow="visible">
        <path
           id="path7058"
           d=""
           style="stroke:none;" />
      </symbol>
      <symbol
         id="symbol1069"
         overflow="visible">
        <path
           id="path6390"
           d="M 3.734375 -6.03125 C 3.8125 -6.390625 3.84375 -6.5 4.78125 -6.5 C 5.078125 -6.5 5.15625 -6.5 5.15625 -6.6875 C 5.15625 -6.8125 5.046875 -6.8125 5 -6.8125 C 4.671875 -6.8125 3.859375 -6.78125 3.53125 -6.78125 C 3.234375 -6.78125 2.5 -6.8125 2.203125 -6.8125 C 2.140625 -6.8125 2.015625 -6.8125 2.015625 -6.609375 C 2.015625 -6.5 2.109375 -6.5 2.296875 -6.5 C 2.3125 -6.5 2.5 -6.5 2.671875 -6.484375 C 2.84375 -6.453125 2.9375 -6.453125 2.9375 -6.3125 C 2.9375 -6.28125 2.9375 -6.25 2.90625 -6.125 L 1.5625 -0.78125 C 1.46875 -0.390625 1.453125 -0.3125 0.65625 -0.3125 C 0.484375 -0.3125 0.390625 -0.3125 0.390625 -0.109375 C 0.390625 0 0.484375 0 0.65625 0 L 5.28125 0 C 5.515625 0 5.515625 0 5.578125 -0.171875 L 6.375 -2.328125 C 6.40625 -2.4375 6.40625 -2.453125 6.40625 -2.46875 C 6.40625 -2.5 6.375 -2.578125 6.296875 -2.578125 C 6.203125 -2.578125 6.1875 -2.515625 6.125 -2.359375 C 5.78125 -1.453125 5.34375 -0.3125 3.625 -0.3125 L 2.6875 -0.3125 C 2.546875 -0.3125 2.515625 -0.3125 2.46875 -0.3125 C 2.359375 -0.328125 2.328125 -0.34375 2.328125 -0.421875 C 2.328125 -0.453125 2.328125 -0.46875 2.375 -0.640625 Z M 3.734375 -6.03125 "
           style="stroke:none;" />
      </symbol>
      <symbol
         id="symbol9315"
         overflow="visible">
        <path
           id="path7321"
           d=""
           style="stroke:none;" />
      </symbol>
      <symbol
         id="symbol3594"
         overflow="visible">
        <path
           id="path4942"
           d="M 3.6875 -1.140625 L 3.6875 -1.390625 L 2.90625 -1.390625 L 2.90625 -4.5 C 2.90625 -4.640625 2.90625 -4.703125 2.765625 -4.703125 C 2.671875 -4.703125 2.640625 -4.703125 2.578125 -4.59375 L 0.265625 -1.390625 L 0.265625 -1.140625 L 2.328125 -1.140625 L 2.328125 -0.578125 C 2.328125 -0.328125 2.328125 -0.25 1.75 -0.25 L 1.5625 -0.25 L 1.5625 0 C 1.921875 -0.015625 2.359375 -0.03125 2.609375 -0.03125 C 2.875 -0.03125 3.3125 -0.015625 3.671875 0 L 3.671875 -0.25 L 3.484375 -0.25 C 2.90625 -0.25 2.90625 -0.328125 2.90625 -0.578125 L 2.90625 -1.140625 Z M 2.375 -3.9375 L 2.375 -1.390625 L 0.53125 -1.390625 Z M 2.375 -3.9375 "
           style="stroke:none;" />
      </symbol>
    </g>
    <g
       id="g5345">
      <symbol
         id="symbol8356"
         overflow="visible">
        <path
           id="path8477"
           d=""
           style="stroke:none;" />
      </symbol>
      <symbol
         id="symbol1451"
         overflow="visible">
        <path
           id="path2026"
           d="M 3.328125 -3.015625 C 3.390625 -3.265625 3.625 -4.1875 4.3125 -4.1875 C 4.359375 -4.1875 4.609375 -4.1875 4.8125 -4.0625 C 4.53125 -4 4.34375 -3.765625 4.34375 -3.515625 C 4.34375 -3.359375 4.453125 -3.171875 4.71875 -3.171875 C 4.9375 -3.171875 5.25 -3.34375 5.25 -3.75 C 5.25 -4.265625 4.671875 -4.40625 4.328125 -4.40625 C 3.75 -4.40625 3.40625 -3.875 3.28125 -3.65625 C 3.03125 -4.3125 2.5 -4.40625 2.203125 -4.40625 C 1.171875 -4.40625 0.59375 -3.125 0.59375 -2.875 C 0.59375 -2.765625 0.703125 -2.765625 0.71875 -2.765625 C 0.796875 -2.765625 0.828125 -2.796875 0.84375 -2.875 C 1.1875 -3.9375 1.84375 -4.1875 2.1875 -4.1875 C 2.375 -4.1875 2.71875 -4.09375 2.71875 -3.515625 C 2.71875 -3.203125 2.546875 -2.546875 2.1875 -1.140625 C 2.03125 -0.53125 1.671875 -0.109375 1.234375 -0.109375 C 1.171875 -0.109375 0.953125 -0.109375 0.734375 -0.234375 C 0.984375 -0.296875 1.203125 -0.5 1.203125 -0.78125 C 1.203125 -1.046875 0.984375 -1.125 0.84375 -1.125 C 0.53125 -1.125 0.296875 -0.875 0.296875 -0.546875 C 0.296875 -0.09375 0.78125 0.109375 1.21875 0.109375 C 1.890625 0.109375 2.25 -0.59375 2.265625 -0.640625 C 2.390625 -0.28125 2.75 0.109375 3.34375 0.109375 C 4.375 0.109375 4.9375 -1.171875 4.9375 -1.421875 C 4.9375 -1.53125 4.859375 -1.53125 4.828125 -1.53125 C 4.734375 -1.53125 4.71875 -1.484375 4.6875 -1.421875 C 4.359375 -0.34375 3.6875 -0.109375 3.375 -0.109375 C 2.984375 -0.109375 2.828125 -0.421875 2.828125 -0.765625 C 2.828125 -0.984375 2.875 -1.203125 2.984375 -1.640625 Z M 3.328125 -3.015625 "
           style="stroke:none;" />
      </symbol>
      <symbol
         id="symbol8269"
         overflow="visible">
        <path
           id="path5611"
           d=""
           style="stroke:none;" />
      </symbol>
      <symbol
         id="symbol3625"
         overflow="visible">
        <path
           id="path323"
           d="M 3 -2.625 C 2.828125 -2.578125 2.703125 -2.4375 2.703125 -2.296875 C 2.703125 -2.125 2.84375 -2.0625 2.9375 -2.0625 C 3.015625 -2.0625 3.28125 -2.109375 3.28125 -2.46875 C 3.28125 -2.921875 2.78125 -3.078125 2.34375 -3.078125 C 1.265625 -3.078125 1.0625 -2.265625 1.0625 -2.0625 C 1.0625 -1.796875 1.21875 -1.625 1.3125 -1.546875 C 1.484375 -1.40625 1.609375 -1.375 2.09375 -1.296875 C 2.25 -1.265625 2.6875 -1.1875 2.6875 -0.84375 C 2.6875 -0.71875 2.609375 -0.453125 2.328125 -0.28125 C 2.046875 -0.125 1.703125 -0.125 1.625 -0.125 C 1.34375 -0.125 0.953125 -0.1875 0.78125 -0.421875 C 1.015625 -0.453125 1.171875 -0.625 1.171875 -0.8125 C 1.171875 -0.984375 1.046875 -1.078125 0.90625 -1.078125 C 0.703125 -1.078125 0.5 -0.90625 0.5 -0.609375 C 0.5 -0.1875 0.9375 0.0625 1.609375 0.0625 C 2.90625 0.0625 3.140625 -0.8125 3.140625 -1.078125 C 3.140625 -1.71875 2.4375 -1.84375 2.171875 -1.890625 C 2.109375 -1.90625 1.9375 -1.9375 1.890625 -1.953125 C 1.640625 -2 1.515625 -2.140625 1.515625 -2.296875 C 1.515625 -2.453125 1.640625 -2.640625 1.796875 -2.75 C 1.984375 -2.859375 2.21875 -2.875 2.34375 -2.875 C 2.484375 -2.875 2.84375 -2.859375 3 -2.625 Z M 3 -2.625 "
           style="stroke:none;" />
      </symbol>
      <symbol
         id="symbol5953"
         overflow="visible">
        <path
           id="path7521"
           d=""
           style="stroke:none;" />
      </symbol>
      <symbol
         id="symbol2356"
         overflow="visible">
        <path
           id="path9322"
           d="M 3.6875 -1.140625 L 3.6875 -1.390625 L 2.90625 -1.390625 L 2.90625 -4.5 C 2.90625 -4.640625 2.90625 -4.703125 2.765625 -4.703125 C 2.671875 -4.703125 2.640625 -4.703125 2.578125 -4.59375 L 0.265625 -1.390625 L 0.265625 -1.140625 L 2.328125 -1.140625 L 2.328125 -0.578125 C 2.328125 -0.328125 2.328125 -0.25 1.75 -0.25 L 1.5625 -0.25 L 1.5625 0 C 1.921875 -0.015625 2.359375 -0.03125 2.609375 -0.03125 C 2.875 -0.03125 3.3125 -0.015625 3.671875 0 L 3.671875 -0.25 L 3.484375 -0.25 C 2.90625 -0.25 2.90625 -0.328125 2.90625 -0.578125 L 2.90625 -1.140625 Z M 2.375 -3.9375 L 2.375 -1.390625 L 0.53125 -1.390625 Z M 2.375 -3.9375 "
           style="stroke:none;" />
      </symbol>
    </g>
    <g
       id="g1197">
      <symbol
         id="symbol1919"
         overflow="visible">
        <path
           id="path3880"
           d=""
           style="stroke:none;" />
      </symbol>
      <symbol
         id="symbol3552"
         overflow="visible">
        <path
           id="path9460"
           d="M 3.328125 -3.015625 C 3.390625 -3.265625 3.625 -4.1875 4.3125 -4.1875 C 4.359375 -4.1875 4.609375 -4.1875 4.8125 -4.0625 C 4.53125 -4 4.34375 -3.765625 4.34375 -3.515625 C 4.34375 -3.359375 4.453125 -3.171875 4.71875 -3.171875 C 4.9375 -3.171875 5.25 -3.34375 5.25 -3.75 C 5.25 -4.265625 4.671875 -4.40625 4.328125 -4.40625 C 3.75 -4.40625 3.40625 -3.875 3.28125 -3.65625 C 3.03125 -4.3125 2.5 -4.40625 2.203125 -4.40625 C 1.171875 -4.40625 0.59375 -3.125 0.59375 -2.875 C 0.59375 -2.765625 0.703125 -2.765625 0.71875 -2.765625 C 0.796875 -2.765625 0.828125 -2.796875 0.84375 -2.875 C 1.1875 -3.9375 1.84375 -4.1875 2.1875 -4.1875 C 2.375 -4.1875 2.71875 -4.09375 2.71875 -3.515625 C 2.71875 -3.203125 2.546875 -2.546875 2.1875 -1.140625 C 2.03125 -0.53125 1.671875 -0.109375 1.234375 -0.109375 C 1.171875 -0.109375 0.953125 -0.109375 0.734375 -0.234375 C 0.984375 -0.296875 1.203125 -0.5 1.203125 -0.78125 C 1.203125 -1.046875 0.984375 -1.125 0.84375 -1.125 C 0.53125 -1.125 0.296875 -0.875 0.296875 -0.546875 C 0.296875 -0.09375 0.78125 0.109375 1.21875 0.109375 C 1.890625 0.109375 2.25 -0.59375 2.265625 -0.640625 C 2.390625 -0.28125 2.75 0.109375 3.34375 0.109375 C 4.375 0.109375 4.9375 -1.171875 4.9375 -1.421875 C 4.9375 -1.53125 4.859375 -1.53125 4.828125 -1.53125 C 4.734375 -1.53125 4.71875 -1.484375 4.6875 -1.421875 C 4.359375 -0.34375 3.6875 -0.109375 3.375 -0.109375 C 2.984375 -0.109375 2.828125 -0.421875 2.828125 -0.765625 C 2.828125 -0.984375 2.875 -1.203125 2.984375 -1.640625 Z M 3.328125 -3.015625 "
           style="stroke:none;" />
      </symbol>
      <symbol
         id="symbol7516"
         overflow="visible">
        <path
           id="path4583"
           d=""
           style="stroke:none;" />
      </symbol>
      <symbol
         id="symbol6313"
         overflow="visible">
        <path
           id="path3094"
           d="M 3 -2.625 C 2.828125 -2.578125 2.703125 -2.4375 2.703125 -2.296875 C 2.703125 -2.125 2.84375 -2.0625 2.9375 -2.0625 C 3.015625 -2.0625 3.28125 -2.109375 3.28125 -2.46875 C 3.28125 -2.921875 2.78125 -3.078125 2.34375 -3.078125 C 1.265625 -3.078125 1.0625 -2.265625 1.0625 -2.0625 C 1.0625 -1.796875 1.21875 -1.625 1.3125 -1.546875 C 1.484375 -1.40625 1.609375 -1.375 2.09375 -1.296875 C 2.25 -1.265625 2.6875 -1.1875 2.6875 -0.84375 C 2.6875 -0.71875 2.609375 -0.453125 2.328125 -0.28125 C 2.046875 -0.125 1.703125 -0.125 1.625 -0.125 C 1.34375 -0.125 0.953125 -0.1875 0.78125 -0.421875 C 1.015625 -0.453125 1.171875 -0.625 1.171875 -0.8125 C 1.171875 -0.984375 1.046875 -1.078125 0.90625 -1.078125 C 0.703125 -1.078125 0.5 -0.90625 0.5 -0.609375 C 0.5 -0.1875 0.9375 0.0625 1.609375 0.0625 C 2.90625 0.0625 3.140625 -0.8125 3.140625 -1.078125 C 3.140625 -1.71875 2.4375 -1.84375 2.171875 -1.890625 C 2.109375 -1.90625 1.9375 -1.9375 1.890625 -1.953125 C 1.640625 -2 1.515625 -2.140625 1.515625 -2.296875 C 1.515625 -2.453125 1.640625 -2.640625 1.796875 -2.75 C 1.984375 -2.859375 2.21875 -2.875 2.34375 -2.875 C 2.484375 -2.875 2.84375 -2.859375 3 -2.625 Z M 3 -2.625 "
           style="stroke:none;" />
      </symbol>
      <symbol
         id="symbol736"
         overflow="visible">
        <path
           id="path6267"
           d=""
           style="stroke:none;" />
      </symbol>
      <symbol
         id="symbol5853"
         overflow="visible">
        <path
           id="path4282"
           d="M 1.90625 -2.328125 C 2.453125 -2.328125 2.84375 -1.953125 2.84375 -1.203125 C 2.84375 -0.34375 2.328125 -0.078125 1.9375 -0.078125 C 1.65625 -0.078125 1.03125 -0.15625 0.75 -0.578125 C 1.078125 -0.578125 1.15625 -0.8125 1.15625 -0.96875 C 1.15625 -1.1875 0.984375 -1.34375 0.765625 -1.34375 C 0.578125 -1.34375 0.375 -1.21875 0.375 -0.9375 C 0.375 -0.28125 1.09375 0.140625 1.9375 0.140625 C 2.90625 0.140625 3.578125 -0.515625 3.578125 -1.203125 C 3.578125 -1.75 3.140625 -2.296875 2.375 -2.453125 C 3.09375 -2.71875 3.359375 -3.234375 3.359375 -3.671875 C 3.359375 -4.21875 2.734375 -4.625 1.953125 -4.625 C 1.1875 -4.625 0.59375 -4.25 0.59375 -3.6875 C 0.59375 -3.453125 0.75 -3.328125 0.953125 -3.328125 C 1.171875 -3.328125 1.3125 -3.484375 1.3125 -3.671875 C 1.3125 -3.875 1.171875 -4.03125 0.953125 -4.046875 C 1.203125 -4.34375 1.671875 -4.421875 1.9375 -4.421875 C 2.25 -4.421875 2.6875 -4.265625 2.6875 -3.671875 C 2.6875 -3.375 2.59375 -3.046875 2.40625 -2.84375 C 2.1875 -2.578125 1.984375 -2.5625 1.640625 -2.53125 C 1.46875 -2.515625 1.453125 -2.515625 1.421875 -2.515625 C 1.40625 -2.515625 1.34375 -2.5 1.34375 -2.421875 C 1.34375 -2.328125 1.40625 -2.328125 1.53125 -2.328125 Z M 1.90625 -2.328125 "
           style="stroke:none;" />
      </symbol>
    </g>
    <g
       id="g1881">
      <symbol
         id="symbol7681"
         overflow="visible">
        <path
           id="path6166"
           d=""
           style="stroke:none;" />
      </symbol>
      <symbol
         id="symbol2451"
         overflow="visible">
        <path
           id="path1270"
           d="M 3.328125 -3.015625 C 3.390625 -3.265625 3.625 -4.1875 4.3125 -4.1875 C 4.359375 -4.1875 4.609375 -4.1875 4.8125 -4.0625 C 4.53125 -4 4.34375 -3.765625 4.34375 -3.515625 C 4.34375 -3.359375 4.453125 -3.171875 4.71875 -3.171875 C 4.9375 -3.171875 5.25 -3.34375 5.25 -3.75 C 5.25 -4.265625 4.671875 -4.40625 4.328125 -4.40625 C 3.75 -4.40625 3.40625 -3.875 3.28125 -3.65625 C 3.03125 -4.3125 2.5 -4.40625 2.203125 -4.40625 C 1.171875 -4.40625 0.59375 -3.125 0.59375 -2.875 C 0.59375 -2.765625 0.703125 -2.765625 0.71875 -2.765625 C 0.796875 -2.765625 0.828125 -2.796875 0.84375 -2.875 C 1.1875 -3.9375 1.84375 -4.1875 2.1875 -4.1875 C 2.375 -4.1875 2.71875 -4.09375 2.71875 -3.515625 C 2.71875 -3.203125 2.546875 -2.546875 2.1875 -1.140625 C 2.03125 -0.53125 1.671875 -0.109375 1.234375 -0.109375 C 1.171875 -0.109375 0.953125 -0.109375 0.734375 -0.234375 C 0.984375 -0.296875 1.203125 -0.5 1.203125 -0.78125 C 1.203125 -1.046875 0.984375 -1.125 0.84375 -1.125 C 0.53125 -1.125 0.296875 -0.875 0.296875 -0.546875 C 0.296875 -0.09375 0.78125 0.109375 1.21875 0.109375 C 1.890625 0.109375 2.25 -0.59375 2.265625 -0.640625 C 2.390625 -0.28125 2.75 0.109375 3.34375 0.109375 C 4.375 0.109375 4.9375 -1.171875 4.9375 -1.421875 C 4.9375 -1.53125 4.859375 -1.53125 4.828125 -1.53125 C 4.734375 -1.53125 4.71875 -1.484375 4.6875 -1.421875 C 4.359375 -0.34375 3.6875 -0.109375 3.375 -0.109375 C 2.984375 -0.109375 2.828125 -0.421875 2.828125 -0.765625 C 2.828125 -0.984375 2.875 -1.203125 2.984375 -1.640625 Z M 3.328125 -3.015625 "
           style="stroke:none;" />
      </symbol>
      <symbol
         id="symbol4966"
         overflow="visible">
        <path
           id="path2228"
           d=""
           style="stroke:none;" />
      </symbol>
      <symbol
         id="symbol3178"
         overflow="visible">
        <path
           id="path8370"
           d="M 3 -2.625 C 2.828125 -2.578125 2.703125 -2.4375 2.703125 -2.296875 C 2.703125 -2.125 2.84375 -2.0625 2.9375 -2.0625 C 3.015625 -2.0625 3.28125 -2.109375 3.28125 -2.46875 C 3.28125 -2.921875 2.78125 -3.078125 2.34375 -3.078125 C 1.265625 -3.078125 1.0625 -2.265625 1.0625 -2.0625 C 1.0625 -1.796875 1.21875 -1.625 1.3125 -1.546875 C 1.484375 -1.40625 1.609375 -1.375 2.09375 -1.296875 C 2.25 -1.265625 2.6875 -1.1875 2.6875 -0.84375 C 2.6875 -0.71875 2.609375 -0.453125 2.328125 -0.28125 C 2.046875 -0.125 1.703125 -0.125 1.625 -0.125 C 1.34375 -0.125 0.953125 -0.1875 0.78125 -0.421875 C 1.015625 -0.453125 1.171875 -0.625 1.171875 -0.8125 C 1.171875 -0.984375 1.046875 -1.078125 0.90625 -1.078125 C 0.703125 -1.078125 0.5 -0.90625 0.5 -0.609375 C 0.5 -0.1875 0.9375 0.0625 1.609375 0.0625 C 2.90625 0.0625 3.140625 -0.8125 3.140625 -1.078125 C 3.140625 -1.71875 2.4375 -1.84375 2.171875 -1.890625 C 2.109375 -1.90625 1.9375 -1.9375 1.890625 -1.953125 C 1.640625 -2 1.515625 -2.140625 1.515625 -2.296875 C 1.515625 -2.453125 1.640625 -2.640625 1.796875 -2.75 C 1.984375 -2.859375 2.21875 -2.875 2.34375 -2.875 C 2.484375 -2.875 2.84375 -2.859375 3 -2.625 Z M 3 -2.625 "
           style="stroke:none;" />
      </symbol>
      <symbol
         id="symbol3006"
         overflow="visible">
        <path
           id="path9484"
           d=""
           style="stroke:none;" />
      </symbol>
      <symbol
         id="symbol7231"
         overflow="visible">
        <path
           id="path784"
           d="M 3.515625 -1.265625 L 3.28125 -1.265625 C 3.265625 -1.109375 3.1875 -0.703125 3.09375 -0.640625 C 3.046875 -0.59375 2.515625 -0.59375 2.40625 -0.59375 L 1.125 -0.59375 C 1.859375 -1.234375 2.109375 -1.4375 2.515625 -1.765625 C 3.03125 -2.171875 3.515625 -2.609375 3.515625 -3.265625 C 3.515625 -4.109375 2.78125 -4.625 1.890625 -4.625 C 1.03125 -4.625 0.4375 -4.015625 0.4375 -3.375 C 0.4375 -3.03125 0.734375 -2.984375 0.8125 -2.984375 C 0.96875 -2.984375 1.171875 -3.109375 1.171875 -3.359375 C 1.171875 -3.484375 1.125 -3.734375 0.765625 -3.734375 C 0.984375 -4.21875 1.453125 -4.375 1.78125 -4.375 C 2.484375 -4.375 2.84375 -3.828125 2.84375 -3.265625 C 2.84375 -2.65625 2.40625 -2.1875 2.1875 -1.9375 L 0.515625 -0.265625 C 0.4375 -0.203125 0.4375 -0.1875 0.4375 0 L 3.3125 0 Z M 3.515625 -1.265625 "
           style="stroke:none;" />
      </symbol>
    </g>
    <g
       id="g7895">
      <symbol
         id="symbol1296"
         overflow="visible">
        <path
           id="path1751"
           d=""
           style="stroke:none;" />
      </symbol>
      <symbol
         id="symbol9983"
         overflow="visible">
        <path
           id="path2443"
           d="M 3.328125 -3.015625 C 3.390625 -3.265625 3.625 -4.1875 4.3125 -4.1875 C 4.359375 -4.1875 4.609375 -4.1875 4.8125 -4.0625 C 4.53125 -4 4.34375 -3.765625 4.34375 -3.515625 C 4.34375 -3.359375 4.453125 -3.171875 4.71875 -3.171875 C 4.9375 -3.171875 5.25 -3.34375 5.25 -3.75 C 5.25 -4.265625 4.671875 -4.40625 4.328125 -4.40625 C 3.75 -4.40625 3.40625 -3.875 3.28125 -3.65625 C 3.03125 -4.3125 2.5 -4.40625 2.203125 -4.40625 C 1.171875 -4.40625 0.59375 -3.125 0.59375 -2.875 C 0.59375 -2.765625 0.703125 -2.765625 0.71875 -2.765625 C 0.796875 -2.765625 0.828125 -2.796875 0.84375 -2.875 C 1.1875 -3.9375 1.84375 -4.1875 2.1875 -4.1875 C 2.375 -4.1875 2.71875 -4.09375 2.71875 -3.515625 C 2.71875 -3.203125 2.546875 -2.546875 2.1875 -1.140625 C 2.03125 -0.53125 1.671875 -0.109375 1.234375 -0.109375 C 1.171875 -0.109375 0.953125 -0.109375 0.734375 -0.234375 C 0.984375 -0.296875 1.203125 -0.5 1.203125 -0.78125 C 1.203125 -1.046875 0.984375 -1.125 0.84375 -1.125 C 0.53125 -1.125 0.296875 -0.875 0.296875 -0.546875 C 0.296875 -0.09375 0.78125 0.109375 1.21875 0.109375 C 1.890625 0.109375 2.25 -0.59375 2.265625 -0.640625 C 2.390625 -0.28125 2.75 0.109375 3.34375 0.109375 C 4.375 0.109375 4.9375 -1.171875 4.9375 -1.421875 C 4.9375 -1.53125 4.859375 -1.53125 4.828125 -1.53125 C 4.734375 -1.53125 4.71875 -1.484375 4.6875 -1.421875 C 4.359375 -0.34375 3.6875 -0.109375 3.375 -0.109375 C 2.984375 -0.109375 2.828125 -0.421875 2.828125 -0.765625 C 2.828125 -0.984375 2.875 -1.203125 2.984375 -1.640625 Z M 3.328125 -3.015625 "
           style="stroke:none;" />
      </symbol>
      <symbol
         id="symbol1178"
         overflow="visible">
        <path
           id="path9113"
           d=""
           style="stroke:none;" />
      </symbol>
      <symbol
         id="symbol1198"
         overflow="visible">
        <path
           id="path3041"
           d="M 3 -2.625 C 2.828125 -2.578125 2.703125 -2.4375 2.703125 -2.296875 C 2.703125 -2.125 2.84375 -2.0625 2.9375 -2.0625 C 3.015625 -2.0625 3.28125 -2.109375 3.28125 -2.46875 C 3.28125 -2.921875 2.78125 -3.078125 2.34375 -3.078125 C 1.265625 -3.078125 1.0625 -2.265625 1.0625 -2.0625 C 1.0625 -1.796875 1.21875 -1.625 1.3125 -1.546875 C 1.484375 -1.40625 1.609375 -1.375 2.09375 -1.296875 C 2.25 -1.265625 2.6875 -1.1875 2.6875 -0.84375 C 2.6875 -0.71875 2.609375 -0.453125 2.328125 -0.28125 C 2.046875 -0.125 1.703125 -0.125 1.625 -0.125 C 1.34375 -0.125 0.953125 -0.1875 0.78125 -0.421875 C 1.015625 -0.453125 1.171875 -0.625 1.171875 -0.8125 C 1.171875 -0.984375 1.046875 -1.078125 0.90625 -1.078125 C 0.703125 -1.078125 0.5 -0.90625 0.5 -0.609375 C 0.5 -0.1875 0.9375 0.0625 1.609375 0.0625 C 2.90625 0.0625 3.140625 -0.8125 3.140625 -1.078125 C 3.140625 -1.71875 2.4375 -1.84375 2.171875 -1.890625 C 2.109375 -1.90625 1.9375 -1.9375 1.890625 -1.953125 C 1.640625 -2 1.515625 -2.140625 1.515625 -2.296875 C 1.515625 -2.453125 1.640625 -2.640625 1.796875 -2.75 C 1.984375 -2.859375 2.21875 -2.875 2.34375 -2.875 C 2.484375 -2.875 2.84375 -2.859375 3 -2.625 Z M 3 -2.625 "
           style="stroke:none;" />
      </symbol>
      <symbol
         id="symbol8311"
         overflow="visible">
        <path
           id="path6769"
           d=""
           style="stroke:none;" />
      </symbol>
      <symbol
         id="symbol789"
         overflow="visible">
        <path
           id="path2263"
           d="M 3.6875 -1.140625 L 3.6875 -1.390625 L 2.90625 -1.390625 L 2.90625 -4.5 C 2.90625 -4.640625 2.90625 -4.703125 2.765625 -4.703125 C 2.671875 -4.703125 2.640625 -4.703125 2.578125 -4.59375 L 0.265625 -1.390625 L 0.265625 -1.140625 L 2.328125 -1.140625 L 2.328125 -0.578125 C 2.328125 -0.328125 2.328125 -0.25 1.75 -0.25 L 1.5625 -0.25 L 1.5625 0 C 1.921875 -0.015625 2.359375 -0.03125 2.609375 -0.03125 C 2.875 -0.03125 3.3125 -0.015625 3.671875 0 L 3.671875 -0.25 L 3.484375 -0.25 C 2.90625 -0.25 2.90625 -0.328125 2.90625 -0.578125 L 2.90625 -1.140625 Z M 2.375 -3.9375 L 2.375 -1.390625 L 0.53125 -1.390625 Z M 2.375 -3.9375 "
           style="stroke:none;" />
      </symbol>
    </g>
  </defs>
  <sodipodi:namedview
     inkscape:snap-midpoints="true"
     inkscape:snap-smooth-nodes="true"
     inkscape:snap-intersection-paths="true"
     inkscape:object-paths="true"
     inkscape:snap-bbox="true"
     inkscape:window-maximized="1"
     inkscape:window-y="-8"
     inkscape:window-x="-8"
     inkscape:window-height="1014"
     inkscape:window-width="1920"
     showgrid="false"
     inkscape:document-rotation="0"
     inkscape:current-layer="layer1"
     inkscape:document-units="mm"
     inkscape:cy="471.38004"
     inkscape:cx="377.17644"
     inkscape:zoom="2"
     inkscape:pageshadow="2"
     inkscape:pageopacity="0.0"
     borderopacity="1.0"
     bordercolor="#666666"
     pagecolor="#ffffff"
     id="base" />
  <metadata
     id="metadata5">
    <rdf:RDF>
      <cc:Work
         rdf:about="">
        <dc:format>image/svg+xml</dc:format>
        <dc:type
           rdf:resource="http://purl.org/dc/dcmitype/StillImage" />
        <dc:title />
      </cc:Work>
    </rdf:RDF>
  </metadata>
  <g
     id="layer1"
     inkscape:groupmode="layer"
     inkscape:label="Layer 1">
    <path
       id="path833"
       d="M 37.41435,69.35733 V 109.5375"
       style="fill:none;stroke:#000000;stroke-width:0.253503;stroke-linecap:butt;stroke-linejoin:miter;stroke-miterlimit:4;stroke-dasharray:none;stroke-opacity:1" />
    <path
       id="path835"
       d="m 27.78125,102.31267 h 169.9693"
       style="fill:none;stroke:#000000;stroke-width:0.254;stroke-linecap:butt;stroke-linejoin:miter;stroke-miterlimit:4;stroke-dasharray:none;stroke-opacity:1" />
    <path
       sodipodi:nodetypes="cc"
       id="path837"
       d="m 37.414797,88.435909 c 31.298928,0 31.629321,-0.432954 36.245522,-7.567594"
       style="fill:none;stroke:#ff0000;stroke-width:0.38;stroke-linecap:butt;stroke-linejoin:miter;stroke-miterlimit:4;stroke-dasharray:none;stroke-opacity:1" />
    <g
       inkscape:label=""
       transform="matrix(0.47906012,0,0,0.47906012,-5.8080108,68.089817)"
       id="g853">
      <g
         id="g4850">
        <g
           id="g9132"
           style="fill:#000000;fill-opacity:1">
          <use
             height="100%"
             width="100%"
             id="use5674"
             y="81.962997"
             x="91.925003"
             xlink:href="#symbol1423" />
        </g>
      </g>
    </g>
    <g
       inkscape:label=""
       transform="matrix(0.47906012,0,0,0.47906012,151.32338,67.580816)"
       id="g889">
      <g
         id="g6848">
        <g
           id="g5048"
           style="fill:#000000;fill-opacity:1">
          <use
             height="100%"
             width="100%"
             id="use2952"
             y="81.962997"
             x="91.925003"
             xlink:href="#symbol4847" />
        </g>
      </g>
    </g>
    <g
       inkscape:label=""
       transform="matrix(0.47906012,0,0,0.47906012,-13.920095,32.092441)"
       id="g940">
      <g
         id="g8508">
        <g
           id="g4383"
           style="fill:#000000;fill-opacity:1">
          <use
             height="100%"
             width="100%"
             id="use7569"
             y="81.962997"
             x="91.925003"
             xlink:href="#symbol7486" />
        </g>
        <g
           id="g9309"
           style="fill:#000000;fill-opacity:1">
          <use
             height="100%"
             width="100%"
             id="use2734"
             y="83.457001"
             x="101.59"
             xlink:href="#symbol576" />
        </g>
      </g>
    </g>
    <g
       inkscape:label=""
       transform="matrix(0.47906012,0,0,0.47906012,-11.385069,43.119806)"
       id="g1075">
      <g
         id="g8569">
        <g
           id="g8796"
           style="fill:#000000;fill-opacity:1">
          <use
             height="100%"
             width="100%"
             id="use1947"
             y="81.962997"
             x="91.925003"
             xlink:href="#symbol215" />
        </g>
      </g>
    </g>
    <path
       id="path1088"
       d="M 37.417464,80.920467 H 178.49014 v 21.395523"
       style="fill:none;stroke:#000000;stroke-width:0.200486;stroke-linecap:butt;stroke-linejoin:miter;stroke-miterlimit:4;stroke-dasharray:1.20292, 1.20292;stroke-dashoffset:0;stroke-opacity:1" />
    <g
       inkscape:label=""
       transform="matrix(0.47906012,0,0,0.47906012,-15.060857,54.02042)"
       id="g1178">
      <g
         id="g8879">
        <g
           id="g4074"
           style="fill:#000000;fill-opacity:1">
          <use
             height="100%"
             width="100%"
             id="use26"
             y="81.962997"
             x="91.925003"
             xlink:href="#symbol5556" />
        </g>
        <g
           id="g4485"
           style="fill:#000000;fill-opacity:1">
          <use
             height="100%"
             width="100%"
             id="use8046"
             y="81.962997"
             x="98.053993"
             xlink:href="#symbol7387" />
        </g>
        <g
           id="g4874"
           style="fill:#000000;fill-opacity:1">
          <use
             height="100%"
             width="100%"
             id="use6141"
             y="81.962997"
             x="103.036"
             xlink:href="#symbol5305" />
        </g>
      </g>
    </g>
    <path
       style="fill:none;stroke:#000000;stroke-width:0.214994;stroke-linecap:butt;stroke-linejoin:miter;stroke-miterlimit:4;stroke-dasharray:1.28997, 1.28997;stroke-dashoffset:0;stroke-opacity:1"
       d="M 37.41435,91.618214 H 168.01307 V 102.31267"
       id="path1311" />
    <path
       style="fill:none;stroke:#0000ff;stroke-width:0.38;stroke-linecap:butt;stroke-linejoin:miter;stroke-miterlimit:4;stroke-dasharray:none;stroke-opacity:1"
       d="m 37.41435,95.958553 c 60.617184,0 63.05081,-0.857963 72.25292,-14.996355"
       id="path1687"
       sodipodi:nodetypes="cc" />
    <path
       sodipodi:nodetypes="cc"
       id="path1689"
       d="m 37.413408,101.14286 c 88.334762,0 91.862882,-1.153154 105.270012,-20.15601"
       style="fill:none;stroke:#00a000;stroke-width:0.38;stroke-linecap:butt;stroke-linejoin:miter;stroke-miterlimit:4;stroke-dasharray:none;stroke-opacity:1;fill-opacity:1" />
    <path
       style="fill:none;fill-opacity:1;stroke:#800080;stroke-width:0.38;stroke-linecap:butt;stroke-linejoin:miter;stroke-miterlimit:4;stroke-dasharray:none;stroke-opacity:1"
       d="m 37.389267,102.31267 c 123.942253,0 123.195923,-1.21904 141.176013,-21.307614"
       id="path1691"
       sodipodi:nodetypes="cc" />
    <g
       style="fill:#ff0000;fill-opacity:1;stroke:#ff0000;stroke-opacity:1"
       inkscape:label=""
       transform="matrix(0.48816311,0,0,0.48816311,24.848476,67.103623)"
       id="g1793">
      <g
         style="fill:#ff0000;fill-opacity:1;stroke:#ff0000;stroke-opacity:1"
         id="g5204">
        <g
           id="g7663"
           style="fill:#ff0000;fill-opacity:1;stroke:#ff0000;stroke-opacity:1">
          <use
             style="fill:#ff0000;fill-opacity:1;stroke:#ff0000;stroke-opacity:1"
             height="100%"
             width="100%"
             id="use8989"
             y="81.962997"
             x="91.925003"
             xlink:href="#symbol148" />
        </g>
        <g
           id="g7037"
           style="fill:#ff0000;fill-opacity:1;stroke:#ff0000;stroke-opacity:1">
          <use
             style="fill:#ff0000;fill-opacity:1;stroke:#ff0000;stroke-opacity:1"
             height="100%"
             width="100%"
             id="use436"
             y="83.457001"
             x="98.705002"
             xlink:href="#symbol5291" />
        </g>
      </g>
    </g>
    <g
       style="fill:#0000ff;fill-opacity:1;stroke:#0000ff;stroke-opacity:1"
       inkscape:label=""
       transform="matrix(0.48816311,0,0,0.48816311,63.182749,67.103623)"
       id="g1927">
      <g
         style="fill:#0000ff;fill-opacity:1;stroke:#0000ff;stroke-opacity:1"
         id="g6500">
        <g
           id="g7545"
           style="fill:#0000ff;fill-opacity:1;stroke:#0000ff;stroke-opacity:1">
          <use
             style="fill:#0000ff;fill-opacity:1;stroke:#0000ff;stroke-opacity:1"
             height="100%"
             width="100%"
             id="use1258"
             y="81.962997"
             x="91.925003"
             xlink:href="#symbol5376" />
        </g>
        <g
           id="g4258"
           style="fill:#0000ff;fill-opacity:1;stroke:#0000ff;stroke-opacity:1">
          <use
             style="fill:#0000ff;fill-opacity:1;stroke:#0000ff;stroke-opacity:1"
             height="100%"
             width="100%"
             id="use3287"
             y="83.457001"
             x="98.705002"
             xlink:href="#symbol7936" />
        </g>
      </g>
    </g>
    <g
       style="fill:#009f00;fill-opacity:1;stroke:none;stroke-opacity:1"
       inkscape:label=""
       transform="matrix(0.48816311,0,0,0.48816311,95.296597,67.0693)"
       id="g2077">
      <g
         style="fill:#009f00;fill-opacity:1;stroke:none;stroke-opacity:1"
         id="g8316">
        <g
           id="g8117"
           style="fill:#009f00;fill-opacity:1;stroke:none;stroke-opacity:1">
          <use
             style="fill:#009f00;fill-opacity:1;stroke:none;stroke-opacity:1"
             height="100%"
             width="100%"
             id="use8072"
             y="81.962997"
             x="91.925003"
             xlink:href="#symbol2320" />
        </g>
        <g
           id="g6717"
           style="fill:#009f00;fill-opacity:1;stroke:none;stroke-opacity:1">
          <use
             style="fill:#009f00;fill-opacity:1;stroke:none;stroke-opacity:1"
             height="100%"
             width="100%"
             id="use3842"
             y="83.457001"
             x="98.705002"
             xlink:href="#symbol3640" />
        </g>
      </g>
    </g>
    <g
       style="fill:#800080"
       inkscape:label=""
       transform="matrix(0.48816311,0,0,0.48816311,131.35036,67.103623)"
       id="g2241">
      <g
         style="fill:#800080"
         id="g9922">
        <g
           id="g2672"
           style="fill:#800080;fill-opacity:1">
          <use
             style="fill:#800080"
             height="100%"
             width="100%"
             id="use6352"
             y="81.962997"
             x="91.925003"
             xlink:href="#symbol1069" />
        </g>
        <g
           id="g55"
           style="fill:#800080;fill-opacity:1">
          <use
             style="fill:#800080"
             height="100%"
             width="100%"
             id="use1164"
             y="83.457001"
             x="98.705002"
             xlink:href="#symbol3594" />
        </g>
      </g>
    </g>
    <g
       style="fill:#009f00;fill-opacity:1;stroke:none;stroke-opacity:1"
       inkscape:label=""
       transform="matrix(0.48816311,0,0,0.48816311,85.171149,66.481978)"
       id="g2639">
      <g
         style="fill:#009f00;fill-opacity:1;stroke:none;stroke-opacity:1"
         id="g8235">
        <g
           id="g6155"
           style="fill:#009f00;fill-opacity:1;stroke:none;stroke-opacity:1">
          <use
             style="fill:#009f00;fill-opacity:1;stroke:none;stroke-opacity:1"
             height="100%"
             width="100%"
             id="use6779"
             y="81.962997"
             x="91.925003"
             xlink:href="#symbol3552" />
        </g>
        <g
           id="g9475"
           style="fill:#009f00;fill-opacity:1;stroke:none;stroke-opacity:1">
          <use
             style="fill:#009f00;fill-opacity:1;stroke:none;stroke-opacity:1"
             height="100%"
             width="100%"
             id="use8278"
             y="83.457001"
             x="97.619003"
             xlink:href="#symbol6313" />
        </g>
        <g
           id="g4976"
           style="fill:#009f00;fill-opacity:1;stroke:none;stroke-opacity:1">
          <use
             style="fill:#009f00;fill-opacity:1;stroke:none;stroke-opacity:1"
             height="100%"
             width="100%"
             id="use4040"
             y="83.457001"
             x="101.379"
             xlink:href="#symbol5853" />
        </g>
      </g>
    </g>
    <g
       style="fill:#0000ff;fill-opacity:1;stroke:#0000ff;stroke-opacity:1"
       inkscape:label=""
       transform="matrix(0.48816311,0,0,0.48816311,51.204135,66.501047)"
       id="g2872">
      <g
         style="fill:#0000ff;fill-opacity:1;stroke:#0000ff;stroke-opacity:1"
         id="g7931">
        <g
           id="g3133"
           style="fill:#0000ff;fill-opacity:1;stroke:#0000ff;stroke-opacity:1">
          <use
             style="fill:#0000ff;fill-opacity:1;stroke:#0000ff;stroke-opacity:1"
             height="100%"
             width="100%"
             id="use2173"
             y="81.962997"
             x="91.925003"
             xlink:href="#symbol2451" />
        </g>
        <g
           id="g4427"
           style="fill:#0000ff;fill-opacity:1;stroke:#0000ff;stroke-opacity:1">
          <use
             style="fill:#0000ff;fill-opacity:1;stroke:#0000ff;stroke-opacity:1"
             height="100%"
             width="100%"
             id="use1625"
             y="83.457001"
             x="97.619003"
             xlink:href="#symbol3178" />
        </g>
        <g
           id="g8583"
           style="fill:#0000ff;fill-opacity:1;stroke:#0000ff;stroke-opacity:1">
          <use
             style="fill:#0000ff;fill-opacity:1;stroke:#0000ff;stroke-opacity:1"
             height="100%"
             width="100%"
             id="use1521"
             y="83.457001"
             x="101.379"
             xlink:href="#symbol7231" />
        </g>
      </g>
    </g>
    <path
       id="path2897"
       d="M 73.624447,80.923753 V 102.31267"
       style="fill:none;stroke:#fc0000;stroke-width:0.26458299;stroke-linecap:butt;stroke-linejoin:miter;stroke-opacity:1;stroke-miterlimit:4;stroke-dasharray:1.58749792, 1.58749791999999990;stroke-dashoffset:0" />
    <path
       id="path2899"
       d="M 109.66727,80.962197 V 102.31267"
       style="fill:none;stroke:#0000ff;stroke-width:0.265;stroke-linecap:butt;stroke-linejoin:miter;stroke-opacity:1;stroke-miterlimit:4;stroke-dasharray:1.59,1.59;stroke-dashoffset:0" />
    <path
       id="path2903"
       d="M 142.68342,80.986849 V 102.31267"
       style="fill:none;stroke:#00a000;stroke-width:0.26499999;stroke-linecap:butt;stroke-linejoin:miter;stroke-opacity:1;stroke-miterlimit:4;stroke-dasharray:1.58999992,1.58999992;stroke-dashoffset:0" />
    <path
       id="path2907"
       d="M 99.390897,91.618212 V 102.31267"
       style="fill:none;stroke:#0000ff;stroke-width:0.265;stroke-linecap:butt;stroke-linejoin:miter;stroke-opacity:1;stroke-miterlimit:4;stroke-dasharray:1.59,1.59;stroke-dashoffset:0" />
    <path
       id="path2909"
       d="M 133.66966,91.618212 V 102.31267"
       style="fill:none;stroke:#00a000;stroke-width:0.26499999;stroke-linecap:butt;stroke-linejoin:miter;stroke-opacity:1;stroke-miterlimit:4;stroke-dasharray:1.58999992,1.58999992;stroke-dashoffset:0" />
    <g
       style="fill:#800080;fill-opacity:1"
       inkscape:label=""
       transform="matrix(0.48819729,0,0,0.48819729,120.17198,66.498294)"
       id="g3146">
      <g
         style="fill:#800080;fill-opacity:1"
         id="g439">
        <g
           id="g7085"
           style="fill:#800080;fill-opacity:1">
          <use
             style="fill:#800080;fill-opacity:1"
             height="100%"
             width="100%"
             id="use2481"
             y="81.962997"
             x="91.925003"
             xlink:href="#symbol9983" />
        </g>
        <g
           id="g1177"
           style="fill:#800080;fill-opacity:1">
          <use
             style="fill:#800080;fill-opacity:1"
             height="100%"
             width="100%"
             id="use281"
             y="83.457001"
             x="97.619003"
             xlink:href="#symbol1198" />
        </g>
        <g
           id="g9247"
           style="fill:#800080;fill-opacity:1">
          <use
             style="fill:#800080;fill-opacity:1"
             height="100%"
             width="100%"
             id="use1680"
             y="83.457001"
             x="101.379"
             xlink:href="#symbol789" />
        </g>
      </g>
    </g>
  </g>
</svg>
