<?xml version="1.0" encoding="UTF-8" standalone="no"?>
<svg
   xmlns:dc="http://purl.org/dc/elements/1.1/"
   xmlns:cc="http://creativecommons.org/ns#"
   xmlns:rdf="http://www.w3.org/1999/02/22-rdf-syntax-ns#"
   xmlns:svg="http://www.w3.org/2000/svg"
   xmlns="http://www.w3.org/2000/svg"
   xmlns:xlink="http://www.w3.org/1999/xlink"
   xmlns:sodipodi="http://sodipodi.sourceforge.net/DTD/sodipodi-0.dtd"
   xmlns:inkscape="http://www.inkscape.org/namespaces/inkscape"
   inkscape:export-ydpi="500"
   inkscape:export-xdpi="500"
   inkscape:export-filename="C:\Users\smatw1\Dropbox\Math_bio_course\Pictures\Schnakeberg_diffusion_curve.png"
   sodipodi:docname="Schnakenberg_kinetics.svg"
   inkscape:version="1.0 (4035a4fb49, 2020-05-01)"
   width="210mm"
   height="297mm"
   viewBox="0 0 210 297"
   version="1.1"
   id="svg1153">
  <defs
     id="defs1147">
    <g
       id="g6948">
      <symbol
         id="symbol9040"
         overflow="visible">
        <path
           id="path9915"
           d=""
           style="stroke:none;" />
      </symbol>
      <symbol
         id="symbol7801"
         overflow="visible">
        <path
           id="path9839"
           d="M 1.578125 -0.78125 C 1.484375 -0.390625 1.46875 -0.3125 0.671875 -0.3125 C 0.515625 -0.3125 0.40625 -0.3125 0.40625 -0.125 C 0.40625 0 0.484375 0 0.671875 0 L 3.984375 0 C 6.046875 0 8.015625 -2.109375 8.015625 -4.28125 C 8.015625 -5.6875 7.171875 -6.8125 5.671875 -6.8125 L 2.328125 -6.8125 C 2.140625 -6.8125 2.03125 -6.8125 2.03125 -6.625 C 2.03125 -6.5 2.109375 -6.5 2.3125 -6.5 C 2.4375 -6.5 2.625 -6.484375 2.734375 -6.484375 C 2.90625 -6.453125 2.953125 -6.4375 2.953125 -6.3125 C 2.953125 -6.28125 2.953125 -6.25 2.921875 -6.125 Z M 3.734375 -6.125 C 3.828125 -6.46875 3.84375 -6.5 4.28125 -6.5 L 5.34375 -6.5 C 6.3125 -6.5 7.140625 -5.96875 7.140625 -4.65625 C 7.140625 -4.171875 6.953125 -2.53125 6.09375 -1.4375 C 5.8125 -1.0625 5.03125 -0.3125 3.796875 -0.3125 L 2.671875 -0.3125 C 2.53125 -0.3125 2.515625 -0.3125 2.453125 -0.3125 C 2.359375 -0.328125 2.328125 -0.34375 2.328125 -0.421875 C 2.328125 -0.453125 2.328125 -0.46875 2.375 -0.640625 Z M 3.734375 -6.125 "
           style="stroke:none;" />
      </symbol>
      <symbol
         id="symbol9240"
         overflow="visible">
        <path
           id="path6842"
           d=""
           style="stroke:none;" />
      </symbol>
      <symbol
         id="symbol98"
         overflow="visible">
        <path
           id="path6054"
           d="M 3.21875 -1.578125 L 5.359375 -1.578125 C 5.453125 -1.578125 5.609375 -1.578125 5.609375 -1.734375 C 5.609375 -1.921875 5.453125 -1.921875 5.359375 -1.921875 L 3.21875 -1.921875 L 3.21875 -4.0625 C 3.21875 -4.140625 3.21875 -4.3125 3.0625 -4.3125 C 2.890625 -4.3125 2.890625 -4.15625 2.890625 -4.0625 L 2.890625 -1.921875 L 0.75 -1.921875 C 0.65625 -1.921875 0.484375 -1.921875 0.484375 -1.75 C 0.484375 -1.578125 0.640625 -1.578125 0.75 -1.578125 L 2.890625 -1.578125 L 2.890625 0.5625 C 2.890625 0.65625 2.890625 0.828125 3.046875 0.828125 C 3.21875 0.828125 3.21875 0.65625 3.21875 0.5625 Z M 3.21875 -1.578125 "
           style="stroke:none;" />
      </symbol>
      <symbol
         id="symbol2960"
         overflow="visible">
        <path
           id="path5392"
           d=""
           style="stroke:none;" />
      </symbol>
      <symbol
         id="symbol8568"
         overflow="visible">
        <path
           id="path7527"
           d="M 3.71875 -2.53125 C 3.71875 -3.078125 3.390625 -3.078125 3.375 -3.078125 C 3.1875 -3.078125 3 -2.890625 3 -2.703125 C 3 -2.59375 3.0625 -2.53125 3.109375 -2.5 C 3.234375 -2.390625 3.375 -2.21875 3.375 -1.9375 C 3.375 -1.625 2.90625 -0.125 2.078125 -0.125 C 1.515625 -0.125 1.515625 -0.625 1.515625 -0.75 C 1.515625 -1.0625 1.640625 -1.453125 1.90625 -2.109375 C 1.953125 -2.25 2 -2.359375 2 -2.46875 C 2 -2.84375 1.6875 -3.078125 1.34375 -3.078125 C 0.640625 -3.078125 0.328125 -2.125 0.328125 -2 C 0.328125 -1.921875 0.421875 -1.921875 0.453125 -1.921875 C 0.546875 -1.921875 0.546875 -1.953125 0.578125 -2.03125 C 0.734375 -2.59375 1.03125 -2.875 1.3125 -2.875 C 1.4375 -2.875 1.484375 -2.796875 1.484375 -2.640625 C 1.484375 -2.46875 1.4375 -2.328125 1.359375 -2.171875 C 1.0625 -1.390625 0.984375 -1.09375 0.984375 -0.84375 C 0.984375 -0.15625 1.53125 0.0625 2.0625 0.0625 C 3.234375 0.0625 3.71875 -1.953125 3.71875 -2.53125 Z M 3.71875 -2.53125 "
           style="stroke:none;" />
      </symbol>
    </g>
    <g
       id="g4702">
      <symbol
         id="symbol1311"
         overflow="visible">
        <path
           id="path6257"
           d=""
           style="stroke:none;" />
      </symbol>
      <symbol
         id="symbol316"
         overflow="visible">
        <path
           id="path1676"
           d="M 1.578125 -0.78125 C 1.484375 -0.390625 1.46875 -0.3125 0.671875 -0.3125 C 0.515625 -0.3125 0.40625 -0.3125 0.40625 -0.125 C 0.40625 0 0.484375 0 0.671875 0 L 3.984375 0 C 6.046875 0 8.015625 -2.109375 8.015625 -4.28125 C 8.015625 -5.6875 7.171875 -6.8125 5.671875 -6.8125 L 2.328125 -6.8125 C 2.140625 -6.8125 2.03125 -6.8125 2.03125 -6.625 C 2.03125 -6.5 2.109375 -6.5 2.3125 -6.5 C 2.4375 -6.5 2.625 -6.484375 2.734375 -6.484375 C 2.90625 -6.453125 2.953125 -6.4375 2.953125 -6.3125 C 2.953125 -6.28125 2.953125 -6.25 2.921875 -6.125 Z M 3.734375 -6.125 C 3.828125 -6.46875 3.84375 -6.5 4.28125 -6.5 L 5.34375 -6.5 C 6.3125 -6.5 7.140625 -5.96875 7.140625 -4.65625 C 7.140625 -4.171875 6.953125 -2.53125 6.09375 -1.4375 C 5.8125 -1.0625 5.03125 -0.3125 3.796875 -0.3125 L 2.671875 -0.3125 C 2.53125 -0.3125 2.515625 -0.3125 2.453125 -0.3125 C 2.359375 -0.328125 2.328125 -0.34375 2.328125 -0.421875 C 2.328125 -0.453125 2.328125 -0.46875 2.375 -0.640625 Z M 3.734375 -6.125 "
           style="stroke:none;" />
      </symbol>
      <symbol
         id="symbol4406"
         overflow="visible">
        <path
           id="path112"
           d=""
           style="stroke:none;" />
      </symbol>
      <symbol
         id="symbol6384"
         overflow="visible">
        <path
           id="path1777"
           d="M 5.1875 -1.578125 C 5.296875 -1.578125 5.46875 -1.578125 5.46875 -1.734375 C 5.46875 -1.921875 5.296875 -1.921875 5.1875 -1.921875 L 1.03125 -1.921875 C 0.921875 -1.921875 0.75 -1.921875 0.75 -1.75 C 0.75 -1.578125 0.90625 -1.578125 1.03125 -1.578125 Z M 5.1875 -1.578125 "
           style="stroke:none;" />
      </symbol>
      <symbol
         id="symbol9313"
         overflow="visible">
        <path
           id="path9081"
           d=""
           style="stroke:none;" />
      </symbol>
      <symbol
         id="symbol7887"
         overflow="visible">
        <path
           id="path2258"
           d="M 3.71875 -2.53125 C 3.71875 -3.078125 3.390625 -3.078125 3.375 -3.078125 C 3.1875 -3.078125 3 -2.890625 3 -2.703125 C 3 -2.59375 3.0625 -2.53125 3.109375 -2.5 C 3.234375 -2.390625 3.375 -2.21875 3.375 -1.9375 C 3.375 -1.625 2.90625 -0.125 2.078125 -0.125 C 1.515625 -0.125 1.515625 -0.625 1.515625 -0.75 C 1.515625 -1.0625 1.640625 -1.453125 1.90625 -2.109375 C 1.953125 -2.25 2 -2.359375 2 -2.46875 C 2 -2.84375 1.6875 -3.078125 1.34375 -3.078125 C 0.640625 -3.078125 0.328125 -2.125 0.328125 -2 C 0.328125 -1.921875 0.421875 -1.921875 0.453125 -1.921875 C 0.546875 -1.921875 0.546875 -1.953125 0.578125 -2.03125 C 0.734375 -2.59375 1.03125 -2.875 1.3125 -2.875 C 1.4375 -2.875 1.484375 -2.796875 1.484375 -2.640625 C 1.484375 -2.46875 1.4375 -2.328125 1.359375 -2.171875 C 1.0625 -1.390625 0.984375 -1.09375 0.984375 -0.84375 C 0.984375 -0.15625 1.53125 0.0625 2.0625 0.0625 C 3.234375 0.0625 3.71875 -1.953125 3.71875 -2.53125 Z M 3.71875 -2.53125 "
           style="stroke:none;" />
      </symbol>
    </g>
    <g
       id="g7594">
      <symbol
         id="symbol7492"
         overflow="visible">
        <path
           id="path1742"
           d=""
           style="stroke:none;" />
      </symbol>
      <symbol
         id="symbol623"
         overflow="visible">
        <path
           id="path9825"
           d="M 4.40625 -3.9375 C 4.40625 -4.5625 3.875 -4.90625 3.265625 -4.90625 C 2.3125 -4.90625 1.609375 -3.828125 1.4375 -3.125 L 0.34375 1.265625 C 0.328125 1.3125 0.390625 1.359375 0.4375 1.359375 C 0.5 1.359375 0.5625 1.34375 0.578125 1.296875 L 1.03125 -0.5625 C 1.1875 -0.234375 1.515625 0.0625 2.078125 0.0625 C 3.0625 0.0625 4.15625 -0.640625 4.15625 -1.703125 C 4.15625 -2.125 3.96875 -2.53125 3.609375 -2.765625 C 3.953125 -2.984375 4.40625 -3.375 4.40625 -3.9375 Z M 3.03125 -2.78125 C 2.921875 -2.75 2.875 -2.71875 2.671875 -2.71875 C 2.5625 -2.71875 2.390625 -2.734375 2.34375 -2.765625 C 2.421875 -2.796875 2.609375 -2.8125 2.671875 -2.8125 C 2.78125 -2.8125 2.9375 -2.796875 3.03125 -2.78125 Z M 3.953125 -4.0625 C 3.953125 -3.703125 3.765625 -3.15625 3.34375 -2.90625 C 3.203125 -2.953125 3.078125 -3 2.6875 -3 C 2.4375 -3 2.09375 -2.984375 2.09375 -2.734375 C 2.09375 -2.5625 2.3125 -2.53125 2.65625 -2.53125 C 2.90625 -2.53125 3.109375 -2.578125 3.328125 -2.640625 C 3.53125 -2.484375 3.640625 -2.203125 3.640625 -1.890625 C 3.640625 -0.890625 2.953125 -0.125 2.109375 -0.125 C 1.5625 -0.125 1.1875 -0.453125 1.1875 -1.015625 C 1.1875 -1.078125 1.1875 -1.15625 1.203125 -1.21875 L 1.671875 -3.0625 C 1.828125 -3.734375 2.453125 -4.71875 3.25 -4.71875 C 3.671875 -4.71875 3.953125 -4.5 3.953125 -4.0625 Z M 3.953125 -4.0625 "
           style="stroke:none;" />
      </symbol>
      <symbol
         id="symbol2038"
         overflow="visible">
        <path
           id="path6388"
           d="M 3.8125 -0.984375 C 4.453125 -1.640625 4.703125 -2.578125 4.703125 -2.640625 C 4.703125 -2.734375 4.625 -2.734375 4.59375 -2.734375 C 4.5 -2.734375 4.5 -2.71875 4.453125 -2.5625 C 4.328125 -2.109375 4.09375 -1.671875 3.796875 -1.296875 C 3.796875 -1.40625 3.78125 -1.875 3.765625 -1.9375 C 3.65625 -2.625 3.140625 -3.078125 2.4375 -3.078125 C 1.421875 -3.078125 0.4375 -2.125 0.4375 -1.140625 C 0.4375 -0.5 0.90625 0.0625 1.703125 0.0625 C 2.34375 0.0625 2.921875 -0.21875 3.3125 -0.515625 C 3.484375 -0.015625 3.828125 0.0625 4.046875 0.0625 C 4.453125 0.0625 4.703125 -0.265625 4.703125 -0.421875 C 4.703125 -0.5 4.609375 -0.5 4.578125 -0.5 C 4.484375 -0.5 4.46875 -0.46875 4.453125 -0.4375 C 4.359375 -0.171875 4.140625 -0.125 4.0625 -0.125 C 3.96875 -0.125 3.84375 -0.125 3.8125 -0.984375 Z M 3.265625 -0.75 C 2.578125 -0.1875 2 -0.125 1.734375 -0.125 C 1.265625 -0.125 1.015625 -0.4375 1.015625 -0.90625 C 1.015625 -1.09375 1.109375 -1.859375 1.46875 -2.34375 C 1.796875 -2.765625 2.1875 -2.875 2.4375 -2.875 C 2.984375 -2.875 3.15625 -2.34375 3.203125 -1.90625 C 3.25 -1.609375 3.234375 -1.109375 3.265625 -0.75 Z M 3.265625 -0.75 "
           style="stroke:none;" />
      </symbol>
      <symbol
         id="symbol1991"
         overflow="visible">
        <path
           id="path3665"
           d=""
           style="stroke:none;" />
      </symbol>
      <symbol
         id="symbol2522"
         overflow="visible">
        <path
           id="path799"
           d="M 1.640625 -1.65625 C 2.109375 -1.65625 2.40625 -1.359375 2.40625 -0.875 C 2.40625 -0.359375 2.09375 -0.09375 1.65625 -0.09375 C 1.59375 -0.09375 1 -0.09375 0.75 -0.359375 C 0.953125 -0.390625 1.015625 -0.53125 1.015625 -0.65625 C 1.015625 -0.84375 0.875 -0.96875 0.703125 -0.96875 C 0.546875 -0.96875 0.40625 -0.859375 0.40625 -0.640625 C 0.40625 -0.125 0.984375 0.109375 1.671875 0.109375 C 2.484375 0.109375 2.984375 -0.390625 2.984375 -0.875 C 2.984375 -1.28125 2.625 -1.625 2.0625 -1.75 C 2.65625 -1.953125 2.8125 -2.328125 2.8125 -2.609375 C 2.8125 -3.015625 2.3125 -3.3125 1.6875 -3.3125 C 1.0625 -3.3125 0.578125 -3.0625 0.578125 -2.609375 C 0.578125 -2.375 0.765625 -2.3125 0.859375 -2.3125 C 1 -2.3125 1.140625 -2.421875 1.140625 -2.609375 C 1.140625 -2.71875 1.078125 -2.859375 0.90625 -2.890625 C 1.109375 -3.109375 1.5625 -3.125 1.671875 -3.125 C 2.03125 -3.125 2.28125 -2.953125 2.28125 -2.609375 C 2.28125 -2.3125 2.09375 -1.859375 1.578125 -1.828125 C 1.4375 -1.828125 1.421875 -1.828125 1.28125 -1.8125 C 1.234375 -1.8125 1.171875 -1.8125 1.171875 -1.734375 C 1.171875 -1.65625 1.21875 -1.65625 1.3125 -1.65625 Z M 1.640625 -1.65625 "
           style="stroke:none;" />
      </symbol>
      <symbol
         id="symbol3579"
         overflow="visible">
        <path
           id="path1625"
           d=""
           style="stroke:none;" />
      </symbol>
      <symbol
         id="symbol6234"
         overflow="visible">
        <path
           id="path2088"
           d="M 5.1875 -1.578125 C 5.296875 -1.578125 5.46875 -1.578125 5.46875 -1.734375 C 5.46875 -1.921875 5.296875 -1.921875 5.1875 -1.921875 L 1.03125 -1.921875 C 0.921875 -1.921875 0.75 -1.921875 0.75 -1.75 C 0.75 -1.578125 0.90625 -1.578125 1.03125 -1.578125 Z M 5.1875 -1.578125 "
           style="stroke:none;" />
      </symbol>
      <symbol
         id="symbol3822"
         overflow="visible">
        <path
           id="path9514"
           d=""
           style="stroke:none;" />
      </symbol>
      <symbol
         id="symbol6588"
         overflow="visible">
        <path
           id="path5788"
           d="M 3.515625 -1.265625 L 3.28125 -1.265625 C 3.265625 -1.109375 3.1875 -0.703125 3.09375 -0.640625 C 3.046875 -0.59375 2.515625 -0.59375 2.40625 -0.59375 L 1.125 -0.59375 C 1.859375 -1.234375 2.109375 -1.4375 2.515625 -1.765625 C 3.03125 -2.171875 3.515625 -2.609375 3.515625 -3.265625 C 3.515625 -4.109375 2.78125 -4.625 1.890625 -4.625 C 1.03125 -4.625 0.4375 -4.015625 0.4375 -3.375 C 0.4375 -3.03125 0.734375 -2.984375 0.8125 -2.984375 C 0.96875 -2.984375 1.171875 -3.109375 1.171875 -3.359375 C 1.171875 -3.484375 1.125 -3.734375 0.765625 -3.734375 C 0.984375 -4.21875 1.453125 -4.375 1.78125 -4.375 C 2.484375 -4.375 2.84375 -3.828125 2.84375 -3.265625 C 2.84375 -2.65625 2.40625 -2.1875 2.1875 -1.9375 L 0.515625 -0.265625 C 0.4375 -0.203125 0.4375 -0.1875 0.4375 0 L 3.3125 0 Z M 3.515625 -1.265625 "
           style="stroke:none;" />
      </symbol>
    </g>
    <g
       id="g583">
      <symbol
         id="symbol8830"
         overflow="visible">
        <path
           id="path2322"
           d=""
           style="stroke:none;" />
      </symbol>
      <symbol
         id="symbol762"
         overflow="visible">
        <path
           id="path4402"
           d="M 4.40625 -3.9375 C 4.40625 -4.5625 3.875 -4.90625 3.265625 -4.90625 C 2.3125 -4.90625 1.609375 -3.828125 1.4375 -3.125 L 0.34375 1.265625 C 0.328125 1.3125 0.390625 1.359375 0.4375 1.359375 C 0.5 1.359375 0.5625 1.34375 0.578125 1.296875 L 1.03125 -0.5625 C 1.1875 -0.234375 1.515625 0.0625 2.078125 0.0625 C 3.0625 0.0625 4.15625 -0.640625 4.15625 -1.703125 C 4.15625 -2.125 3.96875 -2.53125 3.609375 -2.765625 C 3.953125 -2.984375 4.40625 -3.375 4.40625 -3.9375 Z M 3.03125 -2.78125 C 2.921875 -2.75 2.875 -2.71875 2.671875 -2.71875 C 2.5625 -2.71875 2.390625 -2.734375 2.34375 -2.765625 C 2.421875 -2.796875 2.609375 -2.8125 2.671875 -2.8125 C 2.78125 -2.8125 2.9375 -2.796875 3.03125 -2.78125 Z M 3.953125 -4.0625 C 3.953125 -3.703125 3.765625 -3.15625 3.34375 -2.90625 C 3.203125 -2.953125 3.078125 -3 2.6875 -3 C 2.4375 -3 2.09375 -2.984375 2.09375 -2.734375 C 2.09375 -2.5625 2.3125 -2.53125 2.65625 -2.53125 C 2.90625 -2.53125 3.109375 -2.578125 3.328125 -2.640625 C 3.53125 -2.484375 3.640625 -2.203125 3.640625 -1.890625 C 3.640625 -0.890625 2.953125 -0.125 2.109375 -0.125 C 1.5625 -0.125 1.1875 -0.453125 1.1875 -1.015625 C 1.1875 -1.078125 1.1875 -1.15625 1.203125 -1.21875 L 1.671875 -3.0625 C 1.828125 -3.734375 2.453125 -4.71875 3.25 -4.71875 C 3.671875 -4.71875 3.953125 -4.5 3.953125 -4.0625 Z M 3.953125 -4.0625 "
           style="stroke:none;" />
      </symbol>
      <symbol
         id="symbol4653"
         overflow="visible">
        <path
           id="path8314"
           d="M 3.8125 -0.984375 C 4.453125 -1.640625 4.703125 -2.578125 4.703125 -2.640625 C 4.703125 -2.734375 4.625 -2.734375 4.59375 -2.734375 C 4.5 -2.734375 4.5 -2.71875 4.453125 -2.5625 C 4.328125 -2.109375 4.09375 -1.671875 3.796875 -1.296875 C 3.796875 -1.40625 3.78125 -1.875 3.765625 -1.9375 C 3.65625 -2.625 3.140625 -3.078125 2.4375 -3.078125 C 1.421875 -3.078125 0.4375 -2.125 0.4375 -1.140625 C 0.4375 -0.5 0.90625 0.0625 1.703125 0.0625 C 2.34375 0.0625 2.921875 -0.21875 3.3125 -0.515625 C 3.484375 -0.015625 3.828125 0.0625 4.046875 0.0625 C 4.453125 0.0625 4.703125 -0.265625 4.703125 -0.421875 C 4.703125 -0.5 4.609375 -0.5 4.578125 -0.5 C 4.484375 -0.5 4.46875 -0.46875 4.453125 -0.4375 C 4.359375 -0.171875 4.140625 -0.125 4.0625 -0.125 C 3.96875 -0.125 3.84375 -0.125 3.8125 -0.984375 Z M 3.265625 -0.75 C 2.578125 -0.1875 2 -0.125 1.734375 -0.125 C 1.265625 -0.125 1.015625 -0.4375 1.015625 -0.90625 C 1.015625 -1.09375 1.109375 -1.859375 1.46875 -2.34375 C 1.796875 -2.765625 2.1875 -2.875 2.4375 -2.875 C 2.984375 -2.875 3.15625 -2.34375 3.203125 -1.90625 C 3.25 -1.609375 3.234375 -1.109375 3.265625 -0.75 Z M 3.265625 -0.75 "
           style="stroke:none;" />
      </symbol>
      <symbol
         id="symbol2099"
         overflow="visible">
        <path
           id="path6702"
           d=""
           style="stroke:none;" />
      </symbol>
      <symbol
         id="symbol9764"
         overflow="visible">
        <path
           id="path2272"
           d="M 1.640625 -1.65625 C 2.109375 -1.65625 2.40625 -1.359375 2.40625 -0.875 C 2.40625 -0.359375 2.09375 -0.09375 1.65625 -0.09375 C 1.59375 -0.09375 1 -0.09375 0.75 -0.359375 C 0.953125 -0.390625 1.015625 -0.53125 1.015625 -0.65625 C 1.015625 -0.84375 0.875 -0.96875 0.703125 -0.96875 C 0.546875 -0.96875 0.40625 -0.859375 0.40625 -0.640625 C 0.40625 -0.125 0.984375 0.109375 1.671875 0.109375 C 2.484375 0.109375 2.984375 -0.390625 2.984375 -0.875 C 2.984375 -1.28125 2.625 -1.625 2.0625 -1.75 C 2.65625 -1.953125 2.8125 -2.328125 2.8125 -2.609375 C 2.8125 -3.015625 2.3125 -3.3125 1.6875 -3.3125 C 1.0625 -3.3125 0.578125 -3.0625 0.578125 -2.609375 C 0.578125 -2.375 0.765625 -2.3125 0.859375 -2.3125 C 1 -2.3125 1.140625 -2.421875 1.140625 -2.609375 C 1.140625 -2.71875 1.078125 -2.859375 0.90625 -2.890625 C 1.109375 -3.109375 1.5625 -3.125 1.671875 -3.125 C 2.03125 -3.125 2.28125 -2.953125 2.28125 -2.609375 C 2.28125 -2.3125 2.09375 -1.859375 1.578125 -1.828125 C 1.4375 -1.828125 1.421875 -1.828125 1.28125 -1.8125 C 1.234375 -1.8125 1.171875 -1.8125 1.171875 -1.734375 C 1.171875 -1.65625 1.21875 -1.65625 1.3125 -1.65625 Z M 1.640625 -1.65625 "
           style="stroke:none;" />
      </symbol>
      <symbol
         id="symbol6007"
         overflow="visible">
        <path
           id="path1039"
           d=""
           style="stroke:none;" />
      </symbol>
      <symbol
         id="symbol9865"
         overflow="visible">
        <path
           id="path4749"
           d="M 2.46875 -5.21875 C 1.15625 -4.296875 0.796875 -2.8125 0.796875 -1.75 C 0.796875 -0.765625 1.09375 0.765625 2.46875 1.734375 C 2.53125 1.734375 2.609375 1.734375 2.609375 1.65625 C 2.609375 1.609375 2.59375 1.59375 2.546875 1.546875 C 1.609375 0.703125 1.28125 -0.46875 1.28125 -1.734375 C 1.28125 -3.625 2 -4.546875 2.5625 -5.0625 C 2.59375 -5.09375 2.609375 -5.109375 2.609375 -5.140625 C 2.609375 -5.21875 2.53125 -5.21875 2.46875 -5.21875 Z M 2.46875 -5.21875 "
           style="stroke:none;" />
      </symbol>
      <symbol
         id="symbol809"
         overflow="visible">
        <path
           id="path3205"
           d="M 1.90625 -2.328125 C 2.453125 -2.328125 2.84375 -1.953125 2.84375 -1.203125 C 2.84375 -0.34375 2.328125 -0.078125 1.9375 -0.078125 C 1.65625 -0.078125 1.03125 -0.15625 0.75 -0.578125 C 1.078125 -0.578125 1.15625 -0.8125 1.15625 -0.96875 C 1.15625 -1.1875 0.984375 -1.34375 0.765625 -1.34375 C 0.578125 -1.34375 0.375 -1.21875 0.375 -0.9375 C 0.375 -0.28125 1.09375 0.140625 1.9375 0.140625 C 2.90625 0.140625 3.578125 -0.515625 3.578125 -1.203125 C 3.578125 -1.75 3.140625 -2.296875 2.375 -2.453125 C 3.09375 -2.71875 3.359375 -3.234375 3.359375 -3.671875 C 3.359375 -4.21875 2.734375 -4.625 1.953125 -4.625 C 1.1875 -4.625 0.59375 -4.25 0.59375 -3.6875 C 0.59375 -3.453125 0.75 -3.328125 0.953125 -3.328125 C 1.171875 -3.328125 1.3125 -3.484375 1.3125 -3.671875 C 1.3125 -3.875 1.171875 -4.03125 0.953125 -4.046875 C 1.203125 -4.34375 1.671875 -4.421875 1.9375 -4.421875 C 2.25 -4.421875 2.6875 -4.265625 2.6875 -3.671875 C 2.6875 -3.375 2.59375 -3.046875 2.40625 -2.84375 C 2.1875 -2.578125 1.984375 -2.5625 1.640625 -2.53125 C 1.46875 -2.515625 1.453125 -2.515625 1.421875 -2.515625 C 1.40625 -2.515625 1.34375 -2.5 1.34375 -2.421875 C 1.34375 -2.328125 1.40625 -2.328125 1.53125 -2.328125 Z M 1.90625 -2.328125 "
           style="stroke:none;" />
      </symbol>
      <symbol
         id="symbol1944"
         overflow="visible">
        <path
           id="path3322"
           d="M 3.515625 -1.265625 L 3.28125 -1.265625 C 3.265625 -1.109375 3.1875 -0.703125 3.09375 -0.640625 C 3.046875 -0.59375 2.515625 -0.59375 2.40625 -0.59375 L 1.125 -0.59375 C 1.859375 -1.234375 2.109375 -1.4375 2.515625 -1.765625 C 3.03125 -2.171875 3.515625 -2.609375 3.515625 -3.265625 C 3.515625 -4.109375 2.78125 -4.625 1.890625 -4.625 C 1.03125 -4.625 0.4375 -4.015625 0.4375 -3.375 C 0.4375 -3.03125 0.734375 -2.984375 0.8125 -2.984375 C 0.96875 -2.984375 1.171875 -3.109375 1.171875 -3.359375 C 1.171875 -3.484375 1.125 -3.734375 0.765625 -3.734375 C 0.984375 -4.21875 1.453125 -4.375 1.78125 -4.375 C 2.484375 -4.375 2.84375 -3.828125 2.84375 -3.265625 C 2.84375 -2.65625 2.40625 -2.1875 2.1875 -1.9375 L 0.515625 -0.265625 C 0.4375 -0.203125 0.4375 -0.1875 0.4375 0 L 3.3125 0 Z M 3.515625 -1.265625 "
           style="stroke:none;" />
      </symbol>
      <symbol
         id="symbol6602"
         overflow="visible">
        <path
           id="path1452"
           d="M 0.625 -5.21875 C 0.578125 -5.21875 0.5 -5.21875 0.5 -5.140625 C 0.5 -5.109375 0.515625 -5.09375 0.5625 -5.03125 C 1.15625 -4.484375 1.828125 -3.546875 1.828125 -1.75 C 1.828125 -0.296875 1.375 0.8125 0.625 1.484375 C 0.5 1.609375 0.5 1.609375 0.5 1.65625 C 0.5 1.6875 0.515625 1.734375 0.578125 1.734375 C 0.671875 1.734375 1.328125 1.28125 1.796875 0.40625 C 2.09375 -0.171875 2.296875 -0.921875 2.296875 -1.734375 C 2.296875 -2.71875 2 -4.25 0.625 -5.21875 Z M 0.625 -5.21875 "
           style="stroke:none;" />
      </symbol>
      <symbol
         id="symbol6414"
         overflow="visible">
        <path
           id="path4523"
           d=""
           style="stroke:none;" />
      </symbol>
      <symbol
         id="symbol3702"
         overflow="visible">
        <path
           id="path4714"
           d="M 5.1875 -1.578125 C 5.296875 -1.578125 5.46875 -1.578125 5.46875 -1.734375 C 5.46875 -1.921875 5.296875 -1.921875 5.1875 -1.921875 L 1.03125 -1.921875 C 0.921875 -1.921875 0.75 -1.921875 0.75 -1.75 C 0.75 -1.578125 0.90625 -1.578125 1.03125 -1.578125 Z M 5.1875 -1.578125 "
           style="stroke:none;" />
      </symbol>
    </g>
    <g
       id="g8565">
      <symbol
         id="symbol2035"
         overflow="visible">
        <path
           id="path7538"
           d=""
           style="stroke:none;" />
      </symbol>
      <symbol
         id="symbol6606"
         overflow="visible">
        <path
           id="path6870"
           d="M 1.578125 -0.78125 C 1.484375 -0.390625 1.46875 -0.3125 0.671875 -0.3125 C 0.515625 -0.3125 0.40625 -0.3125 0.40625 -0.125 C 0.40625 0 0.484375 0 0.671875 0 L 3.984375 0 C 6.046875 0 8.015625 -2.109375 8.015625 -4.28125 C 8.015625 -5.6875 7.171875 -6.8125 5.671875 -6.8125 L 2.328125 -6.8125 C 2.140625 -6.8125 2.03125 -6.8125 2.03125 -6.625 C 2.03125 -6.5 2.109375 -6.5 2.3125 -6.5 C 2.4375 -6.5 2.625 -6.484375 2.734375 -6.484375 C 2.90625 -6.453125 2.953125 -6.4375 2.953125 -6.3125 C 2.953125 -6.28125 2.953125 -6.25 2.921875 -6.125 Z M 3.734375 -6.125 C 3.828125 -6.46875 3.84375 -6.5 4.28125 -6.5 L 5.34375 -6.5 C 6.3125 -6.5 7.140625 -5.96875 7.140625 -4.65625 C 7.140625 -4.171875 6.953125 -2.53125 6.09375 -1.4375 C 5.8125 -1.0625 5.03125 -0.3125 3.796875 -0.3125 L 2.671875 -0.3125 C 2.53125 -0.3125 2.515625 -0.3125 2.453125 -0.3125 C 2.359375 -0.328125 2.328125 -0.34375 2.328125 -0.421875 C 2.328125 -0.453125 2.328125 -0.46875 2.375 -0.640625 Z M 3.734375 -6.125 "
           style="stroke:none;" />
      </symbol>
      <symbol
         id="symbol1642"
         overflow="visible">
        <path
           id="path629"
           d=""
           style="stroke:none;" />
      </symbol>
      <symbol
         id="symbol3530"
         overflow="visible">
        <path
           id="path8998"
           d="M 1.171875 -0.609375 C 1.359375 -0.796875 1.484375 -0.921875 2.0625 -1.40625 C 2.21875 -1.515625 2.734375 -1.9375 2.9375 -2.125 C 3.359375 -2.546875 3.625 -2.90625 3.625 -2.984375 C 3.625 -3.078125 3.546875 -3.078125 3.515625 -3.078125 C 3.453125 -3.078125 3.421875 -3.0625 3.390625 -3 C 3.171875 -2.6875 3.03125 -2.578125 2.859375 -2.578125 C 2.78125 -2.578125 2.671875 -2.578125 2.46875 -2.78125 C 2.234375 -3.03125 2.078125 -3.078125 1.921875 -3.078125 C 1.359375 -3.078125 0.984375 -2.46875 0.984375 -2.265625 C 0.984375 -2.1875 1.046875 -2.171875 1.09375 -2.171875 C 1.1875 -2.171875 1.203125 -2.1875 1.21875 -2.265625 C 1.328125 -2.515625 1.71875 -2.53125 1.828125 -2.53125 C 2 -2.53125 2.171875 -2.484375 2.265625 -2.46875 C 2.65625 -2.390625 2.703125 -2.390625 2.875 -2.390625 C 2.703125 -2.1875 2.578125 -2.0625 1.90625 -1.546875 C 1.359375 -1.109375 1.171875 -0.9375 1.046875 -0.796875 C 0.625 -0.390625 0.421875 -0.078125 0.421875 -0.015625 C 0.421875 0.0625 0.515625 0.0625 0.546875 0.0625 C 0.609375 0.0625 0.625 0.0625 0.65625 0 C 0.84375 -0.265625 1.0625 -0.421875 1.296875 -0.421875 C 1.390625 -0.421875 1.484375 -0.421875 1.671875 -0.25 C 1.890625 -0.03125 2.03125 0.0625 2.265625 0.0625 C 3 0.0625 3.46875 -0.78125 3.46875 -1.015625 C 3.46875 -1.09375 3.390625 -1.09375 3.359375 -1.09375 C 3.265625 -1.09375 3.25 -1.0625 3.21875 -0.984375 C 3.09375 -0.640625 2.6875 -0.46875 2.34375 -0.46875 C 2.1875 -0.46875 2 -0.515625 1.828125 -0.546875 C 1.515625 -0.625 1.453125 -0.625 1.328125 -0.625 C 1.3125 -0.625 1.21875 -0.625 1.171875 -0.609375 Z M 1.171875 -0.609375 "
           style="stroke:none;" />
      </symbol>
    </g>
    <g
       id="g9109">
      <symbol
         id="symbol5592"
         overflow="visible">
        <path
           id="path5494"
           d=""
           style="stroke:none;" />
      </symbol>
      <symbol
         id="symbol5729"
         overflow="visible">
        <path
           id="path4881"
           d="M 2.859375 -6.8125 C 2.859375 -6.8125 2.859375 -6.921875 2.734375 -6.921875 C 2.5 -6.921875 1.78125 -6.84375 1.515625 -6.8125 C 1.4375 -6.8125 1.328125 -6.796875 1.328125 -6.625 C 1.328125 -6.5 1.421875 -6.5 1.5625 -6.5 C 2.046875 -6.5 2.0625 -6.4375 2.0625 -6.328125 L 2.03125 -6.125 L 0.59375 -0.390625 C 0.546875 -0.25 0.546875 -0.234375 0.546875 -0.171875 C 0.546875 0.0625 0.75 0.109375 0.84375 0.109375 C 1 0.109375 1.15625 -0.015625 1.203125 -0.15625 L 1.390625 -0.90625 L 1.609375 -1.796875 C 1.671875 -2.03125 1.734375 -2.25 1.78125 -2.46875 C 1.796875 -2.53125 1.890625 -2.859375 1.890625 -2.921875 C 1.921875 -3.015625 2.234375 -3.5625 2.578125 -3.84375 C 2.796875 -4 3.09375 -4.1875 3.53125 -4.1875 C 3.953125 -4.1875 4.0625 -3.84375 4.0625 -3.484375 C 4.0625 -2.953125 3.6875 -1.859375 3.453125 -1.25 C 3.375 -1.03125 3.3125 -0.90625 3.3125 -0.703125 C 3.3125 -0.234375 3.671875 0.109375 4.140625 0.109375 C 5.078125 0.109375 5.4375 -1.34375 5.4375 -1.421875 C 5.4375 -1.53125 5.359375 -1.53125 5.328125 -1.53125 C 5.21875 -1.53125 5.21875 -1.5 5.171875 -1.34375 C 5.03125 -0.8125 4.703125 -0.109375 4.15625 -0.109375 C 3.984375 -0.109375 3.921875 -0.203125 3.921875 -0.4375 C 3.921875 -0.6875 4 -0.921875 4.09375 -1.140625 C 4.25 -1.578125 4.703125 -2.765625 4.703125 -3.34375 C 4.703125 -3.984375 4.3125 -4.40625 3.5625 -4.40625 C 2.9375 -4.40625 2.453125 -4.09375 2.078125 -3.640625 Z M 2.859375 -6.8125 "
           style="stroke:none;" />
      </symbol>
      <symbol
         id="symbol3018"
         overflow="visible">
        <path
           id="path2206"
           d="M 1.578125 -0.78125 C 1.484375 -0.390625 1.46875 -0.3125 0.671875 -0.3125 C 0.515625 -0.3125 0.40625 -0.3125 0.40625 -0.125 C 0.40625 0 0.484375 0 0.671875 0 L 3.984375 0 C 6.046875 0 8.015625 -2.109375 8.015625 -4.28125 C 8.015625 -5.6875 7.171875 -6.8125 5.671875 -6.8125 L 2.328125 -6.8125 C 2.140625 -6.8125 2.03125 -6.8125 2.03125 -6.625 C 2.03125 -6.5 2.109375 -6.5 2.3125 -6.5 C 2.4375 -6.5 2.625 -6.484375 2.734375 -6.484375 C 2.90625 -6.453125 2.953125 -6.4375 2.953125 -6.3125 C 2.953125 -6.28125 2.953125 -6.25 2.921875 -6.125 Z M 3.734375 -6.125 C 3.828125 -6.46875 3.84375 -6.5 4.28125 -6.5 L 5.34375 -6.5 C 6.3125 -6.5 7.140625 -5.96875 7.140625 -4.65625 C 7.140625 -4.171875 6.953125 -2.53125 6.09375 -1.4375 C 5.8125 -1.0625 5.03125 -0.3125 3.796875 -0.3125 L 2.671875 -0.3125 C 2.53125 -0.3125 2.515625 -0.3125 2.453125 -0.3125 C 2.359375 -0.328125 2.328125 -0.34375 2.328125 -0.421875 C 2.328125 -0.453125 2.328125 -0.46875 2.375 -0.640625 Z M 3.734375 -6.125 "
           style="stroke:none;" />
      </symbol>
      <symbol
         id="symbol670"
         overflow="visible">
        <path
           id="path380"
           d=""
           style="stroke:none;" />
      </symbol>
      <symbol
         id="symbol9510"
         overflow="visible">
        <path
           id="path106"
           d="M 3.296875 2.390625 C 3.296875 2.359375 3.296875 2.34375 3.125 2.171875 C 1.890625 0.921875 1.5625 -0.96875 1.5625 -2.5 C 1.5625 -4.234375 1.9375 -5.96875 3.171875 -7.203125 C 3.296875 -7.328125 3.296875 -7.34375 3.296875 -7.375 C 3.296875 -7.453125 3.265625 -7.484375 3.203125 -7.484375 C 3.09375 -7.484375 2.203125 -6.796875 1.609375 -5.53125 C 1.109375 -4.4375 0.984375 -3.328125 0.984375 -2.5 C 0.984375 -1.71875 1.09375 -0.515625 1.640625 0.625 C 2.25 1.84375 3.09375 2.5 3.203125 2.5 C 3.265625 2.5 3.296875 2.46875 3.296875 2.390625 Z M 3.296875 2.390625 "
           style="stroke:none;" />
      </symbol>
      <symbol
         id="symbol5706"
         overflow="visible">
        <path
           id="path8632"
           d="M 2.875 -2.5 C 2.875 -3.265625 2.765625 -4.46875 2.21875 -5.609375 C 1.625 -6.828125 0.765625 -7.484375 0.671875 -7.484375 C 0.609375 -7.484375 0.5625 -7.4375 0.5625 -7.375 C 0.5625 -7.34375 0.5625 -7.328125 0.75 -7.140625 C 1.734375 -6.15625 2.296875 -4.578125 2.296875 -2.5 C 2.296875 -0.78125 1.9375 0.96875 0.703125 2.21875 C 0.5625 2.34375 0.5625 2.359375 0.5625 2.390625 C 0.5625 2.453125 0.609375 2.5 0.671875 2.5 C 0.765625 2.5 1.671875 1.8125 2.25 0.546875 C 2.765625 -0.546875 2.875 -1.65625 2.875 -2.5 Z M 2.875 -2.5 "
           style="stroke:none;" />
      </symbol>
      <symbol
         id="symbol1484"
         overflow="visible">
        <path
           id="path448"
           d=""
           style="stroke:none;" />
      </symbol>
      <symbol
         id="symbol2690"
         overflow="visible">
        <path
           id="path5222"
           d="M 1.171875 -0.609375 C 1.359375 -0.796875 1.484375 -0.921875 2.0625 -1.40625 C 2.21875 -1.515625 2.734375 -1.9375 2.9375 -2.125 C 3.359375 -2.546875 3.625 -2.90625 3.625 -2.984375 C 3.625 -3.078125 3.546875 -3.078125 3.515625 -3.078125 C 3.453125 -3.078125 3.421875 -3.0625 3.390625 -3 C 3.171875 -2.6875 3.03125 -2.578125 2.859375 -2.578125 C 2.78125 -2.578125 2.671875 -2.578125 2.46875 -2.78125 C 2.234375 -3.03125 2.078125 -3.078125 1.921875 -3.078125 C 1.359375 -3.078125 0.984375 -2.46875 0.984375 -2.265625 C 0.984375 -2.1875 1.046875 -2.171875 1.09375 -2.171875 C 1.1875 -2.171875 1.203125 -2.1875 1.21875 -2.265625 C 1.328125 -2.515625 1.71875 -2.53125 1.828125 -2.53125 C 2 -2.53125 2.171875 -2.484375 2.265625 -2.46875 C 2.65625 -2.390625 2.703125 -2.390625 2.875 -2.390625 C 2.703125 -2.1875 2.578125 -2.0625 1.90625 -1.546875 C 1.359375 -1.109375 1.171875 -0.9375 1.046875 -0.796875 C 0.625 -0.390625 0.421875 -0.078125 0.421875 -0.015625 C 0.421875 0.0625 0.515625 0.0625 0.546875 0.0625 C 0.609375 0.0625 0.625 0.0625 0.65625 0 C 0.84375 -0.265625 1.0625 -0.421875 1.296875 -0.421875 C 1.390625 -0.421875 1.484375 -0.421875 1.671875 -0.25 C 1.890625 -0.03125 2.03125 0.0625 2.265625 0.0625 C 3 0.0625 3.46875 -0.78125 3.46875 -1.015625 C 3.46875 -1.09375 3.390625 -1.09375 3.359375 -1.09375 C 3.265625 -1.09375 3.25 -1.0625 3.21875 -0.984375 C 3.09375 -0.640625 2.6875 -0.46875 2.34375 -0.46875 C 2.1875 -0.46875 2 -0.515625 1.828125 -0.546875 C 1.515625 -0.625 1.453125 -0.625 1.328125 -0.625 C 1.3125 -0.625 1.21875 -0.625 1.171875 -0.609375 Z M 1.171875 -0.609375 "
           style="stroke:none;" />
      </symbol>
    </g>
    <g
       id="g8431">
      <symbol
         id="symbol5841"
         overflow="visible">
        <path
           id="path8983"
           d=""
           style="stroke:none;" />
      </symbol>
      <symbol
         id="symbol7056"
         overflow="visible">
        <path
           id="path5617"
           d="M 4.40625 -3.9375 C 4.40625 -4.5625 3.875 -4.90625 3.265625 -4.90625 C 2.3125 -4.90625 1.609375 -3.828125 1.4375 -3.125 L 0.34375 1.265625 C 0.328125 1.3125 0.390625 1.359375 0.4375 1.359375 C 0.5 1.359375 0.5625 1.34375 0.578125 1.296875 L 1.03125 -0.5625 C 1.1875 -0.234375 1.515625 0.0625 2.078125 0.0625 C 3.0625 0.0625 4.15625 -0.640625 4.15625 -1.703125 C 4.15625 -2.125 3.96875 -2.53125 3.609375 -2.765625 C 3.953125 -2.984375 4.40625 -3.375 4.40625 -3.9375 Z M 3.03125 -2.78125 C 2.921875 -2.75 2.875 -2.71875 2.671875 -2.71875 C 2.5625 -2.71875 2.390625 -2.734375 2.34375 -2.765625 C 2.421875 -2.796875 2.609375 -2.8125 2.671875 -2.8125 C 2.78125 -2.8125 2.9375 -2.796875 3.03125 -2.78125 Z M 3.953125 -4.0625 C 3.953125 -3.703125 3.765625 -3.15625 3.34375 -2.90625 C 3.203125 -2.953125 3.078125 -3 2.6875 -3 C 2.4375 -3 2.09375 -2.984375 2.09375 -2.734375 C 2.09375 -2.5625 2.3125 -2.53125 2.65625 -2.53125 C 2.90625 -2.53125 3.109375 -2.578125 3.328125 -2.640625 C 3.53125 -2.484375 3.640625 -2.203125 3.640625 -1.890625 C 3.640625 -0.890625 2.953125 -0.125 2.109375 -0.125 C 1.5625 -0.125 1.1875 -0.453125 1.1875 -1.015625 C 1.1875 -1.078125 1.1875 -1.15625 1.203125 -1.21875 L 1.671875 -3.0625 C 1.828125 -3.734375 2.453125 -4.71875 3.25 -4.71875 C 3.671875 -4.71875 3.953125 -4.5 3.953125 -4.0625 Z M 3.953125 -4.0625 "
           style="stroke:none;" />
      </symbol>
      <symbol
         id="symbol5633"
         overflow="visible">
        <path
           id="path4562"
           d="M 3.8125 -0.984375 C 4.453125 -1.640625 4.703125 -2.578125 4.703125 -2.640625 C 4.703125 -2.734375 4.625 -2.734375 4.59375 -2.734375 C 4.5 -2.734375 4.5 -2.71875 4.453125 -2.5625 C 4.328125 -2.109375 4.09375 -1.671875 3.796875 -1.296875 C 3.796875 -1.40625 3.78125 -1.875 3.765625 -1.9375 C 3.65625 -2.625 3.140625 -3.078125 2.4375 -3.078125 C 1.421875 -3.078125 0.4375 -2.125 0.4375 -1.140625 C 0.4375 -0.5 0.90625 0.0625 1.703125 0.0625 C 2.34375 0.0625 2.921875 -0.21875 3.3125 -0.515625 C 3.484375 -0.015625 3.828125 0.0625 4.046875 0.0625 C 4.453125 0.0625 4.703125 -0.265625 4.703125 -0.421875 C 4.703125 -0.5 4.609375 -0.5 4.578125 -0.5 C 4.484375 -0.5 4.46875 -0.46875 4.453125 -0.4375 C 4.359375 -0.171875 4.140625 -0.125 4.0625 -0.125 C 3.96875 -0.125 3.84375 -0.125 3.8125 -0.984375 Z M 3.265625 -0.75 C 2.578125 -0.1875 2 -0.125 1.734375 -0.125 C 1.265625 -0.125 1.015625 -0.4375 1.015625 -0.90625 C 1.015625 -1.09375 1.109375 -1.859375 1.46875 -2.34375 C 1.796875 -2.765625 2.1875 -2.875 2.4375 -2.875 C 2.984375 -2.875 3.15625 -2.34375 3.203125 -1.90625 C 3.25 -1.609375 3.234375 -1.109375 3.265625 -0.75 Z M 3.265625 -0.75 "
           style="stroke:none;" />
      </symbol>
      <symbol
         id="symbol7234"
         overflow="visible">
        <path
           id="path9692"
           d=""
           style="stroke:none;" />
      </symbol>
      <symbol
         id="symbol5078"
         overflow="visible">
        <path
           id="path2319"
           d="M 0.921875 -1.640625 C 0.9375 -1.859375 0.9375 -2.265625 1.109375 -2.578125 C 1.265625 -2.84375 1.578125 -3.125 2.046875 -3.125 C 2.140625 -3.125 2.375 -3.125 2.515625 -3 C 2.4375 -2.984375 2.3125 -2.90625 2.3125 -2.734375 C 2.3125 -2.578125 2.421875 -2.46875 2.578125 -2.46875 C 2.65625 -2.46875 2.84375 -2.515625 2.84375 -2.75 C 2.84375 -3.015625 2.640625 -3.3125 2.046875 -3.3125 C 1.1875 -3.3125 0.40625 -2.609375 0.40625 -1.578125 C 0.40625 -0.390625 0.984375 0.109375 1.703125 0.109375 C 2.203125 0.109375 2.4375 -0.078125 2.609375 -0.21875 C 2.921875 -0.484375 2.984375 -0.765625 2.984375 -1.015625 C 2.984375 -1.328125 2.890625 -1.5625 2.625 -1.796875 C 2.40625 -2 2.1875 -2.140625 1.75 -2.140625 C 1.453125 -2.140625 1.140625 -2 0.921875 -1.640625 Z M 1.703125 -0.09375 C 0.9375 -0.09375 0.9375 -0.921875 0.9375 -1.125 C 0.9375 -1.515625 1.21875 -1.96875 1.734375 -1.96875 C 2 -1.96875 2.15625 -1.90625 2.3125 -1.703125 C 2.453125 -1.515625 2.46875 -1.3125 2.46875 -1.03125 C 2.46875 -0.734375 2.46875 -0.546875 2.296875 -0.34375 C 2.15625 -0.1875 1.984375 -0.09375 1.703125 -0.09375 Z M 1.703125 -0.09375 "
           style="stroke:none;" />
      </symbol>
      <symbol
         id="symbol5351"
         overflow="visible">
        <path
           id="path9007"
           d="M 2.9375 -0.96875 L 2.71875 -0.96875 C 2.71875 -0.875 2.65625 -0.5625 2.578125 -0.515625 C 2.546875 -0.484375 2.125 -0.484375 2.046875 -0.484375 L 1.078125 -0.484375 C 1.40625 -0.71875 1.765625 -1 2.0625 -1.203125 C 2.515625 -1.515625 2.9375 -1.796875 2.9375 -2.328125 C 2.9375 -2.96875 2.328125 -3.3125 1.625 -3.3125 C 0.953125 -3.3125 0.453125 -2.9375 0.453125 -2.4375 C 0.453125 -2.1875 0.671875 -2.140625 0.75 -2.140625 C 0.875 -2.140625 1.03125 -2.234375 1.03125 -2.4375 C 1.03125 -2.609375 0.90625 -2.71875 0.75 -2.71875 C 0.890625 -2.953125 1.1875 -3.09375 1.515625 -3.09375 C 2 -3.09375 2.40625 -2.8125 2.40625 -2.328125 C 2.40625 -1.90625 2.109375 -1.578125 1.734375 -1.265625 L 0.515625 -0.234375 C 0.46875 -0.1875 0.453125 -0.1875 0.453125 -0.15625 L 0.453125 0 L 2.765625 0 Z M 2.9375 -0.96875 "
           style="stroke:none;" />
      </symbol>
      <symbol
         id="symbol5816"
         overflow="visible">
        <path
           id="path6233"
           d="M 1.640625 -1.65625 C 2.109375 -1.65625 2.40625 -1.359375 2.40625 -0.875 C 2.40625 -0.359375 2.09375 -0.09375 1.65625 -0.09375 C 1.59375 -0.09375 1 -0.09375 0.75 -0.359375 C 0.953125 -0.390625 1.015625 -0.53125 1.015625 -0.65625 C 1.015625 -0.84375 0.875 -0.96875 0.703125 -0.96875 C 0.546875 -0.96875 0.40625 -0.859375 0.40625 -0.640625 C 0.40625 -0.125 0.984375 0.109375 1.671875 0.109375 C 2.484375 0.109375 2.984375 -0.390625 2.984375 -0.875 C 2.984375 -1.28125 2.625 -1.625 2.0625 -1.75 C 2.65625 -1.953125 2.8125 -2.328125 2.8125 -2.609375 C 2.8125 -3.015625 2.3125 -3.3125 1.6875 -3.3125 C 1.0625 -3.3125 0.578125 -3.0625 0.578125 -2.609375 C 0.578125 -2.375 0.765625 -2.3125 0.859375 -2.3125 C 1 -2.3125 1.140625 -2.421875 1.140625 -2.609375 C 1.140625 -2.71875 1.078125 -2.859375 0.90625 -2.890625 C 1.109375 -3.109375 1.5625 -3.125 1.671875 -3.125 C 2.03125 -3.125 2.28125 -2.953125 2.28125 -2.609375 C 2.28125 -2.3125 2.09375 -1.859375 1.578125 -1.828125 C 1.4375 -1.828125 1.421875 -1.828125 1.28125 -1.8125 C 1.234375 -1.8125 1.171875 -1.8125 1.171875 -1.734375 C 1.171875 -1.65625 1.21875 -1.65625 1.3125 -1.65625 Z M 1.640625 -1.65625 "
           style="stroke:none;" />
      </symbol>
      <symbol
         id="symbol1009"
         overflow="visible">
        <path
           id="path1426"
           d=""
           style="stroke:none;" />
      </symbol>
      <symbol
         id="symbol1194"
         overflow="visible">
        <path
           id="path5791"
           d="M 2.46875 -5.21875 C 1.15625 -4.296875 0.796875 -2.8125 0.796875 -1.75 C 0.796875 -0.765625 1.09375 0.765625 2.46875 1.734375 C 2.53125 1.734375 2.609375 1.734375 2.609375 1.65625 C 2.609375 1.609375 2.59375 1.59375 2.546875 1.546875 C 1.609375 0.703125 1.28125 -0.46875 1.28125 -1.734375 C 1.28125 -3.625 2 -4.546875 2.5625 -5.0625 C 2.59375 -5.09375 2.609375 -5.109375 2.609375 -5.140625 C 2.609375 -5.21875 2.53125 -5.21875 2.46875 -5.21875 Z M 2.46875 -5.21875 "
           style="stroke:none;" />
      </symbol>
      <symbol
         id="symbol9608"
         overflow="visible">
        <path
           id="path8283"
           d="M 3.515625 -1.265625 L 3.28125 -1.265625 C 3.265625 -1.109375 3.1875 -0.703125 3.09375 -0.640625 C 3.046875 -0.59375 2.515625 -0.59375 2.40625 -0.59375 L 1.125 -0.59375 C 1.859375 -1.234375 2.109375 -1.4375 2.515625 -1.765625 C 3.03125 -2.171875 3.515625 -2.609375 3.515625 -3.265625 C 3.515625 -4.109375 2.78125 -4.625 1.890625 -4.625 C 1.03125 -4.625 0.4375 -4.015625 0.4375 -3.375 C 0.4375 -3.03125 0.734375 -2.984375 0.8125 -2.984375 C 0.96875 -2.984375 1.171875 -3.109375 1.171875 -3.359375 C 1.171875 -3.484375 1.125 -3.734375 0.765625 -3.734375 C 0.984375 -4.21875 1.453125 -4.375 1.78125 -4.375 C 2.484375 -4.375 2.84375 -3.828125 2.84375 -3.265625 C 2.84375 -2.65625 2.40625 -2.1875 2.1875 -1.9375 L 0.515625 -0.265625 C 0.4375 -0.203125 0.4375 -0.1875 0.4375 0 L 3.3125 0 Z M 3.515625 -1.265625 "
           style="stroke:none;" />
      </symbol>
      <symbol
         id="symbol5348"
         overflow="visible">
        <path
           id="path4324"
           d="M 0.625 -5.21875 C 0.578125 -5.21875 0.5 -5.21875 0.5 -5.140625 C 0.5 -5.109375 0.515625 -5.09375 0.5625 -5.03125 C 1.15625 -4.484375 1.828125 -3.546875 1.828125 -1.75 C 1.828125 -0.296875 1.375 0.8125 0.625 1.484375 C 0.5 1.609375 0.5 1.609375 0.5 1.65625 C 0.5 1.6875 0.515625 1.734375 0.578125 1.734375 C 0.671875 1.734375 1.328125 1.28125 1.796875 0.40625 C 2.09375 -0.171875 2.296875 -0.921875 2.296875 -1.734375 C 2.296875 -2.71875 2 -4.25 0.625 -5.21875 Z M 0.625 -5.21875 "
           style="stroke:none;" />
      </symbol>
      <symbol
         id="symbol5889"
         overflow="visible">
        <path
           id="path1556"
           d="M 1.90625 -2.328125 C 2.453125 -2.328125 2.84375 -1.953125 2.84375 -1.203125 C 2.84375 -0.34375 2.328125 -0.078125 1.9375 -0.078125 C 1.65625 -0.078125 1.03125 -0.15625 0.75 -0.578125 C 1.078125 -0.578125 1.15625 -0.8125 1.15625 -0.96875 C 1.15625 -1.1875 0.984375 -1.34375 0.765625 -1.34375 C 0.578125 -1.34375 0.375 -1.21875 0.375 -0.9375 C 0.375 -0.28125 1.09375 0.140625 1.9375 0.140625 C 2.90625 0.140625 3.578125 -0.515625 3.578125 -1.203125 C 3.578125 -1.75 3.140625 -2.296875 2.375 -2.453125 C 3.09375 -2.71875 3.359375 -3.234375 3.359375 -3.671875 C 3.359375 -4.21875 2.734375 -4.625 1.953125 -4.625 C 1.1875 -4.625 0.59375 -4.25 0.59375 -3.6875 C 0.59375 -3.453125 0.75 -3.328125 0.953125 -3.328125 C 1.171875 -3.328125 1.3125 -3.484375 1.3125 -3.671875 C 1.3125 -3.875 1.171875 -4.03125 0.953125 -4.046875 C 1.203125 -4.34375 1.671875 -4.421875 1.9375 -4.421875 C 2.25 -4.421875 2.6875 -4.265625 2.6875 -3.671875 C 2.6875 -3.375 2.59375 -3.046875 2.40625 -2.84375 C 2.1875 -2.578125 1.984375 -2.5625 1.640625 -2.53125 C 1.46875 -2.515625 1.453125 -2.515625 1.421875 -2.515625 C 1.40625 -2.515625 1.34375 -2.5 1.34375 -2.421875 C 1.34375 -2.328125 1.40625 -2.328125 1.53125 -2.328125 Z M 1.90625 -2.328125 "
           style="stroke:none;" />
      </symbol>
      <symbol
         id="symbol501"
         overflow="visible">
        <path
           id="path7992"
           d=""
           style="stroke:none;" />
      </symbol>
      <symbol
         id="symbol4939"
         overflow="visible">
        <path
           id="path8208"
           d="M 5.1875 -1.578125 C 5.296875 -1.578125 5.46875 -1.578125 5.46875 -1.734375 C 5.46875 -1.921875 5.296875 -1.921875 5.1875 -1.921875 L 1.03125 -1.921875 C 0.921875 -1.921875 0.75 -1.921875 0.75 -1.75 C 0.75 -1.578125 0.90625 -1.578125 1.03125 -1.578125 Z M 5.1875 -1.578125 "
           style="stroke:none;" />
      </symbol>
      <symbol
         id="symbol7952"
         overflow="visible">
        <path
           id="path9318"
           d=""
           style="stroke:none;" />
      </symbol>
      <symbol
         id="symbol7412"
         overflow="visible">
        <path
           id="path1290"
           d="M 6.5625 -2.296875 C 6.734375 -2.296875 6.921875 -2.296875 6.921875 -2.5 C 6.921875 -2.6875 6.734375 -2.6875 6.5625 -2.6875 L 1.171875 -2.6875 C 1 -2.6875 0.828125 -2.6875 0.828125 -2.5 C 0.828125 -2.296875 1 -2.296875 1.171875 -2.296875 Z M 6.5625 -2.296875 "
           style="stroke:none;" />
      </symbol>
      <symbol
         id="symbol2678"
         overflow="visible">
        <path
           id="path6336"
           d=""
           style="stroke:none;" />
      </symbol>
      <symbol
         id="symbol7599"
         overflow="visible">
        <path
           id="path3790"
           d="M 5.140625 17.421875 C 5.15625 17.4375 5.25 17.53125 5.25 17.53125 L 5.46875 17.53125 C 5.5 17.53125 5.578125 17.53125 5.578125 17.4375 C 5.578125 17.390625 5.5625 17.375 5.546875 17.34375 C 5.1875 16.984375 4.640625 16.4375 4.03125 15.34375 C 2.953125 13.421875 2.546875 10.96875 2.546875 8.578125 C 2.546875 4.140625 3.8125 1.546875 5.546875 -0.21875 C 5.578125 -0.25 5.578125 -0.28125 5.578125 -0.296875 C 5.578125 -0.40625 5.515625 -0.40625 5.390625 -0.40625 C 5.265625 -0.40625 5.25 -0.40625 5.15625 -0.3125 C 4.203125 0.5 3.140625 1.890625 2.453125 3.984375 C 2.03125 5.296875 1.796875 6.90625 1.796875 8.5625 C 1.796875 10.921875 2.21875 13.59375 3.78125 15.90625 C 4.0625 16.296875 4.421875 16.703125 4.421875 16.71875 C 4.53125 16.84375 4.671875 17 4.75 17.0625 Z M 5.140625 17.421875 "
           style="stroke:none;" />
      </symbol>
      <symbol
         id="symbol7759"
         overflow="visible">
        <path
           id="path6962"
           d="M 4.140625 8.5625 C 4.140625 5.703125 3.484375 2.65625 1.515625 0.421875 C 1.375 0.265625 1 -0.125 0.765625 -0.34375 C 0.703125 -0.40625 0.671875 -0.40625 0.546875 -0.40625 C 0.453125 -0.40625 0.359375 -0.40625 0.359375 -0.296875 C 0.359375 -0.265625 0.40625 -0.21875 0.421875 -0.203125 C 0.75 0.15625 1.296875 0.703125 1.90625 1.796875 C 2.984375 3.703125 3.390625 6.171875 3.390625 8.5625 C 3.390625 12.890625 2.1875 15.53125 0.40625 17.359375 C 0.375 17.375 0.359375 17.40625 0.359375 17.4375 C 0.359375 17.53125 0.453125 17.53125 0.546875 17.53125 C 0.671875 17.53125 0.703125 17.53125 0.78125 17.453125 C 1.734375 16.640625 2.796875 15.25 3.484375 13.15625 C 3.921875 11.78125 4.140625 10.171875 4.140625 8.5625 Z M 4.140625 8.5625 "
           style="stroke:none;" />
      </symbol>
    </g>
  </defs>
  <sodipodi:namedview
     inkscape:window-maximized="1"
     inkscape:window-y="-8"
     inkscape:window-x="-8"
     inkscape:window-height="1014"
     inkscape:window-width="1920"
     inkscape:snap-midpoints="true"
     inkscape:snap-smooth-nodes="true"
     inkscape:snap-intersection-paths="true"
     inkscape:object-nodes="true"
     inkscape:object-paths="true"
     showgrid="false"
     inkscape:document-rotation="0"
     inkscape:current-layer="layer1"
     inkscape:document-units="mm"
     inkscape:cy="288.39429"
     inkscape:cx="403.40132"
     inkscape:zoom="0.98994949"
     inkscape:pageshadow="2"
     inkscape:pageopacity="0.0"
     borderopacity="1.0"
     bordercolor="#666666"
     pagecolor="#ffffff"
     id="base" />
  <metadata
     id="metadata1150">
    <rdf:RDF>
      <cc:Work
         rdf:about="">
        <dc:format>image/svg+xml</dc:format>
        <dc:type
           rdf:resource="http://purl.org/dc/dcmitype/StillImage" />
        <dc:title></dc:title>
      </cc:Work>
    </rdf:RDF>
  </metadata>
  <g
     id="layer1"
     inkscape:groupmode="layer"
     inkscape:label="Layer 1">
    <path
       id="path1716"
       d="M 57.997486,22.985179 V 101.02788"
       style="fill:none;stroke:#000000;stroke-width:0.52916667;stroke-linecap:butt;stroke-linejoin:miter;stroke-opacity:1;stroke-miterlimit:4;stroke-dasharray:none" />
    <path
       id="path1718"
       d="M 41.961315,78.577241 H 162.76714"
       style="fill:none;stroke:#000000;stroke-width:0.52916667;stroke-linecap:butt;stroke-linejoin:miter;stroke-opacity:1;stroke-miterlimit:4;stroke-dasharray:none" />
    <path
       sodipodi:nodetypes="czc"
       id="path1720"
       d="m 57.997486,53.453905 c 0,0 20.64109,44.233107 44.233104,44.233107 23.59201,0 55.85933,-55.859332 55.85933,-55.859332"
       style="fill:none;stroke:#000000;stroke-width:0.79375;stroke-linecap:butt;stroke-linejoin:miter;stroke-opacity:1;stroke-miterlimit:4;stroke-dasharray:none" />
    <g
       inkscape:label=""
       transform="matrix(0.53061419,0,0,0.53061419,82.838804,40.797763)"
       id="g1748">
      <g
         id="g4485">
        <g
           id="g3553"
           style="fill:#000000;fill-opacity:1">
          <use
             height="100%"
             width="100%"
             id="use6283"
             y="81.962997"
             x="91.925003"
             xlink:href="#symbol7801" />
        </g>
        <g
           id="g9787"
           style="fill:#000000;fill-opacity:1">
          <use
             height="100%"
             width="100%"
             id="use4617"
             y="83.457001"
             x="100.173"
             xlink:href="#symbol98" />
        </g>
        <g
           id="g5508"
           style="fill:#000000;fill-opacity:1">
          <use
             height="100%"
             width="100%"
             id="use2889"
             y="83.457001"
             x="106.289"
             xlink:href="#symbol8568" />
        </g>
      </g>
    </g>
    <g
       inkscape:label=""
       transform="matrix(0.53061419,0,0,0.53061419,17.782789,41.000889)"
       id="g1820">
      <g
         id="g6927">
        <g
           id="g7251"
           style="fill:#000000;fill-opacity:1">
          <use
             height="100%"
             width="100%"
             id="use1611"
             y="81.962997"
             x="91.925003"
             xlink:href="#symbol316" />
        </g>
        <g
           id="g9891"
           style="fill:#000000;fill-opacity:1">
          <use
             height="100%"
             width="100%"
             id="use9523"
             y="83.457001"
             x="100.173"
             xlink:href="#symbol6384" />
        </g>
        <g
           id="g3043"
           style="fill:#000000;fill-opacity:1">
          <use
             height="100%"
             width="100%"
             id="use6001"
             y="83.457001"
             x="106.4"
             xlink:href="#symbol7887" />
        </g>
      </g>
    </g>
    <g
       inkscape:label=""
       transform="matrix(0.53061419,0,0,0.53061419,28.550197,31.785947)"
       id="g1926">
      <g
         id="g2611">
        <g
           id="g1637"
           style="fill:#000000;fill-opacity:1">
          <use
             height="100%"
             width="100%"
             id="use1679"
             y="78.217003"
             x="98.864998"
             xlink:href="#symbol623" />
        </g>
        <g
           id="g9482"
           style="fill:#000000;fill-opacity:1">
          <use
             height="100%"
             width="100%"
             id="use2836"
             y="75.209999"
             x="103.741"
             xlink:href="#symbol2522" />
        </g>
        <path
           id="path3753"
           transform="matrix(1,0,0,-1,93.121,80.171)"
           d="M 9.375e-5,-8.75e-4 H 20.254"
           style="fill:none;stroke:#000000;stroke-width:0.398;stroke-linecap:butt;stroke-linejoin:miter;stroke-miterlimit:10;stroke-opacity:1" />
        <g
           id="g115"
           style="fill:#000000;fill-opacity:1">
          <use
             height="100%"
             width="100%"
             id="use248"
             y="86.097"
             x="93.121002"
             xlink:href="#symbol623" />
        </g>
        <g
           id="g8865"
           style="fill:#000000;fill-opacity:1">
          <use
             height="100%"
             width="100%"
             id="use2001"
             y="86.097"
             x="97.997002"
             xlink:href="#symbol6234" />
        </g>
        <g
           id="g7789"
           style="fill:#000000;fill-opacity:1">
          <use
             height="100%"
             width="100%"
             id="use3513"
             y="86.097"
             x="104.223"
             xlink:href="#symbol6588" />
        </g>
        <g
           id="g6028"
           style="fill:#000000;fill-opacity:1">
          <use
             height="100%"
             width="100%"
             id="use8690"
             y="86.097"
             x="108.195"
             xlink:href="#symbol2038" />
        </g>
      </g>
    </g>
    <g
       inkscape:label=""
       transform="matrix(0.53058999,0,0,0.53058999,43.514181,28.86335)"
       id="g2100">
      <g
         id="g5525">
        <g
           id="g2927"
           style="fill:#000000;fill-opacity:1">
          <use
             height="100%"
             width="100%"
             id="use1269"
             y="80.248001"
             x="93.121002"
             xlink:href="#symbol762" />
        </g>
        <g
           id="g5898"
           style="fill:#000000;fill-opacity:1">
          <use
             height="100%"
             width="100%"
             id="use7363"
             y="77.241997"
             x="97.997002"
             xlink:href="#symbol9764" />
        </g>
        <g
           id="g5544"
           style="fill:#000000;fill-opacity:1">
          <use
             height="100%"
             width="100%"
             id="use605"
             y="80.248001"
             x="101.885"
             xlink:href="#symbol9865" />
          <use
             height="100%"
             width="100%"
             id="use7871"
             y="80.248001"
             x="104.9981"
             xlink:href="#symbol809" />
        </g>
        <g
           id="g9460"
           style="fill:#000000;fill-opacity:1">
          <use
             height="100%"
             width="100%"
             id="use2134"
             y="80.248001"
             x="108.969"
             xlink:href="#symbol762" />
        </g>
        <g
           id="g9640"
           style="fill:#000000;fill-opacity:1">
          <use
             height="100%"
             width="100%"
             id="use3738"
             y="80.248001"
             x="113.845"
             xlink:href="#symbol3702" />
        </g>
        <g
           id="g7163"
           style="fill:#000000;fill-opacity:1">
          <use
             height="100%"
             width="100%"
             id="use8373"
             y="80.248001"
             x="120.072"
             xlink:href="#symbol1944" />
        </g>
        <g
           id="g6462"
           style="fill:#000000;fill-opacity:1">
          <use
             height="100%"
             width="100%"
             id="use2258"
             y="80.248001"
             x="124.043"
             xlink:href="#symbol4653" />
        </g>
        <g
           id="g4448"
           style="fill:#000000;fill-opacity:1">
          <use
             height="100%"
             width="100%"
             id="use430"
             y="80.248001"
             x="129.22301"
             xlink:href="#symbol6602" />
        </g>
        <path
           id="path670"
           transform="matrix(1,0,0,-1,93.121,82.589)"
           d="M 9.375e-5,-8.4375e-4 H 39.214938"
           style="fill:none;stroke:#000000;stroke-width:0.398;stroke-linecap:butt;stroke-linejoin:miter;stroke-miterlimit:10;stroke-opacity:1" />
        <g
           id="g8771"
           style="fill:#000000;fill-opacity:1">
          <use
             height="100%"
             width="100%"
             id="use268"
             y="88.515999"
             x="102.602"
             xlink:href="#symbol762" />
        </g>
        <g
           id="g7998"
           style="fill:#000000;fill-opacity:1">
          <use
             height="100%"
             width="100%"
             id="use2847"
             y="88.515999"
             x="107.478"
             xlink:href="#symbol3702" />
        </g>
        <g
           id="g4815"
           style="fill:#000000;fill-opacity:1">
          <use
             height="100%"
             width="100%"
             id="use9396"
             y="88.515999"
             x="113.704"
             xlink:href="#symbol1944" />
        </g>
        <g
           id="g2300"
           style="fill:#000000;fill-opacity:1">
          <use
             height="100%"
             width="100%"
             id="use3244"
             y="88.515999"
             x="117.676"
             xlink:href="#symbol4653" />
        </g>
        <g
           id="g3611"
           style="fill:#000000;fill-opacity:1">
          <use
             height="100%"
             width="100%"
             id="use717"
             y="76.494003"
             x="133.53101"
             xlink:href="#symbol1944" />
        </g>
      </g>
    </g>
    <g
       inkscape:label=""
       transform="matrix(0.53061419,0,0,0.53061419,110.52308,41.000889)"
       id="g2311">
      <g
         id="g1017">
        <g
           id="g1420"
           style="fill:#000000;fill-opacity:1">
          <use
             height="100%"
             width="100%"
             id="use3384"
             y="81.962997"
             x="91.925003"
             xlink:href="#symbol6606" />
        </g>
        <g
           id="g893"
           style="fill:#000000;fill-opacity:1">
          <use
             height="100%"
             width="100%"
             id="use8623"
             y="83.457001"
             x="100.173"
             xlink:href="#symbol3530" />
        </g>
      </g>
    </g>
    <g
       inkscape:label=""
       transform="matrix(0.53061419,0,0,0.53061419,-6.5379921,-12.583725)"
       id="g2512">
      <g
         id="g1768">
        <g
           id="g7796"
           style="fill:#000000;fill-opacity:1">
          <use
             height="100%"
             width="100%"
             id="use762"
             y="81.962997"
             x="91.925003"
             xlink:href="#symbol5729" />
        </g>
        <g
           id="g1735"
           style="fill:#000000;fill-opacity:1">
          <use
             height="100%"
             width="100%"
             id="use1079"
             y="81.962997"
             x="97.665001"
             xlink:href="#symbol9510" />
        </g>
        <g
           id="g2648"
           style="fill:#000000;fill-opacity:1">
          <use
             height="100%"
             width="100%"
             id="use916"
             y="81.962997"
             x="101.54"
             xlink:href="#symbol3018" />
        </g>
        <g
           id="g2561"
           style="fill:#000000;fill-opacity:1">
          <use
             height="100%"
             width="100%"
             id="use5035"
             y="83.457001"
             x="109.788"
             xlink:href="#symbol2690" />
        </g>
        <g
           id="g2568"
           style="fill:#000000;fill-opacity:1">
          <use
             height="100%"
             width="100%"
             id="use3765"
             y="81.962997"
             x="114.378"
             xlink:href="#symbol5706" />
        </g>
      </g>
    </g>
    <path
       id="path2545"
       d="M 102.23059,97.68701 V 78.577241"
       style="fill:none;stroke:#000000;stroke-width:0.26458299;stroke-linecap:butt;stroke-linejoin:miter;stroke-opacity:1;stroke-miterlimit:4;stroke-dasharray:1.58749792,1.58749792;stroke-dashoffset:0" />
    <path
       style="fill:none;stroke:#000000;stroke-width:0.26458333;stroke-linecap:butt;stroke-linejoin:miter;stroke-miterlimit:4;stroke-dasharray:1.5875,1.5875;stroke-dashoffset:0;stroke-opacity:1"
       d="M 84.825709,90.342666 V 78.577241"
       id="path2547" />
    <g
       inkscape:label=""
       transform="matrix(0.4755068,0,0,0.4755068,-36.02347,57.448729)"
       id="g2832">
      <g
         id="g7734">
        <g
           id="g6579"
           style="fill:#000000;fill-opacity:1">
          <use
             height="100%"
             width="100%"
             id="use4052"
             y="81.043999"
             x="103.923"
             xlink:href="#symbol7056" />
        </g>
        <g
           id="g4755"
           style="fill:#000000;fill-opacity:1">
          <use
             height="100%"
             width="100%"
             id="use8333"
             y="78.038002"
             x="108.799"
             xlink:href="#symbol5078" />
        </g>
        <path
           id="path7878"
           transform="matrix(1,0,0,-1,93.121,82.998)"
           d="M 9.375e-5,0.00190625 H 30.367281"
           style="fill:none;stroke:#000000;stroke-width:0.398;stroke-linecap:butt;stroke-linejoin:miter;stroke-miterlimit:10;stroke-opacity:1" />
        <g
           id="g5405"
           style="fill:#000000;fill-opacity:1">
          <use
             height="100%"
             width="100%"
             id="use4566"
             y="88.924004"
             x="93.121002"
             xlink:href="#symbol1194" />
        </g>
        <g
           id="g8675"
           style="fill:#000000;fill-opacity:1">
          <use
             height="100%"
             width="100%"
             id="use5497"
             y="88.924004"
             x="96.234001"
             xlink:href="#symbol7056" />
        </g>
        <g
           id="g9458"
           style="fill:#000000;fill-opacity:1">
          <use
             height="100%"
             width="100%"
             id="use2409"
             y="88.924004"
             x="101.11"
             xlink:href="#symbol4939" />
        </g>
        <g
           id="g6205"
           style="fill:#000000;fill-opacity:1">
          <use
             height="100%"
             width="100%"
             id="use2263"
             y="88.924004"
             x="107.337"
             xlink:href="#symbol9608" />
        </g>
        <g
           id="g206"
           style="fill:#000000;fill-opacity:1">
          <use
             height="100%"
             width="100%"
             id="use1985"
             y="88.924004"
             x="111.308"
             xlink:href="#symbol5633" />
        </g>
        <g
           id="g5225"
           style="fill:#000000;fill-opacity:1">
          <use
             height="100%"
             width="100%"
             id="use1849"
             y="88.924004"
             x="116.487"
             xlink:href="#symbol5348" />
        </g>
        <g
           id="g6063"
           style="fill:#000000;fill-opacity:1">
          <use
             height="100%"
             width="100%"
             id="use2053"
             y="86.931999"
             x="119.601"
             xlink:href="#symbol5351" />
        </g>
        <g
           id="g3204"
           style="fill:#000000;fill-opacity:1">
          <use
             height="100%"
             width="100%"
             id="use7944"
             y="85.488998"
             x="126.898"
             xlink:href="#symbol7412" />
        </g>
        <g
           id="g3596"
           style="fill:#000000;fill-opacity:1">
          <use
             height="100%"
             width="100%"
             id="use3527"
             y="74.43"
             x="136.86099"
             xlink:href="#symbol7599" />
        </g>
        <g
           id="g2325"
           style="fill:#000000;fill-opacity:1">
          <use
             height="100%"
             width="100%"
             id="use3437"
             y="80.656998"
             x="144.006"
             xlink:href="#symbol7056" />
        </g>
        <g
           id="g6572"
           style="fill:#000000;fill-opacity:1">
          <use
             height="100%"
             width="100%"
             id="use1025"
             y="77.650002"
             x="148.882"
             xlink:href="#symbol5816" />
        </g>
        <g
           id="g5367"
           style="fill:#000000;fill-opacity:1">
          <use
             height="100%"
             width="100%"
             id="use8731"
             y="80.656998"
             x="152.77"
             xlink:href="#symbol1194" />
          <use
             height="100%"
             width="100%"
             id="use5472"
             y="80.656998"
             x="155.8831"
             xlink:href="#symbol5889" />
        </g>
        <g
           id="g2127"
           style="fill:#000000;fill-opacity:1">
          <use
             height="100%"
             width="100%"
             id="use7824"
             y="80.656998"
             x="159.855"
             xlink:href="#symbol7056" />
        </g>
        <g
           id="g4480"
           style="fill:#000000;fill-opacity:1">
          <use
             height="100%"
             width="100%"
             id="use2074"
             y="80.656998"
             x="164.731"
             xlink:href="#symbol4939" />
        </g>
        <g
           id="g8670"
           style="fill:#000000;fill-opacity:1">
          <use
             height="100%"
             width="100%"
             id="use8974"
             y="80.656998"
             x="170.957"
             xlink:href="#symbol9608" />
        </g>
        <g
           id="g2220"
           style="fill:#000000;fill-opacity:1">
          <use
             height="100%"
             width="100%"
             id="use5322"
             y="80.656998"
             x="174.929"
             xlink:href="#symbol5633" />
        </g>
        <g
           id="g8520"
           style="fill:#000000;fill-opacity:1">
          <use
             height="100%"
             width="100%"
             id="use3989"
             y="80.656998"
             x="180.108"
             xlink:href="#symbol5348" />
        </g>
        <path
           id="path5842"
           transform="matrix(1,0,0,-1,144.006,82.998)"
           d="M 0.0018125,0.00190625 H 39.216656"
           style="fill:none;stroke:#000000;stroke-width:0.398;stroke-linecap:butt;stroke-linejoin:miter;stroke-miterlimit:10;stroke-opacity:1" />
        <g
           id="g7021"
           style="fill:#000000;fill-opacity:1">
          <use
             height="100%"
             width="100%"
             id="use5350"
             y="88.924004"
             x="148.42999"
             xlink:href="#symbol1194" />
        </g>
        <g
           id="g1579"
           style="fill:#000000;fill-opacity:1">
          <use
             height="100%"
             width="100%"
             id="use7705"
             y="88.924004"
             x="151.543"
             xlink:href="#symbol7056" />
        </g>
        <g
           id="g7043"
           style="fill:#000000;fill-opacity:1">
          <use
             height="100%"
             width="100%"
             id="use5611"
             y="88.924004"
             x="156.41901"
             xlink:href="#symbol4939" />
        </g>
        <g
           id="g2373"
           style="fill:#000000;fill-opacity:1">
          <use
             height="100%"
             width="100%"
             id="use4741"
             y="88.924004"
             x="162.646"
             xlink:href="#symbol9608" />
        </g>
        <g
           id="g9799"
           style="fill:#000000;fill-opacity:1">
          <use
             height="100%"
             width="100%"
             id="use3281"
             y="88.924004"
             x="166.617"
             xlink:href="#symbol5633" />
        </g>
        <g
           id="g8691"
           style="fill:#000000;fill-opacity:1">
          <use
             height="100%"
             width="100%"
             id="use6521"
             y="88.924004"
             x="171.79601"
             xlink:href="#symbol5348" />
        </g>
        <g
           id="g1911"
           style="fill:#000000;fill-opacity:1">
          <use
             height="100%"
             width="100%"
             id="use467"
             y="86.931999"
             x="174.91"
             xlink:href="#symbol5351" />
        </g>
        <g
           id="g840"
           style="fill:#000000;fill-opacity:1">
          <use
             height="100%"
             width="100%"
             id="use6511"
             y="74.43"
             x="184.41701"
             xlink:href="#symbol7759" />
        </g>
        <g
           id="g7824"
           style="fill:#000000;fill-opacity:1">
          <use
             height="100%"
             width="100%"
             id="use1068"
             y="76.494003"
             x="190.367"
             xlink:href="#symbol9608" />
        </g>
      </g>
    </g>
    <path
       id="path2938"
       d="M 102.23059,97.687012 H 58.030227"
       style="fill:none;stroke:#000000;stroke-width:0.26458333;stroke-linecap:butt;stroke-linejoin:miter;stroke-miterlimit:4;stroke-dasharray:1.5875,1.5875;stroke-dashoffset:0;stroke-opacity:1" />
  </g>
</svg>
